<?xml version="1.0" encoding="UTF-8"?>
<svg id="Layer_1" xmlns="http://www.w3.org/2000/svg" version="1.1" viewBox="0 0 1024 1536">
  <!-- Generator: Adobe Illustrator 29.0.1, SVG Export Plug-In . SVG Version: 2.1.0 Build 192)  -->
  <defs>
    <style>
      .st0 {
        fill: #fe9288;
      }

      .st1 {
        fill: #fea9a2;
      }

      .st2 {
        fill: #febfb8;
      }

      .st3 {
        fill: #fefcfb;
      }

      .st4 {
        fill: #fea8a1;
      }

      .st5 {
        fill: #febdb6;
      }

      .st6 {
        fill: #fe2102;
      }

      .st7 {
        fill: #fe2400;
      }

      .st8 {
        fill: #fe2205;
      }
    </style>
  </defs>
  <path class="st7" d="M492.5,487c33.1,13.2,59,37.8,73.6,70.3,33.9,78.3,34.9,173.5,4.6,252.9-.4,1-.7,1.9-1.1,2.9-15.1,39.5-38.3,76.9-66.1,108.7-1,1.1-1.9,2.2-2.9,3.3-4.4,5.2-9,10.1-13.8,14.9-.8.8-1.6,1.6-2.4,2.4-6.3,6.3-12.6,12.4-19.2,18.4-.9.8-1.8,1.6-2.6,2.3-11.1,10.1-22.5,20-34.4,29.2-1.2.9-2.4,1.9-3.6,2.8-13.7,10.7-27.9,19.6-43,28.1-1,.6-2,1.1-3,1.7-1,.6-2,1.1-2.9,1.6-.9.5-1.8,1-2.7,1.5q-2.4,1.3-4.4,2.1c-.7-.3-1.3-.7-2-1,27.7-46.2,47.8-97.5,62.3-149.3.3-1.1.6-2.3.9-3.4,1.8-6.7,3.5-13.3,3.8-20.3-.7-.7-1.3-1.3-2-2q-3-.3-6,0-2.2,1.9-3,5c-.5,2-1,4-1.6,6-.2.8-.4,1.5-.6,2.2-10.3,38.9-23.4,77.9-41.4,114-1.2,2.3-2.4,4.7-3.5,7-13,27-25.6,51.6-53.4,65-1.1.5-2.1,1-3.1,1.5-7.8,3.7-15.5,7.4-23.3,11-1.1.5-2.1,1-3.1,1.4-6.6,3.1-13.1,5.8-20,7.9q0-3,1.1-5.8c.8-1.8,1.6-3.5,2.3-5.3.3-.7.6-1.3.8-1.9,11.3-25.7,21-51.9,29.9-78.5.3-.8.5-1.6.8-2.4,5.9-17.7,11.1-35.6,15.9-53.6.3-1.1.6-2.1.8-3.2.8-3,1.6-6.1,2.4-9.1.2-1,.5-1.9.7-2.8q.4-1.4.7-2.7t.6-2.5c.8-3.1.8-5.1-.2-8.2-2.4-.3-4.7-.7-7-1-1.9,2.2-3,3.9-3.9,6.6-.3,1-.5,2.1-.7,3.1-.3,1.2-.6,2.4-.9,3.6-.8,3.4-1.7,6.8-2.5,10.2-.2.8-.4,1.5-.6,2.2-9.2,36.1-20.9,71.3-34.6,105.9-.3.9-.7,1.7-1,2.6-3.6,9-7.2,17.9-11.3,26.7-5.9,12.5-10.4,24.4-24.2,29.4-1.1.4-2.1.7-3.1,1.1-9.5,3.3-19,6.3-28.6,9.2-.7.2-1.4.4-2,.6-7.4,2.2-14.7,4.4-22.4,5,1.3-7,3.4-13.6,5.7-20.3,11-32,21.3-64.3,29.4-97.2,1.1-4.5,2.2-8.9,3.4-13.4,1.6-5.9,3.1-11.8,4.5-17.8q.3-1.3.6-2.7c1.6-6.8,3.2-13.7,3.3-20.7q-3.2-1.8-7-2-3.1,1.7-3.8,4.2c-.2,1-.4,1.9-.6,2.8-.3,1.1-.5,2.2-.8,3.3-.6,2.5-1.1,5-1.7,7.5-.3,1.4-.6,2.7-1,4.1-10.5,45.7-23.8,90.7-39.2,135-.4,1.1-.7,2.1-1.1,3.2-2.2,6.3-4.4,12.7-8.8,17.9q-4.9,3.3-17.4,3.8c-1.3,0-2.6,0-3.8.1-1.3,0-2.6.1-3.8.2-1.3,0-2.5,0-3.7.1-3.7.1-5.6.2-8.7-1.9q-2.3-3.4-1.2-11.4c.2-1.1.4-2.2.6-3.2.3-1.9.7-3.8,1-5.7.3-1.4.5-2.8.8-4.1.5-3,1.1-6,1.6-8.9,1.3-7.3,2.7-14.6,4-21.9.5-2.5.9-5,1.4-7.6,2.9-16,5.8-32,8.6-48,.6-3.5,1.2-7,1.8-10.5,2-11.1,3.9-22.3,5.9-33.4,4.3-24.5,8.3-49.1,13.5-73.4q.2-1,.4-2.1c1.6-7.6,3.4-14.9,6-22.2,3.2-.2,5.7.2,8.8.9,12.6,3.2,24.2,4.2,37.2,2.5,25.8-5.1,42.8-20.7,57.8-41.3.7-1,1.5-2,2.2-3,2.3.5,3.9.9,5.9,2.3.7.5,1.4,1,2,1.5,11.4,7.7,25.7,9.1,39.2,6.8q30.1-14.7,49.6-42.8c.4-.6.8-1.2,1.3-1.8q1,.8,1.9,1.6,1.5,1.2,3.1,2.4c6.8,5.2,13.5,8.5,22,10,16.5,1.4,31.7-1.2,45.1-11.7,1.3-1.1,2.6-2.2,3.9-3.2,2.4-1.1,3.7-1.5,5-3.8q1-2.2,2.8-4.3c12.2-13.6,22.5-33.4,23.2-51.9q-3.7-1.9-8-2-1.3,1.2-2.1,4.3c-6.5,19.5-15.2,38.5-31.4,51.8-12,9.3-23.6,11.5-38.5,9.9-8.4-2.2-14.3-6.3-18.9-13.7-1.4-2.5-2.8-4.9-4.6-7.1q-4-1.7-8.5-1.2c-1.1,4.6-2.6,8.5-4.9,12.7-.4.7-.8,1.3-1.1,2-5.9,10.3-12.3,19.6-21.4,27.3-11.1,8.6-23.4,13.4-37.6,11.7-8.8-1.7-15.3-6.3-20.3-13.6q-1.7-2.9-3.7-5.1-2.6-.6-5,0-2,1.9-3.2,3.7c-5.6,8.8-11.2,17.4-18.4,24.9-.8.8-1.6,1.6-2.4,2.4-7.8,7.7-16,14.3-26.4,18.3-16.6,5.7-35,4.2-50.6-3.3-.1-5,0-9.7,1-14.7.2-.7.3-1.4.5-2.1.6-2.6,1.2-5.3,1.8-7.9.3-1.1.5-2.3.8-3.4,13.9-59.6,32-120,60.6-174.4.5-.9.9-1.8,1.4-2.6,5.2-9.9,10.5-19.6,16.2-29.2,34.2-56.1,81-110.8,147.3-127.2.8-.2,1.7-.4,2.5-.6,11-2.8,21.8-3.3,33.1-3.3.8,0,1.5,0,2.3,0,15.9,0,30.6,1.9,45.6,7.3Z"/>
  <path class="st7" d="M733.3,225.6c.7.8,1.5,1.6,2.2,2.4,2.3,2.4,4.6,4.9,6.8,7.4.7.9,1.5,1.7,2.2,2.6,5.6,6.5,9.8,13.3,13.9,20.8q.8,1.6,1.6,3.1c2.8,5.3,5.5,10.1,6.5,16.1-4.6.9-9.1,1.8-13.7,2.7-24.3,5.5-39.9,18.3-53.3,39.1-12.8,20-26.8,35.8-50.7,42-3.5.8-7.2,1.3-10.1,3.6q-2,4-2.3,8.7c7.5-.8,15.4-1.2,22.5-3.9.8-.4,1.6-.7,2.5-1.1,21.1-9.3,36.2-23.9,48-43.7,2.1-3.6,4.3-7.2,6.7-10.6,12.5-16.5,32.1-23.2,51.8-26.1q1.1-.2,2.2-.3c16.2-2.4,32.2-2.8,48.5-2.6.8,0,1.6,0,2.4,0,16.3.2,32.2,3.7,47,10.5,23.6,12.3,40.4,32.5,49.3,57.5q.5,1.3.9,2.7c4.8,13.7,6.6,27.4,6.5,41.8,0,2.4,0,4.8,0,7.2,0,10.3-.4,20.4-2.2,30.6-.1.7-.2,1.3-.4,2-1.5,8.6-4.4,16.6-7.5,24.7-.3.9-.7,1.7-1,2.6-1.7,4.5-3.4,8.7-6.1,12.8-2.8,2.8-5.1,3-9,3q-2.5-1.8-6-8.2c-10.7-20-24.9-37.9-45.6-48.3q-1.1-.5-2.2-1.1c-2-1-4.1-1.9-6.2-2.7-7.1-2.4-11.8-1.9-18.6,1.4-.9.5-1.8.9-2.6,1.4-2.8,1.4-5.6,2.8-8.4,4.2-33,17-64,23.9-100.6,18.6q-.9-.1-1.9-.3c1,2.1,1.9,3.9,3.4,5.7.5.6,1.1,1.1,1.6,1.6.6.6,1.2,1.2,1.8,1.9,1.3,1.3,2.5,2.6,3.8,4,.6.7,1.3,1.4,1.9,2,3.6,3.8,7.2,7.7,10.7,11.7.7.7,1.3,1.5,1.9,2.2,1.7,1.9,3.4,3.8,5.1,5.8.7.8,1.3,1.5,1.9,2.2,20.8,23.9,39.6,50.1,52.8,79,15.3,34.7,23.8,74.9,9.7,111.5-10.1,23.9-27.9,47.7-52.5,58.4q-1.5.6-3,1.1c-14,5.2-29.2,5.1-44,4-14.9-2.4-28.9-9.8-38.7-21.2-16.4-21.2-22.9-48.1-19.8-74.5,1.4-8.1,3-19,10.1-24.1q2.5-1.1,4.6-2.5c3.1-2.8,4.6-5.7,5.2-9.9.8-24-17-45.9-31.5-63.4-.9-1.1-1.9-2.3-2.8-3.4-4.4-5.5-8.9-10.9-13.6-16.2-1.5-1.6-2.9-3.2-4.4-4.8-5.9-6.9-12.2-13.3-18.7-19.7-6.5-6.5-13.2-12.8-19.2-19.7-2.6-3-5.2-5.8-8.1-8.6-5.7-5.5-11.1-11.2-16.5-17-2.1-2.3-4.1-4.5-6.2-6.8-22.8-24.2-43.4-49.1-52.6-81.7-.2-.8-.4-1.6-.6-2.4-3.2-12-4.3-24.2-4.3-36.6,0-2.1,0-4.3,0-6.4,0-24.8,4.5-48.1,18-69.3.4-.6.8-1.2,1.2-1.8,19.5-30.2,50.7-49.9,85.6-57.5.8-.2,1.6-.3,2.4-.5,12-2.6,23.9-3.3,36.2-3.3.8,0,1.5,0,2.3,0,37.4-.2,77.1,12,103.4,39.9Z"/>
  <path class="st7" d="M588.2,804.8c16.1,11.1,33.9,19.7,52.5,25.6,24.7,7.1,49,1.8,71-10.3,3.5-1.9,7-3.7,10.8-5.1-.8,47.7-18.9,98.2-43.1,138.9-1,1.6-1.9,3.2-2.9,4.8-8.1,14.1-17.5,27.3-27.9,39.8-1.5,1.8-2.9,3.5-4.4,5.3-6,7.5-12.5,14.2-19.6,20.6-1.7,1.5-3.4,3-5.1,4.6-10,9.1-20.2,17.6-31.3,25.3-.7.5-1.4.9-2,1.4-1.5,1.2-3.1,2.2-4.7,3.3-4,1.6-7.7,3.2-11.1,5.9q-5.7,15.1-4.3,32.4c.1,3.8.2,7.6.2,11.4,0,4.4,0,8.7.1,13.1.3,16.2.4,34.2-7.3,48.9-5.8,9.9-14.4,18.9-25.6,22.3-12.6,1.5-24.3-2.7-35-9-10.6-8.3-16.2-20.6-19.4-33.4-.2-1-.5-2.1-.7-3.1-3.5-15.4-5.1-31-6.7-46.7,0-1-.2-1.9-.3-2.8-5.3,0-10.4,0-15.6.7-1.5.2-3,.4-4.5.6-2,.2-3.9.5-5.9.7,0,3.8-.2,7.6-.3,11.3,0,1.6,0,3.1-.1,4.7,0,2.3-.1,4.5-.2,6.8q0,1.1,0,2.2c-.1,4.1-.3,8.2-.8,12.2-.2,1.3-.3,2.5-.5,3.8-2,14.8-3.7,30.3-11.8,43.1-5.3,7-13.4,15.9-22.2,17.9-13.3.9-26-1-37.2-8.6-.6-.5-1.2-.9-1.8-1.4-4.6-3.4-7.5-7.5-10.1-12.4q-.5-1-1-2c-6.5-12.2-8.3-26.3-9.8-39.9-.2-1.5-.3-3-.5-4.5-.4-3.5-.8-7-1.2-10.4q-.2-1.4-.3-2.8h-1c-1,1.4-1.9,2.7-2.8,4.1-.8,1.3-1.7,2.6-2.5,3.9-.5.7-.9,1.4-1.4,2.1-16.7,25.3-33.3,50.9-52.5,74.5-.9,1.1-1.8,2.3-2.8,3.4-24.2,30.6-54.9,60.8-93.2,72-1.3.3-2.5.6-3.8,1-23,6.2-46.9,5.6-69.9,0-5.7-1.6-10.9-2.8-14.1-8.1q-1.5-7.1,5.3-19.9c3-5.6,5.7-11.2,8.5-16.9.3-.6.6-1.2.9-1.9,5.9-12.3,11.6-24.7,17.2-37.2,1.5-3.5,3.1-7,4.7-10.5,4.4-9.9,8.9-19.9,13.2-29.8.3-.7.6-1.4.9-2.2,1.5-3.5,3.1-7.1,4.6-10.6,1.1-2.6,2.2-5.1,3.4-7.7.8-1.8,1.6-3.6,2.4-5.4,1.7-4.2,3.3-8.3,6-12,2.2-1.3,3.8-1.5,6.4-1.8q2.7-.2,5.7-.8c1.1-.3,2.2-.5,3.3-.8,40.1-8.9,78-23.7,115.4-40.7,2.1-.9,4.1-1.9,6.2-2.8,34-15.4,68.5-31.6,99.9-51.8q1.1-.7,2.1-1.3c11.8-7.6,23.1-15.7,34-24.4.7-.5,1.3-1.1,2-1.6,5.5-4.4,10.9-8.9,16.2-13.6,2.2-2,4.4-4,6.6-5.9,4.3-3.7,8.4-7.5,12.3-11.5.7-.7,1.4-1.4,2.1-2.1,8.4-8.4,16.6-17.1,24.4-26.1,1.8-2,3.5-4,5.3-6,26.1-28.4,45.1-61.7,60.9-96.6.5-1.2,1.1-2.4,1.6-3.6,2.7-6,5.3-11.9,7.1-18.4q.6-2.4,1.3-4.3,3-1,4.7-.2Z"/>
  <path class="st0" d="M868.1,296.2c23.6,12.3,40.4,32.5,49.3,57.5q.5,1.3.9,2.7c4.8,13.7,6.6,27.4,6.5,41.8,0,2.4,0,4.8,0,7.2,0,10.3-.4,20.4-2.2,30.6-.1.7-.2,1.3-.4,2-1.5,8.6-4.4,16.6-7.5,24.7-.3.9-.7,1.7-1,2.6-1.7,4.5-3.4,8.7-6.1,12.8-2.8,2.8-5.1,3-9,3q-2.5-1.8-6-8.2c-10.7-20-24.9-37.9-45.6-48.3q-1.1-.5-2.2-1.1c-2-1-4.1-1.9-6.2-2.7-7.1-2.4-11.8-1.9-18.6,1.4-.9.5-1.8.9-2.6,1.4-2.8,1.4-5.6,2.8-8.4,4.2-28,14.4-58.3,24.5-90,20.1-2.7-.4-5.3-.8-8-.9-17.8-.9-39.4-13.4-52-25.2-12.7-12.4-22.1-28.5-22.5-46.6,6.2-1.1,12.4-2.2,18.5-3.6,24.1-7.3,41.9-25,54.5-46.1,2.1-3.6,4.3-7.2,6.7-10.6,12.5-16.5,32.1-23.2,51.8-26.1q1.1-.2,2.2-.3c16.2-2.4,32.2-2.8,48.5-2.6.8,0,1.6,0,2.4,0,16.3.2,32.2,3.7,47,10.5Z"/>
  <path class="st4" d="M627.1,556.3c.8.9,1.6,1.8,2.4,2.7,7.4,7.9,13.8,16,18.2,26,3.8,9.5,8.1,24.3,3.9,34.1-9.3,15.9-10.4,36.2-6.8,54,.2,1,.5,1.9.7,2.9,1.1,4.8,2.3,9.4,4,14,6.7,16.9,15.6,31.6,32.6,39.5,1.1.5,2.3,1,3.4,1.5,16.5,7.3,38.4,8,55.6,2.2q1-.3,1.9-.7c1.3-.4,2.6-.9,3.8-1.3,3.2-1.1,6.4-2.2,9.7-3.3,1.7,4.2,2.3,7.9,2.3,12.4,0,.8,0,1.6,0,2.3-.2,23.8-10.1,43.8-25.7,61.4-2.2,2.5-4.4,5.1-6.6,7.6q-1.6,1.9-3,3.2-3,.9-5.4,2.4c-10.9,6.7-22.6,12.4-35.1,15.5-31.1,6.5-60.8-6.1-86.7-22.4-1.9-1.2-3.8-2.4-5.8-3.6-2-.7-4-1.3-6-2-.3-.7-.7-1.3-1-2h-10q0-3,.7-5.1c1.8-4.9,3.3-9.8,4.8-14.8,20.5-74.6,18.3-169.1-20.1-238-.7-1.2-1.3-2.3-2-3.4q-1.3-2.7-.3-5.7c5.6-2,10.8-2.2,16.6-2.2q1.5,0,3.1,0c20,0,37.2,7.8,50.9,22.5Z"/>
  <path class="st1" d="M412.2,1200.5c.8-.2,1.5-.3,2.3-.5,1.5,13.4,2.5,26.8,3.2,40.3.2,3.6.4,7.2.6,10.7.1,2.4.3,4.8.4,7.1,0,1.2.1,2.3.2,3.4.4,7.7.6,15.3.6,23,0,.8,0,1.6,0,2.4,14.6.5,29.2,1.4,43.7,2.4,3.6.3,7.2.5,10.7.8,7.8.6,15.7,1.1,23.5,1.8,16.9,1.6,39.2,4,51,18,.7,3,.5,4.8,0,8-2.4,3.5-4.2,5-8,7-5.8.5-9.9-.4-15.3-2.5-8.2-3.3-16.4-6.1-24.8-8.6q-1.7-.5-3.3-.9c-6.7-2-12.6-3.4-19.6-3v2c2.2,1.2,4.2,2.1,6.6,2.9,13.2,3.8,27.4,7.1,39.4,14.1,2.8,2.9,3.9,4.1,4.3,8.2-.3,2.9-.7,4.2-2.7,6.3-.6.5-1.2,1.1-1.7,1.6q-.9.8-1.7,1.6c-4.6,2.9-9.6,2.5-14.8,1.4-.7-.2-1.4-.3-2-.5-2.3-.5-4.5-1-6.8-1.5-1.6-.4-3.2-.7-4.8-1.1-16.1-3.7-32-7.8-47.8-12.9-25.4-8.2-50.4-15.2-77-18.8-6.8-.9-14.8-1.1-20.9-4.3-2.8-2.1-4-3.6-4.7-7q.7-3,2.8-5.6,5.1-4.3,41.7-5.3c.7,0,1.4,0,2.1,0-.4-15.5-.9-31-2-46.6-1.1-15.1-1.6-30.3-2-45.4,9,0,17.2,3.3,26.7,1.5Z"/>
  <path class="st1" d="M545.3,1232.3c.2,2.6.4,5.2.5,7.8.5,7,1,14,1.5,20.9,0,.7,0,1.3.1,2,7.7.4,15.3.9,23,1.3,3.9.2,7.9.5,11.8.7,14.7.8,29.5,1.7,44.2,2.8,1.1,0,2.2.2,3.2.2,14.4,1.1,32.6,3.7,42.8,15,1,3.5,1.3,5.8.4,9.3-2,2.5-3.4,3.5-6.4,4.7-4.4.6-7.9.5-12-1.3-15.1-6.8-31.5-10.9-48-11.7.3.7.7,1.3,1,2,2.7,1.3,5.3,2.1,8.1,2.9,10.1,2.5,20.2,5.2,29.9,9.1,4.6,2.4,7.4,4.2,9.1,9.1-.2,4.4-1.3,6-4.3,9.1q-5.1,3.1-19.4.2c-1.1-.2-2.1-.4-3.2-.7-3.4-.7-6.7-1.4-10.1-2.1-1.1-.2-2.1-.5-3.2-.7-11.5-2.5-22.7-5.4-33.9-8.9-25.1-7.9-50.6-15-76.8-18.1-5.5-.6-11-1.3-16.2-2.9-2.8-2.1-3.8-3.3-4.9-6.6q-.1-2.4,1.9-5.4c3.9-2.4,7.1-3.4,11.7-3.5q1.1,0,2.1,0c2.2,0,4.5-.1,6.7-.1,1.6,0,3.1,0,4.7,0,3.6,0,7.2-.2,10.8-.2,1,0,2,0,2.9,0-1.2-6.4-2.3-12.7-3.2-19.1-.1-1-.3-1.9-.4-2.8-.3-2.1-.6-4.1-.9-6.2-.5-3.2-.9-6.4-1.4-9.6-1.9-13.1-3.7-26.1-5-39.3,7.3,1.9,15.7,3.8,23.1,1.3.7-.3,1.4-.6,2.1-.8q1.1-.4,2.2-.8t1.6-.6c1.8,14.4,2.9,28.8,3.9,43.3Z"/>
  <path class="st6" d="M699,382.1c7.7,9.1,16.7,16.6,27.3,22.2q1,.5,2,1c12.6,6.8,26.4,8.2,40.4,8.6,4.9.1,9.9.3,14.8.5,1,0,2,0,3,.1,7.5.3,15.1.6,22.6,1.1,1,0,2,.2,3.1.2,1,0,1.9.1,2.9.2.9,0,1.7.1,2.6.2,3.4.3,4.7,1.1,7,3.7q-12.8,9.5-44.4,8.4c-3-.1-5.9-.2-8.9-.2-18.7-.3-38,0-55-8.7-.9-.5-1.8-1-2.6-1.5-11.4-6.2-21.1-13.8-28-25-1.5-3-1.8-4.8-1-8,2.6-3.6,4.1-4.8,8.5-5.6q3.5.6,6,2.7Z"/>
  <path class="st3" d="M649.3,293.7c6.4,7.6,8.9,14.7,8.6,24.7-.5,3.5-1.8,5.4-4.4,7.7q-2.7.2-6-1-1.3-2.2-2.5-5c-2.8-6.8-5.9-12.5-11.2-17.6-4.5-2-8.4-1.9-13.2-1.4-6.8,2.3-11.9,6.2-16,12q-.9,1.4-1.9,2.8c-.7,1-1.4,2-2.1,3q-1.9,2.9-4.1,5.1-3.1.4-6,0-2-2-2.3-4.4t0-2.9q0-2.9.3-5.7c3.5-10.3,10.6-17.4,19-24,13.8-8.8,31.1-4.6,41.8,6.7Z"/>
  <path class="st8" d="M771.5,331q.1,3.6-1,7c-2,2.9-3.5,4.6-6.9,5.5-3.9.3-5.7-.3-9.1-2.4-2.7-4.1-2.9-7.3-2-12.1q1.5-2.5,4-4c7.1-1.8,11.2-.6,15,6Z"/>
  <path class="st2" d="M576.5,802c-1,.3-2,.7-3,1,.1-.7.2-1.3.4-1.9.2-.9.3-1.7.5-2.5q.5-2.5,1.1-4.6l2-1c0,3.1-.5,5.9-1,9Z"/>
  <path class="st5" d="M590.5,806c-1-.1-1.9-.2-2.9-.3q-3.1-.7-5.1-3.7l1-2q2.2,1.1,7,6Z"/>
</svg>