<?xml version="1.0" encoding="UTF-8"?>
<svg id="Layer_1" xmlns="http://www.w3.org/2000/svg" version="1.1" viewBox="0 0 1024 1536">
  <!-- Generator: Adobe Illustrator 29.0.1, SVG Export Plug-In . SVG Version: 2.1.0 Build 192)  -->
  <defs>
    <style>
      .st0 {
        fill: #fefdfd;
      }

      .st1 {
        fill: #f9f4f3;
      }

      .st2 {
        fill: #fdfaf9;
      }

      .st3 {
        fill: #fc2b0b;
      }

      .st4 {
        fill: #fead9e;
      }

      .st5 {
        fill: #fc270c;
      }

      .st6 {
        fill: #f9f5f4;
      }

      .st7 {
        fill: #fc290c;
      }
    </style>
  </defs>
  <path class="st3" d="M224.5,156.8q2.8,2.3,4,5.3c-.5,6.7-3,11.5-6.4,17-8.8,14.8-14.7,29.2-11.7,46.6,2.2,8.7,5.8,15.8,13.7,20.6,6.5,3.5,12.6,5.2,19.8,6.3,1,.2,2.1.3,3.2.5,19.3,2.8,38.4,1,57.6-1.5,1.3-.2,2.6-.3,4-.5q1.3-.4,2.7-.8c1-2.2,2-4.4,2.8-6.7,8.6-19,33.3-29.5,50.7-38.8-.4-.4-.9-.9-1.3-1.3-.5-4.6-.7-7.1,2.1-10.9,15.9-13.5,34.2-19.3,54.9-19.1,1.4,0,2.8,0,4.2,0,22.8.5,40.2,7.9,59,20.6.7-.6,1.3-1.3,2-2,15.7-14.9,34.8-24.6,56.7-25.3,21.4.8,42.7,6,58.9,20.6q1.7,3,2.7,5.3-2.4,2.7-5.3,5.3h-4v2.7c1.1.1,2.1.2,3.2.3,6.1,1.3,11.3,3.7,17,6.4q1.7.8,3.4,1.6c16.4,8,34.2,18.8,44.5,34.4q.2,4.3,0,8c14.8,1.1,29.6,1.5,44.5,1.6q2.5,0,5.1,0c16.6,0,34.1-.4,47.5-11.5,7.6-8.2,9.4-19.1,9.1-29.9-1.8-14.6-8-26.8-15.8-39-2.3-4.6-2.7-7.2-2.1-12.2q2-3.2,5.3-5.3c12.9-2.1,25.5,5.1,35.8,12.4,25.6,19.9,45.2,47.1,49.7,79.8,2.4,25.8-2.3,50.3-19,70.7-16.2,18.8-36.9,28.3-61.2,32.2h-5.3v2.7c.7,0,1.4.2,2.2.3,23.9,4,49.3,15.3,66,33.1,3.3,5,3.8,8.9,2.7,14.7-7,15.1-21.4,22.8-36.4,28.3-26.6,8.3-53.3,4.2-78.6-6.5-1-.4-2.1-.9-3.1-1.3-2.5-1.1-5-2.1-7.5-3.2,6,33.3,12.8,66.4,20.4,99.3,1.3,5.7,2.5,11.4,3.6,17.1.2,1.1.4,2.2.7,3.3.4,2,.8,4,1.1,6.1,1.8,8.8,6.7,14.8,13.7,20.3.7.6,1.5,1.2,2.3,1.8.8.6,1.5,1.2,2.3,1.8q1.2.9,2.4,1.8c5.3,4.1,10.8,7.8,16.4,11.5,1.2.8,2.4,1.6,3.6,2.4,14.7,9.2,28.4,13.9,45.6,14q1.7,0,3.5,0c13.3,0,21.4-3.9,31-13,10.5-11.3,16.6-25.8,23.2-39.5.8-1.6,1.6-3.2,2.3-4.8,4-8.2,8-16.4,11.9-24.6,1.2-2.5,2.4-5,3.6-7.5,1.3-2.6,2.5-5.3,3.8-7.9,2.1-4.4,4-8,7.7-11.2,8.4-1.7,16.3.9,24.1,4q-3.6,20.3-6.3,30.2c-1.5,5.8-2.2,10.7-1.8,16.6h5.3c4.8-14.2,9.4-28.3,13.4-42.8,6.4.8,10.7,3.4,16,6.7-1.2,13-2.9,25-6.9,37.5-1,3.8-1.3,6.8-1.1,10.6,1.8.4,3.5.9,5.3,1.3,3.7-7.5,6.3-14.8,8.3-22.9q.3-1.3.7-2.7c1.4-5.7,2.3-11.4,3.1-17.2,9.7,5.7,17.8,13.5,20.8,24.5,7.8,46.8-19,106.1-45.5,143.2-25.4,34.4-58.7,62.4-100.9,72.8-1.6.4-3.2.8-4.9,1.2-20.1,4.4-42.2,5.4-61.9-1.2-3.6-3.6-3.3-5.8-3.8-10.7-.2-1.7-.4-3.4-.6-5.1,0-.9-.2-1.8-.3-2.8-1.9-17.2-4.4-34.2-7.5-51.2-.2-1-.3-1.9-.5-2.9-.5-2.7-1-5.4-1.5-8.1q-.4-2.3-.9-4.7c-.8-3.5-1.8-6.2-3.6-9.3-1.8.4-3.5.9-5.3,1.3.8,14.6,3,28.8,5.3,43.2,4,25.2,7.2,50.2,8.9,75.7,0,1.3.2,2.5.3,3.8q11.1,164.5-17,207.6c-3.5,6.3-3,13.7-3.2,20.8,0,2.4-.2,4.9-.2,7.3,0,1.3,0,2.6-.1,4-1,28.3-2.7,56.4-4.9,84.6,0,.9-.1,1.8-.2,2.8-1.6,21.3-3.4,42.7-5.3,64-.2,1.7-.3,3.5-.5,5.3-.7,8.2-1.5,16.5-2.3,24.7q-4,26.3,2,51,2.2,2.4,4.8,4.3c18.4,15.4,38.3,40.6,41,65.5.2,4.9.2,8.1-2.2,12.4-4.9,2.9-9.8,3.1-15.5,3.3-.3-1.3-.6-2.7-.8-4-2.9-13.2-6.7-28.9-16.5-38.7q-2.8.4-5.3,1.3c.9,5.8,2.9,10.6,5.3,15.9,4.4,9.9,6.8,17.2,6.8,28.2h-26.7c-.4-2-.8-3.9-1.3-5.9q-3.2-19.9-10.8-38.2-3.4-1.1-6.7-1.3c-2.3,5.5,0,10.3,1.8,15.6.6,1.9,1.3,3.8,1.9,5.8q.4,1.4.9,2.8c2.4,7.6,3.6,14.6,3.5,22.6q-100.3.9-119.5-11.3c-5.9-6-6.8-13.3-7.5-21.4-.1-1.1-.2-2.2-.3-3.4-.3-3.6-.6-7.1-.9-10.7-.2-2.2-.4-4.5-.6-6.7-1.1-11.9-2-23.7-2.9-35.6-2.4-32.3-5.3-64.6-8.4-96.9-.6-6.5-1.2-13-1.9-19.5-1.2-12.6-2.4-25.2-3.6-37.8-.8.2-1.7.4-2.5.6q-31,7-46.4,8.5c-1.5.2-3,.3-4.6.5-27.5,2.6-54.7,1.6-81.5-5.6q-.2,2-.4,4.1c-1.2,9.2-3.5,18.3-5.5,27.3-.5,2-.9,4.1-1.4,6.1-1.2,5.4-2.4,10.7-3.7,16.1q-8.1,35.2-15.8,70.5c-.3,1.3-.5,2.5-.8,3.8-2.9,13.9-4.2,26.3,3.6,38.9,1.6,2.4,3.3,4.8,5,7.2,10.3,15.1,20.2,33.1,19,52-4.8,6.7-11,8.9-18.7,10.7h-4c-.3-1.4-.6-2.9-.9-4.4q-3.7-20.7-13.8-38.4-2.8.4-5.3,1.3c.9,6.4,2.6,12.3,4.7,18.4,2.6,8.1,4.5,15.8,4.7,24.4-3.8,1.3-6.1,1.5-10,1.5-1.1,0-2.3,0-3.4,0-1.2,0-2.4,0-3.6,0-1.2,0-2.4,0-3.6,0-2.9,0-5.9,0-8.8,0-.2-1.6-.5-3.2-.7-4.9-2-13.5-4.5-26.2-8.7-39.2-2.2-.4-4.4-.9-6.7-1.3-2.2,5.4-.4,10,1.2,15.3,3,10.4,4.4,19.3,4.2,30.2q-47.2.8-70.4-1.8c-1.5-.2-3-.3-4.5-.5-12.4-1.5-24.5-3.1-33.4-12.5-2.8-5.4-3-10.1-3.1-16.1,0-.9,0-1.9,0-2.8,0-3.1,0-6.2,0-9.3,0-2.2,0-4.4,0-6.6,0-4.7,0-9.4-.1-14.1,0-12.4-.2-24.7-.4-37.1,0-1.2,0-2.5,0-3.7-.7-65.5-2.1-131.3-12.4-196.1-.9,1-1.9,2.1-2.8,3.2-3.9,4.3-7.9,8.6-11.9,12.9-.9.9-1.7,1.8-2.6,2.8-9.6,9.3-23.6,16.1-36.6,19.1q-2.8.7-4.9,2.2c-1.5,3.2-2.3,6.3-3,9.8-3,11.1-12.4,21.3-22,27.2-17.1,9.1-35.1,11.4-53.8,5.8-18-5.9-35.5-17-45.4-33.4v-5.3c.9-.1,1.8-.2,2.7-.3,8.8-1.6,13.9-4.8,19.9-11.3,15.3-16.5,38.1-28.2,60.7-30.2,12.7-.3,22.9,1.7,33.1,9.7q2.5,3,4,5.3c16.9-1.1,28.9-13.5,39.8-25.4,4.4-5.2,8.7-10.9,10.9-17.4-.4-5-2.3-9.6-4-14.3-23.8-66.4-14.6-145-3.5-213.2.8-4.7,1.5-9.3,2.1-14,.4-2.6.8-5.2,1.3-7.9.2-1.1.3-2.2.5-3.4,2.2-12.8,10.2-21.8,19.3-30.6.8-.8,1.6-1.6,2.4-2.4,6.5-6.3,13.3-12.1,20.6-17.5-.4-2.2-.9-4.4-1.3-6.7-17.3,2.5-34.6,23.7-44.5,36.6-24.4,32.9-44.2,75.9-43.8,117.6,0,.9,0,1.9,0,2.8,0,2,0,4,0,6,0,3.2,0,6.4,0,9.6,0,9.1.1,18.2.2,27.3,0,5.6,0,11.1,0,16.7,0,2.1,0,4.2,0,6.3q.3,22.7-6.5,32.7c-6,4.1-13.4,6.3-20.6,6.3q-.7-23.2-1.3-46.8c-1.3-.4-2.6-.9-4-1.3-.9.4-1.8.9-2.7,1.3-1.6,4.7-1.6,9.1-1.8,14,0,1,0,1.9,0,2.9,0,3.1-.2,6.2-.2,9.3,0,2.1-.1,4.2-.2,6.3-.1,5.2-.3,10.3-.4,15.5h-20c-.4-15-.9-30-1.3-45.4-1.8-.4-3.5-.9-5.3-1.3-3.8,3.8-3.1,7.5-3.2,12.6,0,1,0,2,0,3,0,3.1-.1,6.2-.2,9.4,0,2.1-.1,4.2-.2,6.3-.1,5.2-.2,10.4-.3,15.5-10.6.3-18.2-.6-26.7-7.5-19.3-19.8-18.9-56.8-19.1-82.7,0-1.4,0-2.8,0-4.3,0-3,0-6,0-8.9,0-4.4,0-8.9,0-13.3-.1-25.6,2-50.9,8-75.8q.5-2.1,1-4.3c13.6-55.1,41.1-108.1,80-149.5,3.2-3.5,6.4-7,9.5-10.6,11.1-12.4,23.9-22.9,36.8-33.3,1.6-1.3,3.2-2.6,4.7-3.9,7.8-6.4,15.6-12.8,23.8-18.8,1.2-.9,2.4-1.8,3.6-2.7,2.3-1.7,4.7-3.4,7.1-5.1q1.6-1.2,3.3-2.4c1-.7,1.9-1.4,2.9-2.1,6-5.4,8.9-11.9,11.5-19.4q.5-1.3.9-2.6c1-2.9,2-5.8,2.9-8.6.3-1,.7-2,1-3,8.3-24.3,15.5-49,22.6-73.7,1.6-5.6,3.3-11.2,5.2-16.7-1.2.5-2.5,1.1-3.8,1.6-11.1,4.6-21.8,8.2-33.6,10.4-1.2.2-2.4.5-3.7.7-26.5,3.6-50.6-.8-72.8-16.2-6.8-5.4-11.2-11.3-12.4-20.1,1.3-9.1,7.5-14.7,14.2-20.5,15.1-10.9,38.5-22.8,57.3-22.8v-2.7c-.7,0-1.5,0-2.2,0-24.8-1.5-48-13.9-64.6-32-3.6-4.7-6.6-9.5-9.4-14.7-.5-1-1.1-2-1.6-3-10.4-21.2-10.9-46.8-3.4-69,6.2-17,14.5-32,26.4-45.6.9-1.1,1.9-2.2,2.9-3.3,12.1-13,36.1-31.8,54.6-26.1Z"/>
  <path class="st4" d="M509.4,747.2c1.3,0,2.6,0,3.9,0,2.7,0,5.4,0,8.1,0,2.7,0,5.4,0,8.1,0,39.1-.6,79.9,7,109.1,35,1.8,1.8,3.7,3.7,5.5,5.6,1.1,1.1,2.2,2.2,3.3,3.3,33.4,35.1,40.8,83.8,39.7,130.2-1.3,30.4-10.7,62.5-30.9,85.7-.7.9-1.3,1.7-2,2.6-18.3,23.1-49.4,34.3-77.2,40.4-.9.2-1.8.4-2.8.6-21.1,4.3-42.5,5-63.9,4.9q-1.9,0-3.8,0c-19.4,0-38.4-.7-57.4-4.4q-1.4-.3-2.9-.6c-29.7-6.1-56.6-21.7-74.9-46.1-2.3-3.5-4.4-7.1-6.4-10.8-.6-1.1-1.2-2.2-1.9-3.3-11.1-20.6-13.4-42.6-13.3-65.6,0-1.1,0-2.1,0-3.2,0-16.2,1-31.3,5.8-46.9.3-1.1.6-2.2.9-3.3,7.4-25.9,18.9-49.7,36.5-70.2.9-1.1,1.8-2.2,2.7-3.3,23.7-28.2,60.5-46,96.9-49.9,5.6-.5,11.3-.5,16.9-.6Z"/>
  <path class="st0" d="M624.8,442.6c15.3,13.9,23.7,36.9,24.8,57.1.9,27.2-1.2,56.9-20.6,78.2-22.6,19.4-55,24.1-83.9,25.3q-2.4.1-4.8.2c-23.3.7-48-1.6-70-9.6-1.4-.5-2.7-1-4.2-1.5-21.3-8.2-36.2-20.1-45.7-40.9-10.8-25.7-7.6-54.2,2.1-79.7,8.7-19.3,23.5-33.7,43.2-41.5,45.5-16.4,118-16.6,159,12.3Z"/>
  <path class="st0" d="M764.4,168.9c23.8,6.6,41.2,23.3,53.2,44.4,12.1,22.7,16.1,46.7,10.2,72-5.9,19.2-18.6,33.4-36,43.1-8.3,4.4-16.9,7-26.1,8.9-1.3.3-2.7.6-4,.9-25.7,4.7-58.5,6.1-81.4-7.9-9.7-8.3-10.9-20.2-13.7-32.1-3.6-14.3-10.2-23.5-19.8-34.4v-1.3c7.8-.3,15.4,0,23.1,1,29.5,3.5,66.8,7.4,93.1-9,11.1-9.3,15.7-21.2,17.8-35.2,1-15.4-5.9-31.2-14.7-43.4q-1.8-2.9-1.8-6.9Z"/>
  <path class="st0" d="M213.8,170.2c-2.1,5.5-4.6,10.6-7.4,15.8-7.6,15.2-10.3,30.6-5.8,47.5,4.1,11.3,9.8,18.8,20.4,24.6,11.1,5.2,21.5,7.2,33.7,7.2,1.1,0,2.2,0,3.4,0,2.4,0,4.8,0,7.1,0,3.5,0,7.1,0,10.6,0,13.4,0,26.5-.7,39.8-2.4,4.4-.5,8.6-.7,13.1-.6q-4.7,8.5-7.3,11.9c-7.7,10.3-9.8,22-12.5,34.4q-.5,2.3-1,4.6c-.3,1.4-.6,2.7-.8,4.1-2.2,7.5-5.6,11.7-12.3,15.5-28.7,13.1-67.2,9.7-96.6-.2-18.9-7.4-34.1-18.3-43.3-36.9-9-23.9-9.2-47.7,1.1-71.3,4.7-10.1,10.3-19.1,17.6-27.6.8-1.1,1.6-2.1,2.4-3.2,3.6-4.2,7.5-7.5,11.9-10.9q1.2-1,2.5-2c7-5.3,14.2-10.7,23.3-10.7Z"/>
  <path class="st6" d="M636.1,620.6q3.4.3,6.7,1.3c4.6,9.1,1.6,24.7-1.4,34-.4,1.1-.8,2.2-1.3,3.4-.4,1.1-.8,2.2-1.2,3.3-5,11.4-14.9,23.4-25.5,30.1q-3.8.3-8-1.3c-3.1-3.3-5.6-6.9-8-10.7-.8,1.3-1.6,2.6-2.4,3.9-12.7,20-26.2,34.6-49.7,41.6-13.7,0-24.3-8.6-34-17.7-4-4.4-7.4-9-10.7-13.9q-.8-1.2-1.7-2.5c-3.5-5.4-5.5-10.4-7-16.7h-2.7c-.3.9-.6,1.9-.8,2.8-2.4,5.1-5.2,8.6-9.9,11.9-6.2,1.4-10,0-15.4-3.2-11.5-8.3-18.1-21.1-21.5-34.7-.7-4.6-.8-9.2-.8-13.9,0-.9,0-1.8,0-2.7,0-2.3.1-4.7.3-7,.9-.9,1.8-1.8,2.7-2.7q4.7.7,6.7,2.7c.4,2.8.8,5.6,1.2,8.5,2,14.7,5.2,29.9,17.5,39.6q3.5,1,6.7,1.3c5.1-7.3,9.5-14.6,13.4-22.7q3.1.3,6.7,1.3,1.8,2.7,3.2,6.3c.6,1.3,1.1,2.7,1.7,4,.6,1.5,1.2,2.9,1.8,4.4,7.4,17.2,17.2,32.6,34.3,41.6,5.1,1.9,8.9,1.8,13.8-.2,20.8-10.3,32.9-29.4,40.7-50.7q2.1-4.1,5.7-5.3c1,0,2,0,3.1,0,3.6,7.1,7.1,14.3,10.7,21.4,11-5.2,16.1-16.1,20.1-27.1,1.7-6.8,2.1-13.3,2.3-20.3q.1-7.2,3-10.1Z"/>
  <path class="st1" d="M582.6,274.4q2.6,0,5.3,1.3c6.2,7.7,6.2,18.5,5.3,28.1-1.5,6.9-3,13.6-8,18.7-14.1,3.5-32.7-3.6-45.4-9.4,0,.7,0,1.5-.1,2.3-.7,8.9-2.8,16.7-9.3,23.1-16,2.9-33.1-4.6-46-13.4q-15.3-11.7-18.2-17.3c-.5.9-1,1.8-1.6,2.8-.7,1.2-1.4,2.4-2.1,3.6-.7,1.2-1.4,2.4-2.1,3.6-2.3,3.3-4.2,5.2-7.6,7.3-14.3,2.2-30.5-5.5-42.1-13.4q-19.7-15.4-21.2-26.3.5-3,3.2-5.7,2.5,0,5.3,1.3,2.9,3.3,6,7.4c12.4,15.7,28.1,22.3,47.4,26,.2-.7.5-1.5.7-2.2,2.4-7.3,4.9-14.6,7.3-21.8,2.2-.4,4.4-.9,6.7-1.3.9,1.1,1.9,2.3,2.8,3.5,13.1,15.9,26.7,29.8,47.9,33.9,3.1,0,6.2.1,9.4,0,1.2-3.6,1.6-6.1,1.7-9.9,0-1.1,0-2.3.2-3.4,0-2.4.2-4.8.3-7.1,0-1.1,0-2.2.2-3.4,0-1,0-2.1.1-3.1q.3-2.4,1.6-3.8,3-.4,6.7,0c2.2,1.8,4.5,3.6,6.7,5.3,11.8,6.4,24.3,8.6,37.4,10.7.1-10.8.1-21.3-1.3-32,0-.9,0-1.8,0-2.8l2.7-2.7Z"/>
  <path class="st5" d="M458.3,531q1.9,2.7,4,6.7c11.4,16.5,30.6,19.9,49.2,23.4,27.2,4,63.1,3,87.1-11.7,3.5-2.7,5.7-5.6,8.1-9.4q2.6-3.7,5.9-5.2,3.3.2,6.5,2.2t2.2,7.9c-2.8,10-8.1,14.7-16.8,19.9-5.4,2.7-10.7,4.8-16.4,6.7q-1.4.5-2.8,1c-16,5.1-32.6,5.8-49.3,5.7q-1.4,0-2.8,0c-27.5-.1-58.3-3.7-79.3-23.4-4.5-4.9-7.3-9.4-8.2-16.1q.6-3.7,2.1-6.2c3.8-2.3,6.2-2.2,10.5-1.5Z"/>
  <path class="st7" d="M492.2,474.4c8.6,3.9,13.6,10.3,18.1,18.4,2.2,6.9,2.9,12.5-.3,19.3-2.7,3.4-4.9,5.3-9.2,6-10.9.2-19-3-27.3-10.3-5.1-5.9-8.9-13.4-9.3-21.3.8-5.5,2.1-7.8,6.1-11.6,6.2-3.1,15.3-2.3,21.9-.5Z"/>
  <path class="st7" d="M606.7,473.6c4.8,2.8,6.3,4.1,8,9.4.7,8.7-.8,14-5.3,21.4-.7,1.2-1.4,2.4-2.2,3.6-6.3,6.2-14.1,10.1-23.1,10.4-4.7-.3-7.6-1-10.9-4.7-2.8-8.5-2.3-16.4,1.5-24.5,7.2-12.9,17.5-17.4,31.9-15.6Z"/>
  <path class="st2" d="M620,364c8.4,3.9,14.6,10.9,17.9,19.5.7,3.9,1.3,7.2.8,11.2q-2.7,2.7-6,3t-6-3c-.6-1.9-1.2-3.9-1.8-5.8-1.8-5.6-3.5-8.6-8.9-11.5q-4-1-8,0c-7,5-9.3,12.2-12,20q-3.2.2-6.7,0-2.7-2.7-3.3-6.7c.2-8.4,4.8-16.3,10.7-22.1,7.9-4.9,14-5.7,23.3-4.7Z"/>
  <path class="st2" d="M423.5,364.8c9.5,4.9,15.5,13.2,18.8,23.2q.4,3.8,0,6.7-2.7,2.7-5.9,3.2t-5.6-2.6-3.7-7.9c-2.4-5.1-3.9-7.3-8.9-10-5,0-8.1.5-12.3,3.3-3.6,5.2-5.6,10.9-7.8,16.8-2.7,0-5.3,0-8,0q-1.3-1.3-1.8-5.3c.1-8.1,4.2-15.5,9.6-21.4,7.4-6.6,15.8-9.2,25.6-5.9Z"/>
</svg>