<?xml version="1.0" encoding="UTF-8"?>
<svg id="Layer_1" xmlns="http://www.w3.org/2000/svg" version="1.1" viewBox="0 0 1024 1536">
  <!-- Generator: Adobe Illustrator 29.0.1, SVG Export Plug-In . SVG Version: 2.1.0 Build 192)  -->
  <defs>
    <style>
      .st0 {
        fill: #f6f6f6;
      }

      .st1 {
        fill: #f61b06;
      }

      .st2 {
        fill: #fafafa;
      }

      .st3 {
        fill: #f8f8f8;
      }

      .st4 {
        fill: #fefefe;
      }

      .st5 {
        fill: #f5f5f5;
      }

      .st6 {
        fill: #feb6ad;
      }
    </style>
  </defs>
  <path class="st4" d="M0,0h1024v1536H0V0Z"/>
  <path class="st1" d="M494.7,182.1c16.8,1,33.6,1.1,50.5,1,2.2,0,4.4,0,6.6,0q19.9,0,39.7-1c45.1-3,89.5,4.1,129.5,25.8q.9.5,1.8,1c45.7,24.5,78.9,66.5,94.4,115.7,4.5,15,7.8,31.1,8.1,46.9,0,.8,0,1.6,0,2.5.8,68.6-24.6,125.2-62,181.5q-15.7,23.4-30.3,47.5-.6,1-1.2,2c-12.2,21-21.8,43.2-29.3,66.3q-.4,1.2-.8,2.4c-.2.7-.5,1.5-.7,2.3-.2.7-.4,1.3-.6,2-.8,3.6-1,6,.8,9.3.6.8,1.2,1.5,1.8,2.3,4.2,5.7,8,11.6,11.8,17.6,4.3,6.8,8.7,13.6,13.2,20.3,18.7,27.9,36,56.5,51,86.5.4.9.9,1.7,1.3,2.6,15.2,29.9,24.5,62.2,28.7,95.4q.2,1.2.3,2.5c1,9.2.9,18.5.9,27.8,0,.9,0,1.8,0,2.7,0,13.9-.7,27.4-3.3,41.1-.2,1.1-.4,2.2-.6,3.3-1.7,9.2-4.2,18-7,26.9-.7,2.2-1.4,4.5-2.1,6.7-4.6,14.6-10.2,28.4-17.2,42-1.1,2.1-2.2,4.2-3.2,6.4-4.9,9.5-10.3,18.2-16.8,26.7-.4.6-.9,1.2-1.3,1.8-6.7,8.9-13.9,17.2-21.7,25.2-.5.6-1.1,1.1-1.6,1.7-7.1,7.3-14.4,14-22.4,20.3-.8.6-1.5,1.3-2.3,1.9-51.1,42.2-117.5,61.9-181.7,73.1-.9.2-1.8.3-2.7.5-27.7,5-56.1,8.2-84.3,8.5-.7,0-1.5,0-2.2,0-76.1,1-175.2-2.5-235.8-55-.8-.7-1.6-1.4-2.5-2.1-24.9-21.7-40.4-52.1-42.7-85.2-1.7-34.5,9.2-66.3,32.4-91.8,40.9-43.5,109.5-57.7,166.8-59.8,7.7-.2,15.3-.2,23-.2q1.6,0,3.2,0c14,0,27.8.2,41.8,1.8,2.9.3,5.9.7,8.8,1,32.8,3.4,65.3,8.7,97.8,14.1,10,1.7,20.1,3.3,30.1,5,2.2.4,4.3.7,6.5,1.1,11.3,1.9,22.6,3.7,33.9,5.2q.4,24.4-2,34c-.2.6-.3,1.3-.5,1.9-6.6,26.8-22.4,45.5-45.6,59.9-1.2.8-2.5,1.6-3.7,2.4-5.3,3.6-9.7,6-16.2,5.5-3.9-.8-7.6-1.9-11.4-3-5-1.4-10.1-2.2-15.2-3.2-1.1-.2-2.3-.4-3.4-.6-24.9-4.5-49.8-7.8-75-9.9-1,0-2-.2-3.1-.3-9.1-.8-18.3-.9-27.4-.9-2.7,0-5.3,0-8,0-23.6,0-50.2,1.7-69.8,16.4-2.6,1.2-4.1.7-6.7-.2-6.7-4.6-10.6-9.7-13.9-17q-1.1-2.3-4.3-3.3t-4.8,1.3c-1.3,2.5-1.3,4.2-.8,6.9,4.7,14,16.2,21.8,28.7,28.1,17.6,8.5,35.8,12.4,55,15,.9.1,1.8.2,2.7.4,64.7,8.3,144.7,1.1,198.3-38.6,10-7.9,17.7-16.8,24-27.8.5-.9,1-1.8,1.6-2.7,3.4-6.2,5.6-12.5,7.7-19.2q.4-1.2.7-2.4c3.6-12.2,4.4-24.6,4.4-37.2q0-1,0-2.1c0-12.5-1.3-24.3-4.4-36.4-.2-.7-.4-1.5-.6-2.2-9.8-39-32.3-72.9-58.4-102.8-.6-.7-1.2-1.4-1.9-2.1-6-6.8-12.3-13.2-18.7-19.7-1.8-1.8-3.5-3.5-5.3-5.3-6.7-6.8-13.6-13-21.1-18.9-1.2-1-2.3-2-3.5-3-5.8-5-11.8-9.8-18-14.4-4.6-3.4-9.1-6.9-13.6-10.3-6.8-5.2-13.7-10.4-20.6-15.4-7.1-5.2-14.1-10.5-21-16-4.9-3.9-9.9-7.6-14.9-11.4-7.3-5.5-14.5-11-21.8-16.5-2.4-1.8-4.7-3.6-7.1-5.4-10.2-7.8-20.4-15.7-30.5-23.6-.6-.5-1.3-1-1.9-1.5-17-13.2-33.7-26.8-49.6-41.3-1.5-1.4-3.1-2.8-4.7-4.2-6.8-6-13.3-12.4-19.7-18.9-1.8-1.8-3.6-3.6-5.4-5.4-5.8-5.8-11.4-11.6-16.7-17.9-.9-1-1.9-2.1-2.8-3.1-36.7-41.8-65.2-92.1-72.2-147.9,0-.7-.2-1.4-.3-2.1-6.5-51.4,10.2-103.1,41.3-143.9,3.5-4.5,7.2-8.8,11-13q.9-1,1.8-2c7.6-8.4,15.2-16.1,24.2-23,1.8-1.5,3.5-3,5.2-4.4,36.5-29.8,83.5-46.3,129.8-52.6,1.1-.2,2.2-.3,3.3-.5,32.5-4.4,65.8-3.5,98.4-1.4Z"/>
  <path class="st6" d="M397,257l1,2q-.9,2-2.4,4.6c-17.1,33.2-23.5,70.6-27.6,107.4-.1.9-.2,1.9-.3,2.9-1,10.1-.9,20.3-.9,30.5,0,1,0,2,0,3,0,17.1.9,33.7,3.3,50.6.1,1.1.3,2.2.5,3.4,1,7.6,2.2,15.1,3.5,22.6.2,1,.3,2,.5,3,10.3,58.7,33.6,115.6,64.9,166.1.4.6.7,1.2,1.1,1.8,1.8,2.9,3.6,5.8,5.5,8.7.7,1,1.3,2.1,2,3.2.6.9,1.2,1.9,1.8,2.8q1.3,2.4,1.3,5.4c-7.6-5.7-15.2-11.3-22.7-17.2-8.5-6.7-17.1-13.2-25.7-19.8-16.1-12.3-32.1-24.7-47.8-37.5-1.6-1.3-3.2-2.6-4.8-3.9-6.7-5.4-13.1-11.2-19.3-17.1-1.6-1.5-3.2-3-4.9-4.4-7.9-7.1-15.1-14.6-22.2-22.4-1.3-1.5-2.7-2.9-4-4.4-5.7-6.2-11-12.8-16.1-19.6-1.3-1.7-2.6-3.3-3.9-4.9-24.6-31.3-45.3-70.1-45.7-110.8q0-1.1,0-2.2c-.2-15.6-.3-30.7,4.3-45.8.2-.7.4-1.4.6-2.2,5-16.4,12.4-31.9,22.4-45.8.4-.6.8-1.1,1.2-1.7,26.3-36.6,87.1-80.7,134.8-58.3Z"/>
  <path class="st1" d="M813,1007c20.9,4.2,41.1,16.2,57,30,.8.7,1.6,1.4,2.5,2.1,22.1,19,35.4,46,38.5,74.9,1.7,36.8-6.5,67.5-31.4,95.2-5.1,5.5-10.6,10.3-16.6,14.8q-.8.6-1.7,1.3c-19.2,15-41,25.7-64.2,33-1,.3-2,.6-3,.9-17.5,5.2-35.1,8.5-53.2,10.9-5.5.7-10.9,1.5-16.4,2.2q-1.6.2-3.3.4-71.7,9.7-132.5,46.1c-6.4,6.1-13,11.4-22.1,11.9-5-.3-7.3-2.1-10.7-5.7-2.7-5.3-1.6-12.8-.2-18.3,10.3-28.5,37.1-48.1,63.3-60.9,6.5-3,13.1-5.4,19.9-7.6q1.6-.5,3.2-1c10.2-3.3,20.5-6.2,30.9-9q64.6-16.8,120.9-51.1c.7-.6,1.4-1.2,2.1-1.8,9.9-9,15.6-21.5,16.4-34.6-.3-9.4-4.6-17.7-11.1-24.5-8.3-7.2-18.4-11.8-28.4-16.1,1.4-3.8,3.2-7,5.4-10.4,14.6-23.2,24.1-47.7,31.8-73.9.9-2.9,1.9-5.8,2.8-8.8Z"/>
  <path class="st6" d="M697,261c5.5.5,9.7,1.9,14.6,4.4.7.4,1.4.7,2.1,1.1,27.7,14.6,45.3,41.4,54.8,70.5,4.7,15.3,6.7,30,6.7,45.9,0,2.1,0,4.3,0,6.4,0,13.6-1.3,26.7-4.8,39.8-.3,1-.5,1.9-.8,2.9-9.8,35.2-27.5,66.6-47.6,96.9-.7,1-1.3,2-2,3.1-2.4,3.6-4.8,7.2-7.2,10.8-20.7,30.8-39.1,61.1-51.7,96.1-43.8-43-79.9-109.5-81.4-171.6-.1-16.3.9-33.4,4.4-49.4.7,0,1.4.1,2.1.2,39.1,3.4,82.3-.6,113.8-26.5,14.3-12.4,21.7-29.7,23.4-48.4.8-24.9-11.6-48.2-21.7-70.2q-.5-1-.9-2c-.8-1.8-1.7-3.6-2.5-5.4q-1.2-2.7-1.2-4.7Z"/>
  <path class="st1" d="M243.8,804.9c30.5-1.2,69,4.6,93.2,25.1q.8.7,1.7,1.4c3,2.9,3.7,5.6,3.9,9.6-.3,4.7-1.3,7.5-4.6,11-5.2,3.8-10.8,3.5-17,3-3-.6-5.8-1.3-8.7-2.1-23.1-6.2-50.3-7.2-73.3.1-.7.2-1.4.4-2.2.6-30.7,9.4-61.1,28.9-77,57.4-10.7,20.3-15.9,43.5-9.2,65.9,3.3,10,8.1,19.5,15.3,27.1q1.1,1.9.4,4.2t-1.4,2.7c-.5,1.1-1,2.3-1.6,3.5-.3.6-.6,1.3-.9,1.9-9.3,20.6-13.8,41.1-15.6,63.6-30.3-18.9-51.7-48.6-59.9-83.4-9.7-43.6.6-83.4,23.9-120.6,5.7-8.8,12.8-16.4,20-24,.6-.6,1.2-1.3,1.8-2,27.9-29.5,71.6-43.3,111-45.2Z"/>
  <path class="st2" d="M435.5,310c4.8,1.9,6.7,6.3,9.2,10.6,23.3,39.3,70.4,58.7,112.6,69.6,11.8,2.9,23.8,4.7,35.9,6.3,2.4.3,4.8.7,7.2,1.1,6.9,1,13.7,1.4,20.7,1.5.7,0,1.4,0,2.2,0,3.6,0,7.3.1,10.9.1,1.4,0,2.7,0,4.1,0q1.8,0,3.7,0c3.7.6,4.9,1.5,7.1,4.5,0,2.8-.5,4.4-2.2,6.6-2.5,1.9-4.3,1.8-7.4,1.8q-1.7,0-3.5,0t-3.8,0c-1.3,0-2.6,0-3.9,0-43.3-.5-88.1-9.5-127.2-28.3-.7-.3-1.4-.7-2.2-1-17-8.3-31.8-19.3-45.8-32-.7-.6-1.4-1.2-2.1-1.9-8.2-7.7-21.2-22-22.2-33.4q.3-2.8,2-4.7,2.3-1.1,4.8-1.1Z"/>
  <path class="st3" d="M543,262c5.7,3.9,9.8,8.4,12,15,.6,3.8.6,5.2-1.7,8.4q-2.3,1.6-4.9,2.1c-2.9-.5-3.6-1.2-5.4-3.4q-.8-1.9-1.4-4c-.9-2.5-1.5-3.9-3.3-5.9-3.2-1.5-5.7-2-9.2-2.1-4.6,2-6.3,4.2-8.2,8.6-.3.8-.6,1.6-.9,2.4q-.9,2-2.9,4-2.9.4-6,0t-3-4c.1-6.3,2.3-12,6.5-16.7,8.2-7.6,18.4-9.7,28.5-4.3Z"/>
  <path class="st2" d="M660.9,261.6c5,3.3,9.7,8.5,11.1,14.4.4,3.6.6,6.8-1.1,10.1-3.1,1.5-5.7.6-8.9,0q-.3-1-.7-2-2.5-7.3-8.3-12c-4.1-.8-7.1-.5-10.8,1.4-2.6,3-3.5,5.7-4.5,9.5q-.7,2-2.7,4c-3.3.4-5.2.6-7.9-1.4-1.9-4.5-1-9,.7-13.5,6.5-12.7,20.6-16.8,33.2-10.5Z"/>
  <path class="st0" d="M634,357q1.8,1.2,3,3c.4,2.9.4,4.4-1.2,6.8-2.5,1.6-3.9,1.6-6.8,1.2q-1.8-1.2-3-3c-.4-2.9-.4-4.4,1.2-6.8,2.5-1.6,3.9-1.6,6.8-1.2Z"/>
  <path class="st5" d="M673,357q3.6.4,7,1c.3,2.3.7,4.6,1,7q-1.7,1.6-4,3-2.6-.1-5-1-2-3-1.8-5.6t2.8-4.4Z"/>
</svg>