<?xml version="1.0" encoding="UTF-8"?>
<svg id="Layer_1" xmlns="http://www.w3.org/2000/svg" version="1.1" viewBox="0 0 1024 1536">
  <!-- Generator: Adobe Illustrator 29.0.1, SVG Export Plug-In . SVG Version: 2.1.0 Build 192)  -->
  <defs>
    <style>
      .st0 {
        fill: #fe6565;
      }

      .st1 {
        fill: #fb0000;
      }

      .st2 {
        fill: #ff1313;
      }

      .st3 {
        fill: #fff9f9;
      }

      .st4 {
        fill: #fff5f5;
      }

      .st5 {
        fill: #fe0000;
      }

      .st6 {
        fill: #faf3f3;
      }

      .st7 {
        fill: #fdf2f2;
      }

      .st8 {
        fill: #fff7f7;
      }

      .st9 {
        fill: #fff2f2;
      }

      .st10 {
        fill: #ff1d1d;
      }
    </style>
  </defs>
  <path class="st5" d="M942.3,396.9c36.7,29.1,37.6,95.5,43.9,138.4.3,2.1.6,4.1.9,6.2q5.4,36,1.4,48.1h2c1,2.5,1.1,3.7.1,6.3-7.7,13-18.8,20.6-33.1,24.7.3,1,.6,2,.8,3,3.6,13.4,7.2,28.5.3,41.4-4.4,5.2-9.3,7.8-15.4,10.4-.8.3-1.6.7-2.4,1-8.2,3.5-16.5,6.7-24.9,9.7-.8.3-1.6.6-2.4.9-47,17.2-94.9,31.9-143.1,45.5,1.3,6.4,3,12.4,5.1,18.6.6,1.9,1.3,3.8,1.9,5.7q.5,1.5,1,3c6.7,20,13,40.2,19,60.4q.5,1.7,1,3.5c.7,2.3,1.4,4.6,2,6.8.7,2.2,1.3,4.5,2,6.7,1.6,5.3,3.1,10.6,4.4,15.9.5,1.9,1,3.9,1.5,5.8.6,2.4,1.2,4.9,1.8,7.3,2.1,7.9,4.8,11.9,11.8,16.1q2.6,1.6,5.1,2.6c5.5,2.6,10.5,5.7,15.6,9,1.8,1.2,3.7,2.3,5.5,3.5,6.7,4.3,13.4,8.7,20.1,13.1,1.3.9,2.7,1.7,4,2.6q18.3,12,19.8,18.3c-.9,3.8-2.5,5.9-5,8.9-.9,1.1-1.8,2.3-2.8,3.4-.5.6-1,1.2-1.5,1.8-1.4,1.7-2.8,3.5-4.2,5.3-7.4,9.5-15.1,18.7-23,27.8-.5.6-1.1,1.3-1.6,1.9q-1.7,1.8-3.8,3.4c-2.4,2.1-3.6,3.4-4.9,6.4.3,2.8.8,5.3,1.5,8,.4,1.6.8,3.2,1.2,4.9.2.8.4,1.7.6,2.5,1,4.1,1.9,8.2,2.9,12.3.2.8.4,1.6.6,2.5q17.4,77.2,5.2,114.7c-.2.6-.4,1.2-.6,1.9-2.8,8.4-6.4,16.4-10.5,24.2-.4.8-.8,1.6-1.2,2.4-8.9,16.6-26.3,24-43.7,29.5-.2,8.8.3,17.5,1.1,26.3.2,2.3.4,4.7.6,7,.4,4.1.7,8.2,1.1,12.3.6,6.6,1.1,13.2,1.7,19.8.2,2.3.4,4.6.6,6.9q1.9,21.6-4.1,28.7c-5.7,6.3-10.1,7.7-18.5,8.1-2.8,0-5.5.1-8.3.2-1,0-2,0-3.1,0-3.3,0-6.6.1-9.9.2-1.1,0-2.3,0-3.4,0-32.3.6-64.5.1-96.7-.6-.3.6-.6,1.2-.9,1.8-2.9,5.7-7.3,9.6-13.1,12.2-6,1.1-12,1.2-18.1,1.3-1.1,0-2.1,0-3.2,0-3.5,0-6.9.1-10.4.2-1.2,0-2.3,0-3.5,0-7.9.1-15.8.3-23.8.4-.9,0-1.8,0-2.7,0-4.8,0-9.5.1-14.3.1q-1.6,0-3.3,0c-1,0-2,0-3,0-.8,0-1.6,0-2.5,0-2.5-.3-4.1-.9-6.2-2.2l-1-2c-.7,0-1.4,0-2.1,0-6.5,0-13.1-.2-19.6-.3-3.4,0-6.7,0-10.1-.1-3.9,0-7.7-.1-11.6-.2-1.2,0-2.4,0-3.6,0q-22.1-.4-30.1-8.4c-.9-.8-1.7-1.6-2.6-2.5-3.5-4.3-2.8-8.6-2.4-13.9q0-1.6.2-3.2c.2-3.1.4-6.2.7-9.3.2-2.2.3-4.4.5-6.5.8-10.9,1.6-21.8,2.5-32.7.3-3.6.6-7.1.8-10.7.3-3.4.5-6.9.8-10.3.1-1.6.3-3.3.4-4.9.2-2.3.4-4.5.5-6.8.1-1.3.2-2.6.3-3.9.3-2.5.6-4.8,1.3-7.2-.7-.3-1.5-.5-2.2-.8q-2.8-1.2-4.6-2.7c-2.7-1.9-4.8-2.3-8.1-2.8-1.2-.2-2.4-.4-3.6-.7-1.3-.2-2.6-.5-3.9-.7-69.1-13.1-136.4-38.6-199.3-69.6-3.2-1.6-6.5-3.2-9.7-4.8-38.6-18.9-75.5-41.8-109.7-67.9q-.9-.7-1.9-1.5c-62.2-47.5-92.3-100.6-102.9-178.6-4.4-33.2-6.1-66.5-6.6-100,0-4.4-.1-8.9-.2-13.3,0-1.1,0-2.2,0-3.4-.1-7.9-.4-15.9-.7-23.8-.6-15.8-.7-31.5-.7-47.3,0-.7,0-1.5,0-2.2,0-21.4.4-42.7,1.6-64,0-1.1.1-2.2.2-3.3.2-3.1.4-6.2.6-9.3q0-1.3.2-2.7,1.2-17.2,6.7-23.5,1.9-1.1,4-1c5,1.8,6.7,5.4,9.1,9.8q.9,2.2.9,5.2c1.2-.3,2.4-.7,3.6-1,3.5-.9,6.7-1.2,10.4-1q1.2,1.6,2,4c-1,2.6-2,4.7-3.3,7.1q-.5.9-1,1.9c-.9,1.7-1.8,3.3-2.7,5q-1.3,2.1-.1,4.9c.5,1.2.9,2.5,1.4,3.7.2.7.5,1.3.7,2,.8,2.1,1.6,4.2,2.4,6.3.8,2.1,1.6,4.2,2.4,6.3.7,1.9,1.4,3.8,2.2,5.7q1,3.1,1,6.1c.8,0,1.5,0,2.3.1,6.4.4,11.9.9,17.7,3.9,1.2,3.2,1.1,4.7,0,7.9-.5,1-1.1,2-1.6,3q-.8,1.5-1.6,3-1.7,3.1-4,6.3c-1.7,2.9-2,4.5-1.1,7.8.5,1.4,1,2.9,1.6,4.3.3.8.5,1.5.8,2.3.9,2.4,1.8,4.8,2.7,7.2.9,2.4,1.8,4.8,2.6,7.3.5,1.5,1.1,3,1.7,4.5,1.1,3,1.9,5.3,1.9,8.5,1.1,0,2.2,0,3.3,0q23.1-.3,29.7,4.1c2.3,8.7-1.9,21.5-6.2,29.2-.9,1.4-1.8,2.8-2.7,4.3q-4.2,6.7-4.5,14.4c1.3,3.5,3.1,6.6,5,9.8,2.2,3.8,4.2,7.8,6.2,11.7,2.4,4.6,4.8,9.1,7.2,13.7,4.1-.7,7.6-2,11.4-3.7q.9-.4,1.8-.8c1.9-.8,3.8-1.7,5.7-2.5,1.9-.8,3.8-1.7,5.7-2.5,1.7-.8,3.4-1.5,5.2-2.3q9.9-3.9,15.3-2.3c-1.7,17.6-12.2,34.9-21,50,10.4,12.9,21.1,25.4,33,37,3.9-1.6,6.8-4.3,9.9-7q25.2-21.7,38.1-23c1,.3,2,.7,3,1,.9,5.6,1,10.4,0,15.9-.1.7-.3,1.5-.4,2.3-1.9,10.2-4.9,20.2-7.9,30.1-.8,2.9-1.3,5.7-1.7,8.7,23.4,9.9,47.3,16.3,72,22,.4-1.3.8-2.5,1.2-3.8,1.9-5.6,4.4-10.8,7-16.1.5-1,1-1.9,1.5-2.9,4.5-8.8,9.1-17.3,17.3-23.2q2.6,0,5,1c7,7.9,9.4,18,12.2,27.9.2.9.5,1.8.8,2.7,1.9,7,3.1,14.1,4.1,21.4,4.2.3,8.4.6,12.6.9,1.2,0,2.3.2,3.5.3,7.8.6,15.6,1,23.4,1.3,1,0,2,0,3.1.1,2.5.1,4.9.2,7.4.3q0-1.2,0-2.3c0-19.1,0-38.1,0-57.2,0-9.2,0-18.4,0-27.7,0-59.4.3-118.9,2.1-178.3.6-21.2,1.1-42.5.9-63.7-.2-17.3.2-33.9,4.1-50.9.2-.9.4-1.8.6-2.8,4.3-18.7,11.9-36.5,24.4-51.2q1.2-1.6,2.4-3.2c16.5-17.7,39.4-26.9,63.4-27.9,14.7-.5,28.8.6,43.3,3.1.4-.5.8-1.1,1.2-1.6,8.8-11.9,19-18,33.8-20.4,21.2-1.9,40.1,2.9,56.7,16.4q1.1,1,2.3,2c2.3,1.7,3.2,2.3,6.1,2.6,2.6-.7,5.1-1.5,7.6-2.4,1.6-.6,3.2-1.1,4.8-1.7q1.3-.5,2.6-.9c59.9-21.4,121.9-36.9,183.4-53,3.1-.8,6.1-1.6,9.2-2.4.7-.2,1.5-.4,2.2-.6,11.8-3.1,23.5-6.3,35.2-9.6,1.1-.3,2.2-.6,3.3-.9q1.4-.4,2.9-.8c17.3-4.4,35.2.1,49.5,10.6Z"/>
  <path class="st0" d="M767.5,732.7q2.1,1,3.4,3.6t1.2,3.7c.2.7.5,1.4.7,2.1.8,2.3,1.6,4.6,2.3,7,.6,1.7,1.1,3.4,1.7,5,4.7,14.2,9.1,28.5,13.5,42.9.8,2.5,1.6,5.1,2.3,7.6,4,13.1,7.9,26.2,11.2,39.5.8,3.1,1.6,6.1,2.4,9.2.7,2.8,1.3,5.6,1.9,8.4,2.1,8.7,4.5,14.2,12.1,19.3,3.3,2,6.7,3.8,10.1,5.6,2.7,1.4,5.3,3,7.8,4.7.8.5,1.6,1,2.4,1.5,9.4,5.9,18.7,12,28,18.1,1.3.9,2.7,1.7,4,2.6q18.3,12,19.8,18.3c-.9,3.8-2.5,5.9-5,8.9-.9,1.1-1.8,2.3-2.8,3.4-.5.6-1,1.2-1.5,1.8-1.4,1.7-2.8,3.5-4.2,5.3-7.4,9.5-15.1,18.7-23,27.8q-.8.9-1.6,1.9-1.7,1.8-3.8,3.4c-2.4,2.1-3.6,3.4-4.9,6.4.3,2.8.8,5.3,1.5,8,.4,1.6.8,3.2,1.2,4.9q.3,1.3.6,2.5c1,4.1,1.9,8.2,2.9,12.3.2.8.4,1.6.6,2.5q17.4,77.2,5.2,114.7c-.2.6-.4,1.2-.6,1.9-2.8,8.4-6.4,16.4-10.5,24.2-.4.8-.8,1.6-1.2,2.4-8.5,15.9-24.3,23.2-40.9,28.5-42.2,12.6-90.6,21.3-134.8,20-3-7.1-4.5-14.3-6-21.8-.1-.6-.3-1.3-.4-2-2.2-10.7-4.1-21.4-5.6-32.2-.2-1.1-.3-2.2-.5-3.3-.5-3.8-1.1-7.5-1.6-11.3-.2-1.1-.3-2.3-.5-3.5-3.4-25-3.7-49.8-3.6-74.9,0-3.5,0-7,0-10.5,0-3.4,0-6.8,0-10.3,0-1.6,0-3.2,0-4.8,0-7.9,0-15.6,1.2-23.4-.6.4-1.2.8-1.9,1.3-11.2,7.6-22.4,15-34,21.9-.9.5-1.7,1-2.6,1.6-10.5,6.1-19.2,10.7-31.6,9.3-6.9-2.1-10.5-7.3-13.8-13.3-1.8-3.5-3.4-6.9-5.1-10.5-1-2.1-2-4.1-3-6.2-15.1-30.6-26.8-63-38.9-94.9-2.8-7.2-5.5-14.5-8.6-21.6-5.4-13-7.7-26.7-10.3-40.5-.6-3.3-1.3-6.7-2-10-2.3-11.9-4.6-23.9-6.7-35.9-.5-2.7-1-5.4-1.5-8.2,3.9,1.6,6.3,3.8,9,7,.9,2.7,1.5,5.1,2,7.9.2.8.3,1.6.5,2.4.5,2.6,1,5.1,1.4,7.7.3,1.8.7,3.6,1,5.4,1.6,8.2,3.1,16.4,4.5,24.5.6,3.3,1.2,6.7,1.8,10,.4,2.3.8,4.6,1.2,6.9,1.5,8.6,3.8,16.2,7.5,24.2,4.2,9.6,7.8,19.4,11.5,29.2,6.8,18.1,13.9,36,21.5,53.8.5,1.1.9,2.1,1.4,3.2,3.1,7.3,6.3,14.5,9.6,21.8.5,1.1,1,2.3,1.6,3.4,1.6,3.5,3.2,6.9,4.8,10.4.5,1.1,1,2.1,1.5,3.2,2.8,5.9,5.1,9.9,11.1,13,7.7,1,12.9-.8,19.4-4.8.9-.5,1.7-1,2.6-1.5,2.7-1.6,5.3-3.1,8-4.7q1.2-.7,2.4-1.5c17.6-10.7,34.5-22.5,50.6-35.5.9-.7,1.9-1.5,2.8-2.3,2.7-2.2,5.5-4.5,8.2-6.7q.8-.6,1.6-1.3c9.6-8,18.8-16.4,27.7-25.1,1.4-1.3,2.8-2.5,4.3-3.7q1.7-1.9,1.4-4.9c-1.1-3.5-2.5-5.2-5-7.9-.8-.9-1.6-1.7-2.5-2.6q-1.3-1.3-2.5-2.6-1.1-1.2-2.3-2.4c-3.9-4-8-7.8-12.3-11.5-3.4-3-6.6-6.1-9.9-9.1-4.5-4.2-8.9-8.3-13.5-12.3-2.5-2.2-5-4.5-7.5-6.7-5.5-5-11.1-9.9-16.7-14.7-1.2-1-2.4-2-3.6-3.1q-.9-.8-1.8-1.6c-4.6-4-9.2-8.1-13.7-12.2-3.7-3.3-7.5-6.3-11.4-9.3-7.5-6.8-9.5-18.5-12.2-27.9-1.3-4.5-2.7-9-4.3-13.5-.4-1.1-.7-2.1-1.1-3.3-.7-2.1-1.5-4.3-2.2-6.4-.3-1-.7-2-1-3-.3-.9-.6-1.7-.9-2.6-.9-4.4.3-7.7,2.5-11.5h2c2.5,7.5,5,15,7.4,22.5,1.1,3.5,2.3,7,3.5,10.5,1.1,3.4,2.2,6.7,3.3,10.1.4,1.3.8,2.6,1.3,3.9.6,1.8,1.2,3.6,1.8,5.4.3,1,.7,2,1,3.1q.7,2.6.7,5.6c.5.2,1.1.5,1.7.7,3,1.7,5.4,4,7.9,6.4,3.8,3.6,7.7,7,11.8,10.3,5,4,9.7,8.4,14.4,12.8,4.4,4.2,9,8,13.8,11.8,2.9,2.4,5.5,5,8.1,7.8q1.3,1.4,3.3,1.2c.3-.8.6-1.7.8-2.5,19.6-58.8,47.2-112.6,88.2-159.5.5-.6,1-1.3,1.6-1.9q1.4-1.1,3.4-1Z"/>
  <path class="st4" d="M591.5,785.7h2c2.5,7.5,5,15,7.4,22.5,1.1,3.5,2.3,7,3.5,10.5,1.1,3.4,2.2,6.7,3.3,10.1.4,1.3.8,2.6,1.3,3.9.6,1.8,1.2,3.6,1.8,5.4.3,1,.7,2,1,3.1q.7,2.6.7,5.6c.5.2,1.1.5,1.7.7,3,1.7,5.4,4,7.9,6.4,3.8,3.6,7.7,7,11.8,10.3,5,4,9.7,8.4,14.4,12.8,4.4,4.1,9,8,13.7,11.8,3.1,2.5,5.8,5.3,8.6,8.2,2.5,2.5,5.1,4.8,7.8,7.1,4.1,3.5,8.1,7.2,12.1,10.8.5.4,1,.9,1.5,1.3,6.5,5.9,12.9,11.9,19.1,18.1.6.6,1.2,1.2,1.8,1.8,4.1,4.1,8,8,8.2,14.1-.2,5.9-3.5,8.7-7.6,12.7-1.3,1.4-2.7,2.7-4,4.1-4.2,4.2-8.5,8.3-13,12.2-2.3,1.9-4.4,4-6.6,6-5.6,5.1-11.6,9.7-17.6,14.3-1.7,1.4-3.5,2.7-5.2,4.1-18.1,14.5-37.3,27-57.5,38.4-.6.4-1.2.7-1.9,1.1-8.7,4.9-15.3,6.7-25.2,5.8-6.9-2.1-10.5-7.3-13.8-13.3-1.8-3.5-3.4-6.9-5.1-10.5-1-2.1-2-4.1-3-6.2-15.1-30.6-26.8-63-38.9-94.9-2.8-7.2-5.5-14.5-8.6-21.6-5.4-13-7.7-26.7-10.3-40.5-.6-3.3-1.3-6.7-2-10-2.3-11.9-4.6-23.9-6.7-35.9-.5-2.7-1-5.4-1.5-8.2,3.9,1.6,6.3,3.8,9,7,.9,2.7,1.5,5.1,2,7.9.2.8.3,1.6.5,2.4.5,2.6,1,5.1,1.4,7.7.3,1.8.7,3.6,1,5.4,1.6,8.2,3.1,16.4,4.5,24.5.6,3.3,1.2,6.7,1.8,10,.4,2.3.8,4.6,1.2,6.9,1.5,8.6,3.8,16.2,7.5,24.2,4.2,9.6,7.8,19.4,11.5,29.2,6.8,18.1,13.9,36,21.5,53.8.5,1.1.9,2.1,1.4,3.2,3.1,7.3,6.3,14.5,9.6,21.8.5,1.1,1,2.3,1.6,3.4,1.6,3.5,3.2,6.9,4.8,10.4.5,1.1,1,2.1,1.5,3.2,2.8,5.9,5.1,9.9,11.1,13,7.7,1,12.9-.8,19.4-4.8.9-.5,1.7-1,2.6-1.5,2.7-1.6,5.3-3.1,8-4.7q1.2-.7,2.4-1.5c17.6-10.7,34.5-22.5,50.6-35.5q1.4-1.1,2.8-2.3c2.7-2.2,5.5-4.5,8.2-6.7q.8-.6,1.6-1.3c9.6-8,18.8-16.4,27.7-25.1,1.4-1.3,2.8-2.5,4.3-3.7q1.7-1.9,1.4-4.9c-1.1-3.5-2.5-5.2-5-7.9-.8-.9-1.6-1.7-2.5-2.6q-1.3-1.3-2.5-2.6t-2.3-2.4c-3.9-4-8-7.8-12.3-11.5-3.4-3-6.6-6.1-9.9-9.1-4.5-4.2-8.9-8.3-13.5-12.3-2.5-2.2-5-4.5-7.5-6.7-5.5-5-11.1-9.9-16.7-14.7-1.2-1-2.4-2-3.6-3.1-.6-.5-1.2-1-1.8-1.6-4.6-4-9.2-8.1-13.7-12.2-3.7-3.3-7.5-6.3-11.4-9.3-7.5-6.8-9.5-18.5-12.2-27.9-1.3-4.5-2.7-9-4.3-13.5-.4-1.1-.7-2.1-1.1-3.3-.7-2.1-1.5-4.3-2.2-6.4-.3-1-.7-2-1-3-.3-.9-.6-1.7-.9-2.6-.9-4.4.3-7.7,2.5-11.5Z"/>
  <path class="st1" d="M812.5,875.7c8.9,4.9,17.6,10.2,26.1,15.8,4.7,3.1,9.4,6.1,14.2,9.1q35.7,22.7,38.7,28.1c.6,3.9.3,5.6-1.8,8.9-.8,1-1.7,2-2.5,3.1-.9,1.1-1.8,2.3-2.8,3.4-.5.6-1,1.2-1.5,1.8-1.4,1.7-2.8,3.5-4.2,5.3-7.9,10.2-16.1,20-24.6,29.6-1.2,1.4-2.4,2.7-3.5,4.1-.6.7-1.3,1.5-1.9,2.2-.6.7-1.1,1.3-1.7,2q-1.5,1.5-3.5,1.5c-.2-.8-.4-1.7-.7-2.6q-6.7-26-14-51.9c-3.5-12-6.9-23.9-9.9-36-1.7-6.7-3.6-13.3-5.7-19.9q-.8-2.6-.8-4.6Z"/>
  <path class="st7" d="M987.5,589.7h3c1,2.5,1.1,3.7.1,6.3-6.7,11.2-16.5,19.9-29.3,23.3-1.8.4-3.6.8-5.4,1.2-.9.2-1.8.4-2.7.6-5.2,1.2-10.4,2-15.7,2.6,0,.6,0,1.3,0,1.9-.4,6.2-1.3,12.5-5.9,17.1q-3.2.5-7,0c-3.6-3-6.2-6.7-8-11v-3c-.6.1-1.2.2-1.8.4-2.7.5-5.3,1.1-8,1.6-.9.2-1.9.4-2.8.6-.9.2-1.8.4-2.7.5q-1.2.3-2.5.5t-5.2.4c0,1.3-.1,2.6-.2,3.9-.6,5.6-2.8,10.4-5.8,15.1-3.2,1.6-5.4,1.5-9,1-4.2-3.4-6.9-8.1-9-13v-2q-13.4,2.5-27,5-1.2,5.1-2.4,10.2c-.9,3.8-1.8,7-4.6,9.8q-2.8.8-6,0c-4.8-4.1-8.1-9.4-11-15-6.2-.2-11.9.5-18,1.5-.9.1-1.7.3-2.6.4-2.1.3-4.2.7-6.4,1.1,0,.6-.2,1.3-.3,1.9-1.2,6.8-3.1,11.3-7,17-3,1.9-5.3,1.6-8.7,1.1-4.5-4.2-7.2-9.6-10-15-8,.5-16,1.1-24,2,.1.9.2,1.9.3,2.9,0,6.4-3.5,12.2-7.8,16.8-2.9,1.6-4.2,2.2-7.5,1.4-4.4-4.2-7-9.2-9-15v-3q-1.5.2-3.1.4c-8.4,1.1-16.5,1.9-24.9,1.6q.9-3.9,2-5c1.5-.2,3-.4,4.6-.6,1-.1,2-.2,3-.3q1.6-.2,3.3-.3c2.3-.2,4.6-.5,6.9-.7,1.2-.1,2.4-.3,3.7-.4,20.4-2.2,40.7-4.6,61-8,6.2-1,12.5-2,18.8-3,2-.3,4-.6,6-.9,5.8-.9,11.6-1.8,17.4-2.6,10.5-1.5,21-3.4,31.4-5.2,1.1-.2,2.2-.4,3.4-.6,19.2-3.4,38.3-7.1,57.4-11,4.8-1,9.6-1.9,14.5-2.8,7.3-1.3,14.5-2.8,21.8-4.4,1.3-.3,2.7-.6,4-.9,14.1-3,26.2-7.6,35-19.8,1-1.6,2-3.2,2.9-4.8.4-.5.8-1.1,1.3-1.7Z"/>
  <path class="st6" d="M645.5,1129.7q2.5,0,5,1c2.4,4.3,2.5,8.9,2.9,13.8,0,.9.1,1.7.2,2.7.2,2.9.5,5.8.7,8.7.2,2.1.3,4.1.5,6.2.4,5.5.9,10.9,1.3,16.4.7,8.6,1.4,17.1,2.1,25.7.3,3.2.5,6.4.8,9.6.8,10.5,1.7,21,2.7,31.5q.1,1.5.3,3c.4,4.7.9,9.4,1.4,14.2.9,9.1,1.4,18.1,1.5,27.3q0,1.4,0,2.8c0,7.3-1.9,12.2-6.8,17.8-8.1,7.8-17,7.6-27.6,7.8-1.1,0-2.1,0-3.2,0-3.5,0-6.9.1-10.4.2q-1.8,0-3.5,0c-7.9.1-15.8.3-23.8.4-.9,0-1.8,0-2.7,0-4.8,0-9.5.1-14.3.1-1.1,0-2.2,0-3.3,0q-1.5,0-3,0c-.8,0-1.6,0-2.5,0-2.4-.3-4.1-1-6.2-2.2q-.1-2.4,0-5c2.7-2.7,4.3-2.3,8.2-2.3,1.3,0,2.6,0,3.9,0,1.4,0,2.9,0,4.3,0,1.5,0,3,0,4.4,0,3.9,0,7.8,0,11.7-.1,11.2,0,22.4-.2,33.7-.4,2.4,0,4.7,0,7.1,0,2.7,0,5.4,0,8-.2.7,0,1.4,0,2.2,0,5.3-.2,7.9-2.1,11.5-5.8,3.3-4.3,3.4-8,3.3-13.2,0-.8,0-1.6,0-2.4-.2-8.4-.8-16.8-1.6-25.2-.1-1.7-.3-3.4-.4-5-.3-3.5-.6-7.1-.9-10.6-.5-5.5-1-11.1-1.4-16.6-.6-7.4-1.3-14.9-1.9-22.3-1.2-13.7-2.4-27.4-3.5-41.1-.3-3.7-.6-7.5-1-11.2-.2-2.2-.4-4.5-.6-6.7,0-1-.2-2-.3-3q-.8-9.9-.6-13.6l2-2Z"/>
  <path class="st9" d="M508.9,510.1c5.4,3.1,8.8,8.8,10.7,14.6.1,2,.2,4,.2,6,0,1.1,0,2.1,0,3.2q-.2,2.8-2.2,5.8-3,.3-6,0c-3.2-3.2-2.4-7.3-2.5-11.7-.6-3.9-1.7-5.6-4.5-8.3-4.8-1.1-10.7-.6-15,2-1.4,4.3-1,8.7-.8,13.2q.1,5.3-1.6,7.8t-4.1,1.1-4.3-4c-2.2-6.3-2.3-13.3.4-19.4,6.1-10.6,18.3-15.1,29.8-10.2Z"/>
  <path class="st8" d="M597.9,486.2c5.2,3,8.8,7.9,10.7,13.5.1,2.3.2,4.7.2,7,0,1.2,0,2.5,0,3.8q-.3,3.2-1.7,5.2t-4.3.8-3.4-1.8c-.3-3.2-.4-6.5-.6-9.7-.4-3.2-.9-5.5-2.4-8.3-4.3-1.4-8.5-1.5-13-1-2.9,1.8-4.5,2.9-6,6,0,3.2,0,6.3.2,9.5q.1,5-1.6,7.5-1.7,1-4.2,1-2.4-.9-3.6-2.5c-2.3-6.3-2.1-15,.1-21.3,6.3-10.4,18-14.4,29.3-9.6Z"/>
  <path class="st3" d="M906.5,400.7c5.2,2,7.6,6.2,10,11,1.9,4.7,2.4,9.2,2.4,14.2q0,1.1,0,2.3c-.1,6-.9,13-5.4,17.5q-3,.1-6,0c-.3-.3-.7-.7-1-1,.2-7.7,1.8-15.4,3-23-1,0-2.1-.1-3.1-.2-4.8-1-6.4-2.4-9.9-5.8-1.6-3.2-1.6-6.5-1-10,3.2-4.5,5.5-5.9,11-5Z"/>
  <path class="st10" d="M727.5,660.7h6q-.8,3.4-2,7c-1,.3-2,.7-3,1-1.4-2.4-2.1-3.5-1.6-6.2.2-.6.4-1.2.6-1.8Z"/>
  <path class="st10" d="M884.5,636.7q-.8,5.8-3,8-3-3.6-3-7,2-1,6-1Z"/>
  <path class="st2" d="M775.5,655.7h6c-.3,1.6-.7,3.3-1,5h-3c-.7-1.7-1.3-3.3-2-5Z"/>
</svg>