<?xml version="1.0" encoding="UTF-8"?>
<svg id="Layer_1" xmlns="http://www.w3.org/2000/svg" version="1.1" viewBox="0 0 1024 1024">
  <!-- Generator: Adobe Illustrator 29.0.1, SVG Export Plug-In . SVG Version: 2.1.0 Build 192)  -->
  <defs>
    <style>
      .st0 {
        fill: #e42c01;
      }

      .st1 {
        fill: #fe2b03;
      }

      .st2 {
        fill: #fff;
      }

      .st3 {
        fill: #fefbfa;
      }
    </style>
  </defs>
  <path class="st1" d="M744,156c4.4,4,8.6,8.2,12,13v2q1.7,0,3.5,0c4.3,0,8.4.6,12.7,1.4.8.1,1.5.3,2.3.4,2.5.4,4.9.9,7.4,1.4.8.2,1.7.3,2.6.5,51.3,9.6,115.4,29.2,147.8,73.6,2,3.3,2.3,5.1,1.7,8.9-2.1,2.6-4,3.6-7.1,4.5-.8.3-1.7.5-2.6.8-.9.3-1.9.6-2.8.8-1,.3-2,.6-3,.9-3.3,1-6.5,2-9.8,3-2.3.7-4.6,1.4-6.9,2.1-6.1,1.9-12.1,3.7-18.2,5.6-5.8,1.8-11.6,3.6-17.4,5.4-2.3.7-4.5,1.4-6.8,2.1-1.1.3-2.2.7-3.4,1-3.4,1-6.8,2.1-10.2,3.1-25,7.7-49.9,15.6-74.9,23.5.6,15,2.2,29.9,3.8,44.9.5,4.6,1,9.3,1.4,13.9.3,2.5.5,4.9.8,7.4.3,3.3.7,6.5,1,9.8,0,.9.2,1.9.3,2.8.7,6.8.9,13.5.9,20.3,0,1.1,0,2.3,0,3.5.2,24.8,0,48.9-4.3,73.4-.2,1.1-.4,2.3-.6,3.4-8.8,51.1-31.8,98.1-65.4,137.6-.6.7-1.3,1.5-1.9,2.3-11,12.5-22.8,24.7-36.1,34.7-1.2.9-2.4,1.9-3.6,2.8-19.5,15-40.5,28.2-63.5,37.2-1,.4-1.9.8-2.9,1.1-4.9,1.9-9.7,3.3-14.8,4.4-4.8,1.5-6.6,4.2-9,8.4-1.9,3.6-3.6,7.3-5.1,11.1-.4.7-.7,1.5-1.1,2.2-1.4,3.2-2.3,5.5-1.2,8.9,1.3,2.4,2.7,4.5,4.3,6.7.5.8,1.1,1.6,1.7,2.5,1.8,2.6,3.6,5.1,5.4,7.7q.9,1.2,1.8,2.5c4,5.6,8.1,11.1,12.2,16.5,1.7,2.2,3.4,4.5,5.1,6.7,1,1.3,2,2.7,3,4q7.9,10.5,7.9,13.2c.9,0,1.8,0,2.7,0,8.4,0,16.8-.1,25.2-.2,4.3,0,8.6,0,12.9,0,4.2,0,8.3,0,12.5,0,1.6,0,3.2,0,4.7,0,15.8-.2,32.7,2.6,45.1,13.3,3.6,4,5.6,7.8,6.2,13.1-.5,4-1.9,6-4.4,9.1-3.2,2.4-6.1,2.3-10,2-2.4-1.1-4.6-2.3-6.9-3.7-11.6-6.5-23.5-10.5-36.9-10.4-.7,0-1.4,0-2.1,0-1.7,0-3.4,0-5,0,.7.3,1.5.6,2.2.8,11.1,4.4,23.1,9.9,28.8,21.2.6,5.3.9,9.6-1.9,14.1-3.9,2.4-7.5,3.5-12.1,2.9-3.9-2.2-7.1-4.9-10.4-7.9-15.8-14.3-46.2-27.1-67.6-26.1q1.3.6,2.6,1.2c8.1,4.1,14.2,8.2,18.8,16.2,1,4.3,1.8,8.4-.5,12.3-3.1,3.8-5,5-9.8,5.8-6.1,0-9.4-3.7-14-7.3-9.4-6.9-20.9-8.6-32.2-10.3q1,.5,2,1.1c6.8,3.8,11.6,7.6,15.4,14.4,1.2,4.9,1.3,8.3-1.1,12.8-3.3,4-4.8,4.5-9.9,5.1-5.1,0-7.7-2.4-11.5-5.7-19.5-15.6-45.6-28.8-70.9-26.9-3.3.2-6.7.3-10,.3-2.5,0-5,.1-7.5.2-1.2,0-2.4,0-3.6,0-9.4.3-16.6,1.7-24.3,7.3-4.9,3.2-7.6,4.5-13.4,3.3-3.5-2-5.7-4.1-7-8-.6-6,.6-10.1,4-15,7.5-8.9,19.8-12.6,31-14,4.9-.3,9.8-.5,14.7-.6q1.9,0,3.9-.1c3.1,0,6.3-.2,9.4-.3-.6-.7-1.1-1.5-1.7-2.2-4.6-6.1-9.1-12.3-13.6-18.5-4.3-6-8.7-11.9-13.2-17.8q-34.5-44.8-34.5-58.5c-.9,0-1.8,0-2.7-.1-9.5-.5-18.8-1.8-28.2-3.6-.7-.1-1.4-.3-2.1-.4-10.7-2-21.2-4.3-31.7-7.3-.9-.2-1.8-.5-2.7-.7q-1.2-.3-2.3-.7c-2.7-.3-3.9.3-6.1,1.8q-2.1,2-4.2,4.4c-.8.9-1.6,1.8-2.4,2.7-3,3.6-6,7.2-8.9,10.8-2.9,3.5-5.8,6.9-8.8,10.4-.6.6-1.1,1.3-1.7,1.9-1.1,1.3-2.2,2.6-3.4,3.9-6.2,7.1-12.4,14.3-18.3,21.7-3.6,4.4-7.3,8.6-11.1,12.7-2.2,2.5-4.4,5.1-6.5,7.7-5.2,6.4-10.7,12.7-16.1,18.9-2.6,3-5.1,6-7.7,9-.5.6-1,1.1-1.5,1.7-1,1.2-2,2.3-3,3.5-1.5,1.8-3,3.5-4.5,5.3-.5.6-1,1.2-1.5,1.8-1,1.2-2,2.3-3,3.5-2.5,3-5.1,5.9-7.6,8.9q-.8.9-1.5,1.8c-1,1.1-1.9,2.3-2.9,3.4q-3.3,3.9-5.5,5c-6.3,0-11.4-1.7-16.9-4.6-.7-.4-1.4-.7-2.1-1.1-2.2-1.1-4.4-2.3-6.6-3.4-1.5-.8-3-1.5-4.5-2.3-3.7-1.9-7.3-3.7-10.9-5.6.6-3.9,1.8-7.1,3.6-10.6.5-1.1,1.1-2.2,1.6-3.3.6-1.1,1.2-2.3,1.7-3.4.6-1.2,1.2-2.3,1.8-3.5,4.5-8.9,9.2-17.6,14.2-26.2l-2,2-36,36c-3.5-1.4-6.8-2.8-10.2-4.5-1-.5-2-1-3.1-1.5-4.6-2.2-9.2-4.4-13.7-6.7-2.4-1.2-4.8-2.3-7.3-3.5-3.5-1.7-7-3.4-10.5-5.1q-1.6-.8-3.3-1.6t-3-1.5c-.9-.4-1.8-.9-2.7-1.3-2.5-1.5-3.8-2.9-5.3-5.4,0-4.8,2.9-7.7,6-11.1,1-1.2,2-2.3,3-3.5.5-.6,1-1.1,1.5-1.7,2.1-2.4,4.1-4.9,6.1-7.4,3.6-4.4,7.3-8.6,11.1-12.8,2.4-2.7,4.6-5.4,6.9-8.2,2.5-3.1,5-6,7.9-8.8,2.7-2.7,5.1-5.5,7.5-8.4,4.6-5.7,9.5-11,14.5-16.2,3.7-3.9,7.3-7.9,10.8-12,2.4-2.7,4.8-5.3,7.2-7.9q.8-.8,1.5-1.7c4.5-4.9,9.1-9.8,13.7-14.7,3.4-3.6,6.7-7.2,10.1-10.9,4.3-4.7,8.7-9.3,13.2-13.8,1.8-1.8,3.4-3.7,5.1-5.6,4.2-4.8,8.7-9.3,13.3-13.9.8-.8,1.7-1.6,2.5-2.5,2-2,4-4,6.1-6-1.3,0-2.5,0-3.8,0-4.7,0-9.3,0-14,.1-2,0-4,0-6,0-2.9,0-5.8,0-8.7,0q-1.4,0-2.7,0-1.3,0-2.5,0-1.1,0-2.2,0c-2.5-.5-3.4-1.4-5-3.4-.7-3.2-.5-5.1,1.1-8,1.6-2.3,3.3-4.6,5-6.8.6-.8,1.3-1.7,1.9-2.5,2-2.6,4-5.2,6-7.7,1.2-1.5,2.4-3.1,3.6-4.6,2.9-3.7,5.8-7.4,8.7-11.1,3.1-3.9,6.1-7.9,9.2-11.8,1.6-2.1,3.3-4.2,4.9-6.3,1.1-1.5,2.3-2.9,3.4-4.4,3.5-4.5,7-8.9,10.5-13.4,2.8-3.6,5.6-7.2,8.4-10.8,5.4-6.9,10.9-13.8,16.5-20.6,3.5-4.3,6.9-8.6,10.3-13,8.5-10.9,17.2-21.6,26.3-32.1,3-3.5,6-7,8.9-10.6,3.8-4.7,7.8-9.1,11.9-13.6,2.4-2.6,4.6-5.3,6.8-8.1,4.1-5.1,8.4-9.8,12.9-14.5,4.1-4.4,8-9,11.8-13.7,2.6-3.1,5.3-5.8,8.2-8.6,1.8-1.8,3.4-3.6,5-5.5,4.1-4.8,8.6-9.2,13.2-13.6.6-.6,1.2-1.2,1.8-1.8.5-.5,1.1-1.1,1.6-1.6q1.4-1.4,2.3-3.4h2c.2-.5.4-1.1.7-1.7,1.7-3,4-5.3,6.5-7.7q.8-.8,1.5-1.5c1.1-1.1,2.2-2.2,3.3-3.2,1.6-1.6,3.3-3.2,4.9-4.9,4.9-4.9,9.9-9.7,15.2-14.2,4.2-3.7,8-7.8,12-11.8,5.2-5.3,10.5-10.5,16.1-15.3,15.5-13.7,27.9-30.7,37.9-48.7.4-.7.8-1.4,1.2-2.1,5.6-10,10.4-20.3,14.8-30.9,9-21.2,19.2-41.1,35.1-58,1.6-1.7,3-3.4,4.4-5.2,18.7-21.6,47-33.5,74.4-38.8,1.2-.2,2.3-.5,3.5-.7,35.7-5.8,73.7.7,101.5,24.7ZM510.1,724.2c-2.2.1-4.4.3-6.5.4-1.2,0-2.3.2-3.4.3q-1.8.1-3.5.2-1.7.1-3.3.3-3,.2-5.4.6-2.3,2.3-6.4,9.8c-.6,1-1.1,2.1-1.7,3.1-.6,1-1.1,2-1.7,3-.5,1-1.1,2-1.6,2.9-.9,1.7-1.8,3.5-2.7,5.2-.9,3.3-1.3,4.4.2,7.6.6,1,1.3,2,1.9,2.9,1.2,1.8,2.3,3.6,3.5,5.4.5.7.9,1.4,1.4,2.1,7.1,10.6,14.6,20.9,22.4,31,3.1,3.9,6.3,7.8,8.8,12.1,1.4,2.7,2.8,5.4,4.5,8q3.6,3,13.2,3.1c4.2-.3,6.5-1,9.4-4.1q10.5-7.9,23.6-11.3c1-.3,1.9-.5,2.8-.8q1.4-.4,2.7-.7c3.1-.8,5.8-1.8,8.6-3.3-5.5-7.8-11.1-15.6-16.8-23.2-3.5-4.8-7-9.5-10.5-14.3-5.6-7.8-11.2-15.5-17.1-23-.6-.7-1.2-1.4-1.7-2.2-.6-.7-1.1-1.4-1.7-2.1-1.7-2.2-3.3-4.3-4.7-6.7q-.7-1.3-1.5-2.5c-2.1-3.1-2.4-3.8-6.1-4.6q-3.7.6-6.8.8Z"/>
  <path class="st2" d="M555,339c17.4-3,35.9,6.2,49.9,15.9,21,16.2,33.7,40,37.1,66.1.3,4.4.3,8.7.3,13.1,0,1.2,0,2.4,0,3.6-.5,40-19.2,76.4-45.6,105.7q-1.7,1.6-3.7,1.6v2q-1.3,1.4-3.2,3c-.7.6-1.5,1.2-2.2,1.9-.8.7-1.7,1.4-2.5,2.1q-1.3,1.2-2.7,2.3c-7.7,6.6-15.8,12.3-24.3,17.7-.7.4-1.3.8-2,1.2-56.3,35.1-127.8,47.1-193,52.8-1.1,0-2.2.2-3.3.3-18.6,1.6-37.1,2.4-55.7,2.7-.9,0-1.7,0-2.6,0-5.7.1-11.5.2-17.2.2-1.9,0-3.8,0-5.7,0-2.7,0-5.3,0-8,0q-1.2,0-2.4,0-5.4,0-8-2.3c-1.1-2.7-.9-3.5,0-6.2q1.4-1.7,3.1-3.5t2-2c.7-.7,1.5-1.4,2.2-2.2.8-.8,1.5-1.5,2.3-2.3,2.5-2.5,5.1-5.1,7.7-7.6,1.8-1.8,3.5-3.5,5.3-5.3,3.7-3.7,7.4-7.4,11.2-11.1,4.8-4.7,9.5-9.5,14.3-14.2,3.7-3.7,7.3-7.3,11-11,1.8-1.7,3.5-3.5,5.3-5.2,2.5-2.5,4.9-4.9,7.4-7.4.7-.7,1.4-1.4,2.2-2.2,4-4,8.1-7.8,12.4-11.4,2.2-1.9,4.2-3.9,6.2-6,3.4-3.4,6.9-6.6,10.5-9.8,2.1-1.8,4-3.8,6-5.7,3.2-3.2,6.5-6.2,9.9-9.1,3.2-2.9,6.2-6,9.2-9.2q1.9-1.7,3.9-1.7c.3-1,.7-2,1-3q1.6-1.6,3.6-3.2c4.3-3.6,8.4-7.4,12.5-11.3.7-.6,1.3-1.3,2-1.9,3.9-3.7,7.7-7.4,11.5-11.2,2.2-2.1,3.4-2.4,6.4-2.6,1,0,2,.2,3,.2,2.6,3.8,2.7,5.4,2,10-2.1,3-4.7,5.4-7.4,7.9-.7.7-1.4,1.4-2.1,2.1q-5.2,5-7.5,5v2q-1.5,1.5-3.5,3.1c-4.4,3.8-8.7,7.7-12.9,11.7q-1.1,1-2.2,2.1c-4.8,4.6-9.6,9.2-14.3,14-2.6,2.5-5.3,4.9-8,7.2-3.5,3.1-6.7,6.5-10,9.9q-2.1,1.9-4.1,1.9-.4.9-.8,1.8c-1.3,2.4-2.6,3.6-4.7,5.3-4.2,3.5-8,7.3-11.8,11.2-2.1,2-4.1,3.9-6.3,5.7-4.6,4-9,8.3-13.3,12.7-.8.8-1.6,1.6-2.5,2.5-2.6,2.6-5.2,5.2-7.8,7.8-1.8,1.8-3.5,3.5-5.3,5.3-3.9,3.9-7.8,7.8-11.7,11.7-1.6,1.6-3.2,3.2-4.8,4.8-1.5,1.5-2.9,2.9-4.3,4.4q-1.8,1.7-3.8,1.7v2l-1,1c8.4-.4,16.7-.7,25.1-1.1,3.9-.2,7.8-.3,11.7-.5,3.8-.2,7.5-.3,11.3-.5,1.4,0,2.8-.1,4.3-.2,4.6-.2,9.1-.4,13.7-.7,1.3,0,2.6-.1,4-.2,1.3,0,2.5-.1,3.8-.2q1.7,0,3.4-.2c3.1-.5,3.8-1.2,5.8-3.5h2v-2q1.5-1.5,3.5-3.2c4.3-3.7,8.4-7.5,12.5-11.3,1.5-1.4,3-2.8,4.5-4.2.8-.7,1.5-1.4,2.3-2.2,4.1-3.8,8.2-7.7,12.3-11.5,3.4-3.2,6.8-6.4,10.2-9.5,6.4-6,12.8-12,19.4-17.9,3.3-3,6.6-6,10-9.1,3.2-3,6.5-5.9,9.7-8.8,3.7-3.3,7.2-6.7,10.6-10.2,1.9-1.8,3.8-3.6,5.9-5.3,4.1-3.6,7.9-7.3,11.7-11.2,1.4-1.4,2.7-2.8,4.1-4.1,2.1-2.1,4.2-4.3,6.4-6.5,2.1-2.1,4.1-4.2,6.2-6.3q.9-1,1.9-2,.9-.9,1.8-1.8c.5-.5,1-1.1,1.6-1.6,1.8-1.5,3.4-2.5,5.6-3.4,3.3.3,4.6.6,7,3,.5,4.2.4,6.3-1.9,9.9q-2.1,2.1-4.1,2.1v2q-1.3,1.3-3.2,2.8c-3.8,3.2-7.3,6.6-10.8,10.1-.5.5-1.1,1.1-1.6,1.6-1.6,1.7-3.3,3.3-4.9,5q-12.6,12.7-18.9,18.1c-2.2,1.9-4.1,3.9-6.1,5.9-3.3,3.3-6.6,6.4-10.2,9.5-1.9,1.7-3.8,3.4-5.6,5.1-.6.5-1.2,1.1-1.8,1.7-1.2,1.1-2.3,2.2-3.5,3.3q-4.2,3.9-6.4,3.9v2q-1.3,1.3-3.2,2.9c-3.9,3.3-7.7,6.7-11.4,10.2q-.8.7-1.6,1.5c-2.7,2.5-5.4,5.1-8,7.8q-2.7,2.6-4.7,2.6v2q-1.3,1.3-3.2,2.9c-4,3.4-7.9,7-11.8,10.6-.6.5-1.2,1.1-1.8,1.6-1.4,1.3-2.8,2.6-4.2,3.9,32.8-4,65.3-9.4,97-19,.6-.2,1.3-.4,1.9-.6,29.8-9.1,57.6-22.1,82.1-41.4.9-.7,1.8-1.4,2.7-2.1,26.9-21.2,44.8-48.7,53.7-81.7.5-1.9,1.1-3.8,1.7-5.7,6.3-23.4,2.8-51-8.9-72.1-2.9-4.9-6.3-9.3-10.1-13.5q-.9-1-1.8-2.1c-11.8-12.8-27.7-19.5-44.7-21.9q-5.4-.8-7.6-3c-.3-4.1-.3-5.5,2-9Z"/>
  <path class="st0" d="M588,709c-1.2.4-2.4.8-3.6,1.3-6,3-7.9,8.3-10.5,14.2-.5,1-1,2.1-1.5,3.1q-2.8,5.3-2.6,11c1.7,3.3,3.5,6.4,5.5,9.5.4.7.9,1.4,1.3,2.1,5.7,8.9,12.1,17.3,18.4,25.8,1.7,2.2,3.4,4.5,5.1,6.7,1,1.3,2,2.7,3,4q7.9,10.5,7.9,13.2c.9,0,1.8,0,2.7,0,8.4,0,16.8-.1,25.2-.2,4.3,0,8.6,0,12.9,0,4.2,0,8.3,0,12.5,0,1.6,0,3.2,0,4.7,0,15.8-.2,32.7,2.6,45.1,13.3,3.6,4,5.6,7.8,6.2,13.1-.5,4-1.9,6-4.4,9.1-3.2,2.4-6.1,2.3-10,2-2.4-1.1-4.6-2.3-6.9-3.7-11.6-6.5-23.5-10.5-36.9-10.4q-1,0-2.1,0c-1.7,0-3.4,0-5,0,.7.3,1.5.6,2.2.8,11.1,4.4,23.1,9.9,28.8,21.2.6,5.3.9,9.6-1.9,14.1-3.9,2.4-7.5,3.5-12.1,2.9-3.9-2.2-7.1-4.9-10.4-7.9-16.5-14.9-44.7-25-66.7-27.1-5.2-.6-9.9-1.4-14.8-3.3-8.3-2.8-18-2-26.7-2.3-1.4,0-2.8,0-4.2-.1-3.4-.1-6.8-.2-10.2-.3.3-.6.6-1.2.9-1.8q1.2-2.3,2.1-5.2c6.8-4.6,14.8-6.7,22.6-8.8q1.6-.5,3.3-.9c2.7-.8,5.4-1.5,8-2.2-8.3-11.6-16.7-23.1-25.2-34.6-1.8-2.4-3.6-4.9-5.4-7.3-5.8-7.9-11.7-15.9-17.8-23.5q-7.6-9.4-7.6-12.5c2.2-.4,4.4-.8,6.6-1.2.7-.1,1.4-.3,2.2-.4,4.1-.8,8.3-1.5,12.4-2.2,9.6-1.6,18.9-3.5,28.3-6.2q1.3-.4,2.6-.7c3.7-1.1,6.9-2.2,10.3-3.9q2.6-1.3,5.6-.3Z"/>
  <path class="st2" d="M808.9,275.2c-31.7.4-35.1-7.8-61.7-16.3-3.6-2.6-3.1-3.9-1.9-6,2.2-2.4,4-3.6,7.1-4.6.7-.2,1.4-.5,2.1-.7,7.3-1.3,5.1-2.5,17,4.9,22.3,19.4,68.2,11.4,131.6-2.5,17.8-1.8,21.4-4.3,26.6-.7q1.6,2.8,1.7,5.5c-1.4,3-2.3,3.7-5.2,5.3-2.9.5-5.7.8-8.7.9-.9,0-1.7.1-2.6.2-2.9.2-11.2,1.9-14,2.1-2,.1-19.4,3.7-23.3,4.1-36.2,6-49.1,7.5-68.6,7.8Z"/>
  <path class="st3" d="M694.9,200.5c4.9,3.5,7.8,7.5,9.1,13.5.5,4.4.8,7.8-1.7,11.6-2.8,1.7-4.1,2-7.3,1.4-2.2-1.7-2.9-2.6-3.6-5.3-.1-.9-.2-1.7-.3-2.6-.6-3.4-1-4.9-3.2-7.7-4.1-1.9-7.5-2-11.9-1.4-2.9,1.2-4.4,2.2-6.2,4.8q-.9,2.4-1.2,5.8t-1.7,5.4c-2.7,1.6-4.7,1.4-7.8,1.1-2.2-1.6-2.9-2.5-3.4-5.2,0-7.1,1.2-12.2,6-17.5,9.5-8.8,21.9-10.3,33.3-3.8Z"/>
</svg>