<?xml version="1.0" encoding="UTF-8"?>
<svg id="Layer_1" xmlns="http://www.w3.org/2000/svg" version="1.1" viewBox="0 0 1024 1536">
  <!-- Generator: Adobe Illustrator 29.0.1, SVG Export Plug-In . SVG Version: 2.1.0 Build 192)  -->
  <defs>
    <style>
      .st0 {
        fill: #f61b06;
      }

      .st1 {
        fill: #fafafa;
      }

      .st2 {
        fill: #fbfbfb;
      }

      .st3 {
        fill: #feb6ad;
      }
    </style>
  </defs>
  <path class="st0" d="M298.3,525.6c4.4,3.9,7.3,8,8,13.9.2,4.6.1,7.7-2,11.8-7.5,7.4-20.4,10.2-30.2,13.3-18.8,5.9-37,12.5-52.1,25.4-.8.7-1.6,1.3-2.5,2-14.5,12.1-22.9,30.6-24.9,49.2-.7,20.9,10.2,37,23.3,52,45.5,47.9,120.6,58.9,183,67.7,1.2.2,2.3.3,3.5.5,63.5,8.7,127.9,6.7,191.5-.5,1.3-.1,2.5-.3,3.8-.4,49-5.7,99.8-17.8,144.2-39.6,1-.5,1.9-.9,2.9-1.4,20-9.8,39.2-20.7,55.1-36.6.7-.7,1.5-1.4,2.2-2.1,10.2-9.5,17.7-22.5,18.3-36.6,0-8.7-1.2-16.3-4.5-24.3-.3-.7-.6-1.5-.9-2.3-3.4-7.6-9-14.1-15.1-19.7-.5-.5-1-1-1.5-1.5-13.5-12.9-32.5-20.7-50.2-25.7-.7-.2-1.3-.4-2-.6-3.3-1-6.7-1.9-10.1-2.8q-11.6-3.2-15.3-8.6c-2.5-5-1.8-10.8-.2-16,1.8-3.7,4.5-6.4,8.2-8.2,21.1-6.6,58.4,14.7,76.1,23.7,6.6,3.5,12.9,7.4,19,11.6.6.4,1.2.8,1.8,1.2,8.9,6,17.1,12.7,25.2,19.8.8.7,1.6,1.4,2.5,2.1,5.1,4.4,9.3,9.2,13.5,14.5,1.9,2.2,3.6,3.8,6,5.4.4-1.2.8-2.4,1.2-3.7,2-6.1,4.3-12.1,6.6-18,.4-1.1.8-2.2,1.3-3.4,2.8-7.1,5-11.4,11.9-14.9,5.5-.4,9.2.4,14,3,4.5,4.9,5.4,8.1,5.3,14.6-1.7,17.9-11.8,42.5-23.6,56-2.3,4.4-1.7,7.2-1.1,12.1,2.4,20.5,0,41.1-3.6,61.3.7-.7,1.4-1.4,2.2-2.2,1.8-1.8,3.6-3.6,5.4-5.3,6.3-6.2,12-12.6,17.4-19.5,1-1.2,2-2.4,2.9-3.6,5.3-6.6,10.5-13.1,15.2-20.1,2.5-3.2,5-5.7,9-6.9,4.9-.1,7.5.7,11.3,4,3.6,3.5,4.7,5.5,4.9,10.6-.4,22-29.4,47.2-44.1,61.9q-1.3,1.3-2.6,2.6c-5.9,5.9-12.2,11.3-18.8,16.5-2.2,1.8-4.3,3.6-6.5,5.4-1,.8-2,1.6-3,2.5-3.7,3.1-5.8,5.4-7.8,9.9-.4.9-.8,1.9-1.3,2.8-.5,1-.9,2-1.4,3-7.4,15.9-17.1,29.8-28.1,43.4,3.6-.6,6.6-1.6,9.9-3.1.9-.4,1.8-.9,2.8-1.3,1-.5,2-.9,3-1.4,1-.5,2-1,3.1-1.5,11.6-5.7,22.9-11.8,33.4-19.2.9-.6,1.7-1.2,2.6-1.8,1.6-1.2,3.3-2.3,4.9-3.5,4.6-3.3,7.5-4.9,13.4-4.1,5.1,1.8,8.1,4.4,11,9,1,4.6.7,7.8-1.6,12-2.6,3.3-5.4,5.8-8.7,8.3-.6.5-1.2.9-1.9,1.4-1.9,1.5-3.9,2.9-5.8,4.3-.6.4-1.1.8-1.7,1.3-25.2,18.4-55.9,31.6-86.1,38.9-7.4,1.9-12,4.3-17.2,9.8-.7.7-1.4,1.4-2.1,2.1q-.8.9-1.7,1.8c-3.9,3.9-8,7.4-12.3,10.8-2.9,2.3-5.7,4.7-8.5,7.2-62.7,52.2-145,78.1-225.4,84.2v2c.9,0,1.9,0,2.9,0,23,0,46.1-.2,69.1-.2,11.1,0,22.3,0,33.4,0,9.7,0,19.4,0,29.1,0,5.1,0,10.3,0,15.4,0,4.8,0,9.7,0,14.5,0,1.8,0,3.5,0,5.3,0,2.4,0,4.9,0,7.3,0,.7,0,1.4,0,2.1,0,5.4,0,9.4,1.7,13.9,4.5,3.6,3.9,4.4,7.7,4.3,12.9-.6,4.3-3.2,7.1-6.3,9.9-4.1,2.5-8,2.4-12.6,2.4q-1.2,0-2.4,0c-2.7,0-5.4,0-8.1,0-2,0-3.9,0-5.9,0-5.5,0-11,.1-16.5.1-3.6,0-7.1,0-10.7,0-67.2.6-134.4.6-201.5.6-3.9,0-7.8,0-11.6,0-1,0-1.9,0-2.9,0-15.9,0-31.7,0-47.6,0-16.5,0-33,0-49.5,0-9.2,0-18.4,0-27.6,0-7.7,0-15.5,0-23.2,0-3.9,0-7.9,0-11.8,0-3.6,0-7.2,0-10.8,0-1.9,0-3.8,0-5.7,0-8,0-14.3-.5-20.4-6.1-2.4-3.9-3.4-6.7-3.1-11.3,1.6-5.2,3.4-8.1,8-11,3.9-1.9,7.1-2.2,11.4-2.2,1.3,0,2.6,0,3.9,0,1.4,0,2.9,0,4.3,0,1.5,0,3,0,4.5,0,4.1,0,8.2,0,12.3,0,4.3,0,8.5,0,12.8,0,8.1,0,16.2,0,24.3,0,9.2,0,18.4,0,27.6,0,19,0,37.9,0,56.9.1v-2c-2.1-.5-4.2-1.1-6.4-1.6-.7-.2-1.4-.4-2.2-.5-4.4-1.1-8.7-2.1-13.1-3-38.9-8.4-75.4-22.7-111.2-39.8-3.7-1.7-6.7-2.2-10.7-2.4-33-2-65.1-7-96.4-17.7-1.2-.4-2.4-.8-3.6-1.2q-19.2-6.8-23.6-15.6c-.4-5.5-.3-9.3,3-14,5-3.7,8.7-4.6,15-4,2.7.8,5.2,1.6,7.8,2.6,1.5.6,3,1.1,4.5,1.6q1.2.4,2.4.9c11.2,4,22.6,7.5,34.4,8.9-3.7-3.3-7.5-6.4-11.5-9.3-7.2-5.4-13.6-11.5-20-17.8q-1.3-1.3-2.6-2.6c-3.7-3.7-7.1-7.4-10.1-11.7-2.8-3.8-5.3-5.1-9.8-6.5-1.4-.5-2.9-1-4.3-1.5-.8-.3-1.5-.5-2.3-.8-24.2-8.3-46.4-20.4-67.4-34.8-1.1-.7-2.1-1.5-3.2-2.2q-25.1-17.7-28.8-28.8c-.4-4.1-.3-6.5,1.6-10.2,3.5-4.2,6.4-6.5,11.9-7.3,6.2.9,10.3,5.2,14.9,9.2,16.3,14.1,35.3,24.8,54.6,34.2-.9-1.8-1.9-3.5-2.8-5.3-.8-1.5-1.6-3.1-2.4-4.6-1.9-3.6-3.8-7.2-5.8-10.7-3.8-6.7-6.6-13.2-9.1-20.5-4-11.7-6.8-17.7-17.8-23.9-1.7-1.3-3.4-2.6-5.1-4-.8-.7-1.6-1.3-2.5-2-14-11.6-26.6-24.3-37.4-39-.5-.6-.9-1.2-1.4-1.9-3.9-5.3-5.5-9.5-4.6-16.1,2.2-4.3,4.8-7.6,9-10,4.9-.9,8.7-.8,13.1,1.8,3.4,3.4,6.4,7.3,9.4,11.1,7.6,9.4,16.1,18.6,25.5,26.1h2c-.1-1.2-.3-2.3-.4-3.5-1.1-10-1.6-19.8-1.4-29.9,0-.9,0-1.8,0-2.8,0-4.6.2-9.3.4-13.9.3-12.4-2-22.1-6.7-33.6-1.4-3.8-2.3-7.6-3.2-11.5-.2-.7-.3-1.3-.5-2-2.9-13.1-5.2-29.7,1.8-41.7,2.6-3.6,5.1-5.6,9.5-6.5,4.5-.3,7,.2,11,2.5,6.2,7.3,6.4,16.3,7.2,25.5.1,1.3.3,2.6.4,3.9.3,3.2.6,6.4.9,9.6h2c1.8-2.1,3.4-4.2,5.1-6.4,13.1-17,30.2-29.3,48.9-39.6q1.3-.7,2.6-1.4c19.1-10.5,38.5-18.4,59.4-24.6.8-.2,1.6-.5,2.4-.7,2.4-.7,4.8-1.4,7.2-2.1.7-.2,1.4-.4,2.2-.7,6.3-1.8,12.5-2.8,18.5.2Z"/>
  <path class="st3" d="M511.9,318.6q1,0,2,0c9.7,0,18.8.6,28.1,3.4q1.7.5,3.5.9c16.7,4.9,32.4,13.7,45.5,25.1.8.7,1.7,1.4,2.6,2.2,10.7,9.4,20.8,19.5,29.4,30.8.4.6.8,1.1,1.3,1.7,37.5,49.1,59.7,110.6,71,170.9q.2,1.3.5,2.5c8.9,50,.4,105.8-28.8,147.8-6.6,9.3-14.2,17.7-22,26-.6.7-1.3,1.4-1.9,2.1-6.8,7.4-15.7,10.5-25.4,12.4q-1.5.3-3.1.6c-43.2,8.2-88.5,9.7-132.4,8.9-2.1,0-4.3,0-6.4-.1-14.3-.2-28.6-1-42.9-2.3q-2-.2-3.9-.3c-25.8-2.5-43.8-13.2-60.6-33.2-36.4-44.8-45.2-100.2-39.6-156.6.6-4.9,1.4-9.7,2.2-14.5q.3-1.7.6-3.4c10.9-60.4,36.5-125.4,78.2-171.2,1.9-2.1,3.8-4.3,5.7-6.4,18.2-20.7,41.8-36.6,68.5-43.9q1.4-.4,2.8-.8c8.4-2.2,16.4-2.7,25-2.6Z"/>
  <path class="st0" d="M305.3,589.8q1.2,0,2.4,0c2.2.2,4.1.6,6.3,1.2,0,1.1.1,2.3.2,3.4.3,4.3.6,8.6.9,13,.1,1.9.2,3.7.4,5.6,3.1,49.8,22.5,93.4,58.6,128l-1,2c-22.3-4.1-44.2-8.6-66-15-.9-.3-1.8-.5-2.7-.8-35.9-10.5-74.4-32.8-93-66.4-2.4-5.5-1.1-9.7,1-15.1,4.2-9.1,9.6-15.8,16.8-22.7.7-.7,1.3-1.3,2-2,17.2-16.1,50.6-31.6,74.3-31.2Z"/>
  <path class="st0" d="M346.8,1038.9c1.2,0,2.4,0,3.7,0,1.4,0,2.7,0,4.1,0,1.4,0,2.9,0,4.3,0,3.9,0,7.9,0,11.8,0,4.3,0,8.5,0,12.8,0,9.3,0,18.6,0,27.9,0,5.8,0,11.6,0,17.4,0,16.1,0,32.2,0,48.2,0,1,0,2.1,0,3.1,0,1,0,2.1,0,3.1,0,2.1,0,4.2,0,6.3,0,1,0,2.1,0,3.1,0,16.8,0,33.6,0,50.4,0,17.3,0,34.5,0,51.8,0,9.7,0,19.4,0,29.1,0,8.3,0,16.5,0,24.8,0,4.2,0,8.4,0,12.6,0,3.9,0,7.7,0,11.6,0,1.4,0,2.8,0,4.2,0,1.9,0,3.8,0,5.7,0,1.1,0,2.1,0,3.2,0,5.5.7,9.5,3.2,13,7.4,1.6,4.7,1.7,9.1,1,14-1.9,3.7-4.3,6.1-7.9,8.1-4.6,1.4-9,1.2-13.8,1.2-1.1,0-2.2,0-3.3,0-3.7,0-7.4,0-11.1,0-2.6,0-5.3,0-7.9,0-6.5,0-12.9,0-19.4,0-7.6,0-15.2,0-22.8,0-13.6,0-27.3,0-40.9,0-13.1,0-26.1,0-39.2,0q-1.2,0-2.4,0c-.8,0-1.6,0-2.4,0-15,0-30,0-45.1,0-4.5,0-9,0-13.5,0-18.9,0-37.9,0-56.8-.1-3.1,0-6.1,0-9.2,0-9,0-18,0-27-.2-3.9,0-7.8,0-11.8,0-3.6,0-7.3,0-10.9,0-2,0-3.9,0-5.9,0q-10.8-.2-15.6-4.6c-3.4-3.8-3.5-7.6-3.4-12.6.7-4.6,3-7.3,6.4-10.2,3.6-2.2,6.6-2.3,10.7-2.3Z"/>
  <path class="st0" d="M711,596c6.6-.2,12.4.5,18.8,2.1.9.2,1.8.4,2.8.7,21.2,5.4,42.3,13.1,58.4,28.3.7.6,1.4,1.3,2.2,2,6.6,6.1,12.8,14,14.3,23-.2,10.4-11.7,20.2-18.5,27.1-30.9,29-77.8,43.3-117.9,54.3-1.1.3-2.1.6-3.2.9q-1.5.4-3,.8c-.8.2-1.7.4-2.6.7-2.4.4-4,.1-6.3-.7.6-.5,1.1-1,1.7-1.6,38.8-37.1,51.8-85.4,53.3-137.4Z"/>
  <path class="st1" d="M720,863q2.1,1.7,3,4c-.1,2.7-.5,4.3-2.2,6.5-2.4,2-4.8,2.7-7.8,3.7-1.2.4-2.4.8-3.7,1.2-1.3.4-2.7.9-4,1.3-.7.2-1.4.4-2.1.7-50.1,15.9-101.9,23.5-154.2,26.6-.9,0-1.7.1-2.6.2-54,3.5-110.1,1.1-163.4-8.2-1.2-.2-2.4-.4-3.6-.6-20-3.5-39.7-8.2-59.4-13.4-1-.3-2-.5-3-.8-2.4-.6-4.8-1.3-7.3-2-1.2-.3-2.5-.7-3.8-1-3.2-1.3-4.9-2.5-7-5.2q-.4-2.6,0-5t3-3c7.9-.9,14.8,1.4,22.4,3.6,2.6.7,5.2,1.5,7.8,2.2.7.2,1.3.4,2,.6,21,5.9,42.3,9.4,63.8,12.6,1,.2,2,.3,3.1.5,12.6,1.9,25.2,3.5,37.9,4.5,1.1,0,2.3.2,3.5.3,20.5,1.6,41,1.9,61.6,1.9q1.8,0,3.6,0c25.6,0,51-.8,76.5-3.4,1.1-.1,2.2-.2,3.3-.3,18.8-1.9,37.1-4.5,55.6-8.5,1.1-.2,2.2-.5,3.4-.7,21.3-4.5,42.5-10.3,63.1-17.5,3.8-1.1,6.6-1.3,10.6-.8Z"/>
  <path class="st1" d="M207,772c2.4,1.2,4.6,2.5,6.8,3.9,64.7,38,152.7,50.7,226.7,50.2,2.6,0,5.2,0,7.8,0,7.4,0,14.8,0,22.2-.1,4.6,0,9.1,0,13.7,0,1.7,0,3.5,0,5.2,0,2.4,0,4.8,0,7.2,0,.7,0,1.4,0,2.2,0q4.9,0,7.1,2.2.6,6.1-1.1,8.9c-4.8,2.9-11.5,2.4-17,2.7-.9,0-1.8,0-2.7.1-9.7.4-19.3.6-29,.6-.9,0-1.9,0-2.8,0-19.5,0-38.9-1.2-58.3-3.1-1.9-.2-3.8-.3-5.7-.5-58.8-5-117.7-19-171.4-43.4-1-.4-1.9-.9-2.9-1.3q-17.4-8.1-19.5-13.6.4-3.4,1.9-5.9c3.6-2.1,5.5-1.4,9.5-.5Z"/>
  <path class="st2" d="M828,740q2.4,2.2,4,5c-.3,3.8-1.1,5.7-4,8.1-44.3,36.3-104.7,55.9-160.1,66.2q-1.3.3-2.7.5c-5.2.9-10,1.4-15.3,1.1q-2.1-1.6-3-4t1-6c2.9-2.7,5.3-3.5,9.2-4,1-.1,2.1-.3,3.1-.4,1.1-.1,2.2-.3,3.4-.4,56.2-8,107-30.5,153.3-62.8,4-2.8,6-4.1,11-3.4Z"/>
</svg>