<?xml version="1.0" encoding="UTF-8"?>
<svg id="Layer_1" xmlns="http://www.w3.org/2000/svg" version="1.1" viewBox="0 0 1024 1536">
  <!-- Generator: Adobe Illustrator 29.0.1, SVG Export Plug-In . SVG Version: 2.1.0 Build 192)  -->
  <defs>
    <style>
      .st0 {
        fill: #f6f6f6;
      }

      .st1 {
        fill: #f61b06;
      }

      .st2 {
        fill: #f8f8f8;
      }

      .st3 {
        fill: #fefefe;
      }

      .st4 {
        fill: #feb6ad;
      }
    </style>
  </defs>
  <path class="st3" d="M0,0h1024v1536H0V0Z"/>
  <path class="st1" d="M384.5,133c7.1,5.5,12.7,12.9,16.5,21v3c.6-.2,1.2-.4,1.8-.7,14.9-5.4,29.4-9.2,45.2-11.3.8-.1,1.6-.2,2.4-.4,38.2-5.6,95.5-7.3,130.6,11.4.2-.9.5-1.7.7-2.6,4.6-12.5,15.2-20.7,26.8-26.3,10-4.3,21.6-5,32-1,9.6,4.7,15.7,11,19.5,21,4.7,14.5-.6,33-7,46-3.6,7-8,12.5-13.5,18.1-1.7,3.3-1.6,3.7-.5,7.1.7,1.6,1.3,3.3,2,4.9.6,1.8,1.3,3.6,1.9,5.5q.5,1.4,1,2.9c3.9,11.4,7.1,22.7,9.1,34.6.2,1.1.4,2.2.6,3.3,2.8,25-1.2,48.9-15.6,69.7-2.2,3.4-3.3,6-4,10,.7,0,1.3.1,2,.2,2.9.2,5.9.5,8.8.7,1,0,2,.2,3.1.2,1,0,2,.2,3,.3.9,0,1.8.1,2.7.2q2.4.4,5.4,2.4.3,2.5,0,5-2,2-4.5,2.1c-1,0-2.1-.1-3.1-.2-1.1,0-2.2-.1-3.4-.2q-1.8,0-3.6-.2c-1.2,0-2.4-.1-3.6-.2-2.9-.1-5.9-.3-8.8-.5v4c1,.1,2,.2,3,.3,4.3.6,8.2,2,12.3,3.6.7.3,1.4.5,2.1.8q6.6,2.5,8.6,5.3c-.3,3-.9,3.9-3,6-5.6-.3-10.7-2.6-15.9-4.6-.9-.3-1.8-.7-2.7-1-2.2-.8-4.3-1.6-6.5-2.4,0,7.4,0,14.8-.1,22.2,0,2.5,0,5,0,7.5q-.3,25.1,4.5,49.7c.3.8.5,1.6.8,2.5,5.9,18.2,15.7,34.9,25.4,51.3,29.4,49.6,51,103,65.4,158.8.2.8.4,1.5.6,2.3,7.8,30,14.2,60.3,19.9,90.8.5,2.8,1.1,5.6,1.6,8.4,4.1,21.5,7.4,42.9,10.2,64.6.7,5.5,1.5,11.1,2.3,16.6,1.6,10.8,2.8,21.7,4,32.6.2,1.4.3,2.9.5,4.3,0,.7.2,1.4.2,2.1.5,4.2,1,8.3,1.5,12.5,4.8,37.2,10.4,83.5-12.3,116-6.4,8-15.5,13.5-25.4,15.8-3.7.4-7.4.4-11.2.3-1,0-1.9,0-2.9,0-5.1,0-9.1-.6-13.9-2.3,0-.6,0-1.2,0-1.8-.3-30-1-59.9-2.4-89.8-.1-2.2-.2-4.3-.3-6.5-.2-4.1-.4-8.1-.6-12.2,0-1.2-.1-2.4-.2-3.7,0-1.1-.1-2.2-.2-3.4,0-1,0-1.9-.1-2.9-.2-3-.7-5.9-1.2-8.8h-5c0,1.2.1,2.3.2,3.5,4.2,82.5.9,164.6-8.8,313.9-1.3,16.5-2.4,33-3.4,49.6q-1.1,17.6-2,26,1.1.3,2.3.5c17.8,4,36,11.3,49.7,23.5.7.6,1.4,1.2,2.1,1.8,9.7,9.1,18.3,22.9,19.1,36.4,0,1.2,0,2.4,0,3.6q0,1.8,0,3.6c-.6,6.4-3.6,10.3-8.3,14.5-3.7,2.8-6.4,4.2-11,5q-.2-1.7-.4-3.5c-1.5-11-3.6-21.1-11.1-29.8q-2.3-2-5.2-1.5c-.7.3-1.4.5-2.2.8.4,4.2,1.9,6.2,4.7,9.3,4.7,6.1,6.5,13.3,6.5,20.9,0,1.1,0,2.1,0,3.2q-.1,2.6-1.1,3.6c-1.4.2-2.8.4-4.2.5-.9,0-1.7.2-2.6.3-.9,0-1.8.2-2.8.3-.9,0-1.8.2-2.7.3-4.9.5-9.7.8-14.7.7,0-1.1-.2-2.3-.3-3.5-1.1-12.2-2.8-22.7-10.7-32.5v-2c-2.3-.3-4.6-.7-7-1,.4,5.5,1.6,7.8,5,12,3.4,7.1,5.1,13.4,5.1,21.3,0,1.1,0,2.1,0,3.2,0,.8,0,1.6,0,2.4q-111,.9-135.9-23.5c-8.5-9.9-10.5-21.4-11.8-33.9-.2-1.7-.4-3.3-.6-5-.5-4.3-1-8.7-1.4-13-.3-2.5-.5-5-.8-7.5-1.2-10.6-2.2-21.2-3.3-31.9-.4-4.3-.9-8.7-1.3-13-.8-8.3-1.7-16.6-2.5-24.9-.8-8.2-1.6-16.4-2.4-24.5-.2-1.5-.3-3.1-.5-4.6-1.2-11.7-2.4-23.3-3.7-35-1.9-17.2-3.5-34.4-5.1-51.6-.2-2.2-.4-4.3-.6-6.5,0-1-.2-2.1-.3-3.2-.6-6.3-1.3-12.5-2-18.8-.8-6.4-1.1-12.7-.9-19.1-.7,0-1.3.2-2,.3-3.1.4-6.1.8-9.2,1.2-1.1.1-2.1.3-3.2.4q-1.5.2-3.1.4c-.9.1-1.9.3-2.8.4-2.6.3-5.1.3-7.7.3-.1.8-.2,1.6-.3,2.4-1.2,8.2-2.7,16.3-4.4,24.4-.4,2-.8,3.9-1.2,5.9-.4,2.1-.9,4.1-1.3,6.2-1.5,7.2-3,14.4-4.4,21.6-.1.7-.3,1.4-.4,2.2-2.6,12.8-5.1,25.6-7.4,38.5-2.1,11.3-4.2,22.5-6.7,33.6-1.8,8.2-3.3,16.5-4.8,24.7-1.9,10.5-3.9,21-6.1,31.5-1.8,8.5-3.5,17.1-5.2,25.6q-.2,1-.4,2c-.4,1.9-.7,3.9-1.1,5.8-.2,1.1-.4,2.2-.6,3.4-.6,3.4-1.1,6.8-1.6,10.3,1.1.6,2.2,1.3,3.4,1.9,17.5,10.1,32,20.4,38.7,40.5,1.7,6.9,2.7,16.2-.7,22.7-5.1,6-10.8,9.1-18.4,10.9h-3c0-.9,0-1.8,0-2.7-.6-12.7-3.7-24.1-12.9-33.3q-2.6-.2-5,0c.2,4.2,1.3,6.6,3.9,9.9,7.2,9.2,6.5,17.9,6.1,29.1q-21.6,2.4-31,2c0-1.1,0-2.3,0-3.4-.3-13.4-1.9-25.7-12-35.6-1.6.3-3.3.7-5,1,.8,4.4,3.1,7.6,5.5,11.3,3.4,6.3,3.7,12.1,3.6,19.2,0,.8,0,1.7,0,2.5,0,2,0,4,0,6.1q-90,.8-120.3-19.2c-10.8-11.3-13-23.8-14.6-38.8-.2-1.5-.3-3-.5-4.5-1.9-16.8-3.4-33.7-5-50.6-1-11-2.1-22.1-3.1-33.1-.2-2.3-.4-4.5-.6-6.8-.4-4.3-.8-8.7-1.2-13-.4-3.8-.7-7.5-1.1-11.3-.4-3.7-.7-7.5-1.1-11.2-.2-1.9-.4-3.8-.5-5.7-.1-1.1-.2-2.2-.3-3.4,0-.9-.2-1.9-.3-2.8-.3-2.6-.8-5.1-1.3-7.6q-1.1.9-2.2,1.8c-13,10.2-27.2,16.2-43.8,17.2-1,0-2,.1-3,.2-25.9.9-48.1-10.6-66.7-27.8-29.2-28.2-39.7-68.5-40.7-107.9-.4-35,8.2-77.7,33.5-103.7,8.2-7.7,17.1-12.3,28.5-12.1,5.1.6,8.8,2.4,12.1,6.3,6,8.6,7.4,16.6,6.2,26.9-1.4,5.5-3.7,10.8-6,16-14.7,34.4-22.2,69.3-9.4,105.6,6.1,15.3,16,28.4,31.1,35.5,7.5,3,16.4,3.1,24,.1,13.9-7.5,20.4-22,25.3-36.2,1.8-6,2.3-11.3,2.3-17.6,0-.9,0-1.9,0-2.8,0-3.1,0-6.2,0-9.3,0-2.2,0-4.5,0-6.7,0-4.8,0-9.6,0-14.4,0-7.6,0-15.2,0-22.8,0-10.6,0-21.3,0-31.9,0-.7,0-1.3,0-2,0-.7,0-1.4,0-2,0-9.6,0-19.2,0-28.7,0-.7,0-1.3,0-2,0-11.2,0-22.5.1-33.7,0-7.5,0-15.1,0-22.6,0-4.7,0-9.4,0-14.1,0-2.2,0-4.3,0-6.5,0-3,0-5.9,0-8.9,0-.9,0-1.7,0-2.6,0-5.4.5-10.7,1.1-16.1.9,0,1.9.1,2.8.2,52.1,3.7,98.7-9.3,144.8-33.1q2.4-1.1,4.4-1.1c1.3,2.7,1.5,5.1,1.8,8.1.2,1.2.3,2.5.5,3.8,0,.7.2,1.3.2,2,1.6,12.7,3.5,24.9,7.5,37.1.2.8.5,1.5.7,2.3,5.7,17.3,13.5,33.7,25.3,47.7.7.9,1.5,1.8,2.2,2.7,16.9,19.6,42.6,33.1,68.5,35.2,30.7,1.9,60-3.1,83.9-23.7.8-.7,1.6-1.5,2.4-2.2.7-.6,1.4-1.2,2.1-1.9,26.4-24.7,36.9-64.5,41.5-99,.3-2.1.6-4.1,1-6.1,3.5-20.2,2.7-41.1,2.7-61.5,0-3.1,0-6.2,0-9.3.2-28.6-1.2-56.9-6-85.1q-.2-1.1-.4-2.3c-2.4-14.5-5.7-28.7-9.9-42.8-.2-.8-.5-1.7-.7-2.5-6.9-23.5-17.7-48-35.3-65.5-.8-.9-1.6-1.7-2.4-2.6-18.4-17.1-40.4-24.5-65.4-24.6-1.1,0-2.2,0-3.4,0-6.9,0-13.1.6-19.8,2.2-1.1.3-2.2.5-3.3.8-20.2,6-36.8,17.5-49.4,34.3-.5.7-1,1.3-1.5,2-7.8,10.7-14.4,22.5-19.8,34.6-3.2,6.5-8.2,10.1-13.9,14.2-2.3,1.8-4.7,3.6-7,5.4-.6.5-1.2.9-1.8,1.4-4.7,3.7-9.2,7.7-13.6,11.8-3.5,3.1-7.1,6.1-10.7,9-2.1,1.7-4.1,3.4-6.1,5.2-19.8,17.4-41.2,33-68.1,35.7q-2.9.2-4.7,2.5.3,2.1,1,4c21.5,1.7,41.6-10.4,58-23,.6-.4,1.1-.9,1.7-1.3,9.4-7.2,18.4-14.9,27.3-22.7,13.3-11.6,26.7-22.9,40.9-33.4.8-.6,1.5-1.1,2.3-1.7,9.4-6.9,18.8-12,29.8-15.8.7-.2,1.3-.5,2-.8,13.7-4.3,30.8-1.1,43.3,5,14,7.5,22.6,19.4,27.9,34.3,2.9,13.3,3.1,27.4-1.2,40.4-.3,1-.7,2-1,3-7.4,20.6-19.7,37.6-34,54q-.9,1.1-1.9,2.2c-11.9,13.7-24.2,27.4-38.5,38.7-2.8,2.2-5.5,4.5-8.2,6.9-14.2,11.8-29.6,21.8-45.4,31.2-.7.4-1.4.8-2.1,1.2-44.1,26.8-101.2,45-152.9,34.8-1.3-.2-2.5-.5-3.8-.7-28.6-6.1-53.7-22.4-70.4-46.4-13.6-21.2-18.3-43.9-18.2-68.7,0-.8,0-1.5,0-2.3,0-13.9,1.4-27.3,4.4-40.9q.3-1.2.5-2.5c5.1-24.3,14-48,24.5-70.5.4-.9.9-1.9,1.3-2.8,13-28.5,29.5-55,46.7-81.2.5-.7.9-1.4,1.4-2.1,5.1-7.7,10.3-15.4,15.5-23.1,42.4-62.4,61.5-111.8,66.9-187.6,2.7-37.8,9-73.2,21.2-109.2-1-.9-1.9-1.7-2.9-2.6-14.7-14.8-20.5-34.7-20.6-55.1.2-10,3.1-16.7,9.8-24.2,15.6-14.1,37.9-11,54.2,0Z"/>
  <path class="st4" d="M586.4,554.1c1.5,1.3,3.1,2.6,4.6,3.9.8.6,1.7,1.3,2.5,1.9,31.7,26.4,43.2,78.5,49.7,116.9.1.7.2,1.4.4,2.1,4.8,28.3,5.9,56.8,5.7,85.5,0,3.1,0,6.3,0,9.4q0,43-2.4,60.2c-.1.9-.3,1.9-.4,2.8-2.8,19.2-7.3,38-14.4,56.1-.3.7-.6,1.4-.8,2.2-5.9,14.7-13.5,28-24.2,39.8-.7.8-1.4,1.6-2.1,2.4-17.9,19-43.6,29-69.4,29.9-29.1.6-56.2-5.5-78.5-25.2-.9-.7-1.8-1.5-2.7-2.3-11.4-9.8-19.4-21.5-26.3-34.7-.6-1.1-1.2-2.3-1.8-3.4-11.6-23.4-15.9-48.7-18.2-74.6-.7.4-1.5.7-2.2,1.1-29.4,14.7-59.3,26.9-91.8,32.9-1.2.2-2.4.5-3.6.7-17.8,2.9-36.6,2.1-54.4-.7v-8c.8,0,1.7.1,2.5.2,39.9,3.1,75.5-2.9,112.5-18.2q1.1-.5,2.3-.9c34.2-14.1,66.2-35.4,93.7-60.1.5-.5,1-.9,1.5-1.4,10.7-9.6,21.2-19.6,30.5-30.6q1.2-1.4,2.5-2.8c21.2-24.5,40-52.5,38.5-86.2-1-12.8-5.5-22.7-13-33-.7-1-1.4-2.1-2.2-3.1-9.4-10.9-24.8-15.1-38.5-16.2-23.5-.8-41.4,11.5-59.3,25.3q-1,.7-2,1.5c-8.7,6.6-17,13.7-25.2,20.9-4.7,4.1-9.4,8.1-14.2,12.2-1.6,1.4-3.2,2.8-4.8,4.2-15.5,13.5-32.9,27.3-52.9,33.3-1,.3-2,.6-3,.9-6.2,1.7-12.5,3.1-19,2.1q-1-1-2-2c.4-2.9.9-3.9,3-6,2.1-.3,4.1-.6,6.2-.8,27.1-3.6,47.6-21.1,67.8-38.2.6-.5,1.3-1.1,2-1.7,5.7-4.8,11.4-9.7,16.9-14.8,5.8-5.2,12-9.9,18.2-14.5.7-.5,1.3-1,2-1.6,1.2-.9,2.4-1.8,3.6-2.7,4.3-3.2,6-6.6,8-11.5,12.3-27.6,31.7-53.5,60.3-65.3,30.7-11.2,68.1-8.7,94.4,12.1Z"/>
  <path class="st4" d="M524.6,296.8c.6,0,1.3,0,2,0,2.1,0,4.3,0,6.4,0,1.5,0,3,0,4.5,0,3.1,0,6.2,0,9.4,0,4,0,8,0,12,0,3.1,0,6.1,0,9.2,0,1.5,0,2.9,0,4.4,0,2.1,0,4.1,0,6.2,0,1.2,0,2.3,0,3.6,0q2.9.4,4.8,1.8c2.6,3.7,1.4,8.6.8,12.8-2.6,10-10.9,16.4-18.8,22.4q-8.8,6.4-13.3,16c-.5,9.5,3.4,16.3,8.9,23.7,3.2,3.5,6.2,5.5,11,6,6.4.2,11.4-.2,16.6-4.2,3.9-4.2,6.6-8.8,9-14q1-1,3.4-1.2t4.6,2.2c.3,7.4-4.3,12.6-9,18-6.2,5.9-12.9,9.1-21.4,9.4-9.5-.3-16-4.8-22.6-11.4-1.8-1.9-3.4-3.9-5-6q-.9,1.1-1.9,2.2c-8.3,9.4-16.1,15.8-29,17.1-13.6.4-26.1-3.6-36.4-12.7q-14.3-13.5-15.1-23.6.3-3.1,1.3-4.1,2.4-.3,5,0c2.4,2.7,3.8,5.5,5.2,8.8,4.9,9.9,13.7,16.8,24.1,20.4,9.4,2.2,19.3,2.3,27.7-2.7,6.5-4.7,12.2-11.5,14-19.4.8-5.1.6-8.8-2.4-13.1-4.5-5.4-9.9-9.8-15.4-14.1-8-6.3-14.3-12.5-16.2-22.8-.2-2.8-.2-5.2,0-8,3.6-3.6,7.6-3.1,12.6-3.2Z"/>
  <path class="st4" d="M693.6,896.9q1.2,0,2.4,0c2.3,6.6,2.5,13,2.9,19.9,0,1.3.1,2.6.2,3.9.2,3.5.3,7,.5,10.4,0,2.2.2,4.3.3,6.5,1.4,29.4,1.5,58.8,1.2,88.3q-6.9-.9-8-2c-.1-2.1-.2-4.1-.2-6.2,0-.7,0-1.3,0-2,0-1.4,0-2.9,0-4.3,0-2.3,0-4.6,0-6.9,0-3.3,0-6.6,0-9.9-.3-27.5-.7-54.9-2-82.4,0-1,0-2-.1-3,0-1.8-.2-3.6-.3-5.5,0-2-.1-4-.2-6q1-1,3.6-1.1Z"/>
  <path class="st0" d="M610.7,252.4c4.6,3.2,8.1,7.4,10.3,12.6q-.2,3.6-1,7-3,2-5.6,1.8t-4.4-2.8c-.5-1.1-.9-2.3-1.4-3.4q-1.9-4.3-5.6-6.6c-4.5-.5-6.8-.6-10.8,1.4-2.6,3.1-3.5,5.8-4.6,9.6q-.6,1.9-1.6,2.9-2.9.3-6,0c-2.7-2.2-3-3.8-3.5-7.2.8-6.1,3.9-10.6,8.5-14.6,8.4-5.9,16.8-5.6,25.7-.7Z"/>
  <path class="st2" d="M471.2,250.7c4.4,3.2,7.7,7.4,9.8,12.3.5,3.7.5,5.3-1.7,8.4q-2.3,1.6-4.9,1.4t-4.4-2.9c-.5-1.1-.9-2.3-1.4-3.4q-1.9-4.3-5.6-6.6c-4.5-.5-6.8-.6-10.8,1.5-2.5,2.8-3.5,5.3-4.6,8.8q-.6,1.7-1.6,2.7-2.4.3-5,0c-2.4-2.1-2.9-3.6-3.5-6.8,1-6.4,4.5-10.8,9.6-14.7,7.1-5.1,16.6-5.2,24.1-.9Z"/>
  <path class="st4" d="M405,1351c2.6,0,4.4.5,6.5,2.1,7.9,8.1,9.9,18.8,9.9,29.7-.1,7.9,1.1,7.8-.1,9.1-2.3,0-5.9.2-8.2.1,0-1.2,0-2.4-.1-3.6-.5-12-1.3-20.6-8.8-30.3q-1.1-2-.8-4.2t1.7-2.8Z"/>
  <path class="st4" d="M677,1346c2.8,0,4.4,0,7,1,8.2,8.4,11,21.1,11.1,32.4,0,1.9,0,3.8,0,5.6h-8c0-1.1-.2-2.2-.3-3.4-1-10.2-2.1-19.1-8.5-27.4q-2.2-3.2-2-6.1c.3-.7.5-1.4.8-2.1Z"/>
  <path class="st4" d="M442,1349c2.9-.3,4.5-.4,6.8,1.4,7.3,8.6,11.3,17.6,11.2,28.9,0,1.3,0,2.5,0,3.8,0,1,0,1.9,0,2.9.7.3,2.3-.3,3,0-4.9.5-5.9,2.5-11,3,0-1,0-3.1,0-4.1-.4-11.7-2.3-19.8-9.8-29.1q-1.1-1.8-1-4.8c.3-.7.6-1.3.9-2Z"/>
  <path class="st4" d="M713,1344c3.5.2,5.4.4,8,2.9,7,10.5,10.2,20.5,10,33.1-3.1,1.8-4.2,2-8,2,0-1-.1-2-.2-3.1-.9-10.5-3.1-19.3-10-27.6q-1.8-2.3-1.6-4.6t1.8-2.8Z"/>
  <path class="st4" d="M737,974q2.6.4,5,1c.5,8-1.2,14.8-3.4,22.4-.3,1.2-.6,2.4-1,3.6q-2.4,8.7-4.7,11-2.6-.4-5-1c-.3-5.3.9-9.7,2.4-14.7,1.8-6.1,3.3-12.1,4.2-18.3q.5-2,2.5-4Z"/>
  <path class="st4" d="M525.8,655.7c.7.1,1.4.2,2.2.3q.8,2.1,1,5c-1.6,2.2-3.1,3.9-5.1,5.8-.5.5-1.1,1-1.6,1.6q-14.2,13.4-21.1,13.9-1-.1-2.1-.2l-1-5c.5-.4,1-.8,1.6-1.2,4.4-3.4,8.8-6.9,13.2-10.4.9-.7,1.8-1.4,2.7-2.2q2.7-2.2,5.2-5t5.2-2.6Z"/>
  <path class="st4" d="M511.8,623.3c.7.2,1.5.5,2.2.7q.7,1.7,1,4c-5.3,7.4-13.7,12.7-21,18-.7.6-1.4,1.2-2.2,1.8q-1.8,1.2-4.6.9c-.7-.2-1.5-.5-2.2-.7l-1-4c4.4-3.9,9-7.5,13.7-11.1,3.3-2.6,6.2-5.5,9.2-8.5q2.1-1.4,4.9-1.1Z"/>
</svg>