<?xml version="1.0" encoding="UTF-8"?>
<svg id="Layer_1" xmlns="http://www.w3.org/2000/svg" version="1.1" viewBox="0 0 1024 1024">
  <!-- Generator: Adobe Illustrator 29.0.1, SVG Export Plug-In . SVG Version: 2.1.0 Build 192)  -->
  <defs>
    <style>
      .st0 {
        fill: #fe080d;
      }

      .st1 {
        fill: #fe0d13;
      }

      .st2 {
        fill: #fe1219;
      }

      .st3 {
        fill: #fe4c49;
      }

      .st4 {
        fill: #fef5f3;
      }
    </style>
  </defs>
  <path class="st0" d="M203.1,55.9c1.9,0,3.8,0,5.7,0,5.1,0,10.2,0,15.4,0,5.4,0,10.8,0,16.2,0,9.1,0,18.1,0,27.2,0,10.4,0,20.9,0,31.3,0,9,0,18,0,27,0,5.4,0,10.7,0,16.1,0,5,0,10.1,0,15.1,0,1.8,0,3.7,0,5.5,0,17.4,0,34.9.2,52.2,2.8,1.2.2,2.3.3,3.5.5,36,5.6,68.9,19.3,96.8,42.9,1.1.9,2.2,1.7,3.2,2.6,7.3,6.4,14.8,14.9,19.3,23.5,2.7,3.3,4.2,3.8,8.3,4.4.8,0,1.6.2,2.4.2.9.1,1.7.2,2.6.3,2,.2,3.9.5,5.9.7,3.4.4,6.8.8,10.2,1.2,7.3.9,14.7,1.8,22,2.6,3.7.4,7.4.9,11.1,1.3,11,1.3,21.9,2.6,32.9,3.8,8.6,1,17.1,2,25.7,3,4.4.5,8.8,1,13.2,1.5,3.4.4,6.7.8,10.1,1.2,1.2.1,2.4.3,3.6.4q16.6,2,21,4.9c2,3.1,2.4,5.6,2.5,9.3-.9,3.2-1.8,3.9-4.8,5.5-1.2.5-2.3.9-3.5,1.4-.6.3-1.3.5-1.9.8-6.3,2.6-12.7,4.9-19.2,7.2-11.7,4.2-23.4,8.5-35,12.9-.7.3-1.4.5-2.1.8-6.3,2.4-12.6,4.7-18.9,7.1-16.4,6.2-32.9,12.3-49.5,18.2-6.6,2.3-13.1,4.7-19.6,7.2q-5.3,2-7.5,2c-.2,1.2-.4,2.4-.6,3.7-3.2,14.4-11.9,27.8-21.2,39q-2.7,3.2-3.2,7.3c1,.5,2,.9,3,1.4,13.2,6.5,25.7,13.6,37.5,22.4,2.5,1.8,4.5,3.2,7.5,4.2,1.7,1.6,3.4,3.3,5,5,2.1,2,4.2,3.9,6.3,5.9.6.5,1.2,1.1,1.7,1.6,3,2.7,6,5.4,9.1,8,9.9,8.6,18,19.1,25.9,29.5.4.6.8,1.1,1.3,1.7,12.8,16.9,34.7,46.5,34.7,68.3.7.3,1.3.7,2,1,.7,2.4,1.3,4.8,1.9,7.2.2.7.3,1.5.5,2.3,1.4,6.1,2.6,12.3,3.8,18.5.2.9.3,1.7.5,2.6,10.9,57.9-4.5,117-32.3,167.9-3.2,5.9-6.1,11.9-9.1,17.8-4.3,8.6-8.5,17.1-12.8,25.7-1.6,3.2-3.2,6.4-4.8,9.7-6.2,12.5-12.4,24.9-18.9,37.2-5.3,10.1-10.5,20.2-15.6,30.4-1.2,2.3-2.4,4.7-3.6,7-1.8,3.4-3.5,6.9-5.2,10.3-.5,1-1.1,2.1-1.6,3.2-4.4,8.9-4,14.9-1.8,24.3.2.9.4,1.8.6,2.8.7,3.1,1.4,6.3,2.2,9.4.5,2.3,1,4.5,1.5,6.8,1.9,8.3,3.8,16.6,5.8,24.9.2.9.4,1.7.6,2.6,4.4,19.1,8.9,38.2,13.3,57.2.2,1,.5,1.9.7,2.9,1.1,4.6,2.2,9.2,3.2,13.8.4,1.6.8,3.3,1.2,4.9.2.7.3,1.5.5,2.2.3,1.4.6,2.8,1,4.1.3,1.5.7,3,1.1,4.5.2.8.4,1.6.6,2.4.2.7.3,1.4.5,2.2q.4,2.1.4,6.1c.7.3,1.3.7,2,1q.5,2.3.9,5.2c1.2,8,3.1,15.7,5,23.5q3.3,13.7.7,19.1-1.7,2.2-4.7,4.2-7,.7-10.9-1.9l-4.1-4.1c-.7-.3-1.3-.7-2-1-.1-.9-.3-1.7-.4-2.6-.7-3.9-2.1-6.6-3.9-10.1-.3-.6-.7-1.3-1-1.9-1.1-2.1-2.2-4.2-3.4-6.2-.8-1.5-1.6-2.9-2.3-4.4-4.8-9-9.8-17.9-14.9-26.7-5.8-10.1-11.2-20.5-16.6-30.8-4.1-7.8-8.3-15.4-12.7-23-2.4-4.2-4.5-8.5-6.5-12.8q-1.1-2.4-3.2-4.3c-1.2-2.3-2.3-4.5-3.4-6.8-.7-1.4-1.4-2.9-2.1-4.3-.4-.8-.8-1.6-1.2-2.4-2.3-4.7-4.7-9.3-7.1-14-.5-.9-.9-1.9-1.4-2.8-.4-.9-.9-1.7-1.4-2.6-.4-.8-.8-1.5-1.2-2.3q-1.2-2.1-4.2-2.8l1-2c-1-2.5-2.1-4.9-3.3-7.3-.6-1.3-1.3-2.7-1.9-4-.3-.6-.6-1.3-.9-1.9-1-2.2-2-4.5-2.8-6.8-2.6,2.6-2.9,4.7-3.9,8.3q-.3,1-.5,2c-.6,2.2-1.2,4.3-1.8,6.5-.4,1.5-.8,3.1-1.3,4.6-1.1,4.1-2.2,8.1-3.3,12.2-1.1,4-2.2,8-3.3,11.9-.4,1.6-.9,3.2-1.3,4.7-.7,2.4-1.3,4.7-2,7.1-2.3,8.2-4.5,16.3-6.7,24.5-.9,3.3-1.8,6.6-2.7,10-.4,1.6-.8,3.1-1.3,4.7-.6,2.2-1.2,4.4-1.8,6.5-.3,1.2-.7,2.5-1,3.7-1.3,3.6-2.8,6.3-5.2,9.4q-2.9,1.2-6,1c-5.6-3.7-7.4-7.3-9.3-13.6q-.4-1.1-.8-2.3c-1.1-3.4-2.1-6.7-2.9-10.2-.9-3.2-1.9-6.5-2.9-9.7-.3-.9-.5-1.8-.8-2.7-.3-.8-.5-1.7-.8-2.5-.2-.8-.5-1.5-.7-2.3q-.6-2-2.8-2.8c-.2-1.8-.4-3.7-.6-5.5-.7-4.8-2.4-9.4-3.8-14-.4-1.1-.7-2.2-1.1-3.4-1.2-3.7-2.3-7.3-3.5-11-.6-1.9-1.2-3.9-1.8-5.8-6-18.8-12-37.5-18.2-56.2-4.4-13.5-8.8-27.1-13.1-40.7-4.9-15.4-9.8-30.7-14.9-46.1-.5-1.6-1-3.1-1.5-4.7-.7-2.1-1.4-4.3-2.1-6.4-.4-1.2-.8-2.4-1.2-3.6q-.8-2.8-3.1-3.6c.7-1,1.3-2,2-3-.7-.3-1.3-.7-2-1q-.7-2.3-1.4-5.3c-1.4-6.1-3.2-12.1-5.2-18.1-.3-1.1-.7-2.1-1-3.2-.7-2.3-1.5-4.6-2.2-6.9-1.8-5.6-3.6-11.2-5.4-16.8-.4-1.3-.8-2.6-1.3-3.9-7.2-22.5-14.3-45-21.4-67.5-1-3.1-2-6.3-3-9.4q-21.9-69.8-25.1-105.8c0-.7-.1-1.3-.2-2-4.3-48.2,5.4-102.8,37.2-141q-3.9-4.6-8-9.1c-21.1-22.5-32.5-50.8-33.3-81.6.4-11.5,2.3-23,4.3-34.2h2c.1-.7.2-1.4.3-2.1.8-3.6,2.2-6.6,3.7-9.9-.6.2-1.3.4-1.9.6-.7.1-1.4.3-2.1.4l-1-1c-1.5-.2-2.9-.4-4.4-.6-.9-.1-1.8-.2-2.8-.3-1-.1-2-.2-3-.4-35.6-4.7-67.5-21.9-89.6-50.6-1.4-2-2.9-4-4.2-6.1-.7-1-1.4-2-2.1-3.1-5.5-8.5-11.9-19.5-11.9-29.9,10.7-1.1,21.4-1.1,32.1-1.1ZM458.8,138.8c-3.1,4-4,8.3-3.6,13.3.7,4.1,2,6.8,4.9,9.9,5.4,3.3,10,3.4,16,2,4.9-2.5,7.3-4.8,9-10,.7-5.1.6-8.8-1.8-13.4-4.3-4.9-7.4-6.2-13.8-6.6-4.5.1-7.3,2.1-10.7,4.8Z"/>
  <path class="st3" d="M471,262q27.7,5.7,38.8,10.2c3,1.2,5.2,1.8,8.5,1.8q2.7,0,4.2,1.3c.5.6,1,1.1,1.6,1.7,2.4,1.2,4.8,2.4,7.2,3.6,12.4,6,23.8,13.3,34.6,21.8q2.1,1.8,4.3,1.6c1.7,1.6,3.4,3.3,5,5,2.1,2,4.2,3.9,6.3,5.9q.9.8,1.7,1.6c3,2.7,6,5.4,9.1,8,9.9,8.6,18,19.1,25.9,29.5.4.6.8,1.1,1.3,1.7,12.8,16.9,34.7,46.5,34.7,68.3l2,1c.7,2.4,1.3,4.8,1.9,7.2.2.7.3,1.5.5,2.3,1.4,6.1,2.6,12.3,3.8,18.5.2.9.3,1.7.5,2.6,10.9,57.9-4.5,117-32.3,167.9-3.2,5.9-6.1,11.9-9.1,17.8-4.3,8.6-8.5,17.1-12.8,25.7-1.6,3.2-3.2,6.4-4.8,9.7-6.2,12.5-12.4,24.9-18.9,37.2-5.3,10.1-10.5,20.2-15.6,30.4-1.2,2.3-2.4,4.7-3.6,7-1.8,3.4-3.5,6.9-5.2,10.3-.5,1-1.1,2.1-1.6,3.2-4.4,8.9-4,14.9-1.8,24.3.2.9.4,1.8.6,2.8.7,3.1,1.4,6.3,2.2,9.4.5,2.3,1,4.5,1.5,6.8,1.9,8.3,3.8,16.6,5.8,24.9.2.9.4,1.7.6,2.6,4.4,19.1,8.9,38.2,13.3,57.2.2,1,.5,1.9.7,2.9,1.1,4.6,2.2,9.2,3.2,13.8.4,1.6.8,3.3,1.2,4.9.2.7.3,1.5.5,2.2.3,1.4.6,2.8,1,4.1.3,1.5.7,3,1.1,4.5.2.8.4,1.6.6,2.4q.3,1.1.5,2.2t.4,6.1c.7.3,1.3.7,2,1q.5,2.3.9,5.2c1.2,8,3.1,15.7,5,23.5q3.3,13.7.7,19.1-1.7,2.2-4.7,4.2-7,.7-10.9-1.9l-4.1-4.1c-.7-.3-1.3-.7-2-1-.1-.9-.3-1.7-.4-2.6-.7-3.9-2.1-6.6-3.9-10.1-.3-.6-.7-1.3-1-1.9-1.1-2.1-2.2-4.2-3.4-6.2-.8-1.5-1.6-2.9-2.3-4.4-4.8-9-9.8-17.9-14.9-26.7-5.8-10.1-11.2-20.5-16.6-30.8-4.1-7.8-8.3-15.4-12.7-23-2.4-4.2-4.5-8.5-6.5-12.8q-1.1-2.4-3.2-4.3c-1.2-2.3-2.3-4.5-3.4-6.8-.7-1.4-1.4-2.9-2.1-4.3-.4-.8-.8-1.6-1.2-2.4-2.3-4.7-4.7-9.3-7.1-14-.5-.9-.9-1.9-1.4-2.8-.4-.9-.9-1.7-1.4-2.6-.4-.8-.8-1.5-1.2-2.3q-1.2-2.1-4.2-2.8c.3-.7.7-1.3,1-2-1-2.5-2.1-4.9-3.3-7.3-.6-1.3-1.3-2.7-1.9-4-.3-.6-.6-1.3-.9-1.9-1-2.2-2-4.5-2.8-6.8h-2v-3h2c.1-1.1.2-2.3.4-3.4.6-4.8,1.7-9.3,3-14q.4-1.4.7-2.8c.8-3.1,1.6-6.1,2.4-9.2,1.2-4.5,2.4-9.1,3.6-13.6.3-1.2.6-2.4,1-3.6,2.4-9.2,4.8-18.4,7.1-27.6,11.9-46.5,24.4-92.8,37.8-138.9,3.5-12.1,7-24.3,10.4-36.4.3-1.2.7-2.3,1-3.6q4.2-15.3,7.3-30.9c.1-.7.2-1.4.3-2.1,2.7-17,3.5-33.9,3.4-51.1q0-1.5,0-3.1c0-15.4-.5-30.5-3.3-45.7q-.3-1.4-.5-2.9c-9.7-51.3-33-105.4-76.5-137.1-2.4-1.6-4.9-3.2-7.4-4.8-.5-.4-1.1-.8-1.6-1.2v-2Z"/>
  <path class="st2" d="M685,574c1.6-1.7,3.3-3.4,5-5,.9-1,1.9-1.9,2.8-2.9,1-1,1.9-1.9,2.9-2.9.5-.5,1-1,1.5-1.5,1.2-1.3,2.5-2.5,3.8-3.7"/>
  <path class="st2" d="M708.7,550.1c.8-.8,1.5-1.5,2.3-2.3.8-.8,1.6-1.6,2.5-2.4.8-.8,1.7-1.7,2.5-2.5,1.8-1.8,3.5-3.5,5.3-5.3,2.7-2.7,5.4-5.4,8.1-8.1,1.7-1.7,3.4-3.4,5.1-5.1.8-.8,1.6-1.6,2.5-2.5.8-.7,1.5-1.5,2.3-2.3.7-.7,1.3-1.3,2-2q1.7-1.5,3.7-2.5c0-.5,0-1.1,0-1.6,0-73.4.1-146.9.3-220.3,0-4.7,0-9.4,0-14.1q0-1.8,0-3.5c0-19.1,0-38.2.1-57.2,0-19.7,0-39.4.1-59.1,0-12.1,0-24.2,0-36.3,0-8.2,0-16.5,0-24.7,0-4.8,0-9.5,0-14.3,0-4.3,0-8.7,0-13,0-1.6,0-3.2,0-4.7,0-2.1,0-4.3,0-6.4,0-1.2,0-2.4,0-3.6.2-2.9.7-4.6,2.3-7,5.2-4.3,11-5.1,17-2,2.6,2.2,3.8,4.1,4.4,7.4.2,3.2.2,6.3.2,9.4,0,1.2,0,2.4,0,3.6,0,3.3,0,6.5,0,9.8,0,3.5,0,6.9,0,10.4,0,7.8.1,15.6.2,23.4,0,3.1,0,6.2,0,9.3,0,14.9.1,29.8.1,44.8,0,5.8,0,11.6,0,17.4,0,15.4,0,30.9,0,46.3,0,7.3,0,14.6,0,21.9,0,25.1,0,50.3,0,75.4v4.7c0,1.6,0,3.1,0,4.7,0,3.1,0,6.3,0,9.4q0,1.2,0,2.4c0,25.4,0,50.8,0,76.2,0,27,0,54,0,80.9,0,3,0,5.9,0,8.9q0,1.1,0,2.2c0,11.7,0,23.4,0,35.1,0,11.7,0,23.4,0,35.1,0,6.3,0,12.7,0,19,0,5.8,0,11.6,0,17.4,0,2.1,0,4.2,0,6.3,0,2.8,0,5.7,0,8.5q0,1.2,0,2.5c0,5.5-1.1,9.6-3.4,14.7-3.2,3-6.8,4-11.1,4.1-4.2-1.5-7.8-4-9.9-8.1-.1-3.1-.2-6.1-.2-9.2,0-1,0-1.9,0-2.9,0-3.2,0-6.3,0-9.5,0-2.2,0-4.4,0-6.6,0-5.8-.1-11.6-.2-17.4,0-5.9-.1-11.8-.2-17.7-.1-11.6-.2-23.2-.3-34.7-.5.5-1.1,1.1-1.6,1.6q-1.1,1.1-2.1,2.2t-2.1,2.1c-2,1.9-4,3.7-6.1,5.5-4.6,4-8.8,8.2-13.1,12.6-4.9,5-9.9,9.8-15.2,14.4-3.2,2.8-6.2,5.9-9.1,9-1.2,1.2-2.4,2.4-3.7,3.6h-2v2c-4,3.8-8.3,7.1-14,7-3.5-1.1-6.1-2.2-8.9-4.8-1.6-3.2-2-5.7-2.1-9.2,2-4.8,4.9-8.4,8.4-12.1.5-.5,1-1,1.4-1.6,1.4-1.5,2.7-2.9,4.1-4.3.7-.8,1.5-1.6,2.2-2.4"/>
  <path class="st1" d="M587,704q1,3-.1,5.8t-1.8,3.5c-.3.6-.6,1.3-1,1.9-.7,1.4-1.4,2.7-2.1,4.1-1.1,2.2-2.2,4.4-3.3,6.5-3.1,6.2-6.3,12.4-9.5,18.6-1.9,3.8-3.9,7.6-5.8,11.4-.7,1.4-1.5,2.9-2.2,4.3-1,2-2.1,4-3.1,6.1-.6,1.1-1.2,2.3-1.8,3.5-1.9,4.9-1.7,9.5-.5,14.6.2.8.3,1.5.5,2.3q.3,1.3.6,2.5c.2.9.4,1.8.6,2.8.7,3.1,1.4,6.3,2.2,9.4.5,2.3,1,4.5,1.5,6.8,1.9,8.3,3.8,16.6,5.8,24.9.2.9.4,1.7.6,2.6,4.4,19.1,8.9,38.2,13.3,57.2.2,1,.5,1.9.7,2.9,1.1,4.6,2.2,9.2,3.2,13.8.4,1.6.8,3.3,1.2,4.9.2.7.3,1.5.5,2.2.3,1.4.6,2.8,1,4.1.3,1.5.7,3,1.1,4.5.2.8.4,1.6.6,2.4.2.7.3,1.4.5,2.2q.4,2.1.4,6.1c.7.3,1.3.7,2,1q.5,2.3.9,5.2c1.2,8,3.1,15.7,5,23.5q3.3,13.7.7,19.1-1.7,2.2-4.7,4.2-7,.7-10.9-1.9l-4.1-4.1c-.7-.3-1.3-.7-2-1-.1-.9-.3-1.7-.4-2.6-.7-3.9-2.1-6.6-3.9-10.1-.3-.6-.7-1.3-1-1.9-1.1-2.1-2.2-4.2-3.4-6.2-.8-1.5-1.6-2.9-2.3-4.4-4.8-9-9.8-17.9-14.9-26.7-5.8-10.1-11.2-20.5-16.6-30.8-4.1-7.8-8.3-15.4-12.7-23-2.4-4.2-4.5-8.5-6.5-12.8q-1.1-2.4-3.2-4.3c-1.2-2.3-2.3-4.5-3.4-6.8-.7-1.4-1.4-2.9-2.1-4.3-.4-.8-.8-1.6-1.2-2.4-2.3-4.7-4.7-9.3-7.1-14-.5-.9-.9-1.9-1.4-2.8q-.7-1.3-1.4-2.6c-.4-.8-.8-1.5-1.2-2.3q-1.2-2.1-4.2-2.8.5-1,1-2c-1.3-3.1-2.8-6.1-4.4-9.2-2.1-4.4-3.2-8-3.6-12.8,3.7.5,7,1,10.6,2.1,12.7,3.2,26.8.6,38.3-5.3,11.9-7.4,18.2-17.6,24.5-29.8.4-.8.9-1.7,1.3-2.5,5.3-10.2,10.4-20.5,15.5-30.8,1.4-2.8,2.8-5.6,4.2-8.4.7-1.4,1.4-2.9,2.1-4.3,1-2.1,2.1-4.2,3.2-6.3.3-.6.6-1.3,1-2q2.2-4.5,3.3-5.6Z"/>
  <path class="st4" d="M555.3,228.7q1.2,2.7.9,5.5t-3.6,4.5c-4.1,1.8-7.4,2.1-11.6,2.3-.8,0-1.6,0-2.4.1-25.6,1-59.1-2.5-77.9-23q-.9-3.8.1-6.6,1.4-2.5,3.9-4.2c3.8,1.3,7.2,3,10.8,5,8.2,4.7,16.3,7.8,25.3,10.2.6.2,1.3.3,2,.5,14,3.7,27.4,5.8,42.2,3.5,4.2-.6,6.9-.2,10.4,2.2Z"/>
</svg>