<?xml version="1.0" encoding="UTF-8"?>
<svg id="Layer_1" xmlns="http://www.w3.org/2000/svg" version="1.1" viewBox="0 0 1024 1536">
  <!-- Generator: Adobe Illustrator 29.0.1, SVG Export Plug-In . SVG Version: 2.1.0 Build 192)  -->
  <defs>
    <style>
      .st0 {
        fill: #fefaf8;
      }

      .st1 {
        fill: #fefaf7;
      }

      .st2 {
        fill: #feefec;
      }

      .st3 {
        fill: #fef0ed;
      }

      .st4 {
        fill: #fff;
      }

      .st5 {
        fill: #fcb8ab;
      }

      .st6 {
        fill: #fefaf9;
      }

      .st7 {
        fill: #fe2700;
      }

      .st8 {
        fill: #fef1ee;
      }
    </style>
  </defs>
  <ellipse class="st4" cx="511.7" cy="909.8" rx="158.7" ry="149.8"/>
  <path class="st7" d="M963.3,706.3c-2.5-3.4-5-6.8-7.3-10.3-22.7-37-40.9-89.4-31.7-133.1.2-1,.5-1.9.7-2.9,4-19.4,12-37.7,26.6-51.6,2.8-2.5,4.2-3.9,5.5-7.5q0-3-1.4-5.3c-3.3-2.1-5.6-2.1-9.4-2-.9,0-1.7,0-2.6,0-12.7.2-25.3,1.2-37.9,3.1-.7.1-1.3.2-2,.3-48.3,7.5-95.5,26.8-133.4,58.1-1.1.9-2.3,1.9-3.4,2.8-6.6,5.1-12.7,10.5-18.6,16.4-.9.9-1.8,1.8-2.7,2.7-8,7.9-14.9,14-15.5,25.7,0,2.4-.2,4.8-.3,7.2-.1,2.2-.2,4.4-.3,6.6-.7,16.8-1.8,33.3-5,49.9-.2.9-.3,1.8-.5,2.6-3.2,16.7-9.1,33.2-17.9,47.8q-1,1.6-2.1,3.2c-15.8,24.7-40.4,46.8-69.5,54.2-2.6.6-5.2,1.3-7.7,2-3.6,1-7.2,1.9-10.8,2.9q0-2-1.7-4.5c-1.3-1.8-2.5-3.7-3.6-5.6-.5-.8-.9-1.5-1.3-2.3-.9-1.6-1.9-3.2-2.8-4.8-2.4-4.2-4.1-7.9-8.4-10.3-.7-.2-1.4-.3-2.2-.5q.9-2.1,2.9-3.3c.9-.5,1.8-1.1,2.6-1.6,31-19.5,57.1-47.7,65.9-84,.2-.7.3-1.4.5-2.1,2.4-9.8,3.2-19.3,3.3-29.3,0-1.4,0-2.7,0-4,0-10.2.4-21.2-3.6-30.8q-1.3-2.8-2.3-5.7c-.5-4,.7-6.6,2.5-10.1,1.8-3.4,3.6-6.8,5-10.4,18.7-56.2,3.5-117.5-21.3-169.2-.5-1-1-1.9-1.4-2.9-1.6-3.3-3.2-6.5-5.1-9.5-2.8-2.7-4.1-3.8-7.9-4.6q-5.2,1-13.5,10.4c-.5.6-1,1.2-1.6,1.8-20.6,24-36.7,50.8-49.7,79.6-.5,1.1-1,2.2-1.5,3.3-2.3,5.1-4.8,10.1-5.6,15.7q-.1,1.4-.2,2.8c-11.3-2.1-22.6-4-34-5-1.1,0-2.1-.2-3.2-.3-17.8-1.4-35.2-.6-52.7,2.5-1.4.2-2.7.5-4.1.7-3.2.5-6.3,1.1-9.5,1.6-.9.2-1.7.3-2.5.4-9.6-36.7-33.7-76.3-59.8-103.8q-1.1-1.1-2.2-2.2c-2.5-2.6-5-5-8-7q-8.7-1.3-15.3,12.5c-.4.9-.8,1.7-1.2,2.6-20,42.5-34.4,89.1-29,136.7.2,1.1.4,2.1.6,3.2,2.1,14.7,5.5,28.7,12.4,41.9,1.4,2.4,2.8,4.1,2.3,6.8-3.6,12.1-5.3,22.7-5,35.3,0,1.7,0,3.4,0,5,0,1.7,0,3.3,0,5,0,.8,0,1.6,0,2.4,0,2.2,0,4.3.1,6.5,1.5,27.8,14.7,58.1,35.1,77.2.7.6,1.4,1.2,2,1.8,9,8.4,18.1,16,28.6,22.4,2.5,1.5,4.9,3,7.4,4.6q.2,2.1-1.3,3.8t-3.4,4.9c-.6,1-1.2,2-1.8,3-1.3,2.2-2.7,4.4-4,6.6q-1,1.7-2.1,3.4c-.7,1.1-1.3,2.2-2,3.2q-1.7,2.9-3.5,5.1c-20.5,0-42.4-11.8-58.6-23.6-.7-.5-1.4-1-2.1-1.6-3.7-2.7-7.1-5.4-10-8.9q-2.3-2.9-4.4-5.2c-31.8-33.8-38.3-79.7-39.6-124.3,0-1.9-.1-3.8-.2-5.6,0-.9,0-1.8-.1-2.8-.4-9.9-2.2-15.6-9.4-22.7-.6-.5-1.1-1.1-1.6-1.6-5.7-5.6-11.5-11.1-17.4-16.4-.5-.5-1-.9-1.6-1.4-40.5-36.4-93-60.7-147-67.6-1-.1-2-.2-3-.4-10.2-1.2-20.5-2.1-30.8-2.4-1,0-1.9,0-2.8,0-3.2-.1-6.2-.2-9.4.4q-2.6,2.2-4,5c0,3.1.5,4.4,2.5,6.8,4.2,3.7,8,7.8,11.5,12.2,17.8,23.3,22.8,54.2,19.3,82.8,0,.8-.2,1.5-.3,2.2-4.6,35.5-15.9,72.3-37.6,101.3-2.6,3.2-4.3,5.5-4.4,9.7,1.5,2.6,2.6,3.8,5.4,5.2q1.4.5,2.8.9c1.1.4,2.1.7,3.2,1.1,10.5,3.4,20.4,7.1,29.9,12.8.6.4,1.2.7,1.7,1.1,8,4.9,15.5,9.8,22,16.7.7.8,1.4,1.5,2,2.3,3.1,3.3,6.1,6.6,9,10,28.4,35.1,31.1,77.9,27,121-.2,2.4-.4,4.8-.6,7.2,0,.7-.1,1.4-.2,2.1q-.3,3.8-.2,6.8,1.1,1.9,3,3c3.3.4,5.7,0,8.9-.9,11.9-4.8,24.2-8,36.9-10.1,38.6-5.7,76.9,1.9,108.6,25q1.3,1,2.6,1.9c7.2,5.4,14.3,10.9,20.6,17.4,1.3,1.4,2.7,2.8,4,4.2,6,6.3,12,12.7,17.5,19.5,2.8,3.5,5.7,6.7,8.9,9.9-.5-3.3-1-6.6-1.4-9.9-.2-1.4-.4-2.7-.6-4.1-3.5-21.6-3.4-44.9-.4-66.6.1-.8.2-1.6.4-2.4,1.8-12.7,4.4-25.2,7.5-37.6.2-.7.4-1.4.5-2.1,1.5-6.2,3.2-12.4,5-18.6.3-1,.7-2,1-3q.7-2.6,2.1-4.6,2.5-1,5-1l2,2q-.8,5.7-2.5,11.2c-8.7,30-16.2,61.9-14.7,93.3,0,.9,0,1.7.1,2.5.6,10.5,1.7,20.9,3.4,31.2.2,1,.3,2,.5,3,1.1,6.3,2.4,12.3,4.3,18.4.3.8.5,1.6.8,2.4,5.7,18.3,14.9,32.5,28.9,45.8.6.5,1.1,1,1.6,1.5,3.1,2.9,5.9,5.4,9.7,7.4q3,1.6,5.7,3.6,3.4,6.8,3.5,14.6c.4,9.1,1.7,17.9,3.2,26.9.4,2.5.8,4.9,1.2,7.4.3,1.5.5,3.1.8,4.6.9,5.4,1.7,10.7,2.3,16.1q-4.5,0-12.7,4.2c-1.1.6-2.3,1.2-3.4,1.8-9.7,4.9-18.9,10.4-27.1,17.6-2.5,3.2-2.9,5.4-2.9,9.4q1.6,2.9,4,5c3.3.3,5.3.4,8.2-1.2,4.5-3.5,9.1-6.7,13.9-9.8.7-.5,1.4-.9,2.1-1.3,4.5-2.9,8.6-5.2,13.8-6.7-4.4,3.4-8.1,7-11.7,11.1-4.9,6.1-10.8,13.7-10.3,21.9,2,3.3,3.5,3.9,7.2,4.8,4.3-.9,5.3-1.8,8.2-4.9,2.1-2.3,4.2-4.6,6.5-6.7,2.9-2.5,5.8-5,8.7-7.6,4.3-4,8.5-7.8,13.4-10.9.7-.4,1.4-.9,2.2-1.3,2.7-2.1,3.6-4.4,4.3-7.8q.2-1.4.4-2.7c.1-1.1.3-2.1.4-3.1q.2-1.7.4-3.4c.3-2.4.6-4.7.9-7.1.5-3.7.9-7.5,1.4-11.2,1.6-12.5,3.2-24.9,3.9-37.5,0-.9,0-1.7,0-2.5,11.6,3.9,23.6,4.5,35.7,4.5.9,0,1.7,0,2.5,0,12.8,0,25.1-.5,37.6-3.6,1.1-.3,2.2-.6,3.2-.9q-.3,8.6,2.9,34.6c.6,4.6,1.1,9.1,1.5,13.7.2,2.7.5,5.4.8,8.1.1,1.3.3,2.5.4,3.8.3,3.4.6,6.7,1.3,10,1.8,4.3,4.8,6.1,8.7,8.4,5.8,3.2,10.9,7.7,15.5,12.4.7.8,1.5,1.5,2.2,2.3,1.5,1.6,3,3.1,4.5,4.7,2.6,2.9,5.1,5.6,8.2,7.9q3.9.6,7,0,2.4-1.6,4-4c.7-4.9-.6-7.8-3.1-11.8q-.7-1-1.4-2.1c-4.2-6.6-8.7-13.5-15.7-17.3-.6-.3-1.2-.5-1.8-.8.3-.7.7-1.3,1-2,8.5,4.8,16.9,9.7,24.7,15.6,2.1,1.7,4,3,6.3,4.4,3.7.4,5.3.5,8.4-1.6,2.3-3.4,2.3-5.4,1.6-9.4q-6.6-9-26.1-19.5c-1-.5-1.9-1-2.8-1.5-4.6-2.5-9-5.1-14.3-5.8-1,0-1.9-.1-2.9-.2.9-2.7,1.5-5.3,2-8.1.1-.7.2-1.4.4-2.1.3-1.5.5-3,.8-4.5.3-1.6.5-3.2.8-4.8,1.5-8.6,3.1-17.2,3.6-25.9.4-7.2.4-14.7,2.5-21.7,2.3-3.6,5.5-5.2,9.3-7,3.8-1.8,6.5-4.3,9.5-7.2.6-.7,1.3-1.3,1.9-2,1.9-1.9,3.8-3.9,5.6-5.9.6-.6,1.2-1.3,1.8-1.9,4.4-4.6,8.1-9.2,11.3-14.2,3.1-9.9,5.4-20,7.1-30.2,4.6-27.2,5.3-55.2,2.9-82.7-2.3-25.7-7.4-52.1-18.9-75.4-2.8-5.8,5.8-10.8,8.6-5,6.5,13.1,11,27,14.2,41.3,6.4,28.3,8.3,57.8,6.9,86.8-.6,11.2-1.6,22.6-3.3,33.8,1.5-2.1,3-4.2,4.7-6.3.9-1,1.7-2,2.5-3.1,5.1-6.5,10.4-12.7,16-18.7,2.6-2.8,5.2-5.7,7.7-8.7,2.5-3,5.3-5.5,8.3-8,.6-.5,1.3-1.1,1.9-1.6,27.6-23.5,58.6-38.7,95.5-38.4q1.2,0,2.3,0c17.7,0,34.4,1.3,51.2,7.4,1.3.5,2.5.9,3.7,1.4q1.9.7,3.7,1.4,3.4,1.3,6.6,2.2c3.8.5,5.3.5,8.4-1.7q1.6-2.3,1.9-4.6c-.1-.9-.2-1.8-.4-2.7-.1-1.1-.3-2.2-.4-3.2-4.6-35.7-3.9-70.4,11.4-103.7,15.9-32.9,42-53.6,75.9-65.9,1.1-.4,2.1-.7,3.2-1.1,1-.4,2-.7,3-1.1,3.9-1.4,6.4-2.8,9.1-6.1,0-3.3-1-4.9-2.7-7.7Z"/>
  <path class="st5" d="M478,638h68q4.5,14.9.4,23.2c-9.2,10.6-21.1,16.4-35,18.1-10.4.5-20.2-4.3-28.5-10.3-4.3-4.1-6.9-8-7.3-14,0-1.5,0-3,0-4.5,0-.8,0-1.5,0-2.3,0-4.2.4-6.4,2.3-10.2Z"/>
  <path class="st6" d="M272,609c2.4,1.6,2.9,2.6,3.7,5.4-.9,3.6-3,4.3-6,6.2-5.6,3.1-11.3,5.9-17,8.7-8.1,4-16.1,8-24,12.2-9,4.8-18.1,9.3-27.2,13.9-.7.4-1.5.7-2.3,1.1-6.2,3.1-12.4,6.2-18.6,9.3q-25,12.4-49.8,25.3c-4.9,2.6-9.8,5.1-14.7,7.6-1,.5-2,1.1-3.1,1.6q-1.5.7-3,1.5t-2.6,1.3c-2.7,1-4.6,1.2-7.5.9q-1.9-1.1-3-3-.1-2.8,1-6c2.6-2.2,5.6-3.5,8.7-4.9,1-.5,1.9-1,2.9-1.5,2.3-1.2,4.7-2.3,7-3.5,6.2-3,12.3-6.1,18.4-9.2,5-2.5,10-5,15-7.5,1-.5,1.9-1,2.9-1.5,1.8-.9,3.6-1.8,5.4-2.7,5.9-2.9,11.8-6,17.6-9.1,8.7-4.6,17.5-9.1,26.3-13.5,2.5-1.3,5.1-2.5,7.6-3.8,5.3-2.7,10.7-5.3,16-8,6.3-3.1,12.5-6.2,18.8-9.4,2.5-1.2,5-2.5,7.5-3.7,1.5-.8,3-1.5,4.5-2.3.7-.3,1.4-.7,2.1-1q10-5,13.1-4.6Z"/>
  <path class="st0" d="M752,609c5.3.3,9.1,1.8,13.8,4.3.6.3,1.3.7,1.9,1,1.4.7,2.7,1.4,4.1,2.2,3.7,2,7.4,3.9,11,5.8.8.4,1.5.8,2.3,1.2,8.5,4.4,17.1,8.7,25.6,12.9,7.5,3.7,14.9,7.5,22.3,11.4,10.6,5.6,21.2,10.9,31.9,16.2,13.1,6.5,26.1,13.1,39,20,2.6,1.4,5.3,2.8,8,4.2.8.4,1.6.8,2.4,1.3,1.6.8,3.1,1.6,4.7,2.5.8.4,1.5.8,2.3,1.2.7.4,1.3.7,2,1.1q1.6.9,2.6,1.9.2,2.9,0,6-2,2-4.7,2.3c-4-.4-6.8-1.9-10.2-3.8-7.2-4.1-14.6-7.8-22-11.5-3.3-1.7-6.7-3.3-10-5-.6-.3-1.3-.6-2-1-11.3-5.6-22.6-11.3-33.8-17.2-7.7-4.1-15.6-8-23.4-11.9-9.2-4.6-18.4-9.2-27.4-14-5.3-2.8-10.8-5.6-16.2-8.2-.8-.4-1.5-.8-2.3-1.2-3.9-1.9-7.8-3.9-11.7-5.8-1.4-.7-2.9-1.4-4.3-2.1-.7-.3-1.3-.6-2-1-3.3-1.6-4.9-2.6-6.9-5.7.3-3.3.6-4.6,3-7Z"/>
  <path class="st6" d="M288.6,714.3q2.4.7,3.4,1.7c.5,5.2-.7,7.7-3.6,11.9-.4.5-.7,1.1-1.1,1.7-1.2,1.8-2.4,3.5-3.7,5.3-1.3,1.8-2.5,3.7-3.8,5.5-.8,1.2-1.6,2.4-2.5,3.6-3.1,4.5-6,9.1-8.9,13.7-3.4,5.5-6.9,11-10.6,16.3-3.4,5.1-6.8,10.2-10.1,15.4-.5.8-1.1,1.7-1.6,2.5-1.1,1.7-2.3,3.5-3.4,5.2-3.7,5.6-7.3,11.3-11,16.9-3.3,5-6.5,10-9.7,15-3.7,5.6-7.3,11.2-11,16.9-.5.7-.9,1.4-1.4,2.1-1.1,1.7-2.2,3.4-3.4,5.1-.6.9-1.1,1.7-1.7,2.6-1.4,1.9-2.7,3.6-4.5,5.1-3.3-.2-4.6-.6-7-3,.3-4.7,1.8-7.7,4.4-11.6.7-1.1,1.4-2.1,2.1-3.2.8-1.1,1.5-2.2,2.3-3.4.8-1.2,1.6-2.3,2.3-3.5,1.6-2.4,3.1-4.7,4.7-7.1,3-4.5,6-9.1,9-13.7,1.1-1.6,2.1-3.2,3.2-4.9,1.5-2.4,3.1-4.7,4.6-7.1,7.7-11.9,15.5-23.8,23.3-35.7,4.4-6.7,8.8-13.5,13.2-20.2,2.4-3.7,4.8-7.4,7.2-11.1,1.2-1.8,2.3-3.6,3.5-5.3,1.7-2.5,3.3-5.1,5-7.6q.7-1.1,1.5-2.3t1.4-2.1c.4-.6.8-1.2,1.2-1.8,2.1-2.6,3.5-3.6,6.8-3.2Z"/>
  <path class="st1" d="M735,716q2.8,0,6,1t4.2,5.7c.4.6.8,1.2,1.2,1.8,1.3,2,2.5,4,3.8,6,.9,1.4,1.8,2.9,2.7,4.3,2,3.1,4,6.2,5.9,9.3,4.9,7.6,9.9,15.2,14.9,22.8,1.7,2.6,3.4,5.2,5.2,7.8,7.8,11.8,15.6,23.5,23.4,35.3,6.2,9.3,12.3,18.7,18.3,28.2,2.9,4.6,6,9,9.1,13.4,1.5,2.8,1.9,4.3,1.3,7.4q-3,2-5,1.9c-2.9-1.3-4-3.1-5.8-5.7-.7-1-1.4-2-2.1-3-3.3-5-6.6-10-9.7-15-4.9-7.7-9.8-15.4-14.9-23-6.3-9.4-12.5-18.9-18.7-28.3-.5-.8-1-1.5-1.5-2.3-5-7.6-10-15.2-15-22.9-.4-.6-.7-1.1-1.1-1.7-1.8-2.7-3.5-5.4-5.3-8-3.2-5-6.5-9.9-9.8-14.8q-.9-1.4-1.9-2.8c-1.2-1.7-2.3-3.4-3.5-5.1-.5-.8-1-1.5-1.5-2.3-.4-.6-.9-1.3-1.3-2-1.1-2.7-.6-4.3.2-7l1-1Z"/>
  <path class="st8" d="M478,687c3.2,2.6,5.5,5.6,7.9,8.9,5.5,7.4,10.9,11.4,20.1,13.1,8.8.9,18.9-.3,26-6,3.2-3.2,6-6.5,8.5-10.3,1.4-2.1,2.7-3.9,4.5-5.7,3.7-.7,5.7-.7,9,1.1,1.2,2.4,1.3,4.2.8,6.8-1.7,4.6-4.8,8.3-7.8,12.1-.7,1.1-1.5,2.1-2.2,3.2-8.1,8.3-17.1,12-28.6,12.2-14.9,0-24.7-1-35.8-11.8q-11.2-12.1-11.7-17.8.3-2.8,1.4-4.6c2.8-1.7,4.6-1.6,7.9-1.1Z"/>
  <path class="st3" d="M459,585c5.5,4.4,10.3,11.4,13,18q.2,2.6.1,5.2c0,.9,0,1.8,0,2.7,0,.7,0,1.4,0,2-3.2,1.7-5.3,2.5-9,2q-2.1-.9-4-3c-.5-1.5-1-2.9-1.5-4.4-1.2-3.9-2-6.3-5.5-8.6-5.3-2.1-9.9-2.5-15.4-.7-3.7,1.7-5.4,3.3-7.1,7-.5,1.6-1.1,3.1-1.6,4.7q-2.8,6.8-4,8-5.7.3-8,0c-2.5-2.5-2.4-3.5-2.4-7,.2-8.5,3.5-14.5,9.6-20.4,9.8-8,24-10.8,35.9-5.6Z"/>
  <path class="st2" d="M596.9,588.2c6.4,4.9,12,12.6,13.1,20.7.2,3.3-.3,5.3-2.1,8.1-3.1,1.6-5.6,1.4-9,1-3.1-2.7-4.1-5.1-4.9-8.9-1-4.5-2.8-6.8-6.1-10.1-5-1.7-10.2-1.9-15.3-.3-4.7,2.4-6.3,5-8.1,10-.3,1-.6,1.9-.8,2.9q-.8,2.4-2.8,4.4-5.3.6-7.7-1.3c-2.5-3.2-1.8-6.9-1.3-10.7,1.9-8,6.1-13,13-17.3,10.4-6.2,22-4.7,31.9,1.5Z"/>
</svg>