<?xml version="1.0" encoding="UTF-8"?>
<svg id="Layer_1" xmlns="http://www.w3.org/2000/svg" version="1.1" viewBox="0 0 1024 1024">
  <!-- Generator: Adobe Illustrator 29.0.1, SVG Export Plug-In . SVG Version: 2.1.0 Build 192)  -->
  <defs>
    <style>
      .st0 {
        fill: #e33202;
      }

      .st1 {
        fill: #dd3302;
      }

      .st2 {
        fill: #e23202;
      }

      .st3 {
        fill: #fff;
      }

      .st4 {
        fill: #fe3004;
      }

      .st5 {
        fill: #df3302;
      }

      .st6 {
        fill: #fefbfb;
      }
    </style>
  </defs>
  <path class="st4" d="M507,286q1.6.3,3.3.6c59.3,11.4,113.5,41.2,149.7,90.4.8,1,1.5,2,2.3,3,8.8,11.3,15.5,23.6,22.1,36.3,2.8,5.5,5.9,10.7,9.5,15.7,1.6-5.2,2.7-10.3,3.6-15.7,5.9-33.3,16.2-67.3,44.8-87.9,18.6-12.8,40.6-18.8,62.9-18.6,1.2,0,2.4,0,3.7,0,20.7,0,40.4,5.2,58.9,14.3.6.3,1.3.6,1.9.9,21.2,10.2,39.8,27,52.1,47.1.7,1.1,1.4,2.2,2.1,3.4,11.9,19.5,19,43.7,15.4,66.7-2,7.5-5.8,14.5-12.3,18.9-6.2,3.5-13.1,5.7-20.2,5.1-.3.6-.5,1.2-.8,1.8-9.8,18.5-36.5,27.1-55.2,33.2-4.8,1.4-9.6,2.7-14.5,3.8-19,4.7-27.6,18-37.4,33.8q-27.2,43.9-44.2,52.4c1.5,3,3,5.9,4.6,8.9,6.3,11.9,12.3,24,17.9,36.3,4.9,10.6,10,21.1,15.2,31.5q29.8,60.4,27.3,73.3c-1.8,2.9-2.9,4.5-6,6q-3.4.4-7,0c-2.8-2.9-3.2-5.9-3.9-9.7-1-5.5-2.8-10.8-6.1-15.3-1.6-.7-3.3-1.4-5-2,.2.7.5,1.4.7,2.2,1.1,3.2,2.2,6.5,3.3,9.7q.6,1.7,1.2,3.4t1.1,3.3c.3,1,.7,2,1,3q.7,2.4.7,4.4c-2.4,1.2-3.9,1.1-6.5,1.1-.9,0-1.8,0-2.7,0-.9,0-1.9,0-2.8,0-.9,0-1.9,0-2.8,0-.9,0-1.8,0-2.7,0-.8,0-1.6,0-2.5,0q-1.9-.1-2.9-1.1c-.3-1.6-.5-3.2-.8-4.8-1.2-6.9-3.2-15.1-8.2-20.2q-2.1.3-4,1c.5,6,1.8,10.9,4.1,16.5.3.7.6,1.5.9,2.2.7,1.8,1.4,3.5,2.1,5.3-1.6,1.6-3.2,1.2-5.4,1.2-.9,0-1.9,0-2.9,0q-1.5,0-3.1,0c-1.1,0-2.1,0-3.2,0-2.3,0-4.5,0-6.8,0-3.4,0-6.8,0-10.2.1q-24.5.2-35.2-7.7c-12.1-11.9-17.2-32.3-23.2-47.8-.3-.8-.6-1.6-1-2.4-2.1-5.3-4.1-10.6-6.2-15.9-.7-1.8-1.4-3.5-2.1-5.3-1-2.5-1.9-5-2.9-7.5q-.4-1.1-.9-2.3c-1.1-3-2-5.3-2-8.6-.5.2-1.1.5-1.6.7-2.4,1.1-4.8,2.2-7.3,3.3-.8.4-1.7.8-2.6,1.2-.8.4-1.6.7-2.4,1.1-.7.3-1.5.7-2.3,1q-1.9.7-3.9.7c-3.9,21.7-2.8,44.1.3,65.8q1.8,12.9-1.3,18.2-2.1,1.3-4,2c-2.3-3.3-3.4-6.3-4.4-10.2q-1.1-4-4.1-6.6-2.7-.5-5.5,1.8c-.8,6.1.9,9,4,14v3c-2.5,1.2-4.2,1.1-7,1.1q-1.5,0-3,0c-1,0-2.1,0-3.1,0-1,0-2.1,0-3.1,0-1,0-2,0-3,0-.9,0-1.8,0-2.7,0q-2.1-.1-3.1-1.1c-.3-2.1-.6-4.1-.8-6.2-.8-5.4-1.4-8.9-5.2-12.8q-2.6-1.1-5-1c-.3.3-.7.7-1,1,0,4.5.7,8.7,2.6,12.8,1.4,3.4,1.4,3.9.4,7.2-7.2,0-14.4.1-21.6.2-2.4,0-4.9,0-7.3,0-3.5,0-7.1,0-10.6,0q-1.6,0-3.3,0c-9.7,0-18.8-1.3-26.5-7.7-6.3-6.4-6.9-13.7-7-22.2,0-.8,0-1.6-.1-2.5-.1-9.7,2.8-18.7,5.5-27.9q-1.6.1-3.3.3c-23.3,1.9-46.4,3.2-69.7,2.7.7,2.6,1.4,5.1,2.1,7.7.2.8.4,1.6.7,2.4,1.3,4.5,2.6,9,4.2,13.4.3.9.6,1.8,1,2.8.6,1.8,1.3,3.5,1.9,5.3,2,5.7,3.4,11.4,2.2,17.4-3.5,4.6-7.5,6.5-13,8-2.7.2-5.2.3-7.9.3q-1.1,0-2.3,0c-2.5,0-5,0-7.5,0-1.8,0-3.5,0-5.3,0-3.7,0-7.4,0-11.1,0-4.7,0-9.4,0-14.1,0-3.6,0-7.3,0-10.9,0-1.7,0-3.5,0-5.2,0-11.9,0-24.3,0-33.7-8.4-12.4-15.4-13.9-40-13-59-.6,0-1.2,0-1.8,0q-15.8.2-20.2-2c-.1,1.2-.2,2.4-.3,3.7-1.8,16.1-6.9,32.6-11.9,48q-.5,1.5-1,3c-.3.9-.6,1.8-.9,2.8q-.4,1.2-.8,2.4c-1.3,2.5-2.7,3.6-5.1,5.1q-2.1,0-4-1-1.2-2.8-2.1-6.4-1.3-5.6-4.9-9.6c-2.1.3-3.5.5-5,2-.6,5.4.5,8.7,3.1,13.3q.9,1.7.9,3.7c-4.7,2.4-9.1,2.3-14.2,2.2-.8,0-1.7,0-2.5,0q-6.1,0-7.2-1.2c-.1-1.7-.2-3.4-.3-5.1-.5-6.3-2.2-11.4-6.7-15.9q-2.6-.2-5,0c-.5,6.3.8,10.7,3.2,16.6q.8,2.4-.2,5.4c-7,.1-14.1.2-21.1.2-2.4,0-4.8,0-7.2,0-3.5,0-6.9,0-10.4,0-1.1,0-2.1,0-3.2,0-8.6,0-17.6-1.5-24.6-6.7-5.8-6.4-7.2-12.1-7.1-20.7.5-9.8,3.5-18.8,6.6-28.1.3-.8.5-1.5.8-2.3,3.4-10.1,6.8-20.2,10.3-30.2.3-.8.6-1.6.9-2.5q2-5.7,3.1-7.9c-.6.2-1.3.4-1.9.6-12.1,3.5-23.9,4.8-36.4,4.7-2.1,0-4.2,0-6.4,0-20.3,0-41.3-5.4-56.5-19.4-4.3-4.5-7.8-8.4-7.8-14.9q1-3.1,3-5.1c4.8.3,9.4,1.1,14.2,2.1,21.2,3.9,42.9-2.2,62.8-9.1-.5-.3-1-.6-1.5-1q-27.2-17.6-29.5-26c-.9-8-1-15.4,4-22,4.5-5.6,10.1-9.3,16.1-13.1,8.4-5.6,10.6-11.1,13.1-20.6.4-1.5.8-3,1.2-4.5.2-.8.4-1.5.6-2.3,7.8-28.8,16.9-57,31-83.5.4-.7.7-1.3,1.1-2,9.6-18.3,21.1-35.8,33.9-52,.5-.6.9-1.2,1.4-1.8,10.2-12.9,20.8-25.7,33.6-36.2q1.4-1.2,2.7-2.4c60-53.1,149.1-69.1,226.3-54.6Z"/>
  <path class="st1" d="M596,320c3.6,1.3,6.6,2.9,9.8,5.1.8.5,1.6,1.1,2.4,1.6.6.4,1.2.8,1.8,1.2-3.7,3.2-7.6,5.4-12.1,7.5-17,8.3-32.3,18.5-46.9,30.5-.6.5-1.2,1-1.8,1.5q-20.3,14.8-32.5,34.2c.4,4.2,2,7.3,3.9,11,.4.7.8,1.5,1.2,2.2,1.2,2.3,2.5,4.6,3.7,7,1.6,3,3.2,6.1,4.8,9.1.4.7.8,1.5,1.2,2.3,3.8,7.2,7.2,14.6,10.7,22,1.4,2.9,2.8,5.8,4.2,8.7,5.4,11.3,9.4,23.3,13.6,35.1.3.7.5,1.5.8,2.2,3.2,9,5.8,18.3,8.5,27.5.4,1.3.7,2.5,1.1,3.8.3,1.2.7,2.4,1,3.6q.5,1.6.9,3.2t.7,5.7c24.3-7.4,46-20.3,65-37q1.3-1.2,2.7-2.4c2.5-2.2,4.9-4.4,7.3-6.6.7-.7,1.5-1.4,2.2-2.1,16.6-16,29.7-36.8,37-58.7.8-2.2,1.6-4.2,2.8-6.2q1.5-.5,3-1c.3,1,.7,2,1,3h2c.9,21.4-14.4,44.9-27.4,61-2.2,2.8-4.3,5.7-6.4,8.6-.4.5-.8.9-1.3,1.4h-2c-.2.5-.4,1.1-.6,1.6-1.9,3.3-4.5,5.7-7.3,8.2-.6.6-1.2,1.1-1.9,1.7-13.1,11.8-27.9,21.7-43.2,30.4q-1.2.7-2.4,1.4c-14.6,8.3-29.7,14.3-45.6,19.6-1.1.4-2.1.7-3.2,1.1-46.7,15.4-96.9,21.9-146,22.2-.8,0-1.6,0-2.4,0-5.9,0-11.7,0-17.6,0-.9,0-1.7,0-2.6,0-25.6,0-50.9-.5-76.4-4.1-3.2-.4-6.3-.8-9.5-1.1-28.5-3.4-56.7-9.3-83.7-19.1-2.5-.9-5-1.7-7.5-2.5-8.9-2.7-17.4-6.1-25.9-9.8-1.8-.8-3.6-1.6-5.5-2.3-1.1-.5-2.2-1-3.4-1.5q-1.5-.7-3-1.3c-2.9-1.8-4-3.5-5.5-6.6q5.7-6,9-7,2.7,1.1,5.9,2.9c6.1,3.3,12.4,5.9,18.9,8.4.9.3,1.8.7,2.7,1,1.7.6,3.4,1.3,5.1,1.9,2.1.8,4.2,1.6,6.3,2.4,17.1,6.4,34.6,10.7,52.5,14.3.7.1,1.4.3,2.1.4,1.9.4,3.8.7,5.7,1.1q2.8.6,4.8,1.6c.1-.5.2-1.1.3-1.7,1.2-5.5,2.6-10.9,4.3-16.3.3-.8.5-1.7.8-2.6.6-1.8,1.1-3.7,1.7-5.5,1-3.1,1.9-6.2,2.8-9.3,8.7-28.6,18.9-56.4,31.3-83.7,3.3-7.3,6.6-14.6,9.8-21.9.3-.7.6-1.3.9-2,.7-1.7,1.5-3.3,2.2-5,.4-.9.8-1.7,1.1-2.6.8-2.6,1-4.6.7-7.3q-1.8-2.6-4.2-4.9c-2.5-2.7-4.9-5.2-7.2-8.1-4.1-4.6-8.9-8.1-13.6-11.9-.8-.6-1.5-1.3-2.3-2-11.3-9.6-24.6-16.7-37.8-23.5q-2.9-1.6-5.9-3.6c1.5-3.7,3.6-5.7,6.6-8.2.8-.7,1.6-1.4,2.5-2.1.6-.5,1.3-1.1,1.9-1.6.5.4.9.7,1.4,1.1,5.3,4.1,10.9,7.6,16.7,11,9.3,5.6,17.7,11.8,25.9,18.9.8.7,1.5,1.3,2.3,2,2.7,2.3,5.4,4.8,8,7.2,1.7,1.5,3.4,3.1,5.1,4.6,1.6,1.4,3.2,2.9,4.8,4.4.7.6,1.5,1.3,2.2,2,.6.6,1.3,1.2,1.9,1.8,4.2,1.8,8.1.8,12.6.1.9-.1,1.8-.3,2.7-.4,2.8-.4,5.6-.9,8.4-1.4,2.1-.4,4.2-.7,6.4-1.1,3.3-.6,6.5-1.1,9.8-1.7,7.3-1.2,14.5-2.4,21.8-3.5.8-.1,1.6-.2,2.5-.4,29.1-4.1,66.9-5.7,95.5,2.4v-2c1.6-1.7,3.3-3.4,5-5,.8-.8,1.6-1.6,2.4-2.4,5-5.1,10.1-9.9,15.6-14.6,1-.8,1.9-1.7,2.9-2.5,17.8-15.3,36.8-28.2,57.4-39.6q1.3-.7,2.5-1.4c.7-.4,1.5-.8,2.2-1.2,1.9-1.2,3.4-2.5,5-4.2ZM374,408.4c-2.8.6-5.6,1.1-8.4,1.5-1.6.3-3.2.6-4.8,1-.7,0-1.4.2-2.1.3-2.5.6-3.8,1.2-5.7,2.8-2.4,4.1-4.3,8.4-6.1,12.8-1.5,3.6-3.3,7.1-5,10.6-.7,1.4-1.4,2.9-2.1,4.3-.4.7-.7,1.5-1.1,2.2q-9.4,19.2-17.7,39c-.4.9-.7,1.9-1.1,2.8-8,20.9-14.1,42.2-20.2,63.7-.5,1.7-.9,3.3-1.4,5-.7,2.5-1.4,5-2.1,7.5-.2.8-.4,1.5-.7,2.3-.8,3-1.5,5.5-1.5,8.7,57.5,7.9,115.6,10.3,173.3,2.4,2.6-.3,5.1-.7,7.7-1,24.2-3.1,47.9-9.7,71.1-17.4.8-.3,1.6-.5,2.4-.8q5.5-1.7,10.6-4.2c1.4-3.5.7-6.2-.2-9.8q-.4-1.7-.8-3.5c-.3-1.2-.6-2.5-.9-3.8-.2-.6-.3-1.3-.5-1.9-6.4-26.1-14.5-51.9-26.6-75.9-.4-.7-.7-1.4-1.1-2.1-4.9-9.7-10.2-19.2-15.6-28.6-.5-.9-1-1.8-1.6-2.8q-6-10.8-16-17.1c-1.6-.3-3.2-.6-4.8-.8-.7-.1-1.5-.3-2.2-.4-16.7-2.9-33.7-3.5-50.7-3.5-2.9,0-5.8,0-8.6,0-19,0-36.9,2.6-55.4,6.6Z"/>
  <path class="st0" d="M752,592c4,2.1,5.8,3.8,7.9,7.8q.8,1.5,1.5,2.9t1.6,3.2c.6,1.1,1.1,2.2,1.7,3.4,4.5,8.8,8.6,17.8,12.8,26.8,4.9,10.6,10,21.1,15.2,31.5q29.8,60.4,27.3,73.3c-1.8,2.9-2.9,4.5-6,6q-3.4.4-7,0c-2.8-2.9-3.2-5.9-3.9-9.7-1-5.5-2.8-10.8-6.1-15.3-1.6-.7-3.3-1.4-5-2,.2.7.5,1.4.7,2.2,1.1,3.2,2.2,6.5,3.3,9.7.4,1.1.8,2.3,1.2,3.4q.5,1.6,1.1,3.3c.3,1,.7,2,1,3q.7,2.4.7,4.4c-2.4,1.2-3.9,1.1-6.5,1.1-.9,0-1.8,0-2.7,0-.9,0-1.9,0-2.8,0-.9,0-1.9,0-2.8,0q-1.3,0-2.7,0c-.8,0-1.6,0-2.5,0q-1.9-.1-2.9-1.1c-.3-1.6-.5-3.2-.8-4.8-1.2-6.9-3.2-15.1-8.2-20.2q-2.1.3-4,1c.5,6,1.8,10.9,4.1,16.5.3.7.6,1.5.9,2.2.7,1.8,1.4,3.5,2.1,5.3-1.6,1.6-3.2,1.2-5.4,1.2-.9,0-1.9,0-2.9,0-1,0-2.1,0-3.1,0q-1.6,0-3.2,0c-2.3,0-4.5,0-6.8,0-3.4,0-6.8,0-10.2.1q-24.5.2-35.2-7.7c-11.6-11.4-16.6-30.8-22.4-45.6-.9-2.4-1.9-4.8-2.8-7.1-1.8-4.4-3.5-8.8-5.2-13.3-.7-1.8-1.4-3.5-2.1-5.3-1-2.5-1.9-5-2.9-7.4q-.4-1.1-.9-2.2c-1.5-3.9-2.5-6.8-.9-10.8,2.5-1.4,4.7-2.5,7.3-3.6,10.5-4.6,20-10.4,29.7-16.4.8-.5,1.5-1,2.3-1.5,9.2-5.8,18.1-11.8,26.7-18.5,1.2-.9,2.4-1.9,3.7-2.8,1.3-1,2.5-1.9,3.8-2.9.6-.4,1.2-.9,1.8-1.4,3.5-2.8,6.7-5.7,9.8-8.9Z"/>
  <path class="st2" d="M544,630q1.9,1.4,3,4c-.4,7.6-2.5,14.4-5,21.6-.4,1.1-.8,2.3-1.2,3.5-2.4,6.7-5,13.2-8.5,19.5-.3.6-.7,1.3-1,2-2.5,4.3-4.6,5.3-9.3,6.5-2.5.4-5,.6-7.6.9-.7,0-1.5.1-2.2.2-2.4.2-4.7.4-7.1.6q-1.2,0-2.5.2c-16.6,1.3-33.1,1.5-49.7,1.2.7,2.6,1.4,5.1,2.1,7.7q.3,1.2.7,2.4c1.3,4.5,2.6,9,4.2,13.4.3.9.6,1.8,1,2.8.6,1.8,1.3,3.5,1.9,5.3,2,5.7,3.4,11.4,2.2,17.4-3.5,4.6-7.5,6.5-13,8-2.7.2-5.2.3-7.9.3-.8,0-1.5,0-2.3,0-2.5,0-5,0-7.5,0-1.8,0-3.5,0-5.3,0-3.7,0-7.4,0-11.1,0-4.7,0-9.4,0-14.1,0-3.6,0-7.3,0-10.9,0-1.7,0-3.5,0-5.2,0-11.9,0-24.3,0-33.7-8.4-12.4-15.4-13.9-40-13-59q-.9,0-1.8,0c-6.1,0-12.1,0-18.2-1-.3-.3-.7-.7-1-1,0-7.4,1.3-14.1,4-21,6.8,1.4,13.5,3.2,20.2,5.1,12.9,3.5,26,5.3,39.3,6.3,2,.2,4.1.3,6.1.5,3.8.3,7.7.6,11.5.9,2,.2,4.1.3,6.1.5,19.3,1.5,38.6,2.1,58,2.1,2.9,0,5.9,0,8.8,0,16.9.1,33.3-.2,49.9-3.3,1.8-4.7,3.4-9.2,4.7-14.1.3-1.1.6-2.2.9-3.3.6-2.2,1.2-4.5,1.8-6.7.3-1.1.6-2.2.9-3.3q.4-1.5.8-2.9c2.1-6.1,4.1-9.6,10.9-8.7Z"/>
  <path class="st3" d="M841.5,435.5c5.3.7,9.3,3.4,13.9,6.1,9.1,5.2,17.5,8.8,27.6,11.3q1.7.5,3.5.9c6.8,1.7,13.5,2.7,20.5,3.1q.4,6.5-1.2,8.7c-2.4,1.7-3.7,1.6-6.6,1.5q-1.5,0-2.9-.1c-1,0-2.1-.1-3.2-.2-1.1,0-2.1-.1-3.3-.2-18-1.1-35.5-4.7-50.8-14.8-2.4-3-3-4.7-3.4-8.6.5-4.5,1.1-7,5.8-7.9Z"/>
  <path class="st6" d="M828.4,368.1c5.4,4,10.5,8.4,12.6,14.9q1,8.7-1.4,11.8-1.6,1.2-4.1,1.6c-3-.5-3.6-1.1-5.5-3.4q-1.1-2.2-2.1-4.6c-1.1-2.8-1.8-4.3-3.9-6.4q-6.9-.6-13,2c-1,2.5-1.6,4.9-2.2,7.5-.8,2.7-2,4.4-3.8,6.5q-3.4-.3-7-1c-2.9-4.3-2.7-7.9-2-13,2.3-7.4,6.3-12.2,13-16,6.1-2,13.3-1.8,19.4,0Z"/>
  <path class="st5" d="M660,611q3.4-.1,7,0c.7.7,1.3,1.3,2,2-.2,6.7-2.4,12.2-4.9,18.4-2.8,6.8-4.9,13.3-6.1,20.6q-1,.2-1.9.3c-.7.2-1.4.5-2.1.7-.3,1-.7,2-1,3q-3.6,1.2-7,2c2.1-15.7,6.9-32.8,14-47Z"/>
  <path class="st3" d="M914,405c3,4.5,2.4,7.9,1.4,13q-2.3,9.8-5.4,13c-4.4.5-6.3.5-10-2-.8-2.7-.8-5.2-1-8l1-1c.3-1.6.6-3.2.9-4.8.8-4,1.6-7,4.1-10.2,3.1-1.6,5.6-.7,9,0Z"/>
</svg>