<?xml version="1.0" encoding="UTF-8"?>
<svg id="Layer_1" xmlns="http://www.w3.org/2000/svg" version="1.1" viewBox="0 0 1024 1536">
  <!-- Generator: Adobe Illustrator 29.0.1, SVG Export Plug-In . SVG Version: 2.1.0 Build 192)  -->
  <defs>
    <style>
      .st0 {
        fill: #feccc5;
      }

      .st1 {
        fill: #dd2a01;
      }

      .st2 {
        fill: #d82c00;
      }

      .st3 {
        fill: #d92d00;
      }

      .st4 {
        fill: #ea2a02;
      }

      .st5 {
        fill: #fef7f4;
      }

      .st6 {
        fill: #da2b00;
      }

      .st7 {
        fill: #fa2903;
      }

      .st8 {
        fill: #fef5f2;
      }

      .st9 {
        fill: #f82b02;
      }

      .st10 {
        fill: #fefcfb;
      }

      .st11 {
        fill: #d92c00;
      }

      .st12 {
        fill: #d92a00;
      }

      .st13 {
        fill: #da2c00;
      }

      .st14 {
        fill: #fa2904;
      }

      .st15 {
        fill: #fa2a03;
      }
    </style>
  </defs>
  <path class="st15" d="M694.2,137.6c8,6.4,13.9,14,15.9,24.2,1.5,15.3-1.3,30.2-9.4,43.4q-2.9,4-2.2,7.3c1.4,3.5,2.9,5.1,5.6,7.8,30,33.2,51.5,91,52.3,135.5,0,1.1,0,2.1.1,3.3.7,22.7-.5,44.6-10.6,65.4-.6,1.2-1.1,2.5-1.7,3.7-5.2,10.6-12.3,19.3-19.8,28.3-4.3,5.1-8.1,9.9-11.3,15.8,7.9,7,16.3,12.1,25.6,16.9,12.2,6.3,23.2,13.5,34,21.9.8.6,1.6,1.3,2.5,1.9,48,38,80.8,93.9,99,151.8.4,1.4.9,2.7,1.3,4.1,24.8,79.3,47.1,200.7,7,278.5-9.4,15.5-24.3,23.5-41.1,29.2h-3c.2-1.2.4-2.4.7-3.6,2-12.7,2.6-25.1,2.6-38,0-1.6,0-3.2,0-4.9q.6-7.1-1.8-13.2c-2.5,0-5,0-7.5,0,0,.9-.1,1.9-.2,2.9-1.5,20.2-3.5,40-7.3,59.8-2.9,0-5.8.1-8.8.2-1.6,0-3.3,0-4.9.1-7.1-.4-13.7-1.7-20.6-3.3,0,1.1,0,2.2,0,3.4,1.4,77.4-7.3,155.2-20.3,231.4-.8,4.4-1.5,8.9-2.2,13.3-3.4,20.3-6.9,40.6-10.4,60.9q2.8,0,5.7,0c23.4-.2,45.4,14.4,61.7,30,14.2,14.8,21.5,32.9,21.2,53.3-1.1,9.3-5.4,14.5-12.4,20.3-4.7,2.4-8.4,3.1-13.5,3.8-.2-1.3-.4-2.6-.7-3.9-3.1-16.4-8.3-34.2-21.7-45.3q-4-1.5-7.5-1.5-1.2,3.4-1.5,7.5,1.9,3.6,4.8,7c9.4,12.7,12.6,25.2,14.6,40.8-13,1-25.8,1.7-38.8,1.5,0-1.5.1-3.1.2-4.6.6-18.8-2.4-33-15.1-47.6q-2.8-3.5-7.6-3.2c-1.4,0-2.8.1-4.3.2.8,6.4,3.1,10.5,6.7,15.9,4.3,6.5,6.9,11,6.9,18.8q0,1.8,0,3.6c0,1.2,0,2.5,0,3.8,0,1.3,0,2.5,0,3.8,0,3.1,0,6.2,0,9.3q-119.4,1.2-140.9-19.7c-8.2-9.5-9.6-21.6-10.7-33.6-.2-1.8-.4-3.6-.5-5.5-.6-6.3-1.1-12.5-1.6-18.8q-.1-1.6-.3-3.3c-3.5-44-5.4-88.2-7.4-132.4,0-1.4-.1-2.8-.2-4.3-1.4-30.9-2.8-61.8-3.6-92.7,0-1.8,0-3.5-.1-5.4q0-2.3-.1-4.6c-.4-7.2-1.1-14.4-1.8-21.6-14.8-1-29.5-2-44.8-3-1,5.8-2,11.5-3.1,17.4-2.2,12.5-4.5,25-6.9,37.5q-.3,1.7-.6,3.4c-.2,1.1-.4,2.2-.7,3.4-4.3,22.2-8.2,44.4-11.8,66.8-2.7,16.8-5.5,33.5-8.6,50.2-.4,2.1-.8,4.1-1.1,6.2-.7,3.8-1.4,7.7-2.1,11.5-1.3,7-2.5,13.9-3.7,20.9-.3,1.9-.7,3.8-1,5.8-.8,6.1-1.3,11.1-.7,17.2q3,3.9,7.4,7c15.1,12.7,26.6,29.1,29.1,49.1.7,14.7-2.4,26.1-11.8,37.6-5.5,5.2-11.6,6.1-18.7,7.8,0-1.9.1-3.7.2-5.7.5-19.4-1.2-32.8-13.8-48.4-4.2-4-7.6-4.8-13.3-5.6,2,7.7,4.6,14.3,8.3,21.3,4.3,8.4,6.8,14.6,6.9,24.2,0,1.7,0,3.4,0,5.1q-.3,4.7-3.3,10.6h-34.3q.2-5.7.5-11.6c.2-11.8-1.8-21.4-7.9-31.7-1.5-1.5-3-3-4.5-4.5v-3c-3.9-1-7.9-2-11.9-3,1.7,8.5,4.3,14.9,8.8,22.3,3.2,6,3.4,11.4,3.4,18.1,0,1.6,0,3.1,0,4.7q-.2,4.1-1.7,8.6-84.8.9-101.4-11.2c-9.8-9.9-11.4-24.3-11.7-37.5,0-1.5-.1-3-.2-4.6-.2-5-.3-9.9-.5-14.9-.1-3.5-.2-7-.4-10.6-.3-9.4-.6-18.8-.9-28.2-.2-7.7-.5-15.5-.7-23.2-1.9-57.6-3.3-115.2-3.6-172.9-4.4,1-7.8,2.3-11.7,4.6-1.1.6-2.2,1.3-3.3,1.9-1.2.7-2.3,1.3-3.5,2-37.7,21.3-81.8,26-123.6,14.4-21.3-6.4-39-16.1-54.9-31.9-1.1-1.1-2.3-2.2-3.4-3.4-33-34.4-42-80.6-41.7-126.5q1-43.9,12.9-58c1.3-1,2.5-2.1,3.8-3.2q1.4-1.2,2.9-2.5c8.8-5.6,18.3-6.3,28.4-4.9,9.6,3.4,19.4,8.5,24.8,17.4,2.4,5.7,2.6,9.7,2.4,15.8,0,1,0,2,0,3-.1,5.3-.5,10.6-1.1,15.8-3.3,29.6.5,59.2,18.9,83.6,12.5,14.5,28,25.9,47.5,28.5,25.8,1.8,49.7-5.6,69.6-22.2,4.6-4.1,9-8.4,13.4-12.7q1.2-1.2,2.4-2.3c2.4-2.5,4.8-5,7.1-7.5q1.3-1.4,2.7-2.9c7.5-8.6,9.2-14.8,9-26,0-1.5,0-2.9,0-4.4,0-4.7,0-9.4,0-14.1,0-3.3,0-6.5,0-9.8,0-6.4,0-12.8,0-19.2,0-10.6.3-21.2.7-31.9,0-1.6.1-3.2.2-4.8.6-16.1,2-32.1,3.7-48q-2.4-.2-4.9-.4c-39.6-3.8-78-12.8-108.5-39.8-.9-.8-1.9-1.7-2.9-2.5-18.6-17.3-29.2-43.9-30.4-69-1.1-43.6,13-82.3,37.3-118.1,2.2-3.2,4.3-6.5,6.5-9.8,17-25.6,36-48.1,60.2-67.3,2.6-2.1,5.3-4.3,7.9-6.5,19.4-16.1,39.5-30.7,61.3-43.3,3.3-2,6.6-4.1,9.8-6.2q4-2.6,7-2.6c-2.3-4.5-4.3-7.4-8.4-10.5-20.6-16.5-32.2-45-37.9-70-.4-1.7-.8-3.4-1.2-5.2-3-14.1-4-27.7-3.9-42.1,0-3.4,0-6.8,0-10.2,0-38.5,11.6-74.1,30-107.7.6-1.1,1.2-2.3,1.9-3.5q.8-1.5,1.7-3.1c1.4-3,2.4-5.6,2.9-8.9q-1.9-3.7-4.8-7.4c-9.2-13.9-14.1-29.6-11.7-46.4,3.3-12.2,8.5-21.6,19.4-28.4,8.1-4.2,14.5-5.3,23.5-5.1q1.8,0,3.6,0c16.1.5,28.4,5.8,40.1,17,5.2,6,9.5,12.5,13.4,19.4,8.2-.5,15.8-1.7,23.8-3.8,11-2.6,21.4-2.6,32.7-2.3,2.1,0,4.2,0,6.3.1,5.5,0,10.9.2,16.4.4,4.4,0,8.7.2,13.1.3,5.4,0,10.7.2,16.1.3,1,0,2.1,0,3.2,0,10.9.2,21.7.5,32.5,1.3q2.6.2,5.2.3c3.2.2,6.4.4,9.5.7q8.7.6,15.9-3.9,3-4.3,5.1-9.3c5.1-10.9,15.5-18,26.2-22.8,15.1-4.4,28.2-.1,40.8,8.7Z"/>
  <path class="st0" d="M663.8,593c5.2,4.3,10.1,8.7,14.9,13.4.9.9,1.8,1.8,2.8,2.7,21.7,23,31,53.7,37.5,83.8.3,1.3.5,2.5.8,3.8,15,70.8,22.4,164.4-15.8,229-3.2,4.8-6.6,9.2-10.4,13.4-1,1.1-1.9,2.2-2.9,3.3-24.3,26.2-60.9,39-95.9,40.5-34.4.7-67.6-11.1-93.7-33.4-1.1-.9-2.2-1.8-3.3-2.8-27.6-25.4-41.4-68.8-47.5-104.7q-.2-5.3,0-9c.8-.3,1.6-.5,2.4-.8,36.7-12.1,79.1-29.5,99.1-64.9,11.8-24.1,20.7-53.6,14.2-80.7-4.3-12.2-11.6-19.4-22.7-25.5-14.8-6.8-28.6-7.9-44.8-7.6q-2.9,0-5.8,0c-4.7,0-9.4.1-14.1.2,4.1-23.4,25.8-48.7,44.2-62.6,42-28.1,99.9-29.7,140.9,1.4Z"/>
  <path class="st4" d="M145.8,892.4c7.7,4.8,11.6,8.5,15.2,16.9q.5,5.2.4,10.8,0,1.5,0,3c-.1,5.3-.5,10.6-1.1,15.8-3.3,29.6.5,59.2,18.9,83.6,12.5,14.5,28,25.9,47.5,28.5,25.8,1.8,49.4-5.6,69.5-22,3-2.8,5.9-5.7,8.8-8.6.9-.9,1.9-1.9,2.8-2.9,1.8-1.9,3.7-3.8,5.5-5.8.8-.9,1.7-1.8,2.6-2.7.8-.8,1.5-1.6,2.3-2.4,3.2-2.4,6.1-2.9,10-3.4,0,6.4,0,12.7,0,19.1,0,2.2,0,4.3,0,6.5q.1,22.1-1.6,32.6,1.2,0,2.4-.1c12.2-.3,24,1.7,36,3.7,3.1.5,6.2,1,9.2,1.5,2,.3,4.1.7,6.1,1,8.5,1.4,16.9,2.6,25.4,3.7,7.3,1.2,13.8,2.8,19.3,8,1.9,4,2.4,6.2,1.5,10.6-6,6.4-13.1,8.6-21.6,9.2-4.4.1-8.7.1-13.1,0-1.6,0-3.2,0-4.8,0-3.4,0-6.7,0-10.1,0-5.1,0-10.3,0-15.4,0-3.3,0-6.5,0-9.8,0-1.5,0-3.1,0-4.7,0-1.4,0-2.9,0-4.3,0-1.3,0-2.5,0-3.8,0-3.4-.2-6.2-.6-9.4-1.7l-1.5-3c-4.4.9-7.8,2.3-11.7,4.6-1.1.6-2.2,1.3-3.3,1.9-1.2.7-2.3,1.3-3.5,2-37.7,21.3-81.8,26-123.6,14.4-21.3-6.4-39-16.1-54.9-31.9-1.1-1.1-2.3-2.2-3.4-3.4-33-34.4-42-80.6-41.7-126.5q1-43.9,12.9-58c1.3-1,2.5-2.1,3.8-3.2,1-.8,1.9-1.7,2.9-2.5,12.9-8.2,27.3-6.8,40.1.5Z"/>
  <path class="st11" d="M553.4,666.1c8,7.2,13.9,16.9,15.5,27.6.2,3.9.2,7.7.1,11.5,0,1.4,0,2.7,0,4.2-.9,32.4-13.2,60.9-36.4,83.6-26.5,22.9-61.5,38.7-96,43.8-8.9,1.5-17.7,3.7-26.5,5.8-13.5,3.2-26.1,4.4-40,4.4-1.4,0-2.8,0-4.2,0-9.4,0-18.1-1.1-27.3-3.3v-3c-.9.1-1.8.2-2.7.3-13,1.4-25,2.5-37.6-1.8l3-1.5c-.5-1-1-2-1.5-3-2-14.3,2.7-27.6,6.5-41.2,1.2-4.3,2.1-8.6,3.1-12.9,2.5-11.2,5.6-22.2,9.1-33.2.4-1.4.8-2.7,1.3-4.1q7.6-23.4,14.4-28,10.3-1,16.1,2.4,3.3,3.5,3.9,7.7-.3,2.5-.6,5.1c0,1-.2,1.9-.3,2.9-.2,2.2-.5,4.4-.8,6.6-.5,3.9-.8,7.8-1.2,11.7-2.6,26.1-8.2,51.4-14.2,77,11.9,1,23.7,1.7,35.7,1.7q2,0,4,0c6.8,0,13.2-.3,19.9-1.7-.7-5.2-1.3-10-3-14.9-.1-2.1-.2-4.3-.2-6.4,0-1.3,0-2.6,0-3.9,0-1.4,0-2.8,0-4.2,0-1.4,0-2.9,0-4.4,0-3.1,0-6.1,0-9.2,0-4.6,0-9.3,0-13.9,0-3,0-6,0-9,0-1.4,0-2.7,0-4.2q0-25.7,3.3-31.1c4.3-4.2,8.5-5.2,14.3-5.4,5.1.2,6.4.6,10.9,3.6q1.1,3.1,1.9,7,.4,2.2.9,4.4t.9,4.7,1,4.9q12.5,64.1,7.2,74.6c39.1-11.9,82.1-28.9,107.4-62.7.5-1.5,1-3,1.5-4.5q-8.1,1.9-15.9,4.8c-4.3,1.5-6.6,1.2-10.9-.3-4-6-3.2-9.3-3-16.4,1.7-.9,3.4-1.7,5.2-2.6,1.1-.6,2.2-1.1,3.3-1.7q3.4-1.7,6.7-2.8c3.5-1.3,5.8-2.3,8.6-4.9,2.3-5.9,3.5-11.7,4.5-17.9q-2.4.7-4.8,1.5-8.3,2.2-13.2,1.5-2.7-1.7-4.5-4.5-.3-4.8,0-9c6.9-3.8,12.9-6.7,20.9-7.5v-3h7.5c-1.1-2.4-2.3-4.9-3.5-7.3q-1-2-1.9-4.1-1.9-4-6.5-6.5c-31.1-5.3-61.9,1.4-92.2,7.9-26.7,5.7-53.1,11.3-80.4,12.2-1.1,0-2.3.1-3.4.2-4.3,0-7.9-.1-11.4-2.7-4.2-4.6-6-8.5-5.8-14.6.3-6.4,1.6-11,5.2-16.4,3.9-2,7-1.6,11.4-1.6q2.2,0,4.5,0c1.2,0,2.3,0,3.5,0,1.2,4.9,1.6,7,0,11.9,12.6.6,24.4-1.8,36.7-4.3,2.1-.4,4.1-.8,6.2-1.2q11.4-2.2,22.7-5c9.8-2.6,20.1-3.4,30.2-4.6q1.7-.2,3.4-.4,62.3-7.2,87.3,11Z"/>
  <path class="st10" d="M545,355.9c3.3,1.8,4.4,4.4,6.3,7.5,10.7,14,31.1,26.6,46.9,34.1-.6,12.3-1.4,21.5-9.6,31.2-6.5,5.4-11.9,5.2-20.2,4.7-3.8-1.6-7.1-3.2-10.6-5.2-6-3.4-10.7-6-17.7-5.2l-1.5,6c13.7,11,26.8,16.9,44.8,14.9,8.9-2.7,14-7.5,19.4-14.9,4.2,1.8,7,3.8,10.5,6.8,6.5,5.4,11.1,5.8,19.3,5.1,9.9-2.9,16.8-7.7,22.4-16.4q2.1-4.8,3-9-4-.9-9,0c-3.3,2.5-6.2,5.1-9.2,8-4,3.5-7.1,3.9-12.3,4.4q-5.3-.5-8.8-2.8c-5.9-8.5-5.9-17.5-5.5-27.5,1-.3,1.9-.7,2.9-1,16.4-6,23.2-14.2,31.6-29.3q2.8-4.1,5.8-5.7c5.5.2,8.3,3.9,12.1,7.4,4.2,4.6,6.6,9.2,8.8,15.1.4,1,.9,2,1.3,3,6.4,16.9,5.5,40.2-.7,56.9-8.9,17.6-24.6,25.8-42.5,32.2-28.3,9.2-63.5,8.4-90.2-5-16.3-8.9-26.3-18.6-32.3-36.6-2.8-9.9-4.8-18.5-4.7-28.7,0-1.1,0-2.2,0-3.4.3-12,2.1-23.3,10.6-32.3,4.6-3.6,9.5-6.5,14.7-9.3,1-.5,2-1.1,3-1.6,4-2.1,7-3.6,11.6-3.4Z"/>
  <path class="st1" d="M592.7,337.4c3,0,6,0,9.1,0q36.2,0,48.6,12.3,1.9,4.6,1.5,9c-1.4,2.5-2.9,5-4.5,7.5-.7,1.3-1.5,2.6-2.2,3.9-.7,1.3-1.5,2.6-2.2,3.9-.7,1.3-1.5,2.6-2.2,3.9q-2.2,3.1-6.7,4.6v3.4c-1.8,4.8-2.7,5.2-7.1,7.5-4.5,2.1-8.9,3.2-13.8,4.1.4,3.4.9,6.7,1.3,10.1q.4,2.8.7,5.7c.8,4.4,1.5,7.4,3.9,11.1,4.7,2.3,8.3,1.9,13.4,1.5,5.5-2.2,9.6-5,13.5-9.4,1-.8,1.9-1.7,2.9-2.5q4.8.4,9,1.5c-.2,8.1-3.5,12.5-8.8,18.2-6.6,5.8-13.4,8.3-22.1,9.4-9.5-1.3-15-5.6-21.4-12.6q-4.7,1.1-7,4.9c-5.2,6.1-11,9.3-19,10.5-15.4.5-27.7-4.7-39.7-14l-3-3q.8-5.3,3-7.5c7.6.2,12.7,2.5,19.4,6.1,9.3,4.8,14.8,5.3,25.1,3.3q4.8-1.3,6.4-4.5c3.7-9.2,6.6-18.8,5.8-28.7q-1.3-.5-2.5-1.1c-17.1-7.8-44.9-29.1-42.2-34.8,1-.5-1,.5,0,0-.8-.8-1.5-1.7-2.3-2.5q-2.1-3.5-2.2-7.1c2.3-5.4,5.5-8.5,10.5-11.3,11.2-3.7,23.1-3.4,34.8-3.4Z"/>
  <path class="st11" d="M787,653.6q1.8,0,3.6,0c1,.2,2,.4,3.1.6,3,4.5,3.5,6.1,4,11.3.1,1.4.3,2.8.4,4.2.1,1.5.3,3,.4,4.6.2,1.6.3,3.2.5,4.8.5,5.2,1,10.3,1.4,15.5.2,1.8.3,3.5.5,5.3,5.7,61,8,121.9,8,183.2,0,4.7,0,9.4,0,14.2.1,26.5,0,52.8-3.3,79.1-6.5,1.9-10.2.8-16.4-1.5,0-1.9,0-3.9,0-5.9,0-18.5.2-37,.2-55.5,0-9.5,0-19,.1-28.5.2-43.4-.3-86.3-4.8-129.5-.3-3.1-.6-6.2-.9-9.3-.7-7.2-1.4-14.5-2.2-21.7-.2-2.3-.5-4.7-.7-7-1.3-12.4-2.7-24.8-4.2-37.3q-2.4-19.8.9-24.3c3.3-2.5,5.3-2.5,9.4-2.5Z"/>
  <path class="st7" d="M145.8,892.4c7.7,4.8,11.6,8.5,15.2,16.9,2.6,20.8-1.3,43.4-3,64.2h-1.5v-9q-1.3,0-2.6,0c-13.9.1-27.8-.7-41.7-1.5-2.5-.1-5-.3-7.5-.4-6.1-.3-12.2-.7-18.3-1.1-.2-10.7.3-20.9,2-31.5.2-1.2.4-2.5.5-3.7,1.9-12.4,3.9-23.6,13.9-31.9,1-.8,1.9-1.7,2.9-2.5,12.9-8.2,27.3-6.8,40.1.5Z"/>
  <path class="st3" d="M328.1,1003.4c0,6.4,0,12.7,0,19.1,0,2.2,0,4.3,0,6.5q.1,22.1-1.6,32.6c.8,0,1.6,0,2.4-.1,12.2-.3,24,1.7,36,3.7,3.1.5,6.2,1,9.2,1.5,2,.3,4.1.7,6.1,1,8.5,1.4,16.9,2.6,25.4,3.7,7.3,1.2,13.8,2.8,19.3,8,1.9,4,2.4,6.2,1.5,10.6-6,6.4-13.1,8.6-21.6,9.2-4.4.1-8.7.1-13.1,0-1.6,0-3.2,0-4.8,0-3.4,0-6.7,0-10.1,0-5.1,0-10.3,0-15.4,0-3.3,0-6.5,0-9.8,0-1.5,0-3.1,0-4.7,0q-2.1,0-4.3,0c-1.3,0-2.5,0-3.8,0-5-.3-8.4-.9-12.5-4-4-5.1-5.5-10.2-7.4-16.4-.4-1.2-.8-2.5-1.1-3.8q-13.2-44.7-9.3-58.2c4.7-6.7,10.6-13.4,19.4-13.4Z"/>
  <path class="st6" d="M491.4,161.5q1.4,0,2.9,0c3.3,0,6.5.1,9.8.2,1.2,0,2.4,0,3.6,0,9,.2,17.9.4,26.9.7,2.7,0,5.4.1,8.1.2,6.5.2,13.1.4,19.6.5,4.2,9.4,7.2,18.8,10,28.7.5,1.6,1,3.2,1.4,4.8,2.8,10,5.4,20.2,3.5,30.6q-1.9,2.7-4.5,4.5-5.5.3-10.4,0c-7.6-14.6-14.4-29.3-20.8-44.5-.5-1.3-1.1-2.5-1.6-3.8-.5-1.1-.9-2.2-1.4-3.4-1.9-4.2-4-8.3-6-12.5h-22.4c.5,1.7,1,3.4,1.5,5.1q13.7,48,9,57.6h-13.4c-1.2-1.9-2.3-3.8-3.5-5.8-.6-1.1-1.3-2.1-1.9-3.3-1.8-3.8-2.9-7.3-4.1-11.3-2.5-8.6-6.2-16.3-10.1-24.3-1.3-2.7-2.7-5.5-4-8.2q-.9-1.8-1.8-3.6t-3-7.6c-1-.5-2-1-3-1.5,5.3-3.3,9.5-3.3,15.6-3.2Z"/>
  <path class="st11" d="M435.2,375.6c3.1,4.3,2.5,7.8,1.8,13-9.6,14.9-36.2,18-52.3,21.6-15.2,3.3-30.6,5.3-46.2,3.8-4.3-4.3-4.9-9.4-6.2-15.2-.3-1.1-.6-2.2-.9-3.4-1.7-7.3-1.9-12.9-.4-20.2.5,1,1,2,1.5,3,21.2-.6,42.3-1.2,63.4-3.1q34.5-2.9,39.2.6Z"/>
  <path class="st13" d="M87.8,960.1c3.7,0,7.3.2,11,.5q1.7,0,3.4.2c2.4.1,4.8.3,7.1.4,3.6.2,7.2.4,10.8.6,12.1.7,24.3,1.5,36.4,2.8q.7,3.7,1.5,7.5h1.5c1,6.4,2,12.8,3,19.4h-4.5v3c-5.7,2-11.4,4.1-17,6.1-1.9.7-3.8,1.4-5.8,2.1q-33.1,12-42.9,11.2c-4.6-13.9-6.1-26.5-6.2-41,0-1.1,0-2.1,0-3.3q0-7.8,1.7-9.4Z"/>
  <path class="st3" d="M332.6,1167.5c7.7-.2,14.6.3,22.2,1.9,7.8,1.6,15.6,2.9,23.4,4,1.7.2,3.4.5,5.2.7,3.4.5,6.8.9,10.3,1.4,9.3,1.3,16.1,3,23.9,8.4.4,4.4.7,7.7,0,11.9-14.6,15-44.8,14.7-64.4,15.2-6.4,0-12.7,0-19.1-.2q-1.5-1.5-1.7-5.5c0-1.7,0-3.5,0-5.3,0-1.9,0-3.8,0-5.7,0-2,0-4,0-6,0-2,0-4,0-6,0-4.9,0-9.9,0-14.8Z"/>
  <path class="st11" d="M332.6,951.1c3.6.2,7.1.4,10.7.7q1.7.1,3.3.3c2.4.2,4.7.4,7,.6,3.5.3,7,.6,10.5.9q50.1,4.3,60.9,10.9,2.7,3.7,4.5,7.5-.9,3.2-3,6-.9,1.2-1.8,2.4c-8.4,6.3-20.7,6-30.8,6.7-1.7.1-3.4.3-5.1.4-18.3,1.3-36.6,1.2-54.9.9-.5,1-1,2-1.5,3-.3-6.4-.6-12.9-.8-19.3,0-1.8-.2-3.7-.3-5.6,0-1.7-.1-3.5-.2-5.3,0-1.6-.1-3.2-.2-4.9q0-3.7,1.5-5.2Z"/>
  <path class="st14" d="M307.2,1018.3h1.5c.1,1.2.3,2.5.4,3.7,1.4,12.1,3.6,23.8,6.2,35.7.3,1.4.6,2.8.9,4.2,1.4,6.2,3,12.2,5.4,18.2q2,5.4,2,11.3,1.5.7,3,1.5c-3.9,2.4-7.8,4.7-11.8,7.1-1.1.7-2.2,1.3-3.3,2-8.1,4.8-16.4,8.5-25.3,11.8-1.3-6.8-2.5-13.7-3.7-20.5-.4-2.3-.8-4.6-1.3-7-2.7-14.7-4.7-29.2-5.4-44.1,1.4-.8,2.8-1.7,4.2-2.6,10.2-6.3,19-12.4,27.1-21.3Z"/>
  <path class="st11" d="M219.1,625.8h3v3c1.1.1,2.1.3,3.2.4,5.1,1.3,8.4,3.4,12.8,6.2,11.6,7,24,11.7,36.6,16.4,8.6,3.3,15.5,6.1,21.9,12.8q1.3,4.9,1.5,9c-6.9,4-12.5,5.2-20.3,5-1.1,0-2.2,0-3.3,0-19-.5-37.9-3.4-55.9-9.7-4.3-1.4-8.5-2.1-13-2.8v-3h-4.5c3.9-13.4,10.1-25.7,17.9-37.3Z"/>
  <path class="st11" d="M334.1,294.5c3.3.3,6.6.6,9.9,1.1,1,.1,2,.3,3.1.4,3.3.4,6.6.8,9.9,1.3,4.5.6,9,1.1,13.5,1.7q1.7.2,3.4.4c10.2,1.3,20.4,2.3,30.7,3.1q10.1.9,14.6,4c2.3,4.7,2,8.3,1.5,13.4-5.8,6.5-14.4,9.9-23,10.9-4,.2-8,.2-12.1.1q-2.2,0-4.4,0c-3.1,0-6.1,0-9.2,0-4.7,0-9.4,0-14.1,0-3,0-6,0-9,0q-2.1,0-4.3,0c-1.3,0-2.6,0-4,0-1.1,0-2.3,0-3.5,0q-3-.4-7.5-3.4c-1.7-10.3.2-21.4,3-31.3l1.5-1.5Z"/>
  <path class="st2" d="M271.4,557.2c5.7,2,10.1,4.6,14.9,8.3,6.1,4.6,12.3,9,18.7,13.3q35.9,24.7,40.3,33.6c.9,5.2,1.2,9.7.7,14.9-6.5,4.3-11.8,4.4-19.4,3-5.6-2.9-10.2-6.7-15-10.7-2.7-2.2-5.5-4.4-8.2-6.6-1.4-1.1-2.7-2.2-4.1-3.3-4.8-3.8-9.6-7.5-14.5-11.2-9.8-7.4-19.3-14.9-28.2-23.3,4.3-6.9,9-12.3,14.9-17.9Z"/>
  <path class="st6" d="M700.4,400.1c9.7,0,18.3.8,27.6,3.4,1.8.5,3.6,1,5.5,1.5,5.1,1.4,10.3,2.9,15.4,4.4,1.8,5.2,1.5,5.9-.9,11.4-1.1,2-2.2,4-3.3,6-.6,1-1.1,2.1-1.7,3.1q-4.2,7.6-7.6,9.3c-13-4-27.8-9.2-38.1-18.3-2.9-5.6-4-11.2-3.6-17.5q3-3,6.7-3.4Z"/>
  <path class="st12" d="M619.1,163.2v4.5c-1.5.5-3,1-4.5,1.5.6,1.7,1.3,3.3,2,5,.8,2.3,1.7,4.6,2.5,6.9q.6,1.7,1.3,3.5c3.3,9.6,4.7,19.2,3.2,29.3q-2,3.5-4.5,6-4.4.7-9,0c-7-5.2-9.8-13.4-13.2-21.2-4.3-9.5-8.8-18.3-14.9-26.8q-1.7-2.8-1.7-7.3c1.1,0,2.2,0,3.4,0,5.1,0,10.1,0,15.2,0,1.8,0,3.5,0,5.4,0,1.7,0,3.4,0,5.1,0q2.3,0,4.7,0t5.1-1.7Z"/>
  <path class="st6" d="M721.8,355.3c1,0,2,0,3,0,3.1,0,6.3,0,9.4.1,2.1,0,4.3,0,6.4,0,5.2,0,10.5.1,15.7.2,0,4.8,0,9.6,0,14.5,0,1.4,0,2.7,0,4.1,0,1.3,0,2.6,0,4,0,1.2,0,2.4,0,3.7-.2,3.8-.8,7.3-1.7,11h-3l-1.5-3c-3.6-1.3-7.2-2.4-10.9-3.5-10.5-3.1-21.1-6.4-30.9-11.5-2.3-4.6-2.3-9.9-1.5-14.9,3.9-5.7,8.2-5,14.7-4.9Z"/>
  <path class="st8" d="M679.7,272.3c8.2,3.1,13.4,7.2,17.4,14.9,1.8,5,1.4,9.6,1,14.8q-3.5.9-7.5,1.5c-4.8-3.2-6.3-5.5-9-10.4v-3c-6.6-3.2-13.5-4.8-20.9-4.5-6.6,4-8.1,10.9-10.4,17.9h-10.4c-2.6-5.2-1.2-10.8,0-16.4,9.1-17.5,22.1-20.6,39.7-14.8Z"/>
  <path class="st5" d="M510.2,276.1c6.6,4.6,12.3,10.8,14.9,18.5.1,2.5.2,5.1.2,7.6q0,2,0,4t-1.7,4.7c-2.5,0-5,0-7.5,0-.4-.9-.7-1.8-1.1-2.7q-4.9-11.5-13.6-20.2c-4.4-1.4-7.6-1.6-12.1-1-7.3,4.2-10.9,10.8-14.9,17.9l-7.5-1.5c-1.6-6.4-1.8-9.6.7-15.8,10.5-16.1,25.5-20.9,42.6-11.7Z"/>
  <path class="st9" d="M596.4,358.5c1.1,0,2.1,0,3.2,0,5.7,0,10.9.3,16.5,1.7-1,3.4-2,6.9-3,10.4h-3v3c-4.7,3.1-9.4,3.8-15,3.7-5.5-1.3-7.4-5-10.4-9.6v-3h-3v-4.5c4.6-2.3,9.6-1.7,14.6-1.7Z"/>
</svg>