<?xml version="1.0" encoding="UTF-8"?>
<svg id="Layer_1" xmlns="http://www.w3.org/2000/svg" version="1.1" viewBox="0 0 1024 1536">
  <!-- Generator: Adobe Illustrator 29.0.1, SVG Export Plug-In . SVG Version: 2.1.0 Build 192)  -->
  <defs>
    <style>
      .st0 {
        fill: #feccbe;
      }

      .st1 {
        fill: #fd3005;
      }

      .st2 {
        fill: #fe3203;
      }

      .st3 {
        fill: #fef9f8;
      }

      .st4 {
        fill: #fefcfb;
      }

      .st5 {
        fill: #fff;
      }

      .st6 {
        fill: #fd2f05;
      }

      .st7 {
        fill: #feccbd;
      }
    </style>
  </defs>
  <path class="st2" d="M425,331.9c.8,0,1.5,0,2.3,0,2.6,0,5.1,0,7.7,0,1.9,0,3.7,0,5.6,0,5,0,10,0,15.1,0,3.1,0,6.3,0,9.4,0,9.8,0,19.7,0,29.5,0,11.3,0,22.7,0,34,0,8.8,0,17.5,0,26.3,0,5.2,0,10.5,0,15.7,0,4.9,0,9.9,0,14.8,0,1.8,0,3.6,0,5.4,0,13.3,0,26.3.6,38.4,6.8.7.3,1.3.7,2,1,15.6,8.5,25.5,24.4,31,40.9,2.8,9.8,4,19.5,4.9,29.6.8-.2,1.6-.4,2.4-.6,1.1-.3,2.1-.5,3.2-.8,1.1-.3,2.1-.5,3.2-.8,7.8-1.9,15.4-2,23.4-2,.7,0,1.4,0,2.2,0,10.8,0,21.1.5,31.6,3.3.7.2,1.3.3,2,.5,26.4,7.1,55.4,22.1,71,45.5-.2,3.1-.6,4.6-2.7,6.9-12.5,9.8-26.1,17.5-41.3,22.1-1.1.3-2.2.7-3.4,1-24.1,6-50.9,2.9-72.6-9-3.9-2.4-7.5-5.1-11-8l1,2c.3,2,.5,4,.7,6,.1,1.3.2,2.6.4,3.9.1,1.4.3,2.8.4,4.3.1,1.5.3,2.9.4,4.4.3,3.1.6,6.3.9,9.4.8,8.2,1.6,16.3,2.4,24.5,0,.8.2,1.6.2,2.4q4.4,45.2,11.6,90.1c.2,1.1.4,2.2.6,3.3.6,3,1.2,6.1,1.9,9.1.2.9.4,1.7.5,2.6,1.9,8.4,5.7,14.3,12.2,20,1,.8,1.9,1.7,2.9,2.6,3.4,2.8,6.8,5.5,10.2,8.2,4.8,4,9.3,8.3,13.8,12.5,1.3,1.2,2.6,2.4,3.9,3.6,7.2,6.3,13.9,13,20.6,19.8,1.9,1.9,3.9,3.9,5.8,5.8,5.5,5.5,11,11,16.1,16.9,2.1,2.5,4.4,4.9,6.6,7.2,5,5.4,9.5,11,13.9,16.7,1.9,2.5,3.8,4.9,5.8,7.3,30.4,37.2,52.7,83.8,48.8,132.8-3.3,31.1-17.8,59.4-39.8,81.5-.8.8-1.6,1.7-2.5,2.5-1.8,1.8-3.7,3.7-5.5,5.5.8.9,1.5,1.8,2.3,2.7,1.2,1.4,2.5,2.9,3.7,4.3.4.5.9,1,1.3,1.5,1.4,1.7,2.9,3.4,4.3,5.1.5.5.9,1.1,1.4,1.6q8.8,10.4,8.5,16.7c-1.8,7.1-9.5,13.4-14.4,18.6-.7.7-1.3,1.4-2,2.1-6.4,6.8-12.9,13.5-20,19.6-3.1,2.6-6,5.4-9,8.1-3.2,2.6-5.4,3.6-9.5,4.1-4.3-.4-6.5-1.7-9.6-4.4-.7-.6-1.5-1.2-2.2-1.9-5.8-5.1-11.4-10.5-16.3-16.5q-1.5-1.8-3.7-3.5c-2.8-2.6-4.3-4.6-5.7-8.1,0-6.7,2.7-13.2,4.8-19.4.8-2.6,1.6-5.2,2.4-7.7.5-1.7,1.1-3.4,1.6-5.2,20.2-65.7,11-146.4-19.9-207.4q-1.7-3.3-3.8-6.3c-1.3.3-2.6.7-4,1,.4,1.2.8,2.4,1.2,3.6.3.8.6,1.7.8,2.5.7,2,1.4,4,2,6,25.8,76.4,36.5,166.2-.1,241.4q-.5,1.1-1.1,2.2c-.3.6-.6,1.2-1,1.9-4.3,10.9-4.7,23.2-5.9,34.7-.4,3.6-.8,7.2-1.2,10.8-.4,3.5-.8,7-1.2,10.5-.2,2-.5,3.9-.7,5.9-.5,5.2-.8,8.8,2,13.4,2.3,2.5,4.5,4.8,7.1,7,.5.5,1.1,1,1.6,1.5,18.2,15.9,42,19.9,65.4,18.5,15.6-1.8,29.6-9.2,41.3-19.5q2.1-2.4,1.6-5.5c-.7-2.5-1.5-5-2.4-7.5-4.4-12.1-3.4-24.5,1.6-36.1,4-8,9.7-14.1,15.9-20.4.6-.6,1.1-1.1,1.7-1.7,3.3-3.3,6.6-6.6,9.9-9.9,1.3-1.3,2.7-2.7,4-4,1.5-1.5,3.1-3.1,4.7-4.5,6.3-6,11.3-12.5,16.4-19.5.4-.6.8-1.2,1.2-1.7.9-1.3,1.8-2.6,2.7-4q1.4-1.6,4.8-2.1c4.2.6,5,1.3,7.6,4.5,1.6,4.5,2.2,9.3,3,14q.3,1.8.6,3.6c4,27.7,4.5,60.8-11.7,84.9-7.8,10.1-18.6,15.8-30.9,18.5-1.4,0-2.7,0-4.1,0-5.1.5-7.5,4.5-10.7,8.2-13.3,15.8-34.8,26.4-55.3,28.7-16,1.1-31.8,1.1-47-4-.7-.2-1.3-.4-2-.6-12-3.9-23.3-9.2-33-17.4-1.8,8.1-2.8,16.3-3.8,24.5-1.6,13.7-3.4,27.3-5.3,41l-.6,4c-.7,5.3-1.5,10.6-2.2,15.9-.5,3.7-1,7.5-1.6,11.2-.2,1.1-.3,2.2-.5,3.4q-2,12.4,1.7,24c.6,1.1,1.2,2.1,1.8,3.2.6,1.1,1.3,2.2,1.9,3.4,1.3,2.3,2.6,4.6,3.9,7,.6,1.1,1.2,2.2,1.9,3.4q16.1,29.1,12.7,41.1c-2,2.7-3.6,4.7-7,5.4-2.4.1-4.8.1-7.2,0-.9,0-1.8,0-2.7,0-2.8,0-5.6,0-8.4-.2-1.9,0-3.8,0-5.7,0-4.7,0-9.3-.1-14-.2-1.1-4.4-2.2-8.7-3.3-13.1-.4-1.5-.7-3-1.1-4.5-2-8.1-4.1-16.2-5.6-24.4q-2.9-.2-6,0c-.7.7-1.3,1.3-2,2,.4,5.1,1.6,10,2.8,14.9.2.7.4,1.4.5,2.2.6,2.3,1.1,4.6,1.7,6.8.4,1.6.8,3.1,1.1,4.7.9,3.8,1.9,7.6,2.8,11.4-7.4.1-14.9.2-22.3.2-2.5,0-5.1,0-7.6,0-3.6,0-7.3,0-10.9,0-1.1,0-2.3,0-3.4,0-6.2,0-10.1-.2-14.8-4.5-4.9-6.3-5.6-13.7-6.8-21.4-.3-1.5-.5-3-.8-4.5-3.4-20.3-6.2-40.7-9-61.2-.4-2.9-.8-5.8-1.2-8.6-2.4-17.6-4.8-35.2-7.1-52.8-.2-1.2-.3-2.4-.5-3.7-.8-6-1.6-12-2.3-18-.3-2.2-.6-4.4-.9-6.5-.1-1-.3-2-.4-3-.1-.9-.2-1.8-.4-2.8-.1-.8-.2-1.6-.3-2.4q-.3-2.3-1.3-5.1c-.9.3-1.8.5-2.7.8-15.9,4.4-31.7,7.3-48.2,7.5-.9,0-1.8,0-2.8,0-2.9,0-5.9,0-8.8,0-1,0-2,0-3,0-21.4,0-40.7-3.1-61.4-8.3,0,.8-.2,1.5-.2,2.3-4.6,43.5-10.2,87-16.2,130.3-.3,2-.6,4.1-.8,6.1-1.2,8.4-2.4,16.9-3.7,25.3-.2,1.1-.3,2.1-.5,3.2-.5,2.9-1,5.8-1.5,8.7-.1.8-.3,1.7-.4,2.5-1,5.4-2.7,9.7-6.6,13.6-3.1,2-5.6,2.2-9.3,2.2-1.1,0-2.1,0-3.2,0-1.1,0-2.3,0-3.5,0q-1.8,0-3.5,0c-3.7,0-7.5,0-11.2,0-2.5,0-5.1,0-7.6,0-6.2,0-12.4,0-18.6,0,1.8-9.2,3.7-18.3,6.4-27.3,1.4-5.1,1.9-9.5,1.6-14.7h-6c-3,7.4-4.8,15-6.6,22.7-.3,1.3-.6,2.6-.9,4q-1.8,7.7-3.4,15.4c-5.7.1-11.5.2-17.2.3-2,0-3.9,0-5.9.1-2.8,0-5.6,0-8.4.1-.9,0-1.7,0-2.6,0-4.4,0-6.2-.1-9.9-2.9-2.2-3.1-2.7-5.2-2.4-9,2.7-16.3,11.4-33.1,20-47,.4-.6.7-1.2,1.1-1.8,1-1.5,2-3,3-4.4,4.4-11.5.1-26.5-1.6-38.3-.8-5.8-1.6-11.5-2.5-17.3-.3-2-.6-4.1-.9-6.1-2.1-15.2-4.2-30.5-6.2-45.7-.3-2.2-.6-4.4-.9-6.6-1.2-9.5-2.5-19-3.7-28.4-.1-1.1-.3-2.2-.4-3.3-.7-5.6-1.5-11.2-2.2-16.8-.2-1.5-.4-3.1-.6-4.6q-3.9-29.7-4-40.9c-.2-12.1-4-21.7-9.2-32.5-33.5-70.1-23.5-157.6,1.2-228.7,2.3-6.4,4.9-12.5,8-18.6,1.4-2.9,2.3-5,2.2-8.3q-.8-2.5-3.9-4.1-2.1-.1-4,1c-22.9,32.5-29,84.5-33,123-.1,1.2-.3,2.3-.4,3.5-4,40.8,2.1,83.5,15.9,121.9q.5,1.4,1,2.9t.9,2.5c.6,2.5.4,3.8-.5,6.3-2.8,3.9-5.9,7.4-9,11-.8.9-1.6,1.9-2.4,2.8q-15.4,17.5-24.2,18.6c-5.5-.1-8.4-2.9-12.4-6.4-.9-.8-1.8-1.5-2.7-2.3-7.3-6.5-14.2-13.4-21.2-20.3q-1.3-1.3-2.7-2.6-15.8-15.8-16.5-23.7c2-7.5,7.4-12.9,12.6-18.4,3.1-3.3,5.8-6.9,8.4-10.6-.5-.5-1-1-1.6-1.5-26.4-25.4-44-59.4-44.8-96.4-.3-43.2,16.5-82,42.4-116.1.4-.5.8-1.1,1.2-1.6,8.3-11.1,17.2-21.6,26.5-31.8,1.5-1.6,2.9-3.2,4.4-4.9,5.4-6.1,11-11.9,16.7-17.6.9-.9,1.8-1.8,2.7-2.7,1.9-1.9,3.8-3.8,5.7-5.7,2.4-2.4,4.8-4.8,7.2-7.2,2.3-2.3,4.6-4.6,7-7,.8-.9,1.7-1.7,2.6-2.6,4.9-4.8,9.9-9.5,15.1-13.9,1.6-1.5,3.3-3,4.9-4.4,3.4-3,6.8-5.9,10.4-8.7,12.2-9.8,13.9-20.4,16.6-35.4.1-.7.3-1.4.4-2.2,6.1-34.3,9-69.1,12.4-103.8q.1-1.1.2-2.3c.4-3.6.7-7.1,1-10.7q1-10.5,1.6-15.3c.4-3,.5-5.8.5-8.8,0-.9,0-1.7,0-2.6,0-.6,0-1.3,0-1.9q-1.1.9-2.2,1.8c-11,8.6-22,13.7-35.8,16.2-.9.2-1.9.3-2.8.5-15.3,2.3-31.5,1.2-46.2-3.5-1.1-.4-2.2-.7-3.4-1.1-12.8-4.6-30.8-12.2-38.6-23.9.9-9.2,14.2-18.4,21-24,4.8-3.7,9.8-6.9,15-10,.6-.4,1.2-.7,1.8-1.1,7.6-4.6,15.4-7.9,23.7-10.7.8-.3,1.6-.6,2.5-.8,12.7-4.1,24.9-5.9,38.2-5.8,2.2,0,4.4,0,6.6,0,10.5,0,20.1,1.7,30.2,4.5.1-1.2.2-2.5.3-3.7,2.1-22.5,8.4-44.5,25.3-60.4,12.6-9.9,26.4-14,42.3-14Z"/>
  <path class="st0" d="M496.8,513.7c1.2,0,2.4,0,3.6,0,2.5,0,5,0,7.5,0,3.8,0,7.6,0,11.4,0,27.1,0,49.1,4.2,69.1,23.7,13.3,14.1,20,31.6,19.9,50.9q0,1.4,0,2.8c-.2,13-2.5,25.9-11.5,35.8-6.7,6.2-14.7,9.4-23.8,9.2q-10.6-.5-20.1,3.1c-2.2,2.6-4,5.2-5.9,8-9.6,9.2-21.7,12.9-34.8,13.3-16.4-.4-28.2-5.7-39.5-17.2q-3.6-3.8-4.8-6.1c-.7,0-1.4,0-2.2,0-3.3,0-6.5-.1-9.8-.2-1.1,0-2.2,0-3.4,0-10.2-.3-17.4-2.8-24.8-9.7-12.5-13.4-12.6-29.7-12-47.1,1.1-18.8,11.7-35,25-47.7,15.9-13.7,35.4-18.6,56-18.6Z"/>
  <path class="st7" d="M288,197q1,1,1.5,3.9c-.2,7.8-6.8,14.3-11.5,20-16.6,20.4-23.4,41.8-21,68.1.8,4.4,1.9,8,4,12q.7,1.3,1.3,2.7c8.4,15.4,25.5,22,41.5,26.9,26.6,7.6,53.8,10.3,81.2,12.4-1.6,3.4-3.5,5.7-6.1,8.4-14,15.4-18.1,33.6-20.6,53.7q-.3,1.9-1.3,4.9c-.7-.1-1.4-.3-2.2-.4-1-.2-1.9-.4-2.9-.5-1-.2-1.9-.3-2.9-.5-1-.2-2-.4-3-.5-.9-.2-1.8-.3-2.7-.5-3.7-.5-7.3-.6-11.1-.6-.7,0-1.5,0-2.2,0-1.6,0-3.1,0-4.7,0-2.3,0-4.7,0-7,0q-17.2-.3-33.9,3.6c-12.6,2.7-29.7-8.7-40-15.1-23.6-15.3-41.8-37.5-48.3-65.2-5.4-27.1.9-53.1,15.7-76,13.7-20.2,48.1-62.3,76.1-57.1Z"/>
  <path class="st7" d="M745,197c2.9,1.1,5.6,2.5,8.3,4.1.7.4,1.5.8,2.2,1.2,6.2,3.4,11.9,7.3,17.4,11.7.8.6,1.7,1.3,2.5,2,8.9,7,17.3,14.3,24.5,23,.8.9,1.5,1.8,2.3,2.8,16.1,19.8,26.2,43.2,26,69,0,1,0,2.1,0,3.2-.4,27.9-12.7,48.5-31.9,67.7-13.4,12.8-35.4,28.7-54.6,29.8-5.2-.2-10.3-1.4-15.4-2.6-8.6-1.9-17.1-2-25.8-2-.7,0-1.4,0-2.2,0-10.7,0-21,.6-31.5,3.3-.3-1.3-.5-2.7-.8-4-.2-.9-.4-1.8-.6-2.8-.5-2.3-.9-4.7-1.3-7-3.2-18.2-8.9-33.3-22-46.6-2-2.2-3.1-3.9-4.4-6.6.9,0,1.7-.1,2.6-.2q61-3.6,114.4-29.8c11.5-14.6,12.4-30.1,11-48-.7-5.2-2.2-10.1-4-15-.4-1.2-.8-2.3-1.2-3.5-3.6-9.2-8.7-16.7-14.8-24.5-.5-.6-.9-1.2-1.4-1.8-2.2-2.8-4.4-5.6-6.6-8.4-3.3-4.4-4.6-7.2-4-12.7,2.3-4.5,6.8-3,11-2Z"/>
  <path class="st4" d="M469.1,588.3q2.9.8,4.9,2.8c.3,3.6.2,6.4-1,9.9-2.5,7.9-.7,15.6,3,22.8,5.7,9.6,12.8,18.7,23.9,21.9,11.4,2.5,24.4,1.3,34.3-4.9,7.6-5.9,14.6-16.4,16.9-25.7q.3-3.6.2-7.2c0-1.2,0-2.4,0-3.7q0-3.2-1.2-6.1-.6-6.3,1.6-9c3.3-1.4,5-1.2,8.4,0q4,4.9,4,8c1,.3,2,.7,3,1h-2c.2.6.3,1.2.5,1.9,1.9,11.8-.7,22.7-6.5,33.1h-2c0,.6-.2,1.1-.2,1.7-2.8,8.5-13.4,16.6-21.2,20.5-15,6.4-31.2,6.5-46.5.6-14.4-7-23.6-20-29.3-34.6-1.8-5.6-2.1-11.2-2.4-17.1q-.2-3.8-1.4-7.3l3-1c1.4-2,2.7-4,4-6q3-2,6.1-1.8Z"/>
  <path class="st6" d="M474.1,564.6c4.9,2.5,8.1,6.7,10.9,11.4,1.7,5.1,1.6,9.3-.6,14.2-2.1,3.9-4.4,5.7-8.4,7.8h-2c-.1-1.1-.2-2.2-.3-3.4-.2-1.2-.5-2.4-.7-3.6q-2.8-2.2-5.9-2.1c-4.6,1.7-6,4.9-8.1,9.1-4.6-2.2-6.1-4.3-8-9-.8-5.9-1.2-12.7,1.6-18.1,5.8-7.1,12.6-8.9,21.4-6.2Z"/>
  <path class="st1" d="M562,564c4.9,2.3,7.4,5.3,10,10,1.7,5.5,1.9,11.5-.2,16.9-1.7,3-2.8,4.5-5.8,6.1h-2c-.5-1.1-1.1-2.3-1.6-3.4-1.7-3-2-3.4-5.4-4.6q-3.1-.2-5.9,2.1-.7,3.6-1,7c-5.7-1.3-7.8-3.4-11-8q-.8-1.9-1-4c-.1-1.2-.2-2.5-.4-3.8,0-5.7,3-9.9,7-13.8,5.7-4.8,10.1-5.2,17.4-4.4Z"/>
  <path class="st3" d="M604,459c3.1,2.9,3.9,4.6,4.5,8.8,0,1.4,0,2.8,0,4.2,0,.7,0,1.4,0,2.1,0,3.6-.5,5.7-2.4,8.8-3,2.9-5.1,3.1-9.2,3.1-3.4-2.1-4.7-3.2-6-7-.2-2.5-.3-4.9-.3-7.4,0-1.3,0-2.6-.1-4,.5-4.2,1.5-5.7,4.4-8.7,3.2-1.6,5.6-.8,9,0Z"/>
  <path class="st3" d="M428,459c3.1,2.9,3.9,4.6,4.5,8.8,0,1.4,0,2.8,0,4.2,0,.7,0,1.4,0,2.1,0,3.6-.5,5.7-2.4,8.8-2.8,2.6-4.3,3.1-8.2,3.1-3.1-1.3-4.6-2.2-6.1-5.2-1.7-5.5-2.2-12.5,0-17.9,3.4-5.3,6.3-5.3,12.2-3.9Z"/>
  <path class="st5" d="M456.5,675.9q1.4,2,3,5c8.6,12.3,22.9,14.9,36.8,17.5,20.4,3,47.2,2.2,65.2-8.8,2.7-2.1,4.3-4.2,6.1-7q1.9-2.8,4.4-3.9t4.9,1.6,1.6,5.9c-2.1,7.5-6.1,11-12.6,14.9-4,2-8,3.6-12.3,5.1q-1,.4-2.1.7c-12,3.8-24.4,4.3-36.9,4.3q-1,0-2.1,0c-20.6,0-43.6-2.8-59.4-17.5-3.4-3.7-5.5-7-6.1-12.1q.4-2.8,1.6-4.6c2.8-1.7,4.7-1.7,7.9-1.1Z"/>
</svg>