<?xml version="1.0" encoding="UTF-8"?>
<svg id="Layer_1" xmlns="http://www.w3.org/2000/svg" version="1.1" viewBox="0 0 1024 1024">
  <!-- Generator: Adobe Illustrator 29.0.1, SVG Export Plug-In . SVG Version: 2.1.0 Build 192)  -->
  <defs>
    <style>
      .st0 {
        fill: #fec8bb;
      }

      .st1 {
        fill: #fe2300;
      }
    </style>
  </defs>
  <path class="st0" d="M588,230c10.8,9,20.4,18.9,29,30,.8,1,1.6,2,2.4,3,34.1,42.8,53.1,95.9,61.2,149.5.3,2.1.7,4.3,1,6.4,2.3,13.9,2.6,27.8,2.5,41.8,0,.8,0,1.6,0,2.4-.1,52.5-18.4,98.3-55.2,135.9-.8.9-1.7,1.7-2.5,2.6-29.7,28.8-73.3,41.6-113.8,41.6-2.2,0-4.4,0-6.6,0-13.9,0-27.4-1.4-40.9-4.9-1-.3-2-.5-3.1-.8-33.5-8.9-63-27.7-85-54.5-.4-.5-.8-1-1.2-1.5-15.4-18.9-25.1-41.6-31.5-65-.2-.7-.4-1.3-.6-2-4.2-16.4-5.2-32.7-5.1-49.5,0-1,0-2.1,0-3.1,0-15.8.8-31.2,3.4-46.8.3-2,.6-4,.9-6,7.4-49.2,25.5-97.2,54.1-138,.7-1,1.5-2.1,2.2-3.2,21.8-30.5,53.5-63.6,92.1-70.3,37.1-4.9,68.5,9.4,96.6,32.5Z"/>
  <path class="st1" d="M161,390c0,.7,0,1.3,0,2-.7,15.1-1,30.1-1,45.2,0,.8,0,1.6,0,2.4,0,2.2,0,4.4,0,6.7q0,1.9,0,3.9t1.1,3.9c7.1-.4,13.4-2.1,20.1-4.2,1-.3,2.1-.6,3.2-1,3.3-1,6.6-2.1,9.9-3.1,8.3-2.6,16.5-5.1,24.8-7.7.8-.2,1.5-.5,2.3-.7,1.9-.6,3.9-1.2,5.8-1.8,1-.3,2-.6,3-.9,3-.7,5.7-.8,8.8-.6q1,1,1.1,3.3c0,7.4-.4,14.7-1,22,0,1.1-.2,2.3-.3,3.4-.3,3.6-.6,7.2-.8,10.8q-2.4,29-3.2,58.1c0,.9,0,1.8,0,2.8,0,.9,0,1.7,0,2.6q0,1.1,0,2.3,0,1.8,1.1,2.7c16.1.8,32.3-.8,48.3-1.7,12.4-.7,24.8-1.4,37.3-1.5.9,0,1.8,0,2.8,0q1.3,0,2.5,0c.7,0,1.5,0,2.2,0q1.8.3,3.8,2.3c.2,2.9.3,5.6.2,8.5,0,.9,0,1.7,0,2.6,0,2.9,0,5.8,0,8.7,0,2,0,4.1,0,6.1,0,16.1-.4,32.2-.8,48.4-.2,9.3-.4,18.6-.4,27.9q0,1.6,0,3.2c0,2.6,0,5.1,0,7.7q1.8,0,3.6,0c11,0,22.1.2,33.1.3,5.7,0,11.3,0,17,.1,5.5,0,10.9,0,16.4.1,2.1,0,4.2,0,6.3,0,2.9,0,5.8,0,8.8,0,.9,0,1.7,0,2.6,0q6,0,8.2,2.3c-.5,11.7-4.6,24-7.2,35.5-.6,2.7-1.2,5.4-1.8,8.1-.2.8-.4,1.6-.6,2.5q-.3,1.2-.5,2.4c-.2.7-.3,1.3-.5,2-.7,3.8-1,7.7-1.4,11.6,22.1.3,44.2.7,67,1,.3,1.3.7,2.6,1,4q-1.1,1.7-2.9,3.4c-.6.6-1.3,1.3-1.9,1.9-.7.7-1.4,1.3-2.1,2-.7.7-1.4,1.4-2.1,2.1-4.5,4.4-9.1,8.6-13.9,12.6-1,.9-2,1.7-3,2.6-47.2,41.7-109.3,68.5-172.7,68.5-1.1,0-2.2,0-3.3,0-2.3,0-4.5,0-6.8,0-3.4,0-6.8,0-10.2,0-12.2,0-24-.4-36.1-2.2-1-.2-2.1-.3-3.1-.5-12-1.9-23.5-4.5-34.9-8.5q-1-.3-2-.7c-10.5-3.6-20.3-8.1-30-13.3-.7-.4-1.4-.7-2.2-1.1-42.9-22.4-78.6-58.3-93.8-104.9-6.4-21.9-9.2-43.2-9.2-65.9,0-.8,0-1.6,0-2.5,0-30.5,4.1-60.5,13.2-89.6.2-.8.5-1.6.8-2.4,11.5-36.5,30-71.3,53.2-101.6.7-.9,1.4-1.8,2.1-2.7,4.9-6.3,10.4-11.9,16-17.6.8-.8,1.5-1.5,2.3-2.3q13.3-13.2,19.6-11.4Z"/>
  <path class="st1" d="M866,391c4.5.4,6.6,2.1,9.8,5.1q1.3,1.2,2.6,2.5c.8.8,1.7,1.6,2.6,2.4,1.4,1.2,2.7,2.4,4.1,3.6,8.8,7.7,15.9,16.2,22.9,25.4q.6.8,1.3,1.7c45,59,68.9,141.7,59.5,215.5-.5,3.6-1.1,7.2-1.8,10.8-.2.9-.3,1.9-.5,2.9-6.1,34-20.7,64.9-45,89.6-1.5,1.5-3,3.1-4.4,4.6-7.1,7.4-14.8,13.8-23.1,19.9-1,.8-2,1.5-3,2.3-28.5,20.7-65.4,33.4-100,38.7-1.1.2-2.2.4-3.3.5-11.1,1.6-22.2,1.8-33.4,1.7-3.1,0-6.3,0-9.4,0-16.6,0-32.6-1.1-48.8-4.9-1.1-.3-2.3-.5-3.4-.8-19.7-4.6-39.1-10.4-57.6-18.6-.8-.3-1.5-.7-2.3-1-20.2-8.9-39.4-20.5-57.3-33.4q-2.3-1.7-4.9-2.8c-3.1-1.7-4.5-2.8-6.4-5.8-1.6-7.1-.9-14.5-.7-21.8,0-2,0-4,0-6,0-1.9,0-3.8.1-5.8,0-.9,0-1.8,0-2.7q0-1.3,0-2.5c0-.7,0-1.5,0-2.2q.3-1.9,2.3-4.9c6.4.6,12.3,2,18.5,3.7,1,.3,2,.5,3,.8,3.1.8,6.3,1.7,9.4,2.5,3.1.8,6.2,1.7,9.4,2.5,1.9.5,3.9,1,5.8,1.5,5.9,1.6,11.9,2.9,17.9,4,.8-11.4,1.2-22.7,1.4-34.2q.8-46.3,3.6-51.8c3.1-1,5.5-1.3,8.7-1.5,1.2,0,2.4-.2,3.6-.3,1.3,0,2.6-.2,3.9-.3,1.4-.1,2.7-.2,4.1-.3,4.3-.3,8.7-.7,13-1,16.9-1.3,33.8-2.6,50.7-4.2,1.3-.1,2.6-.2,3.9-.4,1.2-.1,2.4-.2,3.6-.4,1-.1,2.1-.2,3.1-.3q2.3-.1,3.3-1.3c.5-7-.4-13.8-1.4-20.7-.1-1-.3-2-.4-3-.5-3.2-1-6.4-1.4-9.5-.3-2.1-.6-4.2-.9-6.3-.6-4.1-1.2-8.3-1.8-12.4-.1-1-.3-2-.5-3-.3-2-.6-4-.9-6-.4-2.8-.9-5.7-1.3-8.5-.1-.8-.3-1.7-.4-2.5-.7-5-1.1-9.8-.9-14.9q1-1,2.9-1.1t2.6.1c1,0,1.9,0,2.9.1,1.1,0,2.1,0,3.2.1,1.1,0,2.2,0,3.4.1,13.7.6,27.4,1.6,41.1,2.6,3.9.3,7.8.6,11.7.8,2.4.2,4.8.3,7.2.5,5.3.4,10.6.7,16,.6-.5-7.2-.9-14.4-1.4-21.6,0-1.1-.1-2.1-.2-3.2q-1.2-18.8-2.9-37.6-1.1-11.3-.6-15.6,2-2,4.4-2.2,1.5,0,3.1,0c1.1,0,2.3,0,3.5,0q1.9,0,3.7,0,1.9,0,3.8,0c3.4,0,6.7,0,10.1,0,3.4,0,6.9,0,10.3,0,6.7,0,13.4,0,20.2,0,0-11.2.2-22.2-.9-33.4-.8-8.5-1.4-17.1-1.7-25.6,0-1,0-2-.1-3,0-.9,0-1.8-.1-2.7,0-.8,0-1.6-.1-2.4q0-1.8,1.1-2.8Z"/>
</svg>