<?xml version="1.0" encoding="UTF-8"?>
<svg id="Layer_1" xmlns="http://www.w3.org/2000/svg" version="1.1" viewBox="0 0 595.3 841.9">
  <!-- Generator: Adobe Illustrator 29.0.1, SVG Export Plug-In . SVG Version: 2.1.0 Build 192)  -->
  <defs>
    <style>
      .st0 {
        fill: #ee2924;
      }
    </style>
  </defs>
  <path class="st0" d="M97.9,351.8c6.7,7.7,13.1,15.6,19.6,23.5,5.9,7.1,11.9,14.1,18.4,20.7,5.2,5.3,11.1,10.6,17.7,14,2.5,1.3,5.2,2.3,8.1,2.6.4,0,1.4,0,1.4,0,.2,0,.4-.2.6-.3,1.1-.7,2.3-1.3,3.4-1.9,6.7-3.9,13.5-7.7,20.2-11.6,9.2-5.2,18.8-13,30.1-11.4,8,1.1,13.2,7.5,18.6,12.8,8.9,8.7,19.5,15.9,29.7,23.1,10.1,7.1,20.3,13.9,30.3,21.2,4.7-8.2,9.9-16,15.9-23.2,23.1-28.2,54.5-47.2,84.4-67.3,2-1.3,5.3-.6,5.5,2.2.9,11.1,3.5,22.1,6.6,32.8,2.5,8.6,5.3,17.3,9.4,25.4,5.6-6.6,12.8-11.6,20.4-16,8.5-5,17.7-9.2,24.8-16.2,3.9-3.8,7-8.5,9.9-13,3.6-5.4,6.9-11,10-16.7,6-11.1,11.4-22.5,17.1-33.8.8-1.7,2.6-2.6,4.5-1.9,7.6,2.9,15.3,5.1,23.2,7-7.4-20.9-16.5-41.2-26.6-60.7q-.3-.6-.6-1.2c-20.8-40.2-46.6-78.4-78.6-110.5-.4-.4-.8-.8-1.2-1.2-4.5-4.5-8.9-9.1-13.7-13.2-1.5-1.3-3-2.5-4.5-3.9-4.7-4.6-9.8-8.5-15.1-12.4-2.2-1.7-4.5-3.3-6.7-5-10.6-8.2-21.8-15.6-33.6-22-.4-.2-.9-.5-1.3-.7-45.5-25-108.3-21.5-148.8,12.4-.4.3-.8.6-1.1,1-5.8,4.9-11.4,9.9-16.4,15.6-.6.7-1.2,1.4-1.8,2.1-4.2,4.4-8.1,8.9-11.7,13.8-.9,1.2-1.7,2.3-2.6,3.5-3.1,4.1-6.1,8.2-8.8,12.5-.7,1.1-1.4,2.1-2.1,3.2-14.7,21.5-27,44.8-36.6,69-.7,1.8-1.4,3.6-2.2,5.5-12.3,29.9-20.7,61.5-26.5,93.3-.2.9-.3,1.7-.5,2.5-.7,3.7-1.3,7.5-1.9,11.2,4.9,4,9.1,8.9,13.3,13.5Z"/>
  <path class="st0" d="M535.8,435.5c0-.5,0-.9,0-1.4-.2-18.7-2.2-37.4-5.6-55.9-8.2-3.2-16.3-6.5-24.1-10.5-5.7,8.4-11.3,16.8-17.2,25-10.4,14.4-21.6,30-37.9,37.9-14.6,7-31.1,10.4-42.4,22.9-1.9,2.1-4.8.7-5.7-1.5-4.3-10.3-6.3-21.6-7.9-32.6-1.3-9.5-2.4-19.1-2.3-28.7-18.7,9-37.6,17.7-55.3,28.5-19.8,12-37.5,27-51.3,45.7-1.3,1.7-3.7,2.4-5.4.7-20.1-20.1-42.8-37.6-60.2-60.3-2.1-2.7-4.3-5.6-7.4-7.2-3.7-1.9-8.1-1.5-12-.7-6.2,1.3-11.9,4.6-17.8,6.9-3.5,1.4-6.9,2.6-10.4,4-3.7,1.5-7.3,3.1-11,4.6-2.2.9-4.5,2.2-6.9,2-6.5-.4-12.5-4.8-17.2-9-13-11.6-22.1-27.6-31.2-42.3-4.7-7.6-9.3-15.3-14.3-22.8-2.1-3.2-4.3-6.3-6.6-9.3-6,20.7-10.7,41.8-13.7,63.3,0,.5-.1,1.1-.2,1.6-2,14.3-3.1,28.6-3,43.1,0,2.3,0,4.7,0,7,0,45.7,8.7,90.7,30.6,131.2.3.6.6,1.2,1,1.8,7.5,13.9,16.3,27.8,26.9,39.6,1.3,1.4,2.6,2.9,3.9,4.4,6.7,8.5,14.5,15.8,22.8,22.7.4.3.7.6,1.1.9,11.9,10,24.3,18.8,38.2,25.9.5.3,1,.5,1.4.7,17.7,9.1,35.9,16.9,55.4,21.4.7.2,1.3.3,2,.5,31.4,7.1,64.6,7.9,96.1,1.2.8-.2,1.6-.3,2.3-.5,33.2-7.2,67-22.8,93.1-44.8.4-.3.8-.7,1.2-1,7-5.9,14.4-11.7,20.4-18.6,1-1.3,2.1-2.5,3.2-3.6,5.9-5.6,11-12,16-18.4.5-.6.9-1.2,1.4-1.7,24.5-30.4,39.8-68.8,46-107.1.2-1.5.5-2.9.7-4.4,2.8-16.4,3.5-32.8,3.4-49.4,0-.5,0-1,0-1.5,0-3.4,0-6.8,0-10.2Z"/>
</svg>