<?xml version="1.0" encoding="UTF-8"?>
<svg id="Layer_1" xmlns="http://www.w3.org/2000/svg" version="1.1" viewBox="0 0 1024 1024">
  <!-- Generator: Adobe Illustrator 29.0.1, SVG Export Plug-In . SVG Version: 2.1.0 Build 192)  -->
  <defs>
    <style>
      .st0 {
        fill: #fec8bb;
      }

      .st1 {
        fill: #fe1b00;
      }
    </style>
  </defs>
  <path class="st1" d="M216,387c2.8.3,4.5.6,6.7,2.5q.7,1,1.5,2c.6.7,1.1,1.5,1.7,2.2.6.8,1.2,1.6,1.8,2.4.6.8,1.2,1.6,1.9,2.5,1.9,2.5,3.7,5,5.6,7.5,1,1.3,2,2.7,3,4,1.9,2.6,3.9,5.1,5.8,7.7,3,4,6,8,9.1,11.9,5.8,7.5,11.5,15.1,17,22.8,3.9,5.4,7.8,10.8,11.8,16.1q1.2,1.5,2.4,3.1t3.9,3.3c6,0,11.4-1.6,16.9-3.9.7-.3,1.5-.6,2.2-.9,2.4-1,4.8-1.9,7.1-2.9,1.7-.7,3.3-1.3,5-2,7.9-3.2,15.8-6.4,23.6-9.6,2.5-1,5.1-2.1,7.7-3.1,3.2-1.3,6.4-2.6,9.6-4,1.5-.6,2.9-1.2,4.4-1.8.7-.3,1.3-.6,2-.8,4.1-1.7,8-2.7,12.5-3q2.2,1.6,4.1,4c.8.9,1.5,1.8,2.3,2.8.4.5.8,1,1.3,1.6,2.7,3.2,5.6,6.2,8.5,9.3,3.5,3.7,7,7.5,10.4,11.4,3.5,4,7.1,7.9,10.8,11.8,6.3,6.7,12.5,13.5,18.8,20.2,10.1,11,20.2,22,30.4,32.9.6.6,1.1,1.2,1.7,1.9,1.1,1.2,2.2,2.3,3.3,3.5,1.1,1.1,2.1,2.3,3.1,3.5,2.3,2.6,3.8,4.1,7.3,4.6,4.8-2.1,8-5.6,11.6-9.4.7-.7,1.5-1.5,2.2-2.2,4.1-4.2,8-8.5,11.8-12.9,2.1-2.4,4.3-4.8,6.4-7.1,4.1-4.5,8.1-9.2,11.9-14,2.2-2.6,4.4-5.2,6.7-7.7,3.9-4.3,7.7-8.8,11.4-13.4.7-.9,1.4-1.7,2.1-2.6.7-1,1.4-2,2.1-3,3.5-4.2,8.5-6.1,13.4-8.3q1.5-.7,3.1-1.4c7.4-3.4,14.8-6.6,22.3-9.8,15.3-6.5,30.5-13.7,44.9-22q4.6-2.5,7.4-2.4c3,1.6,4.5,3.8,5.7,6.9.4,2.8.5,5.5.7,8.3.3,2.7.9,4.1,2.3,6.3,4.7,7.7,4.7,17.5,5.5,26.4.1,1.3.3,2.7.4,4,.3,3.5.7,7,1,10.5.5,5.6,1.1,11.2,1.6,16.8.2,1.9.4,3.9.6,5.8.5,5.6,1.1,11.3,2,16.9,2.4.9,3.5,1.2,5.9.1.7-.5,1.3-.9,2-1.4.8-.5,1.5-1.1,2.3-1.6q1.2-.9,2.4-1.8c.8-.6,1.7-1.2,2.6-1.8,1.7-1.2,3.5-2.5,5.2-3.7,2.3-1.6,4.6-3.2,6.9-4.8,9.9-6.9,19.6-14,29.3-21.3,2.2-1.6,4.4-3.2,6.7-4.8,11.6-8.4,20.2-17.8,29.2-28.9,2.8-3.4,5.7-6.8,8.6-10.1,7.1-8.2,14-16.5,20.8-24.9q.8-1,1.7-2.1c6.4-7.8,12.7-15.6,18.9-23.6,1.7-2.2,3.4-4.3,5.4-6.3q2.4-.2,5,1c3.7,6.2,5.7,13.6,7.8,20.4q.5,1.6,1,3.3c6.3,20.2,11.3,40.5,15.1,61.3.3,1.4.6,2.9.8,4.3,1.7,9.1,3,18.3,4.3,27.4.2,1.2.3,2.4.5,3.7.2,1.2.3,2.4.5,3.6.1,1,.3,2.1.4,3.1,1.1,9.7,1.6,19.3,1.6,29.1,0,1.1,0,2.2,0,3.4,0,3.6,0,7.2,0,10.8q0,1.8,0,3.7c0,27.9-2.2,54.6-8.3,81.9-.2.8-.3,1.6-.5,2.4-9.2,40.9-27.4,79.9-53.5,112.6q-1.2,1.5-2.4,3c-13.6,17-29.2,33.9-46.6,47-.7.5-1.3,1-2,1.5-11.2,8.6-22.7,16.4-35,23.5-.7.4-1.5.9-2.2,1.3-27,15.6-55.6,26.7-85.8,34.7q-1.1.3-2.2.6c-57.8,15.4-119.5,15.2-177.8,3.4-.8-.2-1.6-.3-2.5-.5-53.8-10.9-105.6-37.2-146.5-73.5-.5-.4-1-.9-1.5-1.3-11.7-10.4-22.8-21.3-32.5-33.7-.9-1.1-1.8-2.2-2.6-3.3-6.6-8.2-12.7-16.8-18.4-25.7-.4-.6-.7-1.1-1.1-1.7-11.7-18.4-20.8-38.1-28-58.7-.8-2.2-1.6-4.4-2.4-6.6-3.6-10.2-5.8-20.7-8-31.3-.5-2.2-.9-4.5-1.4-6.7-.8-4-1.5-7.9-2.1-11.9-.1-.8-.3-1.6-.4-2.5-2.7-16.7-2.9-33.3-2.9-50.1,0-1.1,0-2.1,0-3.2,0-22.3,1.5-44.4,4.9-66.5q.2-1.3.4-2.5,13.6-88.7,34-119.1Z"/>
  <path class="st0" d="M592.6,187.1c5.7,4.7,11.1,9.7,16.4,14.9.5.5,1,.9,1.5,1.4,6.7,6.5,12.8,13.2,18.5,20.6.8.9,1.5,1.9,2.3,2.8,16.2,20.5,29.7,43.2,41.6,66.4.4.8.9,1.7,1.3,2.5q.6,1.1,1.2,2.3t1,2c.7,2.4.5,3.6-.4,5.9-6.4,6.5-14.4,11.4-22.1,16.2q-2.9,1.7-4.9,3.8-.8,2.7,0,6c2.7,3.9,6.1,7.1,9.4,10.4,1.8,1.9,3.6,3.7,5.4,5.6,7.1,7.6,12.2,11.6,22.8,12.3,4.3.4,6.7,1.8,9.8,4.8,6.3,7.7,8.4,17.4,10.6,26.9.2.7.3,1.4.5,2.1,2.6,11.7,4.5,23.6,6.2,35.4.1.7.2,1.5.3,2.2,1.9,13.1,3.2,25.9,3.2,39.2,0,1.1,0,2.2,0,3.3q0,10.2-3.3,14.8c-5.1,4.9-10.9,8.8-16.8,12.7q-1.4.9-2.8,1.9c-1.9,1.3-3.8,2.6-5.8,3.8-3,2-5.9,3.9-8.8,5.9-1.9,1.2-3.7,2.5-5.6,3.7q-1.3.9-2.7,1.8-1.2.8-2.5,1.6c-.7.5-1.4,1-2.2,1.4q-1.9,1.1-4.9,2.1c0-.8,0-1.7-.1-2.6q0-35.7-12.1-67.8c-3.4-4.7-3.4-9-3.6-14.6-.3-3.7-1.2-5.9-3.2-9-6.5.9-12.2,3.2-18.4,5.5-.6.2-1.2.5-1.9.7-13.5,5.2-26.8,10.8-40.1,16.5-1.7.7-3.4,1.5-5.1,2.2-.8.4-1.6.7-2.5,1.1-5,2.1-9.9,4.2-15,6.1-13,5-21.8,9.6-30.1,20.9-1.2,1.4-2.4,2.8-3.7,4.2-.5.6-1.1,1.2-1.6,1.9-2.8,3.2-5.7,6.4-8.5,9.5-1.8,2-3.6,4.1-5.4,6.1-4.6,5.3-9.4,10.4-14.2,15.5-3.3,3.5-6.6,7.1-9.9,10.7-.9,1-1.8,1.9-2.7,2.9q-2,2.1-3,4.3-3,0-4.5-1.5c-.5-.7-1.1-1.3-1.6-2-2.5-3-5-5.8-7.8-8.5-2.5-2.5-4.9-5-7.2-7.7-3.3-3.8-6.8-7.3-10.3-10.8-4.1-4-8-8.1-11.7-12.4-2.4-2.8-4.8-5.4-7.3-8.1-3-3.3-6-6.5-8.9-9.9-3.8-4.4-7.9-8.7-11.9-13-2.8-3-5.6-6-8.3-9.1-3.4-3.9-6.8-7.7-10.2-11.4-.6-.6-1.1-1.3-1.7-1.9q-.8-.9-1.6-1.8c-.5-.5-1-1.1-1.5-1.6-3.2-2.8-7.1-2.6-11.1-2.5-3.7.3-6.7,1.7-10,3.3-1.6.7-3.1,1.5-4.7,2.2-.9.4-1.8.8-2.7,1.3-3.5,1.6-7,3.2-10.5,4.8q-1,.4-2,.9c-1.4.6-2.7,1.2-4.1,1.8-10,4.5-20,9-29.8,13.8q-4.4,2.1-6.6,2.1c.5-11.3,1.7-22.3,3.4-33.4.4-2.6.8-5.2,1.1-7.7,1.4-9.3,3.1-18.3,5.5-27.3.9-3.6,1.7-7.2,2.3-10.9,10.7-54.5,38.5-110,72.6-153.6.7-.9,1.4-1.8,2.1-2.7,5.6-7.1,11.5-13.8,17.4-20.6,1.3-1.5,2.6-2.9,3.8-4.4,4.2-4.9,8.7-9.2,13.7-13.3q.8-.7,1.6-1.4c18.1-15.3,37-28.1,60.4-33.6.9-.2,1.9-.5,2.8-.7,36.9-7.5,72.7,7.9,100.8,30.8Z"/>
</svg>