<?xml version="1.0" encoding="UTF-8"?>
<svg id="Layer_1" xmlns="http://www.w3.org/2000/svg" version="1.1" viewBox="0 0 1024 1024">
  <!-- Generator: Adobe Illustrator 29.0.1, SVG Export Plug-In . SVG Version: 2.1.0 Build 192)  -->
  <defs>
    <style>
      .st0 {
        fill: #fe1600;
      }

      .st1 {
        fill: #fefcfc;
      }
    </style>
  </defs>
  <path class="st0" d="M625,93c.6.4,1.1.8,1.7,1.3,15.8,11.7,30.5,24.7,44.3,38.7,2.9,2.9,5.8,5.8,8.7,8.6,6.8,6.7,13.5,13.4,19.4,21,1.8,2.3,3.7,4.4,5.7,6.5,6.2,6.9,11.7,14.4,17.2,21.9.5.6,1,1.3,1.5,1.9,39.9,53,69.6,113.6,91.5,176.1q.3.9.7,1.9c21,59.6,36.1,123.1,36.6,186.6,0,.7,0,1.3,0,2,0,5,0,9.9,0,14.9,0,.7,0,1.5,0,2.2,0,24.4-1,48.2-5,72.3-.4,2.1-.7,4.3-1,6.4-9.1,56.1-31.4,112.3-67.3,156.8-.7.8-1.3,1.7-2,2.5-7.3,9.3-14.9,18.7-23.5,26.9-1.7,1.7-3.2,3.5-4.7,5.3-8.8,10.1-19.6,18.7-29.8,27.2-.6.5-1.2,1-1.8,1.5-38.2,32.1-87.6,54.9-136.2,65.5-1.1.2-2.2.5-3.4.7-46.1,9.8-94.7,8.7-140.6-1.7-1-.2-1.9-.4-2.9-.7-28.5-6.6-55.1-18-81.1-31.3-.7-.4-1.4-.7-2.1-1.1-20.3-10.4-38.4-23.2-55.9-37.9-.5-.4-1.1-.9-1.6-1.3-12.2-10.1-23.6-20.8-33.4-33.2-1.8-2.3-3.7-4.4-5.7-6.5-15.5-17.3-28.4-37.6-39.3-58-.5-.9-.9-1.7-1.4-2.6-32-59.2-44.8-125.1-44.8-192,0-3.4,0-6.8,0-10.2,0-21.2,1.5-42.1,4.4-63,.1-.8.2-1.5.3-2.3,5.7-40.9,15.6-80.7,28.5-119.9.4-1.2.8-2.4,1.2-3.6,14.8-44.8,33.5-89,57.3-129.8,1.4-2.5,2.9-5,4.3-7.5,18.8-33.2,41.3-64.5,67-92.6,1.2-1.4,2.5-2.8,3.7-4.2,4.9-5.7,10-11,15.3-16.3,1.5-1.5,3-3,4.4-4.5,6.3-6.3,12.8-12,19.8-17.6,1-.9,2.1-1.8,3.1-2.6,8.4-7.3,17.5-13.4,26.9-19.4.6-.4,1.2-.8,1.8-1.2,65.5-41,157.2-33.3,218.2,12.2Z"/>
  <path class="st1" d="M637,267q2.2.3,4,1c-.4,5.2-2.4,8.4-5.5,12.5-.9,1.2-1.8,2.5-2.8,3.8-.5.6-.9,1.3-1.4,1.9-1.9,2.7-3.7,5.5-5.5,8.3-4,6.4-8.2,12.6-12.4,18.9-.6.9-1.2,1.9-1.9,2.8-3.1,4.5-6.1,8.4-10.1,12.1q-3,2.7-3.7,6.6c.4,1,.8,2,1.2,3.1.2.6.5,1.3.7,1.9.9,2.4,1.9,4.7,3,7.1.4.9.8,1.8,1.2,2.7,4.5,10.3,9.3,20.6,14.2,30.8.8,1.8,1.7,3.6,2.5,5.3.9,2,1.9,3.9,2.8,5.9,2.2,4.6,3.4,7.3,1.7,12.3-1.4,3.4-3,6.6-4.6,9.9-.5,1-1,2-1.5,3-1.7,3.4-3.3,6.8-5,10.1-.6,1.3-1.3,2.6-1.9,3.8-6.7,13.6-13.5,27.3-20.7,40.7-.5.9-.9,1.7-1.4,2.6-4.8,8.7-9.6,15.3-17.9,20.9-.8.5-1.5,1.1-2.3,1.6-8.4,5.9-17,11.6-25.6,17.2-9.5,6.3-18.8,12.7-28.2,19.1.6,6.9,2,13.3,3.8,20.1.3,1,.6,2.1.8,3.1.6,2.2,1.2,4.3,1.8,6.5.9,3.3,1.8,6.6,2.7,9.9.6,2.1,1.2,4.2,1.7,6.4.3,1,.5,2,.8,3q2.9,12.3,10.3,22.1c1,.8,2,1.7,3,2.5,1,.8,2,1.6,3,2.5.9.7,1.7,1.4,2.6,2.2,1.8,1.5,3.6,2.9,5.4,4.4,3.5,2.9,7,5.9,10.4,8.8,9.7,8.4,19.4,16.7,29.4,24.8.7.6,1.5,1.2,2.2,1.9.6.5,1.2.9,1.8,1.4,1.9,2.5,1.4,4.6,1.2,7.6q-1,2.6-2.5,5.2c-.5,1-1.1,1.9-1.6,2.9-.6,1-1.2,2-1.8,3.1-1.2,2.2-2.4,4.3-3.6,6.5q-.9,1.6-1.8,3.2c-2.3,4.1-4.5,8.3-6.6,12.4-4.1,7.8-8.2,15.5-12.3,23.2-.6,1.1-1.2,2.2-1.8,3.3-.6,1-1.1,2.1-1.7,3.2-.5,1-1.1,2-1.6,3.1-2.1,3.7-4.4,7.2-6.8,10.7q-1.1,2.3-.2,4.8c2,3.8,4.3,7.5,6.6,11.2.5.8,1.1,1.7,1.6,2.5,3.8,5.9,7.8,11.8,11.9,17.5.5.7,1,1.4,1.6,2.2,1,1.4,2,2.8,3.1,4.1q1.5,2,2.8,4c5.8,8.2,16.2,10.8,25.2,14.2,2.7,1,5.3,2.1,8,3.1,1.6.6,3.3,1.3,4.9,1.9,5.1,2,9.9,4.2,14.7,6.7-.3,1.7-.7,3.3-1,5-10.3-.6-20.7-1.3-31-2.2-1.4-.1-2.9-.2-4.4-.4-2.1-.2-4.3-.4-6.4-.5-1.2-.1-2.5-.2-3.8-.3-4.3-.8-7.9-1.9-10.9-5.2-.3-.6-.7-1.2-1.1-1.8-.4-.7-.8-1.4-1.2-2-.4-.7-.8-1.4-1.3-2.2-5.6-9.1-12-17.2-18.9-25.3-.5-.6-1-1.2-1.5-1.8-1.9-2.2-3.8-4.5-5.7-6.7-3.7-4.4-7.3-8.9-10.8-13.5-6.1,2.2-10.9,6.1-16,10-.6.5-1.3,1-2,1.5-7.6,5.7-15.1,11.4-22.4,17.5-1,.8-2,1.7-3.1,2.5-5.1,4.9-7.7,10.6-10.2,17-.7,1.6-1.3,3.3-2,4.9-1,2.6-2,5.1-3,7.7-1,2.5-2,5-3,7.5-.3.8-.6,1.5-.9,2.3-2.3,5.8-5.3,10.1-10.1,14.1-3.7,3.2-7.3,6.5-10.9,9.8-7.3,6.8-14.7,13.5-22.3,20.1-2,1.7-3.9,3.4-5.8,5.1-1.3,1.1-2.5,2.2-3.8,3.3-.6.5-1.2,1.1-1.8,1.7q-4.5,3.9-8.9,3.9-.7-2.3-1-5t2.8-3.6c.6-.7,1.3-1.4,2-2.1.8-.8,1.5-1.5,2.3-2.3,7.3-7.8,14.2-15.8,20.7-24.3,1.3-1.7,2.6-3.3,3.9-5,2.1-2.7,4.1-5.3,6.2-8,.9-1.2,1.8-2.4,2.7-3.6,1.5-1.9,3-3.8,4.4-5.8.5-.6.9-1.1,1.4-1.7,5.7-7.6,7.8-16.6,10.1-25.6,2.7-10.5,5.2-17.8,13.6-25,1.6-1.6,3.2-3.3,4.9-4.9,5.2-5.3,10.5-10.3,16.1-15.1,1-.8,1.9-1.7,2.9-2.6,7-6.1,14.2-11.9,21.6-17.5.8-.6,1.7-1.3,2.6-1.9.8-.6,1.6-1.2,2.5-1.8.7-.5,1.4-1.1,2.2-1.6q2.3-1.5,5.3-2.7c4.2-2.5,5.5-5.7,7.6-10,.4-.8.8-1.6,1.2-2.5,1.3-2.6,2.6-5.3,3.9-7.9,1.3-2.6,2.6-5.1,3.8-7.7.8-1.7,1.7-3.4,2.5-5.1,2.2-4.3,4.4-8.6,6.8-12.8.5-.8.9-1.6,1.4-2.5.9-1.6,1.8-3.1,2.8-4.6q1.4-2.3,2.9-5.7c-1.2-3.1-2.8-5-5.2-7.2-.6-.6-1.3-1.2-1.9-1.8-.7-.6-1.3-1.2-2-1.8q-1-.9-2.1-1.9c-4.5-4.2-9.1-8.3-13.8-12.3-1-.9-2-1.7-3-2.6-5-4.4-10.1-8.7-15.3-12.9-.7-.6-1.4-1.2-2.2-1.7-1.4-1.1-2.8-2.2-4.2-3.3-.6-.5-1.3-1-1.9-1.5-.6-.4-1.1-.9-1.7-1.3-3.9-3.9-5.3-8.4-6.8-13.7q-.3-1-.6-2.1c-.4-1.5-.8-3-1.2-4.4-1.1-3.9-2.2-7.9-3.3-11.8-.2-.8-.4-1.6-.7-2.4-2.1-7.4-4.2-14.8-6.4-22.2-.4-1.3-.8-2.6-1.2-3.9-.5-1.8-1.1-3.6-1.6-5.4-.3-1-.6-2-.9-3.1q-.8-2.7-2.9-5.5-2.5-1.2-5.5-2.2c-1.2-.4-2.3-.8-3.5-1.2-1.3-.4-2.6-.9-3.8-1.3-1.3-.5-2.6-.9-3.9-1.4-3.5-1.2-6.9-2.4-10.4-3.6-5.5-1.9-11-3.8-16.6-5.7-1.9-.7-3.8-1.3-5.7-2q-23.5-8.1-29.5-17.7c-.7-1.2-1.5-2.3-2.2-3.5-1.2-2-2.5-4-3.7-6-3.4-5.5-7-10.9-10.6-16.2-.5-.7-1-1.5-1.5-2.2-1-1.5-2.1-3-3.2-4.5-1.4-2.1-2.5-4.1-3.6-6.3-2.6-4.8-5.1-9.3-10.5-11.1-6.8-1.3-13.6-1.1-20.4-1-3.1,0-6.2,0-9.2,0-1.9,0-3.8,0-5.7,0-4.9,0-8.7-.3-13.3-2.2.3-1.6.7-3.3,1-5,7-1.3,13.9-2.6,20.9-3.8,2.4-.4,4.7-.9,7.1-1.3,3.4-.6,6.8-1.3,10.2-1.9q1.6-.3,3.2-.6,15.5-2.8,19.8,0c.5.7,1,1.4,1.5,2.1.6.8,1.1,1.5,1.7,2.3.6.8,1.1,1.6,1.7,2.5.6.8,1.2,1.7,1.8,2.5,1.2,1.7,2.4,3.3,3.6,5,1.9,2.7,3.9,5.4,6,8.1.7.9,1.4,1.8,2.1,2.8,2.1,2.8,4.3,5.6,6.4,8.4.7.9,1.4,1.8,2.1,2.8,1.4,1.8,2.8,3.6,4.2,5.4.7.9,1.3,1.7,2,2.6.7.8,1.3,1.7,2,2.6q1.9,2.6,3.6,5.3c3.6,5.8,6.2,8.4,12.8,10,1,.2,2,.4,3,.6,2.2.5,4.4,1.1,6.6,1.6,1.2.3,2.5.6,3.7.9,4.9,1.2,9.7,2.7,14.6,4.2.9.3,1.8.6,2.7.8,3.6,1.1,7.3,2.2,10.9,3.4,2.6.8,5.1,1.6,7.7,2.4.8.2,1.5.5,2.3.7,4,1.2,7,2,11,.5q2.2-1.2,4.3-2.7c.8-.6,1.6-1.1,2.4-1.7.8-.6,1.7-1.2,2.6-1.9.9-.6,1.8-1.3,2.7-1.9,1.8-1.3,3.6-2.6,5.5-3.9,3-2.2,6.1-4.3,9.2-6.5,6.7-4.7,13.3-9.4,19.9-14.2.7-.5,1.4-1,2.2-1.6,1.4-1,2.8-2,4.2-3.1,1.5-1.1,3-2.1,4.5-3.2,5.9-4.2,8.9-8.3,12-14.8.5-1,.9-1.9,1.4-2.9,1.1-2.2,2.2-4.4,3.3-6.7,2.8-5.6,5.6-11.2,8.4-16.9,2.2-4.5,4.5-9,6.7-13.5.4-.8.8-1.7,1.3-2.6.8-1.6,1.6-3.2,2.4-4.8,1.7-3.4,3.5-6.8,5.5-10.1,2.5-4.6,2-7.3.7-12.2-1.4-4.3-3.1-8.5-4.8-12.8q-.7-1.8-1.5-3.6c-1.6-3.9-3.1-7.7-4.7-11.6-.3-.7-.5-1.3-.8-2-3.3-8.1-6.7-16.1-10-24.2-.4-.9-.8-1.8-1.2-2.8-.4-.9-.8-1.7-1.2-2.6-.9-2.8-.8-3.7.2-6.4q1.9-2.2,4.3-4.6c.9-.9,1.8-1.8,2.8-2.8,1-1,2-2,3-3,1-1,2.1-2.1,3.1-3.1,2.7-2.7,5.5-5.4,8.2-8.1,4.4-4.3,8.7-8.6,13.1-12.9,1.5-1.5,3-3,4.5-4.5,4.7-4.6,9.2-9.3,13.5-14.3q2.8-3.2,4.4-4.7Z"/>
</svg>