<?xml version="1.0" encoding="UTF-8"?>
<svg id="Layer_1" xmlns="http://www.w3.org/2000/svg" version="1.1" viewBox="0 0 1024 1536">
  <!-- Generator: Adobe Illustrator 29.0.1, SVG Export Plug-In . SVG Version: 2.1.0 Build 192)  -->
  <defs>
    <style>
      .st0 {
        fill: #fefbf9;
      }

      .st1 {
        fill: #fefaf8;
      }

      .st2 {
        fill: #fec8bb;
      }

      .st3 {
        fill: #df3200;
      }

      .st4 {
        fill: #df3300;
      }

      .st5 {
        fill: #fc3406;
      }

      .st6 {
        fill: #fefbf8;
      }

      .st7 {
        fill: #e03200;
      }
    </style>
  </defs>
  <path class="st5" d="M541,219c.8,0,1.5.2,2.3.3,22.3,3,45.3,9.1,65.5,19.1q3.2,1.5,6.7,1.2c.8-.5,1.6-1,2.5-1.5,1.3-.7,2.7-1.5,4-2.2.8-.4,1.5-.8,2.3-1.3,12.4-6.8,25.5-12.7,39.7-14.6q1.2-.2,2.4-.3c31.7-3.6,61,4.8,86.1,24.6,25.4,20.5,41.7,47,45.5,79.7.3,5.5.4,11,.4,16.5,0,.7,0,1.5,0,2.3,0,12.1-1,23.5-4.4,35.2-.2.7-.4,1.4-.6,2.1-5.9,21.6-15.5,42.3-29.4,59.9-.7.9-1.4,1.8-2.1,2.7-19.7,24.9-44.7,40.6-75.9,47.3h-2c11.1,18.4,25.4,36,47,42,13.4,1.6,24.8-1.8,35.5-9.9,9.9-8.3,16.3-19,21.9-30.5,1.6-2.7,2.9-4.1,5.6-5.7,6-.8,10.1.7,15,4,1.6,1.4,3.1,2.9,4.6,4.3,4.9,4.7,9.9,7.2,16.1,10,4.7,2.4,9.6,5.4,11.3,10.7,1.1,7.3.4,13-3.8,19-.7,1-1.5,2-2.2,3-.5.7-1,1.3-1.5,2-3.5,4.7-7.2,9.3-10.8,13.9-1.4,1.8-2.8,3.5-4.1,5.3-13.6,17.3-31.6,29.8-51.5,38.8-1,.5-2,.9-3.1,1.4-5.8,2.6-11.7,4.5-17.7,6.3-.7.2-1.4.4-2.1.6-4.3,1.2-8.6,2.1-13,2.6,2.3,5,5.1,8.9,8.4,13.2,45.8,60,70.8,132.7,80.6,206.8.1,1,.3,2,.4,3,1.9,14.8,1.8,29.7,1.8,44.6,0,1,0,2,0,3q.2,58.4-18.1,77.9c-7.5,6.6-16.9,12.4-27.1,12.4.2-.8.3-1.6.5-2.4.6-4.5.7-9,.7-13.5,0-.9,0-1.9,0-2.9,0-2,0-4,0-5.9,0-3,0-6.1,0-9.1,0-1.9,0-3.9,0-5.8,0-.9,0-1.8,0-2.8q0-1.3,0-2.5t0-2.2-3.4-3.8q-3.3.3-6,2c-.1,2.2-.2,4.4-.2,6.6,0,1.4,0,2.8,0,4.2,0,2.2,0,4.3-.1,6.5q-.5,25.7-3.5,31.7c-11.5.3-22.6-.4-34-2q0,.9,0,1.7c.1,9.5-.6,18.9-1.4,28.3-.1,1.9-.3,3.8-.4,5.6-.4,5-.8,10-1.1,15-.2,3.1-.5,6.3-.7,9.4-2.5,32.8-5.4,65.5-8.7,98.2-.7,6.6-1.3,13.2-2,19.9-1.7,17.8-3.5,35.7-5.4,53.5-.1,1.3-.3,2.6-.4,4-.7,6.4-1.4,12.8-2.1,19.2-.2,2.3-.5,4.6-.7,6.9q-.2,1.6-.3,3.2c-.5,5.1-.9,10.1-.8,15.2q1.5.6,3,1.2c22.5,9.3,38.6,22.2,49.6,44.4,4.4,10.6,5.4,23.5,2.6,34.7-3.2,7-8.4,11.1-15.3,14.1-2.7.6-5,.7-7.8.6-.1-.7-.2-1.3-.3-2-.5-3.1-1-6.2-1.4-9.3-.2-1.1-.3-2.1-.5-3.2-1.6-9.7-4.3-18.6-9.3-27.1q-.9-1.5-1.8-3-1.6-2.7-4.7-4.4-3.3.3-6,2c.2,5.3,1.7,8.4,4.6,12.7,4.7,7.7,6.3,16.1,7.6,24.9.2,1.1.3,2.2.5,3.3.4,2.7.8,5.4,1.2,8-3.7.3-7.5.7-11.2,1-1,0-2.1.2-3.2.3-7.2.6-14.3.8-21.6.7,0-.6,0-1.2,0-1.8q-.3-26.9-12-50.2-2.5-.3-5,0-2.3,1.8-2.3,4.7c.4,3.9,1.6,7.1,3.2,10.6,4,9.1,5.4,17.3,5.2,27.2,0,.9,0,1.8,0,2.8,0,2.2,0,4.4,0,6.7q-54.3.4-77-2-1.4-.2-2.9-.3c-14.5-1.6-32.7-3.9-42.7-15.6-4.3-6-5.7-11.4-6.6-18.7-.2-1.1-.3-2.2-.5-3.3-1.6-11.2-2.6-22.5-3.5-33.9-.2-2.4-.4-4.7-.6-7.1-.4-4.6-.8-9.2-1.2-13.9-.8-10-1.7-20.1-2.6-30.1-3.3-38.1-6.6-76.3-9.7-114.5-.2-2.4-.4-4.9-.6-7.3-.3-3.8-.6-7.5-.9-11.3-.2-2-.3-4-.5-6-.5-6.4-.8-12.7-.7-19.1-.7,0-1.5,0-2.2,0-16.3-.5-32.5-1.3-48.8-2.9,0,1.3-.2,2.5-.3,3.8-.9,8.5-2.6,16.9-4.2,25.3-.4,1.9-.7,3.8-1.1,5.7-.8,4-1.5,8-2.3,12.1-1.1,5.8-2.2,11.6-3.3,17.4-4.4,23.6-8.9,47.1-13.5,70.6-4,20.3-7.8,40.7-11.4,61,.6.3,1.2.6,1.8.9,15,7.9,25.8,25.6,31.2,41.1,3,10.1,3.8,22.2-.9,31.8-4.8,7.8-13.4,11.3-21.9,13.7q-2.2.4-6.2.4c0-1.3-.2-2.5-.3-3.8-.9-10.8-2.3-20.8-5.7-31.2q-.3-1-.7-2c-.7-2-1.4-3.9-2.2-5.9-.4-1.2-.9-2.3-1.3-3.5q-1.7-3-5.4-3.6-3.5-.4-5.4,2c.4,5,2.1,9.3,3.9,13.9,4.6,11.6,6.3,22.6,6.1,35.1-7.2,1-14.3,1.1-21.6,1.1-1.1,0-2.2,0-3.3,0-2.7,0-5.4,0-8.1,0,0-.8,0-1.6.1-2.5.3-13.4-2-25.7-6.1-38.5-.2-.8-.5-1.6-.8-2.4q-1.6-4.6-5.2-7.7-3.3.3-6,2c.4,5.8,1.4,10.8,3.2,16.3,3.6,11.1,4.5,21.1,3.8,32.7q-84,.6-103-14-2.4-2.4-4-5c-.7-1.1-1.4-2.2-2.1-3.3-5.3-11-5.6-25.1-6.6-37-.1-1.5-.3-3.1-.4-4.6-.3-3.2-.6-6.4-.9-9.6-.5-5-.9-10.1-1.4-15.1-.2-1.7-.3-3.4-.5-5,0-.8-.2-1.7-.2-2.5-.2-2.5-.5-5-.7-7.4-1-10.6-2-21.1-3.1-31.6-10-96.7-18.4-194-14.2-358.7-.6-.2-1.1-.3-1.7-.5-12-3.7-22.8-7.5-33.3-14.5-1-.7-2-1.3-3-2-13.9-9.8-25.5-22.2-34-37q-.5-.9-1.1-1.9c-4.3-7.7-7.6-15.5-10.3-23.8-.2-.7-.5-1.5-.7-2.3-3.6-11.9-4.3-23.7-4.2-36,0-.8,0-1.5,0-2.3,0-19.9,3.2-37.7,9.3-56.7q.3-1,.7-2.1c11.4-34.3,32-65,56.2-91.5,1.9-2.2,3.9-4.3,5.8-6.5,2.7-3.1,5.6-6.1,8.5-9,1.7-1.7,3.3-3.5,4.8-5.4,5.3-6.2,11.2-11.8,17-17.5,5.3-5.2,10.6-10.5,15.4-16.2,1.6-1.8,3.2-3.6,4.9-5.3.5-.5,1-1.1,1.6-1.7,1.1-1.1,2.1-2.2,3.2-3.3q3.2-3.2,3.9-7.5c-.9-.2-1.9-.4-2.8-.6-37.9-8.7-69.2-29.2-90.2-62.4-19.9-32.8-28.2-76.1-20-113.9,9.4-38.4,33.2-69.9,66.9-90.4,16-9.4,33-16.6,51.1-20.6.8-.2,1.6-.4,2.4-.6,26.2-5.4,53-1.9,75.6,12.6,4.2,3,8,6.2,11.8,9.6q1.7,1.6,4.2,3.4c3.1-.4,5.4-1.7,8-3.3.8-.5,1.5-.9,2.3-1.4q1.2-.7,2.5-1.5c8.2-4.8,16.2-8.7,25.2-11.8.6-.2,1.2-.4,1.9-.7,32.9-11.4,67.7-12.7,102.1-8.3Z"/>
  <path class="st2" d="M614.7,640.6c30.8,28.5,45.6,68.8,52.3,109.4.1.8.3,1.7.4,2.5,3.5,21.2,5,42.2,4.9,63.6,0,1.1,0,2.1,0,3.2-.1,45.4-6,95.7-39,129.8-24.8,24.6-61.6,31.2-95.2,31.3-13.6,0-26.8-1.6-40.1-4.4-.7-.1-1.4-.3-2.2-.4-21.4-4.4-41.5-15.2-57.8-29.6-.6-.5-1.2-1.1-1.9-1.6-23.9-22.2-35-59.5-36.2-91.3,0-2,0-4.1.1-6.1,7.3-3.7,14.7-7.3,22.2-10.6,11.8-5.3,23.2-10.9,33.8-18.4.6-.4,1.1-.8,1.7-1.2,5.9-4.2,11.5-8.7,16.8-13.6q1.5-1.2,3.5-1.2c.3-.6.5-1.2.8-1.8,1.3-2.4,2.8-4.1,4.8-6.1,15.7-17.5,23.8-40.6,22.7-63.8-.5-5.6-2.7-10.4-5.2-15.3-.5-.9-.9-1.8-1.4-2.8-6-10.8-13.5-16.7-25.3-20.4-8.8-2.5-17.3-3.9-26.4-4.2q-1.1,0-2.3,0c-2.4,0-4.7-.1-7.1-.2-1.6,0-3.2,0-4.8-.1-3.9-.1-7.8-.2-11.7-.3,2.2-6.5,4.5-12.6,8.1-18.4.4-.6.8-1.3,1.2-1.9,10.8-17.1,25.3-29.8,42.8-39.7,1.1-.6,2.3-1.3,3.5-2,12.1-6.4,25.9-11.2,39.5-13,.8-.1,1.5-.2,2.3-.3,35-4.1,69.1,5.2,95.4,28.9Z"/>
  <path class="st3" d="M312.9,649.8q3.1.2,5,1.3c1.8,3,1.4,5.5,1.1,8.9-1,3.8-2.5,7.5-3.9,11.2-3.2,8.8-2.9,17.9-.1,26.8,4.2,5.7,10.2,7.9,17,9,19.4,1.7,36-3.9,54.2-10.1,18.1-6.1,34.5-10.3,53.7-10.4.7,0,1.4,0,2.1,0,17.9,0,37.6,2.1,50.9,15.1,9.2,10.3,14.3,21.9,14.3,35.6,0,.8,0,1.6,0,2.5,0,5.4-.6,10.1-2.2,15.3-.2.7-.4,1.4-.7,2.2-5.5,16.7-12.8,30.3-25.3,42.8q-1.2,1.2-2.5,2.5c-33.3,32.7-84.4,51.2-129.4,59.9-3,.6-6,1.2-9,1.9-13.4,2.7-26.6,3.1-40.3,3.1q-1.3,0-2.6,0c-11.3,0-22.2-.7-33.3-2.4v-2c-1.7.3-3.3.7-5,1,.3-2.1.6-4.3.9-6.4.2-1.2.3-2.4.5-3.6q.5-2.9,1.5-3.9c1.7,0,3.4.2,5.1.3q1.6.1,3.3.3c2.4.3,4.8.6,7.2.9,58.9,8.5,130.4-13.1,178.2-48.3,17.3-13.1,32.8-30.2,37.9-52.1,1.8-13.8,1.3-25.4-6.8-37-6.8-8.1-16.7-10.2-26.8-11.5-16.4-1.5-32.6-.9-48.7,3-1.1.3-2.2.5-3.3.8-7.3,1.8-14.4,4.1-21.5,6.7-15.6,5.7-32.7,10.5-49.4,8.9-.9,0-1.8-.1-2.8-.2-10-1.3-20.5-6.1-27.2-13.8q-1.5-2.5-2.8-5.1c-.4-.8-.8-1.7-1.2-2.5-5.3-12.6-1.5-27.1,3-39.4q4.6-10.9,8.9-11.2Z"/>
  <path class="st3" d="M724,689c6.9,7.4,7.2,21.6,8.8,31.2.1.7.3,1.5.4,2.3,6.2,37.1,9.6,74.9,10.7,112.5,0,2.9.2,5.8.3,8.7.7,22.2,1,44.3.9,66.5,0,4.4,0,8.9,0,13.3,0,3.5,0,7,0,10.5,0,1.6,0,3.3,0,4.9,0,9.4-.2,18.7-1.1,28.1-1.6,0-3.2,0-4.8.1-.9,0-1.8,0-2.7,0q-2.5-.2-5.5-2.2c-.3-2.6-.4-4.9-.3-7.5,0-.8,0-1.5,0-2.3,0-2.6,0-5.2,0-7.8,0-1.8,0-3.7,0-5.5,0-3.9,0-7.8,0-11.7,0-10.1.1-20.3.1-30.4,0-1,0-2,0-3,0-24.3-.6-48.6-2-72.8,0-1-.1-1.9-.2-2.9-.7-12.6-1.6-25.2-2.6-37.8-.2-2.1-.3-4.2-.5-6.3-1.6-20.5-4.8-40.8-8.2-61.1q-.2-1.3-.4-2.6c-.5-3.2-1.1-6.2-2.1-9.3-.1-2-.2-4-.2-6,0-1.1,0-2.1,0-3.2q.3-2.8,1.7-4.7c2.6-1.8,4.6-1.6,7.7-1.2Z"/>
  <path class="st4" d="M545,507c5.6,5.1,9.3,12.6,13.2,19,3.5,5.7,7.4,10.9,11.8,16,.7.8,1.4,1.7,2.2,2.5,2.2,2.5,4.5,5,6.8,7.5.7.8,1.4,1.5,2.1,2.3,5.8,6,12.1,10.9,18.9,15.7.6.4,1.2.8,1.7,1.2,13.4,9.3,26.9,17.3,42.3,22.8,2.2.9,4.4,1.7,6.6,2.6,21.8,8.3,46.5,10.8,69.5,6.8,3.1-.5,5.9-.6,9-.4q1.9,1.9,3,5c0,3.1-.5,6-1,9-1.3.3-2.6.6-3.9.9q-1.1.3-2.2.5c-16.1,2.9-34,2.9-49.9-.5-1.7-.3-3.5-.6-5.2-1-13.3-2.6-25.5-6.4-37.8-12q-1.1-.5-2.2-1c-13.9-6.4-26.9-14.5-39-23.8-3.9-3-7.9-5.8-11.9-8.5-.7-.5-1.3-1.1-2-1.6v-2c-.6-.3-1.2-.5-1.8-.8-15.2-8.2-27-30.7-35.8-45q-1.4-2.2-3.1-4.3c-1.9-2.8-1.8-4.6-1.3-7.9,2.9-3.3,5.8-4,10-3Z"/>
  <path class="st3" d="M676.7,386.1q2.3.9,4.3,3.9c.4,3.2.3,6.4.3,9.6v2.9c-.1,10.7-1.6,21.2-3,31.8-.7,5.2-1.1,10.4-1.3,15.6,0,.7,0,1.4-.1,2.2-.6,12.9.3,25.1,6.1,36.8.7.3,1.3.7,2,1,.7,1.7,1.3,3.3,2,5,1,1.5,2.1,3,3.1,4.4,2,3,2.8,4.4,3.4,8q-.5,2.6-2.5,4.6-2.2.4-4.6.6t-2.5.2c-.6,0-1.3,0-1.9.1-14.8-18.2-21.6-39.5-20-63,.6-6,1.5-12,2.4-18,1-6.8,1.8-13.6,2.4-20.4,0-.7.1-1.4.2-2.1.3-3.3.5-6.6.8-10,0-1.2.2-2.4.3-3.6,0-1,.1-2.1.2-3.2,1.2-4.3,3.9-6.8,8.5-6.7Z"/>
  <path class="st7" d="M370.6,462q2.4,1,4.3,3c2.1,5.5,1.1,9.8-1.2,15.1-9.3,18.3-23.6,29.5-42.7,35.8-7.3,2.3-14.4,3.5-22,4q-1.4.1-2.8.2-5.7.2-7.9-1.7c-.4-.5-.8-1-1.3-1.5,1-2.2,2.1-4.1,3.6-6.1q1.7-1.9,1.4-4.9c1,0,2.1-.1,3.1-.2,14.8-1.3,28.6-5.1,40.9-13.8,1.1-.7,2.1-1.5,3.2-2.2,6.2-6.2,9.6-14.3,13.3-22.2,2.1-3.5,3.9-5.6,8.1-5.6Z"/>
  <path class="st0" d="M469.1,462.2c5.6,1.2,6.9,4.4,9.9,8.9,7.1,10.5,19.6,19.1,31.9,21.9.7.2,1.4.4,2.2.5,4.7.8,9.5.8,14.3.9,3.5.1,5.9.3,9,1.9q1.5,1.7,1.8,5.2t-2.4,5.4c-20.2,1.9-39.8-2.7-55.9-15.4-6.9-5.9-14.4-12.7-17.1-21.6.2-4.7,1.4-6.6,6.1-7.8Z"/>
  <path class="st6" d="M508.7,343.5c6.1,5.8,9.5,12.6,9.8,21,0,2.8-.1,4-1.8,6.3-2.6,1.9-4.5,1.6-7.7,1.2-2.2-1.6-2.9-2.6-3.5-5.2,0-.8-.2-1.7-.3-2.5-.9-5.4-3-8.7-7.2-12.2-3.8-2.2-6.6-2.4-11-2-3.3,1.3-6.2,2.8-8.2,5.9-.9,2.3-1.1,4.2-1.3,6.6-.3,2.7-.6,4.5-1.7,7.1-3,2.3-5.3,1.9-8.9,1.4q-1.7-1.2-3-3c-.7-8.9,2.2-16.3,6.7-23.8,10.7-10.1,27.1-9.5,38-.7Z"/>
  <path class="st1" d="M626.2,338.9c7.8,5.7,13.3,12.7,15.8,22.1.5,4.2.7,6-1.6,9.5q-2.4,1.5-5.5,1.4t-4.9-2.9-.9-4.2c-1.1-5.2-3.2-8.7-6.9-12.6-3.4-1.7-6.6-1.8-10.2-1.1-3.4,1.7-5.4,2.9-7.3,6.2-.8,3.2-1.1,6.4-1.2,9.7-.5,2.6-1.3,3.5-3.4,5.1q-5.1.6-7.7-1.2c-2.8-3.7-1.9-8.4-1.3-12.8,2.1-7.6,5-13.9,12-18,7-3.9,16-5.1,23.2-1.1Z"/>
</svg>