<?xml version="1.0" encoding="UTF-8"?>
<svg id="Layer_1" xmlns="http://www.w3.org/2000/svg" version="1.1" viewBox="0 0 1024 1536">
  <!-- Generator: Adobe Illustrator 29.0.1, SVG Export Plug-In . SVG Version: 2.1.0 Build 192)  -->
  <defs>
    <style>
      .st0 {
        fill: #f61a07;
      }

      .st1 {
        fill: #fdfaf9;
      }

      .st2 {
        fill: #fdf8f8;
      }

      .st3 {
        fill: #fdf9f9;
      }

      .st4 {
        fill: #fff;
      }

      .st5 {
        fill: #f61b06;
      }

      .st6 {
        fill: #fefaf9;
      }

      .st7 {
        fill: #fefafa;
      }

      .st8 {
        fill: #fefcfc;
      }

      .st9 {
        fill: #feb6ad;
      }

      .st10 {
        fill: #fdf8f7;
      }

      .st11 {
        fill: #fef9f9;
      }
    </style>
  </defs>
  <path class="st4" d="M375.1,1406.4c6-.5,12-.3,17.9-.2,9.9,0,19.8.3,29.7-.4,1,0,1.9.2,2.6.6,8.8-.3,17.7-1.3,26.3-2.3,10.8-1.3,21.4-3.7,31.6-7.6,3-3.6,4.6-7.4,4.6-11.5,0-17.2-29.2-31.2-65.3-31.2s-65.3,14-65.3,31.2,6.8,15.9,17.9,21.5Z"/>
  <ellipse class="st4" cx="351.9" cy="873.9" rx="157.4" ry="148"/>
  <ellipse class="st4" cx="764.3" cy="819.6" rx="100.5" ry="148"/>
  <path class="st5" d="M636.4,146.3c8.7,6.6,14.5,14.9,16.6,25.7.8,10.5-.5,19.5-7,28-1,1.3-2,2.7-3,4q1.1,1,2.3,2.1c41.4,39.1,44.2,101.2,47.8,154.3.6,9.2,1.3,18.4,1.9,27.5,0,1,.1,2.1.2,3.1,4,53.3,27.8,94.6,60.6,135.2,7.3,9,14.2,18.4,21.1,27.7.6.8,1.1,1.5,1.7,2.3,26.8,36,47.9,75.6,63.3,117.7.4,1.2.9,2.4,1.3,3.6,18.1,50.1,25.8,104.1,25.9,157.3,0,3.5,0,7,0,10.5.2,34.9-2.7,79.1-28.3,105.8-1.3,1.3-2.7,2.6-4,3.9q-.9.9-1.8,1.9c-10.8,10.2-25,13.4-39.4,13.5q-1.4,0-2.8,0c-5.6,0-12.7-.2-17-4.4,0-3-.1-6,0-9.1,0-1,0-1.9,0-2.9,0-2.1,0-4.2,0-6.3,0-3.3,0-6.7,0-10,0-9.5,0-19,.1-28.6q.2-34.1-1-68.2,0-1.1-.1-2.2.2-15.4-5-28.7h-3c0,7.5-.1,14.9.4,22.4.8,13.8.8,27.5.8,41.3,0,2.1,0,4.2,0,6.4,0,7.5,0,15,0,22.5,0,6.1,0,12.2,0,18.3,0,35-.1,69.9-2.1,104.8-.1,2.1-.2,4.3-.4,6.4-.4,7.8-.9,15.7-1.5,23.5,0,1.2-.2,2.3-.2,3.5-3.2,45.7-8.2,91.2-14,136.6-.8,6.3-1.6,12.6-2.3,18.9-1.7,13.9-3.3,27.9-5.4,41.8-.1.9-.3,1.9-.4,2.9-.7,4.6-1.4,9.1-2.1,13.7q-3.3,16,0,31.1c4.2,2.6,8.5,4.9,13,7.1,20.8,10.6,40,22.9,48.1,45.8.2.7.5,1.4.8,2.1,2.1,7,2.7,15.5-.3,22.3-4.7,7.9-11.7,11.3-20.4,13.6-8.6,1.9-17.3,3.1-26,4.1q-1,.1-2,.2c-15.4,1.6-30.9,1.9-46.3,1.9-1,0-2.1,0-3.1,0-28.9,0-57.5-2.2-86.2-5.2-.7,0-1.4-.1-2.2-.2-7.9-.8-15.5-2-23.3-3.8q-1-.2-2.1-.5c-9.5-2.3-18.9-6.4-24.8-14.6-3.8-6.7-5-13.1-5.5-20.7,0-.7,0-1.3-.1-2-.1-2.2-.3-4.4-.4-6.6,0-1.6-.2-3.1-.3-4.7-.2-3.3-.4-6.7-.6-10-.3-5.3-.7-10.7-1-16-1-16-2-32-3-48-2-33-4.3-65.9-6.7-98.8,0-1.1-.2-2.1-.2-3.2-.5-6.2-.9-12.3-1.4-18.5-.1-1.9-.3-3.8-.4-5.7-.4-4.9-.7-9.8-1.1-14.7-.1-1.8-.3-3.6-.4-5.3q-.2-4.8-2.8-8.6c-8.9-1.1-18.3.3-27.1,1.2-1.1.1-2.2.2-3.3.3-1,.1-2.1.2-3.2.4-.9.1-1.9.2-2.8.3-3.2.9-4.4,2.2-6.5,4.7q-.9,2.3-1.3,4.9c-.2,1-.4,2-.6,3-.2,1.1-.4,2.1-.6,3.2-.2,1.1-.4,2.3-.7,3.4-.5,2.5-1,4.9-1.4,7.4-1.2,6-2.4,12.1-3.6,18.1-.3,1.4-.6,2.8-.8,4.2-3,15.1-6.3,30.2-9.7,45.2-.6,2.6-1.1,5.1-1.7,7.7-2.8,12.5-5.6,25-8.5,37.5-1.6,7-3.2,14-4.8,21-1.2,5.1-2.3,10.2-3.5,15.3-.7,3.2-1.4,6.3-2.2,9.5-.3,1.5-.7,2.9-1,4.4q-2.9,11.5-2.7,23.2c2.6,3.5,5.6,5.4,9.2,7.7,13.3,9.4,22.9,23.1,25.8,39.3.8,6.6-.2,11.5-4,17-6.3,6.5-15.3,8.6-24,10,0-.9-.2-1.9-.3-2.8-1.5-12.4-3.5-26.9-12.7-36.2q-2.6.3-5,1c-1.5,5.6-.3,8.9,1.9,14,2.8,6.9,4.3,12.8,4.2,20.4,0,1.1,0,2.1,0,3.2q0,1.2,0,2.4c-10.4.9-20.6,1.1-31,1,0-.6-.1-1.3-.2-1.9q-1.9-20.5-11.8-38.1-3.3.4-6,2c.3,4.5,1.4,8.2,3,12.4,2.6,6.8,3,12.6,3,19.8,0,1.1,0,2.2,0,3.3,0,.8,0,1.6,0,2.5q-85,.7-114-3c-1.2-.1-2.5-.3-3.8-.5q-38.2-4.7-50.9-19.5c-4.6-7.2-5.4-14.8-6.5-23.1-.1-.7-.2-1.5-.3-2.2-2.6-18.3-4.6-36.8-6.6-55.2-2.5-22.2-5.2-44.3-8.1-66.5-1.7-13.3-3.3-26.6-4.7-40-.8-7.5-1.8-15-2.8-22.6-9.8-71.6-14.8-142.8-14.5-215.1,0-5.2,0-10.5,0-15.7,0-26.3,0-52.5,2.3-78.7,4.2,1.6,8.2,3.6,12.2,5.6,26.2,13.2,53.5,22.9,82.8,26.4q1.3.2,2.6.3c39.1,4.2,79-4,114.1-21.3q2.3-1,4.3-1c0,.6.1,1.2.2,1.8,4.1,36.2,14.5,67.6,42.8,92.2,37.3,29.6,89.9,37.1,136,32,3.6-.6,7.2-1.3,10.8-2.2.9-.2,1.9-.4,2.9-.7,20.1-4.9,38.4-12.8,54.4-26.1q1.4-1.1,2.8-2.3c36.4-31.4,47-83.3,50.8-129.1.6-9.4.7-18.9.7-28.3,0-1,0-1.9,0-2.9,0-71.3-12.5-154.3-64.3-207.4-.6-.7-1.3-1.4-1.9-2.1-19.4-21-51.1-32.7-79.1-34-38.7-1.1-69.1,9.7-97.3,36.2-7.7,7.4-14.4,15.3-20.7,23.9-.4.6-.8,1.1-1.3,1.7-9.8,13.7-18.4,28.5-24.2,44.3-5.7,15.1-19.7,24.6-33.7,31.5-2.9,1.3-5.8,2.4-8.9,3.4-.9.3-1.8.6-2.7,1-14.5,4.4-29.3,2.8-43.5-1.9-3.5-1-6.2-1.3-9.8-1.1l-2,5c7.1,7.9,19.1,9.5,29.3,10.3,25.4.9,44.7-13.2,62.9-29.2,27.2-23.8,55-43.3,92.8-41.1,15.2,1.9,26,7.8,36,19.3,5,6.6,7.6,13.8,10,21.7.2.8.5,1.5.8,2.3,4.8,17.1.2,37-6.8,52.7-.5,1.1-1,2.2-1.5,3.3-9.7,20.7-25.2,37.5-41.1,53.5-.5.5-1,1-1.5,1.5-6.6,6.7-13.5,12.9-21,18.7-.7.5-1.4,1.1-2.1,1.7-45.2,35-98.9,62.3-156.9,64.3q-1.1,0-2.3,0c-47.2,1.5-97.2-11.5-134.7-41.1-.5-.4-1-.8-1.5-1.2-29.2-23.3-46-55-50.4-92-7.3-68.2,19.2-134,53-191.8.7-1.2,1.4-2.4,2.1-3.6,6.5-11.2,13.1-22.5,19.9-33.6,26.6-44.2,43.4-91.1,56.1-140.8,7.9-31.1,16.8-61.6,30-91,.4-.9.8-1.8,1.2-2.7,9.7-21.5,21-44.9,36.1-63.2q2-2.1,1.7-5.2t-3.7-3.2c-6.9-5.8-10.8-12.9-12.3-21.8-1.2-13.7,1.1-25.2,10-36,7.4-8,16.8-13.5,27.8-14.3,12.8-.4,23.5.9,33.7,9.5,5.5,5.4,10.3,11,11.5,18.8,1.2-.4,2.4-.9,3.7-1.3,21.2-7.4,42.9-12.4,65.3-14.7.9,0,1.8-.2,2.8-.3,8.2-.8,16.3-1,24.6-1,.7,0,1.4,0,2.1,0,21.2,0,42.2,1.8,62.9,6.5q3.7.9,7.7.8c.2-.6.4-1.1.6-1.7,4.3-10.6,11.3-17.1,21.3-22.3,13.3-5.5,29.8-2.3,41.4,5.3Z"/>
  <path class="st9" d="M640,590.7c51.1,42.5,67.6,113.6,73.6,176.9,2.6,28.4,3.4,58.2-.6,86.5q-.2,1.5-.4,3c-6.1,43.4-18.6,88.8-54.6,117-16.9,12.7-36,20.7-56.6,25.2-.7.2-1.5.3-2.2.5-44.4,9.1-96.3-.2-134.5-24.7-5.6-3.9-10.7-8.3-15.6-13.1-.8-.7-1.6-1.5-2.5-2.3-19.7-18.6-29-44.4-32.5-70.7-.2-1.3-.4-2.7-.6-4-.2-1.4-.4-2.8-.6-4.2-.2-1.3-.4-2.6-.6-3.9q-.4-8.1,1.8-11.9c3-2.3,6.3-3.7,9.7-5.1,2-.9,4-1.9,6-2.8,1-.5,2.1-1,3.1-1.5,19.4-9.6,37.5-22.7,54.1-36.6.9-.7,1.8-1.4,2.7-2.2,15.9-13,31.5-28,43.3-44.8q.6-.9,1.3-1.8c15.3-21.5,26.3-46.3,22.4-73.3-2.9-15.8-9.8-29.7-23-39.2-14.2-8.8-32.9-9.6-48.9-6.4-27.3,6.8-47.5,22.5-68.1,40.8-17.5,15.4-37.4,28.9-61.8,28.3-10.3-.9-21.8-2.5-29.9-9.4-1-2.7-1.2-3.6-.1-6.3q2.1-1.7,5.9-1.7c4.2.6,8,1.8,12.1,3.1,19.2,5.5,38.2,1.4,55.5-7.9,5-2.9,9.4-6.3,13.7-10.1.8-.6,1.5-1.2,2.3-1.8,6.1-5.3,8.6-11.1,11.5-18.4,9.6-24.3,25.2-45.9,43.2-64.7q1.2-1.3,2.4-2.6c44.5-46.7,118.5-48,168.6-9.7Z"/>
  <path class="st8" d="M609.8,313.1c9.9,8.4,16.9,19,19.2,31.9,1.3,18.1.7,35.2-11,50-.6.9-1.2,1.7-1.8,2.6-11,11.6-26,16-41.5,16.7-20.9.5-42.5-2.7-58.7-17.1-9.4-10-13.9-23.5-14.3-37.1.6-18.3,6.8-35.2,20.2-47.9,22.9-19.5,64.5-16.5,88,.9Z"/>
  <path class="st0" d="M577.8,321.6c2.2,0,4.3,0,6.5,0,9,0,15.4.5,22.2,6.7,2.4,4.2,3.2,8.1,2.1,12.8-2.8,7.9-7.6,14.2-14.5,18.9-2,.7-4,1.4-6,2,.1,3.6.3,7.3.4,10.9,0,1,0,2.1.1,3.2,0,1,0,2,.1,3q0,1.4.1,2.8t1.2,3.1c2.7.5,4.4.4,6.7-1.1.6-.5,1.2-.9,1.8-1.4,2.6-2,3.5-2.5,6.8-3q2.8.5,4.7,1.6,1.1,1.9,1.2,4.6c-2.2,6-7.6,9.6-13.1,12.6-14.2,6.4-31.8,5.1-46.1-.3-7.4-3.3-14.7-6.8-20-13q0-3.2,1-6c3.6-2.4,4.8-2.6,9-2,2,1.1,3.9,2.4,5.9,3.7,5.9,3.7,12.1,4.6,19,4.9q2.3-.4,3.8-2.5c1.7-4.1,2.4-8,3-12.4.1-.8.3-1.7.4-2.5.3-2,.6-4.1.9-6.2-.7-.1-1.5-.2-2.2-.3-7.2-1.7-12.4-6.8-16.6-12.6-3.5-5.9-4-11.3-3.2-18,2.1-4.7,4.3-6.5,9.1-8.4,5-1.6,10.5-1.1,15.7-1.1Z"/>
  <path class="st2" d="M422,678q2,3,3,6c-19.7,18.7-41.3,36.5-69.9,36.3-10.3-.5-22.1-2.5-30.1-9.3-1-2.7-1.2-3.6-.1-6.3q2.1-1.7,5.9-1.7c4.2.6,8,1.8,12.1,3.1,19.2,5.5,38.2,1.4,55.5-7.9,9.2-5.2,16.4-12.6,23.7-20.1Z"/>
  <path class="st1" d="M536,677q1.9,1.2,3,3c-.5,5.4-3,7.2-6.9,10.6-6,4.8-12,9.4-18.1,14-1.7,1.3-3.4,2.6-5.1,3.9-.9.6-1.7,1.3-2.6,1.9q-1.1.8-2.1,1.6c-3.1,1.4-5,.9-8.2,0q-2-3-2-5.4c1.4-3.6,3.9-5.3,6.9-7.6,1.3-1,2.5-1.9,3.8-2.9q1-.8,2.1-1.5c4-3,7.9-6.1,11.9-9.2,1.5-1.2,3-2.4,4.6-3.6.6-.5,1.3-1,2-1.5,3.9-2.9,5.9-3.8,10.8-3.3Z"/>
  <path class="st6" d="M760.4,1345.7c4.3.6,5.8,3.1,8.5,6.3,7.4,10.6,15.1,24.7,13.1,38q-2,2-4.8,2.3c-3.8-1.5-3.9-2.2-5.5-5.8-.7-2-1.5-3.9-2.2-5.9-3.2-8.8-7.1-16.3-12.2-24.2-1.7-3-1.7-5-1.3-8.4q2-2,4.4-2.3Z"/>
  <path class="st10" d="M610.1,269.5c4.5,2.5,7.1,5.7,8.9,10.5.5,3.1.6,5.9,0,9q-2,2-4.5,2.2t-4.5-2.2c-.6-2-1-4.1-1.4-6.1q-.5-2.1-2.6-3.9-3-.6-6,0c-2.7,3.3-3.8,7-5,11q-4.4,1.3-6.8,0c-1.9-3.3-1.9-6.4-1.2-10.1,2-4.5,4.6-8.5,9-11,5-1.7,9.3-1.6,14.1.5Z"/>
  <path class="st3" d="M502.2,269.6c4.8,2.6,7.1,6.2,8.8,11.4q.4,6.2-1.2,9-1.8,1-4.5.7-1.1-.3-2.3-.7c-.2-.6-.4-1.3-.6-1.9-.3-.8-.5-1.6-.8-2.5-.3-.8-.5-1.6-.8-2.5q-.8-2.3-2.9-4.2c-2.7-.3-5.3,0-8,0-.1.7-.2,1.4-.4,2.1q-.3,1.4-.5,2.8c-.2.9-.3,1.8-.5,2.7q-.6,2.4-2.6,4.4c-3.3-.3-4.6-.6-7-3-.7-5.9.7-10.1,4-15,5.7-5.4,11.9-6.7,19.2-3.4Z"/>
  <path class="st7" d="M725.8,1359.4c3.6.7,4.1,1.1,6.3,3.9,6.1,9,10.2,19.8,8.9,30.8q-1.5,2.6-3,4t-5-1c-1.3-2.7-2.2-5.1-3-8-2.1-7.2-4-13.7-8-20-1.2-2.5-1.3-4.3-1-7q2-2,4.8-2.6Z"/>
  <path class="st11" d="M809,925q2.5-.3,5,0,2,2,2.3,4.9-.1,27.9-6.3,34.1-2.6-.2-5-1c-1.9-3.9-.6-8.6-.2-12.8.2-2.5.4-4.9.6-7.4.2-1.8.3-3.6.5-5.4,0-.9.1-1.8.2-2.7,0-.8.2-1.7.2-2.5,0-.7.1-1.5.2-2.2q.4-2,2.4-5Z"/>
</svg>