<?xml version="1.0" encoding="UTF-8"?>
<svg id="Layer_1" xmlns="http://www.w3.org/2000/svg" version="1.1" viewBox="0 0 1024 1024">
  <!-- Generator: Adobe Illustrator 29.0.1, SVG Export Plug-In . SVG Version: 2.1.0 Build 192)  -->
  <defs>
    <style>
      .st0 {
        fill: #fe1507;
      }

      .st1 {
        fill: #df2500;
      }

      .st2 {
        fill: #e02500;
      }

      .st3 {
        fill: #fff;
      }

      .st4 {
        fill: #fead9e;
      }

      .st5 {
        fill: #e32400;
      }

      .st6 {
        fill: #df2600;
      }

      .st7 {
        fill: #fe2a00;
      }
    </style>
  </defs>
  <path class="st7" d="M500.7,155.4c8,1.5,14.1,8,19.9,13.4,2.1,2,4.3,3.8,6.5,5.7,7.2,6.3,13.6,13.1,19.6,20.6,2.5,3.1,5.2,6,7.9,8.9,4.3,4.6,8.4,9.4,12.3,14.4,2.2,2.6,4.4,5.1,6.7,7.6,3.1,3.4,6.1,6.9,8.9,10.4,5.8,7.2,12,14,18.6,20.6,0-.7,0-1.4,0-2.1.1-3.3.2-6.5.4-9.8,0-1.1,0-2.2.1-3.3.2-5.6.5-11.2.8-16.7.5-7.1.7-14.1.8-21.2,0-1.7,0-3.5,0-5.2,0-2.7,0-5.3,0-8,0-2.6,0-5.3,0-7.9,0-.8,0-1.6,0-2.4,0-4.2.4-5.8,3-9.2q2.7-2,6-2.3c8.7,3.1,14.3,12.2,19.7,19.3q1.2,1.5,2.4,3c9.7,12.6,17.6,26.4,25.6,40,.4.6.8,1.3,1.1,1.9,8.1,13.6,16,27.3,23.9,41.1h2c2.5-13.5,4.5-26.9,5.5-40.6,0-1.2.2-2.3.2-3.5.2-2.3.3-4.6.4-6.9q.7-10.4,3.9-14.9,3.2-1.2,7-1c6.7,3.8,9.7,10.3,12.9,16.9,1,1.9,1.9,3.9,2.9,5.8.5,1,1,2,1.5,3,1.5,2.9,3,5.8,4.6,8.7,4.4,8.1,8.3,16.3,12,24.7,1.3,2.9,2.6,5.8,3.9,8.7q.5,1.1,1,2.3c2.4,5.3,4.8,10.7,7.3,16,.3.8.7,1.5,1.1,2.3.7,1.5,1.4,3.1,2.1,4.6,6,13,11.9,26.1,17.8,39.3,7.5,17,15.1,33.9,22.9,50.8.3.7.6,1.3.9,2,7.3,15.9,14.6,31.7,23.1,47q.7,1.3,1.4,2.6c9.7,17.5,20.1,33.6,33.6,48.4.6.7,1.2,1.4,1.8,2.1,13.2,14.2,31.5,23,50.1,27.4,1.4.3,2.8.7,4.2,1.1,4.1,1.1,8.2,1.8,12.4,2.2,8,1.2,12.7,4.5,17.5,10.8,3.1,5.5,2.8,11.4,2,17.4-1.8,6.2-6.3,12.7-11.8,16.1q-2.2.9-5.2,1.1t-4.9,3.9c-.6,1.3-1.2,2.7-1.7,4-6.7,14.6-17.2,26.5-28.4,37.9-.6.7-1.3,1.3-1.9,2-8,8.2-16,16-25.1,23-1.1.9-2.1,1.8-3.2,2.6-30.5,25.2-65.2,44.7-100.2,62.9-1.1.6-2.2,1.1-3.3,1.7q-18.8,9.7-22.3,9.7-.9,42.1,13,79.3c3.9,3.4,8.6,5.1,13.2,7.1,11.2,5.1,21.2,9.9,26.8,21.6,1.7,5,1.6,9.4-.2,14.2-3.4,5.3-6.3,7.4-12.3,9.1-7.9,1.4-16.1.9-24.1.8-1.9,0-3.8,0-5.6,0-4.6,0-9.2,0-13.7-.1-.2.6-.4,1.2-.5,1.9-.2.8-.5,1.6-.8,2.4-.2.8-.5,1.6-.7,2.4-2.2,5.2-6.4,7.6-11.3,9.8-5.8,2.1-11.7,1.9-17.8,1.9-1.3,0-2.5,0-3.8,0-2.7,0-5.3,0-8,0-2.7,0-5.4,0-8.1,0-21.5.2-39.9-.5-56.7-15.7-6.6-7.2-11.2-15.5-14.2-24.7-.3-.8-.5-1.5-.8-2.3-3.5-11.1-5.7-22.5-8.1-33.9-.5-2.3-1-4.6-1.5-6.9-2-9.4-4.9-18.5-6.8-27.9-1-.3,0-1.4-1.1-1.8.7,0-.9-1.1-.2-1.1-5.6-15.2-12.6-23.1-27.4-30.1-21.9-9.6-47.3-9.6-70.8-9.5-3.1,0-6.2,0-9.3,0-17.2,0-34.3,1.4-51.1,5.7-.9.2-1.7.4-2.6.6-20,5.1-41.7,13.6-57.5,27-.8.6-1.5,1.2-2.3,1.8-10.4,8.5-15.5,18.8-20.7,31.2h54c1,5.3,2,10.6,3,16,3.8,5.8,4.6,6.8,10.4,9.4.6.3,1.2.6,1.8.9,1.9.9,3.8,1.8,5.8,2.7,9.4,4.3,17.4,8.1,22.9,17.2,1.8,6.6,2.2,12.9-.2,19.3-10,9.3-25.4,7-38,6.8-2.8,0-5.6,0-8.4,0-.9,0-1.7,0-2.6,0q-4.5,0-8.3,2.1-1.5,1.8-3.4,4.7c-9.4,6.2-21.3,8.2-32.4,8.1-.7,0-1.4,0-2.1,0-1.4,0-2.9,0-4.3,0-2.1,0-4.3,0-6.4,0-3.5,0-7.1,0-10.6-.2-1.4,0-2.9,0-4.3,0-17.8-.2-35.1-3.3-48.4-16.1-7.2-7.8-10.9-17.7-14.3-27.5-.7-2-1.4-4-2.1-6-.9-2.6-1.9-5.2-2.8-7.8-6-16.7-13.9-31.3-23.8-46q-3.5-5.2-3.5-7.4-1.8.5-3.6,1.1c-15.3,4.6-30.8,7.9-46.4,10.9q-1.4.3-2.8.6-21.4,4.3-27.5,1.4-1.7-1.9-2.3-5.1c.7-5,2.7-8.2,5.4-12.4.5-.8,1-1.6,1.5-2.4,3.8-6,7.9-11.8,12.1-17.5,2.8-3.8,5.5-7.7,8.2-11.6q.7-1,1.4-2c4-5.9,8-11.9,12-17.9-.3-.3-.7-.7-1-1-2.5.5-4.9,1-7.4,1.6-9.9,2.2-19.8,3.7-29.8,5.1-.8.1-1.5.2-2.3.3-2.2.3-4.5.6-6.7,1-1.3.2-2.6.4-3.9.6q-11.8,1.2-16.8-2.6-1-1-1.2-3.8c.7-9.7,10.9-19.1,16.8-26.5,2.2-2.8,4.4-5.6,6.5-8.5,6.7-8.7,13.7-17.1,20.8-25.5q7.4-8.6,14-17.8c-.6.2-1.1.3-1.7.5-2.5.6-5,.8-7.5,1-1,0-2.1.2-3.2.2-1.1,0-2.3.2-3.4.2-1.2,0-2.4.2-3.6.3-2.5.2-5,.4-7.5.5-3.8.3-7.5.6-11.3.8-11.7.9-23.5,1.6-35.3,1.7-1,0-2,0-3,0-5.8,0-9.2-.5-13.6-4.5-.9-4.3-.9-6.4,1.3-10.2,1.8-2.4,3.7-4.6,5.7-6.8.7-.8,1.5-1.7,2.2-2.5,1.5-1.7,3-3.4,4.6-5.1,2-2.1,3.9-4.3,5.8-6.5,3-3.5,6.2-6.7,9.5-9.9,1.9-1.9,3.6-3.9,5.3-5.9,2.5-2.9,5.1-5.5,8-8,6.6-5.9,12.7-12.1,18.9-18.3,1.2-1.2,2.3-2.3,3.5-3.5,2.1-2.1,4.3-4.3,6.4-6.4,2.6-2.6,5.2-5.2,7.8-7.8-.7-.1-1.4-.2-2.2-.4-1-.2-2.1-.3-3.1-.5q-1.8-.3-3.5-.6c-2.6-.4-5.3-.9-7.9-1.3-6.8-1.1-13.6-2.3-20.5-3.4-3.2-.5-6.4-1.1-9.7-1.6-1.6-.3-3.1-.5-4.7-.8q-13.8-2.3-20.3-3.5c-.7-.1-1.5-.3-2.2-.4-4.5-1.2-7.4-3.6-9.9-7.5-.5-3-.6-5,1-7.7,3.5-4.5,7.8-7.2,12.7-10.2,4.1-2.6,7.9-5.4,11.7-8.2,16.4-12,34-22,51.6-31.9,1.1-.6,2.2-1.2,3.4-1.9,7.2-4,14.4-8.1,21.6-12.1v-2q-.9-.4-1.9-.9c-11.6-5.5-23.2-11.1-34.7-16.9-5.3-2.7-10.7-5.4-16-8-2.2-1.1-4.4-2.2-6.7-3.3l-2.9-1.4-2.8-1.4c-1.1-.5-2.1-1-3.2-1.6-3-1.5-4.8-2.7-6.8-5.4-.6-3.7-.3-5.4,1.5-8.6,6.6-6.3,16.5-8.8,24.9-11.8.7-.3,1.4-.5,2.2-.8,19.9-7,40.3-12.1,60.7-17.3,7.3-1.9,14.5-3.8,21.8-5.8,3-.8,6-1.6,9-2.4,1.6-.4,3.2-.9,4.8-1.3-1.7-3.8-3.8-5.9-6.9-8.7-.5-.4-1-.9-1.5-1.3-3.2-2.9-6.6-5.6-10-8.4-4.2-3.4-8.2-6.9-12.1-10.6-4.8-4.5-9.8-8.8-14.9-12.9-3.2-2.6-6.3-5.4-9.4-8.2-2.8-2.5-5.7-5-8.6-7.5-2.4-2.3-2.5-3.5-2.9-6.8q.4-3.6,2.3-5.9c6.4-3.5,13.5-4,20.6-4,.8,0,1.6,0,2.5,0,2.7,0,5.4,0,8.1,0,.9,0,1.9,0,2.8,0,17.1,0,34.2,1,51.2,2.3,1.2,0,2.3.2,3.5.3,13.1,1,26.2,2.2,39.3,3.9-3-8.1-6.8-15.5-10.9-23.1-1.3-2.5-2.7-4.9-4-7.4-.3-.6-.7-1.2-1-1.9-3.5-6.4-6.9-12.9-10.2-19.4-.5-1-1.1-2-1.6-3.1-1-1.9-1.9-3.8-2.9-5.6-.8-1.6-1.7-3.3-2.5-4.9-2.3-4.5-3.5-7.5-2.8-12.7,1.8-2.8,3.1-4.5,6-6,7.6-.7,14.1,1.5,21.3,3.8.6.2,1.3.4,1.9.6,12.8,4,25,9.3,37.1,15,3.9,1.8,7.8,3.6,11.7,5.4,17,7.7,34,15.5,50.9,23.3l1-1c-.4-2.5-.9-5-1.5-7.5-.2-.8-.3-1.6-.5-2.4-.6-2.6-1.2-5.1-1.8-7.7-.2-.9-.4-1.7-.6-2.6-3.1-13.5-6.8-26.7-11.5-39.8q-4.6-13.2-3.1-19.9,1.3-1.7,3-3c8.4-1.2,14,1.9,21.2,5.9q1.7.9,3.4,1.8c7.6,4.1,14.7,8.5,21.5,13.8,2.3,1.8,4.6,3.5,6.8,5.2,3.6,2.8,7.2,5.5,10.9,8.3,4.5,3.5,9.1,6.9,13.6,10.3,6.7,5,13.3,10.1,19.8,15.3,1.8,1.5,3.7,2.9,5.5,4.3.6.5,1.2,1,1.9,1.5,1.2.9,2.4,1.8,3.5,2.8,2.7,2.1,5.4,4.3,8,6.5q2.6,2.4,5.8,3.2c0-.6-.1-1.2-.2-1.8-.6-6-1-12-1.3-18.1,0-.9,0-1.8-.1-2.7-.1-2.9-.3-5.7-.4-8.6-.5-11-1-21.9-1.8-32.9-.3-3.8-.4-7.7-.5-11.5,0-1.3,0-2.6-.1-4q.4-3.4,2.3-5.8,2.1-1.6,4.8-2.2Z"/>
  <path class="st4" d="M485.3,711.7c3.1,0,6.2,0,9.3,0,29.5,0,62.2.5,85.4,21.3,5.3,5.6,11,13,11,21-.7,0,.7,0,0,0,0,.7,1.4,1.3-2,2-33,9-66.7,15.1-100.8,18.7-2.7.3-5.4.6-8.1,1-25.5,3.3-58.3,3.5-83.6,3.4,0,2.3-1.4,2.7-1.4,0-17.8,0-28.8,0-47.1,0,6.2-20.6,19.7-33.9,38.3-44.1,31.1-16.6,64-23.5,99.1-23.2Z"/>
  <path class="st5" d="M731,716h1c1,9.8,2,19.5,2.7,29.3q.5,26.7,11.3,49.6c4.3,3.6,9.2,5.7,14.3,7.9,10.8,5,20.3,9.9,25.7,21.1,1.7,5,1.6,9.4-.2,14.2-3.4,5.4-6.3,7.4-12.3,9.1-7.7,1.4-15.7.9-23.5.8-1.8,0-3.7,0-5.5,0-4.5,0-8.9,0-13.4-.1-.2-1-.4-2-.6-3.1-.3-1.4-.5-2.7-.8-4.1q-.2-1-.4-2c-1.6-8.1-4.9-13.2-11.4-18.1-3.5-2.4-7.2-4.5-10.9-6.7-15.5-9-21.9-17.4-27-34.3-1.5-5.9-2.7-11.6-3-17.7,0-.6,0-1.3,0-1.9,0-2.2-.2-4.5-.2-6.7,0-.7,0-1.4,0-2.2,0-4.2.4-7.9,2.8-11.6,6.9-7,19-9.9,27.9-13.3,2.4-.9,4.9-1.9,7.3-2.8,1.1-.4,2.2-.9,3.4-1.3,2.4-1,4.8-2,7.2-3q2.8-1.2,5.8-1.2v-2Z"/>
  <path class="st5" d="M348,779h54c1,5.3,2,10.6,3,16,3.8,5.8,4.6,6.8,10.4,9.4q.9.4,1.8.9c1.9.9,3.8,1.8,5.8,2.7,9.4,4.3,17.4,8.1,22.9,17.2,1.8,6.6,2.2,12.9-.2,19.3-8.7,8.1-20.8,7-32,6.9-2.9,0-5.7,0-8.6,0-1.8,0-3.6,0-5.4,0q-1.3,0-2.6,0-6,0-7.1-1.2c-.2-2-.5-4-.7-6.1-1.3-8.6-4.6-13.1-11.4-18.4-6-4-12.7-6.6-19.4-9.3-5.3-2.1-9.4-4.2-13.5-8.3-3.3-9.9.2-19.2,3-29Z"/>
  <path class="st6" d="M636,400q15.1,14.4,15.5,23.4c-.2,1.2-.3,2.4-.5,3.6-3.1,2.1-5.2,2.7-9,2.6-3.6-1.1-4.7-4-6.6-7.1-3.7-6.3-9.1-12.7-16.2-15.1-6.5-1.2-15.1-1.6-21.4.6-4.5,3.1-6.5,7.2-8.9,12-1.2,15.1,2.3,25.3,12,37,4.9,5.4,10.4,10.3,16,15-.3,1.7-.7,3.3-1,5h-2v2c-2.8,1.4-4.8,1.3-8,1-15.6-8.4-26.5-23.5-32-40-2.6-12.7-.9-24.5,5.6-35.7,5.2-7.2,12.1-12.5,21-14,13.4-1.4,24.6,1.5,35.4,9.8Z"/>
  <path class="st5" d="M927.3,523.7c6.2,2.7,11.2,8,13.7,14.3,1,9.2,0,15.6-5.5,23-3.5,4.3-6.3,6.4-11.7,7.9-6.2.2-11.2-1.6-16-5.6-5.1-5.5-7.4-10.7-8.5-18,.3-7.3,4.7-14.9,9.7-20,5.3-3.9,12.2-3.3,18.2-1.6Z"/>
  <path class="st3" d="M788.9,601.6c2.7,1.8,4.3,4,6.3,6.7,7.8,9.7,16.6,13.9,28.8,15.8,8.1.6,16,.1,24-1,3.4,4.5,3.4,7.6,3,13-4.6,4.6-12.9,3.2-19.1,3.2-1.1,0-2.1,0-3.2,0-16.6,0-30.6-5.6-42.7-17-3-3.3-4.6-6.1-6-10.3q.2-2.8,1-5c.3-1,.7-2,1-3q4.2-3.3,6.9-2.4Z"/>
  <path class="st1" d="M487,302c3.5,1.7,6.7,3.9,10,6.1,1.9,1.3,3.9,2.6,5.8,3.9,1,.7,2,1.3,3,2,3.1,2,6.3,3.9,9.5,5.8,1,.6,2.1,1.2,3.1,1.9,2,1.2,4,2.3,6,3.5,5.2,3.1,9.2,5.7,12.5,10.8,0,3.9,0,6-2.8,8.9-2.7,1.3-4.3,1.3-7.2,1.1q-2.3-1.1-4.6-2.6c-.9-.6-1.7-1.1-2.6-1.7-.9-.6-1.9-1.2-2.8-1.9-2-1.3-3.9-2.6-5.9-3.9-1-.7-2-1.3-3-2-5.6-3.6-11.3-7.1-17-10.5q-14.3-8.8-16.4-13.5.3-2.9,2.3-5.8c3.9-2.7,5.3-2.7,10-2.1Z"/>
  <path class="st1" d="M350,335c3.4.8,6.6,1.8,9.9,3q1.4.5,2.8.9c2.9,1,5.9,2,8.8,2.9,2,.7,3.9,1.3,5.9,1.9,5.2,1.7,10.4,3.5,15.6,5.2.8.3,1.5.5,2.3.8,3.6,1.3,6.2,2.3,8.7,5.2q.4,2.2.4,4.5c0,.8,0,1.5,0,2.3q-.5,2.2-2.2,3.8c-2.8,1.6-3.8,1.5-6.9.7-.9-.2-1.8-.4-2.7-.6-4.1-1.1-8.1-2.4-12-3.9-.8-.3-1.7-.6-2.6-.9-1.8-.6-3.6-1.3-5.3-1.9-2.7-1-5.4-1.9-8.1-2.9q-23.7-8.4-26.6-11.2c-.5-3.5-.4-5.3,1.5-8.4,3.5-2.2,6.5-2,10.5-1.6Z"/>
  <path class="st1" d="M432.2,509.8c.7,0,1.4,0,2.2,0q5.1,0,7.6,1.6c1.8,2.9,1.4,5.4,1,8.7-1.6,2.3-2.7,2.9-5.4,3.6-.9.1-1.9.2-2.9.3q-1.6.2-3.2.4c-1.1.1-2.2.2-3.4.3q-1.7.2-3.5.4c-3.2.3-6.5.7-9.7,1-1.3.1-2.6.3-4,.4-3.4.3-6.7.5-10,.6q-1.4,0-2.7,0c-3.1,0-6.3.2-9.4.2q-1.5,0-3.1,0-7.2,0-10.5-2.3c-1.7-2.7-2-4-1.4-7.1,2.2-2.8,3.6-3.9,7-5,2-.2,3.9-.4,5.9-.5,1.2,0,2.4-.2,3.6-.2q1.9-.1,3.8-.2c1.2,0,2.4-.2,3.7-.2,2.4-.2,4.9-.3,7.3-.5,3.7-.3,7.4-.5,11-.8,5.3-.4,10.5-.7,15.8-.7Z"/>
  <path class="st3" d="M758.2,505.5c5.8,4.7,9.2,10.2,10.8,17.5q.4,6.2-1.1,8.9c-3,1.7-5.6,1.4-8.9,1.1-2.5-2.5-2.6-4-3.3-7.4-1-3.8-1.4-5.4-4.2-8.2-4.3-2.4-7.6-2.7-12.5-2.4-4.7,2.1-7.9,5.3-9.8,10-.5,1.4-1,2.8-1.4,4.2q-.7,1.8-2.7,3.8-3.5.2-7,0-2-2-2.4-5.5c.2-7.8,5.1-15.1,10.4-20.5,9.9-7.3,21.6-8.6,32.2-1.5Z"/>
  <path class="st1" d="M298,538c2.7,2.4,3.8,4,4.5,7.6-.7,3.4-1.7,4.3-4.5,6.4-3.3,1-6.7,1.4-10.1,1.9-1,.1-2,.3-3,.4-3.1.5-6.3.9-9.4,1.4-3.1.5-6.3.9-9.4,1.4-2,.3-3.9.6-5.9.8q-1.3.2-2.7.4t-2.4.3c-2.1.3-4.1.8-6.2,1.4-4.3.5-7.8.7-11.6-1.6q-1.4-2.4-1.4-6c1.1-3.9,1.6-4.5,5-6.4,2.5-.6,4.9-1.1,7.5-1.5.7-.1,1.5-.2,2.2-.4,2.4-.4,4.7-.8,7.1-1.2,1.5-.3,3.1-.5,4.6-.8q27.7-4.6,35.6-4.2Z"/>
  <path class="st2" d="M272,431.8c6.4,0,12.7.7,19.1,1.5,1,.1,2,.3,3.1.4,2.1.3,4.3.5,6.4.8,3.3.4,6.5.8,9.8,1.2,2.1.3,4.2.5,6.2.8,1,.1,1.9.2,2.9.4q10.8,1.4,14.5,5.1c.4,3.4.4,5.3-1.4,8.4-7.1,4.4-18.6,1.1-26.6,0-2.1-.3-4.3-.5-6.4-.8-7.2-.9-14.3-1.9-21.5-3.1-1.3-.2-2.6-.4-3.9-.6-3.6-1.1-5.1-2-7.3-5q.3-8.7,5-9.2Z"/>
  <path class="st2" d="M454,424c3.3.6,6.5,1.3,9.7,2.1.9.2,1.8.4,2.8.7,1.9.5,3.9.9,5.8,1.4,2.9.7,5.9,1.4,8.8,2.1,1.9.4,3.8.9,5.7,1.3.9.2,1.7.4,2.6.6,4.4,1,8.7,2.1,13,3.3.8.2,1.6.4,2.5.7q2,.9,4,3.9.4,2.9,0,6t-5,4c-7.3,0-14.3-1.6-21.3-3.4-.9-.2-1.9-.5-2.8-.7-1.9-.5-3.9-1-5.8-1.5-3-.8-5.9-1.5-8.9-2.3-1.9-.5-3.8-1-5.7-1.5-.9-.2-1.8-.4-2.7-.7-4.3-1.1-8.3-2.2-11.8-5-1.1-3.7-1.5-5.9,0-9.4,3-2.4,5.2-1.8,9-1.6Z"/>
  <path class="st2" d="M369,618c2.4,3.6,2.2,5.7,2,10-8,4.1-16.1,7.9-24.4,11.5-1.1.5-2.2.9-3.3,1.4-2.1.9-4.3,1.9-6.4,2.8-2.5,1.1-4.9,2.2-7.4,3.3-.6.3-1.3.6-1.9.9-1.6.7-3.2,1.5-4.7,2.2-3.7,1.1-6.2.8-9.9-.2-2.4-3.5-2.7-4.9-2-9,4.6-4.6,9.8-7.1,15.7-9.8.9-.4,1.8-.9,2.8-1.3,6.3-2.9,12.7-5.7,19-8.5q1.2-.5,2.4-1c6.4-2.7,11.2-4,18.1-2.4Z"/>
  <path class="st1" d="M507,576q2.5,1.6,4,4,0,3.6-1,7c-3.5,3.5-8.1,4.6-12.6,6.1-1.8.6-3.6,1.2-5.4,1.8-1,.3-1.9.7-2.9,1-3.3,1.1-6.7,2.3-10,3.5-1.2.4-2.3.8-3.5,1.2-2.3.8-4.6,1.6-6.8,2.4-1.1.4-2.1.7-3.2,1.1-.9.3-1.9.7-2.8,1q-7.6,2.3-11.1.9c-2.1-2.6-2.5-4.7-3.1-8q.4-2,2.3-4.1c4.3-2.7,8.7-4.2,13.5-5.7,2.1-.7,4.1-1.4,6.2-2.1,1.1-.4,2.1-.7,3.2-1.1,3.2-1.1,6.4-2.2,9.6-3.4,1-.4,2.1-.7,3.1-1.1,2-.7,3.9-1.4,5.9-2.1,5.1-1.8,9.2-3,14.6-2.4Z"/>
  <path class="st0" d="M918,568h2c-.5,4.4-1.5,7.3-4,11-.3-.7-.7-1.3-1-2,.6-1.3,1.3-2.7,2-4,.4-1.7.7-3.3,1-5Z"/>
</svg>