<?xml version="1.0" encoding="UTF-8"?>
<svg id="Layer_1" xmlns="http://www.w3.org/2000/svg" version="1.1" viewBox="0 0 1024 1024">
  <!-- Generator: Adobe Illustrator 29.0.1, SVG Export Plug-In . SVG Version: 2.1.0 Build 192)  -->
  <defs>
    <style>
      .st0 {
        fill: #f91f09;
      }

      .st1 {
        fill: #e52202;
      }

      .st2 {
        fill: #fff;
      }

      .st3 {
        fill: #e42001;
      }

      .st4 {
        fill: #feb49b;
      }

      .st5 {
        fill: #fef7f5;
      }

      .st6 {
        fill: #f9350d;
      }

      .st7 {
        fill: #febca1;
      }

      .st8 {
        fill: #fed5ca;
      }

      .st9 {
        fill: #e52103;
      }

      .st10 {
        fill: #b01a15;
      }

      .st11 {
        fill: #fcf2ee;
      }
    </style>
  </defs>
  <path class="st6" d="M593.3,45c4.3,1.2,6.6,3.2,9.6,6.4.5.5,1,1.1,1.6,1.6,4,4.2,7.7,8.6,11.3,13.2,2,2.5,4,4.9,6.1,7.2,19.1,22.1,35.5,47.4,50.2,72.6q.6,1.1,1.3,2.2c12.2,21.2,24.5,44.1,26.7,68.8.6-.2,1.3-.4,1.9-.6,8.9-2.8,16.8-3.6,26.1-3.4,0-.6.1-1.2.2-1.8,3.7-24,15.6-47,26.8-68.2q.6-1.1,1.2-2.2c15.3-29.4,35.2-56.6,56.8-81.8.7-.8,1.3-1.6,2-2.5,3.3-3.9,6.3-7.3,11-9.5q3.1-.1,6,1c8.4,8.6,8.2,25.2,8.2,36.6,0,1,0,1.9,0,2.9-.4,53.5-5,106.2-32.2,153.3q-1.2,2.2-1,5.1,1.9,2,4.4,4c5.6,4.9,10.1,10.1,14.6,16,.6.8,1.2,1.6,1.8,2.4,7.6,10.3,12.9,22.1,17.1,34.1,1.1,2.7,1.9,3.8,4.1,5.6q2.5.8,5.5,1.2c1.1.2,2.3.4,3.4.6,1.2.2,2.5.4,3.7.6,1.3.2,2.6.4,3.9.6,15.8,2.6,31.8,4.7,47.7,6.8q29.5,3.9,41.4,6.2c.8.1,1.5.3,2.3.4,5,1,8.8,2.7,13.1,5.5,3.5,6.9-1,17.6-3.2,24.5-10.1,29.6-32.1,52.6-59.3,67-16.4,7.9-34,12-51.7,15.8-2.2.5-4.5,1-6.7,1.5-8.3,1.9-16.7,3-25.1,3.9q-7.1.6-12.9,4.2-.4,1.9-.6,4.1c0,.8-.1,1.6-.2,2.4-.3,3.6-.5,7.2-.7,10.8,0,1.6-.2,3.2-.2,4.8,0,.8,0,1.6-.1,2.5-2.2,45.9-8.3,88.9-28,130.9q-.6,1.3-1.2,2.5c-.3.7-.6,1.3-1,2-2.5,5.3-3.9,10.1-4.8,15.9-.1.8-.3,1.7-.4,2.6-.4,2.8-.9,5.6-1.3,8.3-.1,1-.3,1.9-.4,2.9-2.6,16.7-4.4,33.5-6,50.4-.1,1.1-.2,2.2-.3,3.3-1.9,20.7-3,41.2-3,62,0,.9,0,1.8,0,2.7,0,46.2,1.9,110.3,23.2,152.9,2.8.4,5.5.7,8.2.9,14.7,1.4,28.8,5.4,39.2,16.5,5.3,6.5,8.3,12.8,8,21.4-.7,3.6-2.6,5.2-5.5,7.2-3.4,1.1-6.1,1.1-9.8,1.2q-1,0-2.1,0c-2.3,0-4.5,0-6.8,0q-1.2,0-2.4,0c-4.1,0-8.2,0-12.4,0-4.2,0-8.5,0-12.7,0-3.3,0-6.6,0-9.8,0-1.6,0-3.1,0-4.7,0q-19.9.2-27.3-6.1c-3.6-3.8-5.8-8.3-7.8-13.2-.3-.8-.7-1.5-1-2.3-1.1-2.6-2.2-5.2-3.2-7.8-.4-.9-.8-1.8-1.1-2.8-16.7-41.4-29.5-84.4-38.4-128.2-.4-1.9-.8-3.8-1.2-5.7-6.8-33.5-8.9-67.3-9.2-101.3-.6.2-1.2.4-1.7.6-11.3,3.7-22.5,7.2-34.1,9.7q-3,.6-5.1,1.7c-1.3,3.5-2,7.2-2.9,10.9-.3,1.1-.5,2.2-.8,3.4-5.8,25.4-7.5,50.3-7.5,76.3,0,1.2,0,2.4,0,3.6,0,17.7.3,35.3,2.2,52.9.1,1.3.3,2.7.4,4,1.5,15.2,3.5,30.3,6.2,45.3.2,1.1.4,2.2.6,3.4.2,1,.4,2.1.6,3.1.2.9.3,1.8.5,2.7.8,2.9,2,5.1,3.7,7.5q2.9.8,6.3.9c12,1.3,20.8,6.6,28.8,15.5,4.5,6.2,6.1,12,4.9,19.6-2.1,3.6-3.1,4.7-7,6-2.2.1-4.3.2-6.5.2q-1,0-2,0c-2.2,0-4.3,0-6.5,0q-1.1,0-2.3,0c-3.9,0-7.9,0-11.8,0-4.1,0-8.1,0-12.2,0-3.1,0-6.3,0-9.4,0-1.5,0-3,0-4.5,0-10.2.1-19.9-.4-28.3-6.8-4.4-4.5-6.9-9-8.8-15-.4-1.3-.8-2.5-1.2-3.8-.4-1.4-.8-2.8-1.2-4.1-.2-.7-.4-1.4-.6-2.2-9.8-33-16.7-66.5-21.7-100.6-.2-1.2-.4-2.4-.5-3.6-2.7-19-4-38.1-5.3-57.2-.1-2-.3-4-.5-5.9-1-14-.8-28-.8-41.9,0-3.7,0-7.5,0-11.2,0-2.9,0-5.8,0-8.8,0-2,0-4.1,0-6.1,0-8.5.4-16.8,1.1-25.2q-1.5-.1-3-.3c-9.8-1-19.4-3-29-5.1-12.5-2.7-25-5.2-37.5-7.7l-4.9-1c-.8-.2-1.6-.3-2.4-.5-4-.8-8-1.6-12-2.5-10.6-2.3-21.1-4-31.9-5.2-1.5-.2-3-.3-4.5-.5-3.6-.4-7.2-.8-10.8-1.2q-.2.9-.3,1.8c-1.2,6.4-2.9,12.3-5.1,18.4-.3.9-.6,1.7-.9,2.6-1.7,4.8-3.6,9.5-5.7,14.2.6.2,1.1.3,1.7.5,7.1,2.1,14.1,4.4,21.1,6.8,11.6,3.9,23.3,7.5,35.2,10.7,1.8,5.2,0,9.5-1.4,14.6-.3.9-.5,1.8-.8,2.8-7.9,26.2-20,50.8-37.7,71.6-6.1,7.4-12.1,14.9-17.7,22.8-.4.6-.8,1.2-1.3,1.8-5,7-4.6,13.6-3.3,21.8.4,2,.7,4.1,1.1,6.1q.3,1.7.6,3.4c2.2,11.6,4.9,23,7.5,34.5.2.9.4,1.8.6,2.8,2.5,10.7,5.1,21.4,8.3,31.9,1.3.2,2.6.3,4,.5,16.4,2.2,31.5,4.9,42.5,18.3,4.2,6,6.6,11.8,5.5,19.1-3.1,4.2-6,5.6-11,7q-3,.3-6.1.3t-3.6,0c-1.3,0-2.5,0-3.9,0-1.3,0-2.7,0-4,0-2.8,0-5.6,0-8.4,0-3.6,0-7.1,0-10.7,0-2.8,0-5.5,0-8.3,0-1.9,0-3.9,0-5.8,0-10.6,0-18.7-2.2-26.5-9.5-25.2-27.4-33-76.7-41.8-112-.3-1-.5-2.1-.8-3.1-3.8-15.7-4.8-27.6,1.9-42.4,3.2-7.2,5-14.8,6.9-22.4.2-.7.3-1.3.5-2q1.9-7.4,2.5-15c-.7.6-1.3,1.3-2,1.9-13.6,12.8-28.2,23.5-44.4,32.6-8.1,4.6-15.9,9.2-23.3,14.7-.6.5-1.3.9-1.9,1.4-8.1,6.2-13.5,12.9-15.1,23.1-.2,1.8-.5,3.7-.7,5.5-.1,1-.2,2-.4,3-1.3,10.8-2.2,21.6-3,32.5-.3,3.3-.5,6.7-.8,10-1,13.4-1.5,26.7-1.3,40.2,1.3.3,2.5.6,3.8.9,11.8,3,24,6.2,31.1,17,3.3,6,4.9,11.1,4.1,18-1.9,3.4-3.2,4.7-6.8,6.1-3.2.9-5.8,1.1-9.2,1.2-1.1,0-2.3,0-3.5,0-1.2,0-2.5,0-3.7,0q-1.9,0-3.9,0c-2.7,0-5.4,0-8.1,0-3.4,0-6.9,0-10.3,0-3.3,0-6.6,0-9.9,0-1.2,0-2.4,0-3.7,0-9.2,0-18.1-1-25.5-6.9-6.3-6.4-6.4-15.2-7.1-23.7-.1-1.2-.2-2.4-.4-3.7-1.6-18-2.1-36-2.1-54.1,0-1.9,0-3.8,0-5.8,0-4,0-8,0-11.9,0-5.1,0-10.2,0-15.2,0-3.9,0-7.9,0-11.8,0-1.9,0-3.7,0-5.6,0-2.6,0-5.2,0-7.8,0-.8,0-1.5,0-2.3,0-14.1,4.1-22.5,11.9-34.1,21.5-31.9,32.8-68.5,39-106.3q.2-1,.4-2.1c2.2-14.7,2.2-29.6,2.5-44.4,0-2,0-4,.1-6,.1-4.9.2-9.7.3-14.6-3.4,10.6-6.7,21.1-9.4,31.9-.6,2.3-1.2,4.6-1.8,6.9-.3,1.2-.6,2.4-.9,3.6-10.4,40.1-24.3,76.6-49.9,109.6-.7.9-1.4,1.8-2.1,2.8-4.7,6-9.7,11.7-14.9,17.2-.5.5-1,1-1.4,1.5-22.5,24-50.7,36.1-82.6,42.5-1.2.2-2.4.5-3.6.8-17.7,3.1-39.5,4-55.8-4.5q-2.6-2.2-4-5.1c.5-5,3.7-7,7.4-10.1,1.5-1.3,3-2.7,4.5-4,.7-.7,1.5-1.4,2.3-2,36.7-34.3,60.8-84,83.9-127.9,25.3-47.9,54.5-97.6,98.2-131.1,1-.8,2-1.6,3-2.4,35.5-28,76.7-46.4,121.3-53.8.9-.2,1.8-.3,2.7-.5,21.6-3.3,43.5-3.7,65.3-4.3q79.3-2,145.3-42.3c13.5-15.4,20.3-33.5,26.5-52.7,1.8-5.7,3.7-11.3,5.6-17,.4-1.1.7-2.2,1.1-3.4,7.7-23.4,16.3-46.4,27.2-68.6.3-.7.7-1.4,1.1-2.2,1.6-3.3,3.3-6.6,4.9-9.8-.7-.1-1.5-.2-2.2-.3-4.8-1.2-8.1-4.5-11.8-7.7-.6-.5-1.2-1-1.8-1.5-34.6-31.6-37.4-91.5-39.6-134.6-.2-3.6-.4-7.2-.6-10.8-.6-11.4-1.1-22.8-1.1-34.2,0-1,0-1.9,0-2.9,0-12.3,1.4-25.3,8.4-35.7q1.8-1.2,5.1-1.2Z"/>
  <path class="st8" d="M762.1,352.6c.9,0,1.7,0,2.6,0,14.2,0,27.5,1.5,41.4,4.1,8.8,1.6,17.7,2.6,26.6,3.6.7,0,1.5.2,2.3.3,3.5.4,6.9.8,10.4,1.1,2,.2,4.1.4,6.1.7,7.8.9,15.6.9,23.4.9,2.5,0,4.9,0,7.4,0,8.2,0,16.3-.2,24.5-1.1.7,0,1.5-.2,2.2-.2,3.9-.5,12.3-.2,16-1.6,7.6-2.6,9.5.9,17,3.1,6.8,1.9,14.5,2.6,21.1.4-10.7,27.4-30.9,47.1-58,59-3.7,1.6-7.5,2.9-11.2,4.3-1.1.4-2.2.8-3.4,1.3-11.3,4.1-23,6.5-34.8,9.1-2.3.5-4.6,1-6.8,1.6-8.3,1.9-16.7,3-25.1,3.9q-7.1.6-12.9,4.2-.4,1.9-.6,4.1c0,.8-.1,1.6-.2,2.4-.3,3.6-.5,7.2-.7,10.8,0,1.6-.2,3.2-.2,4.8q0,1.2-.1,2.5c-2.2,45.9-8.3,88.9-28,130.9-.4.8-.8,1.7-1.2,2.5q-.5,1-1,2c-2.5,5.3-3.9,10.1-4.8,15.9-.1.8-.3,1.7-.4,2.6-.4,2.8-.9,5.6-1.3,8.3-.1,1-.3,1.9-.4,2.9-2.6,16.7-4.4,33.5-6,50.4-.1,1.1-.2,2.2-.3,3.3-1.9,20.7-3,41.2-3,62,0,.9,0,1.8,0,2.7,0,46.2,1.9,110.3,23.2,152.9,2.8.4,5.5.7,8.2.9,14.7,1.4,28.8,5.4,39.2,16.5,5.3,6.5,8.3,12.8,8,21.4-.7,3.6-2.6,5.2-5.5,7.2-3.4,1.1-6.1,1.1-9.8,1.2q-1,0-2.1,0c-2.3,0-4.5,0-6.8,0q-1.2,0-2.4,0c-4.1,0-8.2,0-12.4,0-4.2,0-8.5,0-12.7,0-3.3,0-6.6,0-9.8,0-1.6,0-3.1,0-4.7,0q-19.9.2-27.3-6.1c-3.6-3.8-5.8-8.3-7.8-13.2-.3-.8-.7-1.5-1-2.3-1.1-2.6-2.2-5.2-3.2-7.8-.4-.9-.8-1.8-1.1-2.8-16.7-41.4-29.5-84.4-38.4-128.2-.4-1.9-.8-3.8-1.2-5.7-6.8-33.5-8.9-67.3-9.2-101.3-.6.2-1.2.4-1.7.6q-31.7,10.4-39.3,10.4c1.9-7.6,4.3-14.9,7.4-22.1.4-1,.9-2.1,1.3-3.1,7.2-16.7,16.1-32.6,24.9-48.6,20.6-37.7,37-73.6,36.8-117.2,0-.9,0-1.7,0-2.6,0-13-.5-25.6-3.3-38.3-.2-1-.4-2-.7-3-2.5-11.3-5.4-22.5-8.5-33.6-2-8-3.2-15.5-3.2-23.8q0-1.4,0-2.8c.1-6.6.8-12.6,3.3-18.8.3-.8.6-1.6.9-2.4,4.7-11.6,12.7-19.9,24.1-24.9,11.4-4.8,22.1-5.1,34.2-5.1Z"/>
  <path class="st6" d="M774,615h1c.4,6.9-1,13.4-2.2,20.2-6.8,38.5-10,78.1-9.9,117.2,0,.9,0,1.8,0,2.7,0,46.2,1.9,110.3,23.2,152.9,2.8.4,5.5.7,8.2.9,14.7,1.4,28.8,5.4,39.2,16.5,5.3,6.5,8.3,12.8,8,21.4-.7,3.6-2.6,5.2-5.5,7.2-3.4,1.1-6.1,1.1-9.8,1.2-.7,0-1.4,0-2.1,0-2.3,0-4.5,0-6.8,0q-1.2,0-2.4,0c-4.1,0-8.2,0-12.4,0-4.2,0-8.5,0-12.7,0-3.3,0-6.6,0-9.8,0-1.6,0-3.1,0-4.7,0q-19.9.2-27.3-6.1c-3.6-3.8-5.8-8.3-7.8-13.2q-.5-1.2-1-2.3c-1.1-2.6-2.2-5.2-3.2-7.8-.4-.9-.8-1.8-1.1-2.8-16.7-41.4-29.5-84.4-38.4-128.2-.4-1.9-.8-3.8-1.2-5.7-6.9-33.9-9-67.8-8.2-102.3,1.1-.5,2.1-1.1,3.2-1.6,31.6-15.7,67.3-37.5,83.8-70.4Z"/>
  <path class="st8" d="M422,639c33.2-.5,67.1,9.5,99.2,16.7,10.6,2.3,21.2,4.3,31.8,6q1.9.4,4.9,1.4c0,10.1-.1,20.2-.5,30.4,0,1.4,0,2.9-.1,4.3-.1,3.4-.2,6.9-.4,10.3-22.3-1.7-44.4-5-66.4-8.4-2.9-.5-5.8-.9-8.8-1.3-9.8-1.5-18.9-4.3-28.2-7.4-2.7-.9-5.3-1.7-8-2.5-12-3.7-23.8-7.8-35.6-12.3,2-7,4.3-13.9,6.8-20.7,1.9-5.4,3.6-10.8,5.2-16.3Z"/>
  <path class="st8" d="M606,101c5.1,1,6.4,3.9,9.2,8.2,2.8,4.4,5.4,8.9,7.9,13.5.6,1,1.1,2,1.7,3,5.7,10.1,11.2,20.3,16.7,30.6,1.4,2.7,2.9,5.4,4.3,8,10.2,18.9,16.2,37.7,20.5,58.7.2.8.4,1.7.5,2.5.2.8.3,1.6.5,2.4.1.7.3,1.4.4,2.1.3,3.5,0,6.1-2.3,8.9-.6.6-1.2,1.1-1.8,1.7q-1,.9-2,1.9c-.7.6-1.4,1.2-2.1,1.9-.7.6-1.4,1.3-2.1,1.9q-5.1,4.7-8.5,5.8c-23.5-14.1-31.7-48.4-38-73-4.6-18.8-5.3-37.4-5.1-56.6,0-2.1,0-4.2,0-6.3,0-5,0-10.1,0-15.1Z"/>
  <path class="st8" d="M814,102h2c5.7,11.4.6,32-.8,44.5q-.1,1.1-.3,2.3c-1.2,10.5-2.9,20.9-4.9,31.2-.3,1.6-.6,3.2-.9,4.9-3.4,17.4-8.1,34.8-15.1,51.1-5-.6-9.2-2.2-13.7-4.3-6.3-2.9-12.7-5.4-19.3-7.7-.3-6.1.5-11,2.3-16.8.3-.9.5-1.7.8-2.6,10-31.4,26-78.8,49.9-102.7Z"/>
  <path class="st9" d="M566,632c3,1,4.1,1.5,6,4-.2,3.1-.5,6-1,9-.2,1.9-.5,3.7-.7,5.6-.1,1-.2,2-.4,3.1-10.1,86.1-3,178.2,29,277.4,1.6,4.5,3.1,9.1,4.6,13.6.5,1.4,1,2.9,1.4,4.3.3,1,.7,2,1,3-4.7-.7-7.7-2.5-11-6-2.9-4-4.8-7.6-6.2-12.3-.4-1.3-.8-2.5-1.2-3.8-.4-1.4-.8-2.8-1.2-4.1-.2-.7-.4-1.4-.6-2.2-9.8-33-16.7-66.5-21.7-100.6-.2-1.2-.4-2.4-.5-3.6-2.7-19-4-38.1-5.3-57.2-.1-2-.3-4-.5-6-1-13.7-.9-27.5-.9-41.3,0-2.9,0-5.8,0-8.7q-.3-64,7.3-72.6c.6-.5,1.3-1.1,1.9-1.6Z"/>
  <path class="st3" d="M417,581q3,1,3.9,2.6c6.3,20.1,6.2,42.2.1,62.4q-.3,1.1-.7,2.3c-1.4,4.6-2.9,9.1-4.6,13.6-.7,1.9-1.3,3.8-2,5.8-4.4,12.2-11.6,22.6-18.8,33.3-.5.7-.9,1.4-1.4,2.1-7.5,11-15.7,21.7-24.8,31.4-.5.5-1,1.1-1.5,1.6-1.4,1.4-2.8,2.8-4.2,4.3-2.3,3-2.8,4.9-3,8.6-.7-1-1.3-2-2-3-.9.9-1.7,1.9-2.6,2.8-5.1,5.1-10.9,9.4-16.6,13.8-1.6,1.2-3.2,2.5-4.7,3.7-7.6,5.9-15.6,10.6-23.9,15.4-4.1,2.4-8.2,4.9-12.3,7.4-3.2,2-6.4,3.6-9.9,4.9,6.6-6.8,13.7-12.6,21.4-18.1,8.5-6.1,16.6-12.5,24.6-19.3,1.9-1.6,3.8-3.2,5.7-4.7,12.2-10.2,23.6-21.3,33.3-33.9.4-.6.9-1.1,1.3-1.7,16.9-21.4,30.8-44.8,37.7-71.3.3-.9.5-1.9.8-2.8,2.2-8.6,2.6-16.8,2.5-25.7q0-2,0-4c0-7.4-.6-14.5-2-21.7-.3-2.9-.3-5,.7-7.8,1-.7,2-1.3,3-2Z"/>
  <path class="st8" d="M925,320c9.6.9,19.2,2.1,28.7,3.9q1.2.2,2.5.5c5.3,1.1,9.3,2.7,13.8,5.7,3.2,6.4-.5,15.6-2.6,22-.2.7-.4,1.5-.7,2.2-1.4,4.2-2.2,5.4-6.1,7.7-7.3,2.1-13.8,1.6-20.6-2-8.9-5.4-14.3-13-17-23q-.3-3.5-.2-7.2c0-1.2,0-2.4,0-3.7q.3-3.1,2.3-6.1Z"/>
  <path class="st2" d="M796,377c2.2,2,3.9,3.8,5.8,6.1,9.1,10.5,20.1,17.1,34.2,18.9,9,.5,16.8.2,25.4-2.3,3.4-.9,6.1-1,9.6-.7q1,1,1.6,3.8t-2,4.7c-7.9,5.2-16,7.1-25.3,7-.9,0-1.8,0-2.7,0-6.9-.2-13-1-19.5-3.3-1.1-.4-2.3-.8-3.4-1.2-12.4-4.9-23.9-12.7-31.6-23.8-.9-2.6-1.1-4.2-1-7,3.5-2.4,4.8-2.7,9-2Z"/>
  <path class="st1" d="M278,558c-2.5,13.7-8.8,26.7-14,39.6-2.1,5.1-4,10.3-5.7,15.6-.2.7-.4,1.3-.7,2-.5,1.6-1.1,3.2-1.6,4.8-1.4-3.7-.6-6,.8-9.7,1.6-5,2.8-9.8,3.6-15,1.3-7.8,2.9-15.5,4.6-23.2.2-1.1.5-2.3.7-3.5.2-1.1.5-2.2.7-3.3.2-1,.4-1.9.6-2.9,2.2-5.6,5.5-5.8,11-4.5Z"/>
  <path class="st7" d="M606,101c4.6,1.2,5.1,1.9,7.7,5.8.6.9,1.2,1.7,1.8,2.6,1.5,2.6,2.1,4.7,2.5,7.6-3.4-4.1-6.2-8.4-9-13-2,2-1.3,5.6-1.3,8.3,0,.7,0,1.5,0,2.2,0,2.3-.1,4.7-.2,7,0,1.6,0,3.2-.1,4.8-.1,3.9-.2,7.8-.3,11.7h-1v-37Z"/>
  <path class="st0" d="M447,752l1,2c-1.3,2.6-2.7,5-4.2,7.5-.4.7-.8,1.4-1.2,2.1-2,3.3-3.2,5.2-6.5,7.4,1.1-3.1,2.3-5.4,4.1-8.1q2.2-2.9,1.9-6.9c1-.3,2-.7,3-1,.7-1,1.3-2,2-3Z"/>
  <path class="st11" d="M263,597c1,3,1,5.1.2,8.2q-.2,1-.5,2.1t-.8,1.7c-1,.3-2,.7-3,1,.5-1.8,1-3.6,1.4-5.4.3-1,.5-2,.8-3q.8-2.6,1.8-4.6Z"/>
  <path class="st4" d="M720,362v3h-2c-.2.6-.5,1.2-.7,1.9-1.7,2.7-3.3,3.2-6.3,4.1.9-1.1,1.9-2.3,2.8-3.4.5-.6,1-1.3,1.6-1.9q1.6-1.7,4.6-3.7Z"/>
  <path class="st8" d="M121.5,764.7c-11.9-10.6-16.6-17.5-31.4-22.7-13.3,18.8-31.3,38.8-48.8,52.7q-2.2,1.7-4.1,3.4c-1.7,3.2-2,5.5-.9,9,3,5.9,8.8,9.4,14.7,11.8,1.5.6,3.1,1.1,4.6,1.7q1.7,1.7,3.1,2c2.9.2,5.7.4,8.6.7,7.3.9,14.3,1.7,21.7,1.5.4,0,.9,0,1.3,0,.4,0,.7-.1,1.1,0,.6,0,1.2.1,1.7.2h0c4.3-.6,8.6-1.1,12.9-2,.6-.1,1.2-.3,1.8-.4,5.1-1.1,9.9-2.6,14.8-4.6,1.8-.8,3.4-1.5,5.2-2.1,1.4-.9,2.9-1.7,4.6-2.3v-.5c.7-.5,1.3-.9,2-1.4,4-2.6,9.6-9.1,12.9-12.6"/>
  <path class="st5" d="M772.2,277.8c4.4,3.7,8.2,7.6,9.2,13.4q-.2,3.6-1.2,5.7t-4.8,1.1c-4.1-1.5-5-3.5-6.9-7.3q-1.2-2.2-4.2-3.9c-4.3-.3-7.4-.4-11,2q-1.3,1.9-2.2,4.1-1.8,3.9-2.8,4.9-2.4.2-5,0c-2.4-2.4-2.3-3-2.4-6.2.1-4.6,1.3-7.2,4.4-10.8,7.6-7.2,17.8-7.9,27-3Z"/>
  <path class="st10" d="M554.4,446"/>
  <path class="st8" d="M637.8,434.7c-15.4,4.1-37.7,10.7-51.8,3.8-.4-.2-.7-.6-.8-1.1l-1.1-7.9c-.1-.7-.8-1.3-1.5-1.2-1.7.1-3-10-5.2-8.1-2.7,2.6-8.7,8.8-11.8,10.8l-23,12.2c-39.6,17.9-67.9,22.5-110.7,24.6-7.7.4-19.6.9-27.3,1.3-.9,0-7.7.9-8.5,1-10.1.5-20.5,1.8-30.6,2.6-1.1,0-8.8,1.2-9.9,1.3,0,0-.2,0-.3,0-.6.4-1.4.5-2.3.7-6.3,1.4-11.4,2.6-16,4.1-4,1.3-7.1,1.8-11,3.2-4.3,1.6-7.4,2.2-11.8,3.6-1.8.6-4.9,1.9-7,2.7,0,.5.1,1.3.1,1.7v.3c0,.5.3.9.7,1.1l2.1,1.3c8.6,4.9,16.5,11.1,24.3,17.2,3.3,2.6,6.6,5.3,10.1,7.8,6.2,4.5,12,9.3,17.8,14.3,3.1,2.7,6.2,5.3,9.5,7.9,2.3,1.8,4.5,3.6,6.8,5.5,11.1,9.4,22.3,18.5,34.3,26.7,1.1.8,2.2,1.5,3.3,2.2,29.2,19.8,64.1,12.6,99.9,9.9.6,0,10.3-9.8,14.4-13.7,1.2-5.8,4.5-11.4,8.7-15.2,0,0,0,0,0,0,0,0,.1-.2.2-.3,4.5-6.3,9.3-12.4,14.4-18.3,2.4-2.8,4.8-5.5,7-8.3,3.8-4.9,7.9-9.5,12.2-14.1,1.3-1.4,2.6-2.8,3.9-4.3,3.3-3.6,6.6-7.2,10-10.8,10.1-10.9,20.3-21.8,29.8-33.2,1.2-1.5,2.4-3,3.7-4.4,6.9-8,13.6-16,19.2-24.9.7-1.1-.3-2.5-1.6-2.1Z"/>
  <path class="st6" d="M537.4,485.8l-.9,1.6s0,0,0,0c-1.7,3.4-2.4,5.8-1.6,9.5s.2.5.4.7c2.8,3,5.4,4.3,9.5,5.4,2.5.7,4.8,1.4,7.1,2.4s1.2,2,.1,2.6c-7.8,4.2-18.4,3.7-27,4.1-1.2,0-2.5.1-3.7.2-17.4.8-17.5.8-23.5-3.7s-.2-.1-.2-.2c-1.1-1.3-1.2-1.4-1.6-3.6s0-.3,0-.5c.2-2.2.3-2.3,1.4-3.8s.2-.2.3-.3c8.6-6.7,18.3-10.2,28.5-13.9.9-.3,1.7-.6,2.6-.9.8-.3,1.6-.6,2.5-.9.7-.3,1.5-.5,2.2-.8,1.5-.3,1.8-.4,3.2,0s1.4,1.3.9,2.1Z"/>
  <path class="st6" d="M418.9,496.2c1.4,0,2.9,0,4.3-.1,2.5,0,4.9-.2,7.4-.2s1.9,1.4,1.2,2.3h0c-2.1,2.6-2.1,2.6-2.3,5.6s0,.3,0,.5c1,3.9,2.4,5.1,5.7,7.4s.2.1.3.1c2.2,1,4.4,1.9,6.6,2.7s1.3,2,.2,2.6c-1.7.9-3.4.7-5.9.9-.8,0-1.7,0-2.5,0q-1.3,0-2.6,0c-14.3.4-30.5-.8-42.7-9.1-.2-.2-.4-.4-.5-.7-.7-2-.8-2.3-1-3.8s.1-.9.5-1.2c8.5-7.2,20.7-6.8,31.4-7.1Z"/>
  <path class="st6" d="M484.9,536.5c1.1,0,1.8,1.2,1.3,2.2h0c-1.6,2.9-1.7,2.9-1.2,6.3s0,.2,0,.3c1.4,4,2.7,4.7,6.2,7s.1,0,.2,0c2.1,1,4.2,2,6.4,2.9,1.1.5,2.2.9,3.3,1.4l.4.2c1,.4,1.2,1.9.3,2.5-3.8,2.6-8.8,2.2-13.6,2.4-13.4.4-26.5-2.2-37.6-10-.1,0-.2-.2-.3-.3-1-1.3-1.1-1.4-1.1-3.1s0-.4.1-.6c1.9-4.4,6.7-6.3,10.9-8.1s0,0,.1,0c8.1-2.7,16.3-3,24.7-3.1Z"/>
</svg>