<?xml version="1.0" encoding="UTF-8"?>
<svg id="Layer_1" xmlns="http://www.w3.org/2000/svg" version="1.1" viewBox="0 0 1024 1536">
  <!-- Generator: Adobe Illustrator 29.0.1, SVG Export Plug-In . SVG Version: 2.1.0 Build 192)  -->
  <defs>
    <style>
      .st0 {
        fill: #fe1f01;
      }

      .st1 {
        fill: #fff;
      }

      .st2 {
        fill: #feb0a4;
      }

      .st3 {
        fill: #fefaf9;
      }

      .st4 {
        fill: #fec3b7;
      }

      .st5 {
        fill: #fefafa;
      }

      .st6 {
        fill: #fefcfc;
      }
    </style>
  </defs>
  <ellipse class="st1" cx="470.3" cy="903.4" rx="146.2" ry="121"/>
  <path class="st0" d="M633.1,149.4c16.9,15.1,21.9,38.8,23.9,60.6,1.4,30.4-4.9,57.8-18,85,.6.1,1.2.2,1.9.3,33.7,7.2,61.3,30.1,86.6,52.2,24.6,21.4,50.7,40.9,78.6,57.9,11.4,6.9,20.3,13.2,23.9,26.6,2.4,12.8-5.3,26.8-12.1,37.2-21.7,30-54.7,40.8-89.9,46.8-8.6,1.3-17.3,2.2-26,3q-1.4.1-2.7.3c-7.3.8-14.6.8-22,.8-1.2,0-2.4,0-3.6,0-2.9,0-5.8,0-8.7,0,1.5,4.5,3,8.9,4.4,13.4.5,1.6,1.1,3.2,1.6,4.9,3,9,6,17.9,9.1,26.8,7.5,21.4,14.7,43,19.8,65.1q.2,1,.5,2c.7,3.2,1.5,6.4,2.1,9.6q1.7,8.3,7.5,14.2c3.5,2,7,3.8,10.6,5.6,16.1,8.2,31.6,16.9,45.4,28.4.8.7,1.6,1.3,2.5,2,17,14.4,29.7,35.6,31.9,57.9.2,8.4-.2,16.4-6,22.9-5.6,5.1-10.9,6.7-18.4,6.5-8.2-1.1-14.9-6-19.9-12.4-3.2-4.8-6.1-9.8-9-14.7-8.6-14.7-18.8-22.7-34-30.3,0,.6,0,1.1,0,1.7q.6,53.6-3,79.3-.2,1.3-.4,2.7c-.9,6.2-1.9,12.3-4,18.3-2.8,8.2-3,13.1.8,21.1,1.1,2.3,2.3,4.5,3.5,6.8,1.7,3.4,2.8,6.9,3.9,10.5.2.7.4,1.3.6,2,4,13.8,5.8,26.7,5.8,41.1,0,2.2,0,4.5,0,6.7,0,12.4-1.2,24.3-4.5,36.3-.2.8-.4,1.6-.7,2.4-12.6,45-44.1,83-80.1,111.8-3.9,3.1-7.7,6.3-11.6,9.5-4.6,3.8-9.2,7.5-13.8,11.2-.8.6-1.5,1.2-2.3,1.8-1.7,1.4-3.5,2.7-5.2,4.1q-8.6,6.8-12.7,16.6c1.6,8.2,8.7,14.6,14.5,20.2.7.7,1.3,1.3,2,2,4,3.9,8,7.6,12.3,11.3,2.5,2.2,4.9,4.4,7.3,6.6,3.8,3.5,7.6,6.9,11.5,10.2,2.3,2,4.6,4.1,6.8,6.1,3.4,3.1,6.9,6,10.4,8.9,5.8,4.7,11.1,9.7,16.5,14.7,3,2.9,6.2,5.6,9.3,8.3,4.9,4.3,9.7,8.6,14.5,13,3.8,3.4,7.6,6.8,11.5,10.2,13.5,11.8,28.8,27.7,30.2,46.6.2,6.4,0,11.4-3.2,16.9-1.3,1.4-2.6,2.7-4,4q-.3-1.6-.5-3.2c-2.4-14.4-7.2-28.6-19.5-37.8q-3.3-1-6-1c-.7,1.7-1.3,3.3-2,5,.4.5.9,1,1.3,1.5,9.4,10.6,16.9,20.5,16.7,35.3,0,1.2,0,2.3,0,3.5q0,1.3,0,2.7c-3.8,1.3-7.3,1.1-11.2,1.1-.7,0-1.5,0-2.3,0-1.8,0-3.7,0-5.5,0,0-1.2-.2-2.4-.3-3.7-1.1-13.9-3.8-25.5-11.6-37.4q-1.1-1.9-1.1-3.9c-2.3-.4-4.7-.7-7-1q-1.3,1.1-1.3,3.6c.4,4.4,2,7.3,4.1,11.1,5.1,9.7,7.8,18.2,7.2,29.3-16.8-2.5-27.5-18.4-37-31-9.2-11.9-19.2-23.2-29.5-34.3-2.3-2.5-4.5-5-6.8-7.5-12.4-13.8-25.3-27-38.4-40-1.9-1.9-3.8-3.8-5.6-5.6-2.8-2.8-5.5-5.5-8.3-8.3-.8-.8-1.7-1.7-2.5-2.5-4.3-4.3-8.6-8.4-13.2-12.3-1.9-1.7-3.8-3.4-5.6-5.1q-1-.9-2-1.8t-2-1.9c-4.5-4.2-9-8.4-13.7-12.5-5.6-5-11.7-10.7-12.7-18.4-.6-12.3,6.3-20.8,12.9-30.5,12.7-18.7,28.6-44.4,32.4-67.2-.9.3-1.8.6-2.7,1-8.5,2.9-16.9,4.9-25.7,6.4-1,.2-2,.3-3,.5-6.3,1-12.3,1.4-18.6,1.2.4-.7.7-1.3,1.1-2,16.1-29.3,25.7-55.6,26.9-89q1.4.6,2.8,1.2c20.2,8.5,39.3,10.7,60.2,2.6,16.9-7.5,31-19,41.9-33.8.8-1,1.6-2.1,2.4-3.2,34.3-45.8,44.8-105.2,44.8-161.3,0-.7,0-1.5,0-2.2,0-39.3-1.4-91.1-30-121.2-10.6-10.1-23.6-13.7-37.9-13.4-17.4,1.3-30.9,10.8-43.3,22.2-.8.7-1.6,1.5-2.5,2.2-20.1,19.2-33.6,46-45.5,70.8-5.7.5-9.4,0-14.2-3.2-4.4-4.3-7.7-11.4-7.9-17.6,0-1.1,0-2.2,0-3.3,0-1.2,0-2.4,0-3.6,0-2.5,0-5.1.1-7.6,0-1.2,0-2.4,0-3.6,0-1.1,0-2.2,0-3.3q0-2.8-2.2-4.7-2.6-.2-5,0c-2.6,14.3-4.9,30.5,2,44q2.2,3,5,5c.8.7,1.7,1.4,2.6,2.1,6.9,3.8,14.5,4.8,22.2,5.8,29.3,4.1,56.1,10.9,75.3,35,9.7,13.9,14.5,28,13,45-1.5,6.1-5.1,9.3-10.1,12.9-5.9,3.5-13.3,2.7-19.9,2.1-10.6-3-17-13.1-22.2-22.1-.9-1.7-1.8-3.3-2.7-5-3.7-6.8-8-12.4-15.4-15-3.9-.9-7.7-1.5-11.7-2-1.5-.2-3.1-.4-4.6-.6q-1.2-.1-2.4-.3-65.9-8.3-85-31.4c-9.6-13-12.5-27.1-14.4-42.9-.7-2.9-1.3-4-3.6-5.6-2.1.3-3.5.5-5,2-1.5,19.6,4,37.9,16,53.6,17.8,20.6,43.9,27.1,70,30.4-.1.7-.3,1.4-.4,2.1-.7,3.2-1.3,6.4-1.9,9.6-.2,1.1-.4,2.2-.7,3.3-4.5,22.2-8.4,46.5-3,68.9h-2q-1.3-1.4-2.8-3.3c-17.1-20-45.5-36.1-71.9-38.6-5.7-.2-11.5-.1-17.2,0-.3,1.7-.7,3.3-1,5,3,2,4,2.3,7.3,2.7.9.1,1.7.2,2.6.3.9.1,1.8.2,2.8.3,30.5,4,59.3,20.3,78.3,44.7,12.1,16.4,21.4,34.1,26,54,.2.8.4,1.6.6,2.4,1.6,7.9,1.8,15.7,1.8,23.8q0,1,0,2.1c0,10.2-.5,19.9-3.3,29.7-.3,1.2-.7,2.4-1,3.7-9.1,29.5-27.8,56.2-49,78.3-1.2,1.4-2.5,2.8-3.7,4.2-5.9,6.8-12.5,12.9-19.3,18.8-1.1.9-2.2,1.9-3.3,2.8-6,5.2-12.1,10.3-18.3,15.2-4.5,3.6-9,7.3-13.4,10.9-.7.6-1.5,1.2-2.3,1.8-6.4,5.3-11.9,11.7-13.2,20.2.3,14,17.2,28.8,25.8,38.9,2.4,2.9,4.8,5.8,7.2,8.7,3.8,4.7,7.9,9.2,12,13.6,3.1,3.5,6.1,7.1,9,10.7,2.9,3.5,5.8,6.9,8.8,10.3q.8,1,1.7,1.9c1.1,1.3,2.2,2.6,3.4,3.9,6.9,7.9,13.7,15.9,20.2,24,2.4,2.8,4.8,5.6,7.2,8.4,13,14.8,27.4,32.6,26.5,53.5-.9,6.4-3.2,11-8.3,15.1-6.4,3-13.1,2.9-19.7.6-10-4.4-19-11.6-26.3-19.6-.8-.8-1.6-1.6-2.4-2.4-7.1-7.1-13.6-14.6-19.6-22.6-5.9-7.6-12.1-14.9-18.4-22.2-2-2.3-4-4.7-6-7-3.6-4.2-7.2-8.4-10.9-12.6-1.1-1.3-2.2-2.6-3.4-3.9-.6-.6-1.1-1.3-1.7-1.9-3.1-3.6-6.2-7.2-9.1-11-4-5-8.3-9.7-12.7-14.3-2.7-2.8-5.3-5.7-7.8-8.7-4.9-5.7-10.3-10.9-15.6-16.2-1.8-1.8-3.6-3.6-5.4-5.4-5.3-5.3-10.6-10.5-16.3-15.4q-16.4-14-18.1-24.1c-.6-11.1,5.3-18.4,12-26.6,15.3-19.1,29.9-42.7,35.5-66.7-.6-.2-1.2-.3-1.8-.5-6.6-1.8-12.4-4.4-18.4-7.6-.9-.5-1.8-1-2.8-1.5-11.3-6.1-21.1-13.3-30.5-22.2-2.2-2.1-4.4-4-6.7-5.9-6.3-5.5-11.3-11.9-16.3-18.6q-1.4-1.9-3.5-2.8c-.3.6-.5,1.2-.8,1.8-1.3,2.4-2.6,3.9-4.5,5.8-.7.7-1.4,1.3-2.1,2-.7.7-1.5,1.4-2.2,2.2q-1.1,1.1-2.3,2.3c-2.4,2.4-4.9,4.8-7.3,7.2-2.4,2.4-4.8,4.8-7.2,7.2-1.5,1.5-3,3-4.5,4.4-4.6,4.5-8.9,9.2-13.1,14.1-.6.7-1.1,1.3-1.7,2-27.4,32.3-51.4,69.5-58.3,112q-.3,1.3-.6,2.7c-3.4,25,1.4,52.2,16.4,72.9,2,2.5,4,5,6.1,7.4.6.8,1.2,1.5,1.8,2.3,12.3,14.7,29.9,24,47,32,.8.4,1.6.8,2.5,1.2,17.6,7.9,36.8,12.1,55.5,16.7,20.1,5.1,40.5,10.3,59.1,19.7,1,.5,2.1,1,3.1,1.5,11.8,5.9,23.1,12.2,32.7,21.5q2.3,2.2,5.1,4.5c12.8,10.6,22.7,28,24.3,44.4.3,7.9-1.1,14.7-6,21.1-4.4,4.7-9.4,6.2-15.7,6.6-9.9-.5-16.3-5.5-23.5-11.8-7.3-6.3-15.4-11.5-24-15.8-.6-.3-1.2-.6-1.8-.9-11.8-5.7-24-9.9-36.5-13.5-1.4-.4-2.9-.8-4.3-1.3-11.4-3.3-22.8-6.4-34.2-9.5-61.7-16.6-120.3-42.4-153.7-100-8.3-15-13.3-30.9-16.5-47.6-.1-.7-.3-1.4-.4-2.1-4.6-25.2-1-51.7,6.4-75.9.2-.7.4-1.5.7-2.2,3.7-12.4,8.7-24.1,14.3-35.8.3-.7.7-1.5,1.1-2.2,11.2-22.9,26.6-44.2,43.9-62.8,1.1-1.3,2.2-2.5,3.3-3.8,5.1-5.8,10.4-11.5,15.7-17.2.6-.7,1.2-1.3,1.9-2,7.7-8.2,15.5-16.4,23.5-24.3,3.4-3.4,6.7-6.9,9.8-10.6,2-2.3,4.1-4.6,6.2-6.8,1.6-1.7,3.1-3.4,4.7-5.1,1.8-1.9,3.4-3.5,5.5-5.2,2.5-2.3,3.6-3.6,4.5-6.9-.6-5.1-2.4-10-4-14.9-2.2-6.7-3.8-13.4-5.2-20.3-.2-1.1-.5-2.2-.7-3.3-3.5-16.4-4.4-32.9-4.4-49.6,0-.9,0-1.8,0-2.7,0-23.2,3.4-45.1,10.4-67.3.3-.8.5-1.6.8-2.5,12.1-38.4,32.3-74.5,54.9-107.6,1.5-2.2,2.9-4.3,4.4-6.5,6.5-9.6,13.3-19,20.3-28.3,1.8-2.3,3.5-4.6,5.2-7,7.1-9.6,14.5-19,22.1-28.2,3.5-4.2,6.9-8.5,10.2-12.8,2.3-2.9,4.6-5.9,7-8.8,7.5-9.2,14.5-18.6,21.1-28.4.5-.7,1-1.5,1.5-2.3,20.8-31.1,31.5-66,39.5-102.3,7.8-35.4,19.7-67.9,41-97.5-.6,0-1.3-.1-2-.2-4.2-1.1-7.7-3.1-11.5-5.2q-1.2-.7-2.4-1.4c-12-6.9-22.1-15.7-32.1-25.2-.7-.6-1.3-1.2-2-1.9-22.6-21.4-33.4-56.9-34.4-87.2,0-2.9,0-5.7-.1-8.6,0-.7,0-1.4,0-2.1-.1-9.1,0-19,6.2-26.2,4.4-4.1,8.8-5.7,14.7-6.4,22.2.7,40.6,19.2,55.6,33.4.6.5,1.1,1.1,1.7,1.6,8.6,8.2,16.2,16.8,23.3,26.4.9,1.1,1.7,2.2,2.6,3.4,14.4,19.2,23.9,41,31.4,63.6.9-.3,1.9-.6,2.8-1,7.8-2.5,15.5-4.7,23.5-6.4.8-.2,1.6-.3,2.5-.5,3.1-.6,6-1.2,9.2-1.2-.3-1-.7-2-1-3-.3-5.1-.2-10.3-.2-15.4,0-.7,0-1.5,0-2.3,0-12,.7-23.5,3.3-35.3.2-.8.3-1.7.5-2.5,5.7-28.3,17.7-60.3,39.5-80.5,5.1-3.2,10.7-3,16.1-.6Z"/>
  <path class="st2" d="M657.5,609c21.7,20.2,26.6,53.9,29.5,82q.2,1.4.3,2.8c2.9,27.3,2.6,54.9-.3,82.2q-.1,1.4-.3,2.8c-2.4,23.9-7.7,47.9-16.7,70.2-.3.8-.6,1.5-.9,2.3-14.2,34.7-36,67.4-71.1,83.1-16.7,6.5-33.1,5.9-49.9.6q-1.7-.3-3.5-.7c-4-1.2-5.8-2-8.5-5.3-1.9-6.1-2.3-12.6-3-18.9-2.7-22.4-13.5-43.5-26.9-61.3-6.2-8.5-6.4-18.6-6.3-28.8,0-1,0-2,0-3,.3-18.1,1.1-41.7,9.2-58-.7,0-1.4,0-2.1,0-21.7-1-44.2-7.8-60.9-22q-.9-.8-1.9-1.6c-13.1-11.8-21.5-31.4-22.4-48.7,0-1.5,0-2.9,0-4.4,0-.7,0-1.4,0-2.1,0-2.9.1-4.8,1.8-7.2q1.6-1,4.1-1.1t4.1,3.5c1.8,4.5,2.3,8.8,2.8,13.7,2,15.5,8,30.9,20.6,40.9,8.4,6,17.1,10.1,27,13,.7.2,1.4.4,2.1.6,15,4.2,30.4,6.2,45.8,8.3q24.6,3.3,32.2,12.4c2.4,3.4,4.3,7,6.3,10.6,5,9.2,10.9,18.9,21.6,22.1,7.3.9,15,1.3,21.4-2.7,3.7-3.1,6.1-6.8,7.6-11.3,1.1-18-4.2-33.7-15.3-47.9-19.9-22.6-49.1-28.7-77.9-32.1-8.8-1.1-16.6-3.4-22.8-10-4.7-7.4-6.4-15.1-6.2-23.7,0-.8,0-1.6,0-2.4q.3-16.5,3.7-20.8,1.6-1.2,3.6-1,1.9.8,3.9,2.8.1,2.5,0,5.7c0,1.2,0,2.3,0,3.5,0,2.4-.2,4.8-.3,7.3-.2,8.4,1,15.3,5.3,22.6,3.9,3.7,6.9,5.1,12.3,5.1,1.2,0,2.5,0,3.7-.1.5-1,.9-1.9,1.4-2.9,1.8-3.6,3.6-7.2,5.4-10.8.7-1.5,1.5-2.9,2.2-4.4,8.8-17.7,19.6-34.4,33-48.9.8-.9,1.6-1.8,2.4-2.7,22.5-23.7,56.1-36,84.1-13.3Z"/>
  <path class="st6" d="M810.2,419.6c4.5,3.9,6.5,7.1,7.3,13-.8,5.5-3.5,8.8-7.6,12.3q-2.9,2.1-4.9,2.1c0,1.1.2,2.1.2,3.2,0,10.6-5.2,20.4-12.3,27.9-9.3,8.8-18.6,11.2-31.3,11.1-8-.6-14.4-3.4-20.3-8.7-3.4-4-3.7-7.4-3.3-12.6q2-2,4.6-2.6c3.9.7,4.6,1.6,7.2,4.4,4.9,5.2,9.3,7.2,16.4,7.6,7.4-.3,14.4-2.6,19.6-8,4.7-6,7.9-13.7,7.1-21.4q-1-.5-2-.9c-5.9-2.8-9.9-5.1-13-11.1-.4-4.5-.4-7.1,1.4-11.2,7.3-7.8,21.1-10,30.7-5.2Z"/>
  <path class="st3" d="M504.1,645.2q1.9.8,3.9,2.8.1,2.5,0,5.7c0,1.2,0,2.3,0,3.5,0,2.4-.2,4.8-.3,7.3-.2,8.4.8,15.4,5.3,22.6,5.1,5.3,11.9,6,18.9,6.9,28.6,4.2,61.6,10.7,80.1,35.1,8.2,12.4,13.1,24.8,13.3,39.7,0,.8,0,1.6,0,2.4,0,8.3-2.9,13.7-8.4,19.8q0-3,1-5.2c3.8-10.4.6-22.9-3.6-32.6-9.2-19.9-23.9-33.2-44.4-40.9-14.2-4.9-29.3-7.5-44.1-9.2-8.8-1.1-16.6-3.4-22.8-10-4.7-7.4-6.4-15.1-6.2-23.7,0-.8,0-1.6,0-2.4q.3-16.5,3.7-20.8,1.6-1.2,3.6-1Z"/>
  <path class="st3" d="M427.5,671.9q2.5,1.1,4.1,3.5c1.8,4.5,2.3,8.8,2.8,13.7,2,15.5,8,30.9,20.6,40.9,8.4,6,17.1,10.1,27,13,.7.2,1.4.4,2.1.6,15,4.2,30.4,6.2,45.8,8.3,5,.7,9.9,1.4,14.9,2.1.9.1,1.8.3,2.8.4,6.1,1.4,10.3,5,14.4,9.5-.3.7-.7,1.3-1,2l-1-1c-3.1-.4-6.2-.7-9.3-.9-.9,0-1.9-.2-2.8-.3-3-.3-6-.5-9-.8-3-.3-6-.5-9-.8-1.9-.2-3.7-.3-5.6-.5-4.8-.4-9.6-1-14.3-1.7q-.5,1.5-1,3v-4c-.7,0-1.4,0-2.1,0-21.7-1-44.2-7.8-60.9-22-.6-.5-1.3-1-1.9-1.6-13.1-11.8-21.5-31.4-22.4-48.7,0-1.5,0-2.9,0-4.4,0-.7,0-1.4,0-2.1,0-2.9.1-4.8,1.8-7.2q1.6-1,4.1-1.1Z"/>
  <path class="st5" d="M620,369.9c7,3.8,11.1,8.9,14.2,16.2,1.3,4.3,1.7,8.5.8,12.9q-2,2-5.4,2.4t-5.2-2c-2.2-3.6-3.1-7.5-4.3-11.6-1-2.7-1.7-4.1-4.1-5.8q-4.1-.6-8,0c-3.1,2.4-4.8,5.3-6,9,0,1.8,0,3.6.2,5.4q0,5.2-1.7,8.3c-3.4,1.8-5.8,1.1-9.4.2-3.3-7.2-3.1-15-.3-22.4,3-6.5,6.6-10.9,13.2-13.9,5.5-1.8,10.8-1,16.1,1.2Z"/>
  <path class="st4" d="M581,615q2.2.4,4,1c-1.6,1.6-3.1,3.2-4.7,4.8-.9.9-1.7,1.8-2.6,2.7-2.5,2.3-4.7,3.9-7.7,5.5l-3,2c1.7-4.3,4.7-7.1,7.9-10.3.5-.6,1.1-1.1,1.6-1.7q1.6-1.6,4.5-4Z"/>
</svg>